<svg xmlns="http://www.w3.org/2000/svg" width="1000" height="1000" viewBox="0 0 1000 1000"><path d="M750 350H600V50H400v300H250l250 250 250-250zm216.9 326.6c-10.5-11.2-80.55-86.15-100.55-105.7-13.25-12.95-32.2-20.9-52.1-20.9H726.4l153.2 149.7H702.4c-5.1 0-9.7 2.6-12 6.65L649.6 800H350.4l-40.8-93.65c-2.3-4.05-6.95-6.65-12-6.65H120.4L273.55 550h-87.8c-19.85 0-38.8 7.95-52.1 20.9-20 19.6-90.05 94.55-100.55 105.7-24.45 26.05-37.9 46.8-31.5 72.45l28.05 153.7c6.4 25.7 34.55 46.8 62.6 46.8h815.6c28.05 0 56.2-21.1 62.6-46.8l28.05-153.7c6.3-25.65-7.1-46.4-31.6-72.45z"/></svg>