<svg xmlns="http://www.w3.org/2000/svg" width="512" height="512" viewBox="0 0 512 512"><path d="M256.004 6.321C114.635 6.321 0 120.93 0 262.32c0 113.107 73.352 209.066 175.068 242.918 12.793 2.369 17.496-5.555 17.496-12.316 0-6.102-.24-26.271-.348-47.662-71.224 15.488-86.252-30.205-86.252-30.205-11.641-29.588-28.424-37.458-28.424-37.458-23.226-15.889 1.755-15.562 1.755-15.562 25.7 1.805 39.238 26.383 39.238 26.383 22.836 39.135 59.888 27.82 74.502 21.279 2.294-16.543 8.926-27.84 16.253-34.232C152.423 368.994 92.65 347.04 92.65 248.949c0-27.949 10.002-50.787 26.38-68.714-2.658-6.45-11.427-32.486 2.476-67.75 0 0 21.503-6.876 70.42 26.245 20.418-5.674 42.318-8.518 64.077-8.617 21.751.099 43.668 2.943 64.128 8.617 48.867-33.122 70.328-26.245 70.328-26.245 13.936 35.264 5.175 61.3 2.518 67.75 16.41 17.928 26.347 40.766 26.347 68.714 0 98.327-59.889 119.975-116.895 126.312 9.182 7.945 17.362 23.523 17.362 47.406 0 34.254-.298 61.822-.298 70.254 0 6.814 4.611 14.797 17.586 12.283C438.74 471.316 512 375.391 512 262.32 512 120.93 397.383 6.321 256.004 6.321z"/></svg>