<svg xmlns="http://www.w3.org/2000/svg" width="1000" height="1000" viewBox="0 0 1000 1000"><path d="M906.406 1000H93.593c-51.594 0-93.594-42-93.594-93.594V93.593c0-51.594 42-93.594 93.594-93.594h812.813c51.594 0 93.594 42 93.594 93.594v812.813C1000 958 958 1000 906.406 1000zM93.594 62.5C76.438 62.5 62.5 76.438 62.5 93.594v812.813c0 17.156 13.938 31.094 31.094 31.094h812.813c17.156 0 31.094-13.938 31.094-31.094V93.594c0-17.156-13.938-31.094-31.094-31.094H93.594zm375.156 0h62.5v875h-62.5zm250 0h62.5v875h-62.5zm-500 0h62.5v875h-62.5zM296.969 625h-93.938c-25.813 0-46.781-21-46.781-46.781V46.781C156.25 20.968 177.219 0 203.031 0H297c25.781 0 46.75 20.969 46.75 46.781v531.438C343.75 604 322.781 625 296.969 625zm-78.219-62.5h62.5v-500h-62.5v500zM796.969 625h-93.938c-25.781 0-46.781-21-46.781-46.781V46.781c0-25.813 21-46.781 46.781-46.781h93.938c25.781 0 46.781 20.969 46.781 46.781v531.438c0 25.781-21 46.781-46.781 46.781zm-78.219-62.5h62.5v-500h-62.5v500zM546.969 625h-93.938c-25.813 0-46.781-21-46.781-46.781V46.781C406.25 20.968 427.219 0 453.031 0h93.938c25.781 0 46.781 20.969 46.781 46.781v531.438c0 25.781-21 46.781-46.781 46.781zm-78.219-62.5h62.5v-500h-62.5v500z"/></svg>