<svg xmlns="http://www.w3.org/2000/svg" width="875" height="1000" viewBox="0 0 875 1000"><path d="M480.969 607.563H439.5v111.938h41.469c67.5 0 70.469-111.938 0-111.938z"/><path d="M718.75 468.75H31.25C14.062 468.75 0 482.813 0 500v312.5c0 17.188 14.063 31.25 31.25 31.25h687.5c17.219 0 31.25-14.063 31.25-31.25V500c0-17.188-14.031-31.25-31.25-31.25zm-433.812 264c0 11.031-7 17.25-15 17.25-9 0-16-6.219-16-17.25v-92.437l-41.469 52.469c-9 11.031-20.219 11.031-28.5 0l-37.219-52.469v92.437c0 11.031-8.969 17.25-17.969 17.25-8 0-14.969-6.219-14.969-17.25V592.094c0-13 11-17.281 14.969-17.281 7.219 0 11.5 4.281 15.75 9.031l54.969 74.188 56.969-76.969c8.25-10.219 28.469-6.25 28.469 11.031V732.75zm77.406 2c0 20.75-33 21.25-33 0V592.125c0-20.5 33-21.25 33 0V734.75zM483.219 750H423.75c-8.25 0-17.25-4.531-17.25-15.5V592.594c0-9 9-15.5 17.25-15.5h57.219c114.187 0 111.687 172.906 2.25 172.906zm151.25-15.25c0 20.75-32.969 21.25-32.969 0V592.125c0-20.5 32.969-21.25 32.969 0V734.75z"/><path d="M843.75 237.063L637.937 31.25C619.875 13.125 588.124 0 562.499 0h-343.75c-51.688 0-93.75 42.063-93.75 93.75v312.5c0 17.281 13.969 31.25 31.25 31.25s31.25-13.969 31.25-31.25V93.75c0-17.219 14-31.25 31.25-31.25h281.25c34.531 0 62.5 28 62.5 62.5v117.188c0 38.688 31.688 70.313 70.313 70.313H750c34.531 0 62.5 28 62.5 62.5v531.25c0 17.219-13.969 31.25-31.25 31.25h-562.5c-17.25 0-31.25-14.031-31.25-31.25 0-17.281-13.969-31.25-31.25-31.25S125 888.97 125 906.251c0 51.688 42.063 93.75 93.75 93.75h562.5c51.688 0 93.75-42.063 93.75-93.75v-593.75c0-25.594-13.125-57.344-31.25-75.438z"/></svg>