<!-- Generated by IcoMoon.io -->
<svg version="1.1" xmlns="http://www.w3.org/2000/svg" width="24" height="24" viewBox="0 0 24 24">
<title>midi</title>
<path d="M21.754 24h-19.508c-1.238 0-2.246-1.008-2.246-2.246v-19.508c0-1.238 1.008-2.246 2.246-2.246h19.508c1.238 0 2.246 1.008 2.246 2.246v19.508c0 1.238-1.008 2.246-2.246 2.246zM2.246 1.5c-0.412 0-0.746 0.335-0.746 0.746v19.508c0 0.412 0.335 0.746 0.746 0.746h19.508c0.412 0 0.746-0.335 0.746-0.746v-19.508c0-0.412-0.335-0.746-0.746-0.746h-19.508zM11.25 1.5h1.5v21h-1.5zM17.25 1.5h1.5v21h-1.5zM5.25 1.5h1.5v21h-1.5zM7.127 15h-2.255c-0.619 0-1.123-0.504-1.123-1.123v-12.755c0-0.619 0.503-1.123 1.123-1.123h2.255c0.619 0 1.122 0.503 1.122 1.123v12.755c0 0.619-0.503 1.123-1.123 1.123zM5.25 13.5h1.5v-12h-1.5v12zM19.127 15h-2.255c-0.619 0-1.123-0.504-1.123-1.123v-12.755c0-0.619 0.504-1.123 1.123-1.123h2.255c0.619 0 1.123 0.503 1.123 1.123v12.755c0 0.619-0.504 1.123-1.123 1.123zM17.25 13.5h1.5v-12h-1.5v12zM13.127 15h-2.255c-0.62 0-1.123-0.504-1.123-1.123v-12.755c0-0.619 0.503-1.123 1.123-1.123h2.255c0.619 0 1.123 0.503 1.123 1.123v12.755c0 0.619-0.504 1.123-1.123 1.123zM11.25 13.5h1.5v-12h-1.5v12z"></path>
</svg>
