<svg xmlns="http://www.w3.org/2000/svg" width="24" height="24" viewBox="0 0 24 24"><path d="M21.754 24H2.246A2.25 2.25 0 0 1 0 21.754V2.246A2.25 2.25 0 0 1 2.246 0h19.508A2.25 2.25 0 0 1 24 2.246v19.508A2.25 2.25 0 0 1 21.754 24zM2.246 1.5a.747.747 0 0 0-.746.746v19.508c0 .412.335.746.746.746h19.508a.747.747 0 0 0 .746-.746V2.246a.747.747 0 0 0-.746-.746H2.246zm9.004 0h1.5v21h-1.5zm6 0h1.5v21h-1.5zm-12 0h1.5v21h-1.5zM7.127 15H4.872a1.125 1.125 0 0 1-1.123-1.123V1.122c0-.619.503-1.123 1.123-1.123h2.255c.619 0 1.122.503 1.122 1.123v12.755c0 .619-.503 1.123-1.123 1.123zM5.25 13.5h1.5v-12h-1.5v12zM19.127 15h-2.255a1.125 1.125 0 0 1-1.123-1.123V1.122c0-.619.504-1.123 1.123-1.123h2.255c.619 0 1.123.503 1.123 1.123v12.755c0 .619-.504 1.123-1.123 1.123zm-1.877-1.5h1.5v-12h-1.5v12zM13.127 15h-2.255c-.62 0-1.123-.504-1.123-1.123V1.122c0-.619.503-1.123 1.123-1.123h2.255c.619 0 1.123.503 1.123 1.123v12.755c0 .619-.504 1.123-1.123 1.123zm-1.877-1.5h1.5v-12h-1.5v12z"/></svg>