<svg xmlns="http://www.w3.org/2000/svg" width="1000" height="1000" viewBox="0 0 1000 1000"><path d="M500 676.057c96.244 0 176.057-79.812 176.057-176.057S596.245 323.943 500 323.943 323.943 403.756 323.943 500 403.756 676.057 500 676.057zm373.239-126.761l105.634 82.159c9.39 7.042 11.737 21.127 4.695 32.864L882.63 838.028c-7.042 11.737-18.779 14.085-30.517 9.39L727.7 798.122c-25.821 18.779-53.99 37.559-84.507 49.296l-18.779 131.455C622.066 990.61 612.677 1000 600.939 1000H399.061c-11.737 0-21.127-9.39-23.475-21.127l-18.779-131.455c-30.517-11.737-58.686-28.169-84.507-49.296l-124.413 49.296c-11.737 4.695-23.475 2.348-30.517-9.39L16.432 664.319c-7.042-11.737-4.695-25.821 4.695-32.864l105.634-82.159c-2.348-16.432-2.348-32.864-2.348-49.296s0-32.864 2.348-49.296L21.127 368.545c-9.39-7.042-11.737-21.127-4.695-32.864L117.37 161.972c7.042-11.737 18.779-14.085 30.517-9.39L272.3 201.878c25.821-18.779 53.99-37.559 84.507-49.296l18.779-131.455C377.934 9.39 387.323 0 399.061 0h201.878c11.737 0 21.127 9.39 23.475 21.127l18.779 131.455c30.517 11.737 58.686 28.169 84.507 49.296l124.413-49.296c11.737-4.695 23.475-2.348 30.517 9.39l100.938 173.709c7.042 11.737 4.695 25.821-4.695 32.864l-105.634 82.159c2.348 16.432 2.348 32.864 2.348 49.296s0 32.864-2.348 49.296z"/></svg>