<svg xmlns="http://www.w3.org/2000/svg" width="24" height="24" viewBox="0 0 24 24"><path d="M12 16.225c2.31 0 4.225-1.915 4.225-4.225S14.31 7.775 12 7.775 7.775 9.691 7.775 12 9.691 16.225 12 16.225zm8.958-3.042l2.535 1.972c.225.169.282.507.113.789l-2.423 4.169c-.169.282-.451.338-.732.225l-2.986-1.183c-.62.451-1.296.901-2.028 1.183l-.451 3.155c-.056.282-.282.507-.563.507H9.578c-.282 0-.507-.225-.563-.507l-.451-3.155a7.374 7.374 0 0 1-2.028-1.183L3.55 20.338c-.282.113-.563.056-.732-.225L.395 15.944c-.169-.282-.113-.62.113-.789l2.535-1.972c-.056-.394-.056-.789-.056-1.183s0-.789.056-1.183L.508 8.845c-.225-.169-.282-.507-.113-.789l2.423-4.169c.169-.282.451-.338.732-.225l2.986 1.183c.62-.451 1.296-.901 2.028-1.183L9.015.507C9.071.225 9.297 0 9.578 0h4.845c.282 0 .507.225.563.507l.451 3.155a7.374 7.374 0 0 1 2.028 1.183l2.986-1.183c.282-.113.563-.056.732.225l2.423 4.169c.169.282.113.62-.113.789l-2.535 1.972c.056.394.056.789.056 1.183s0 .789-.056 1.183z"/></svg>