<!-- Generated by IcoMoon.io -->
<svg version="1.1" xmlns="http://www.w3.org/2000/svg" width="24" height="24" viewBox="0 0 24 24">
<title>settings</title>
<path d="M12 16.225c2.31 0 4.225-1.915 4.225-4.225s-1.915-4.225-4.225-4.225-4.225 1.916-4.225 4.225 1.916 4.225 4.225 4.225zM20.958 13.183l2.535 1.972c0.225 0.169 0.282 0.507 0.113 0.789l-2.423 4.169c-0.169 0.282-0.451 0.338-0.732 0.225l-2.986-1.183c-0.62 0.451-1.296 0.901-2.028 1.183l-0.451 3.155c-0.056 0.282-0.282 0.507-0.563 0.507h-4.845c-0.282 0-0.507-0.225-0.563-0.507l-0.451-3.155c-0.732-0.282-1.408-0.676-2.028-1.183l-2.986 1.183c-0.282 0.113-0.563 0.056-0.732-0.225l-2.423-4.169c-0.169-0.282-0.113-0.62 0.113-0.789l2.535-1.972c-0.056-0.394-0.056-0.789-0.056-1.183s0-0.789 0.056-1.183l-2.535-1.972c-0.225-0.169-0.282-0.507-0.113-0.789l2.423-4.169c0.169-0.282 0.451-0.338 0.732-0.225l2.986 1.183c0.62-0.451 1.296-0.901 2.028-1.183l0.451-3.155c0.056-0.282 0.282-0.507 0.563-0.507h4.845c0.282 0 0.507 0.225 0.563 0.507l0.451 3.155c0.732 0.282 1.408 0.676 2.028 1.183l2.986-1.183c0.282-0.113 0.563-0.056 0.732 0.225l2.423 4.169c0.169 0.282 0.113 0.62-0.113 0.789l-2.535 1.972c0.056 0.394 0.056 0.789 0.056 1.183s0 0.789-0.056 1.183z"></path>
</svg>
