<svg xmlns="http://www.w3.org/2000/svg" width="1000" height="1000" viewBox="0 0 1000 1000"><path d="M723.315 101.56v554.435c-20.29-8.207-42.862-13.022-66.638-13.022-88.485 0-160.151 63.257-160.151 141.312s71.666 141.312 160.151 141.312c88.431 0 160.199-63.187 160.29-141.169V302.444c84.367-51.447 164.774 54.207 176.084 98.779 52.162-209.676-204.346-208.916-269.736-299.659zM0 158.916v70.933h567.457v-70.933zM0 300.78v70.933h567.457V300.78zm0 141.865v70.933h567.457v-70.933zm0 141.864v70.933h496.525v-70.933z"/></svg>