<!-- Generated by IcoMoon.io -->
<svg version="1.1" xmlns="http://www.w3.org/2000/svg" width="24" height="24" viewBox="0 0 24 24">
<title>tracks</title>
<path d="M17.36 2.437v13.306c-0.487-0.197-1.029-0.313-1.599-0.313-2.124 0-3.844 1.518-3.844 3.391s1.72 3.391 3.844 3.391c2.122 0 3.845-1.516 3.847-3.388v-11.568c2.025-1.235 3.955 1.301 4.226 2.371 1.252-5.032-4.904-5.014-6.474-7.192zM0 3.814v1.702h13.619v-1.702zM0 7.219v1.702h13.619v-1.702zM0 10.623v1.702h13.619v-1.702zM0 14.028v1.702h11.917v-1.702z"></path>
</svg>
