<!-- Generated by IcoMoon.io -->
<svg version="1.1" xmlns="http://www.w3.org/2000/svg" width="24" height="24" viewBox="0 0 24 24">
<title>volume-mute</title>
<path d="M12 1.313v5.625l-2.813-2.813zM1.688 0l22.313 22.313-1.688 1.688-2.75-2.75c-1.437 1.125-3.063 2-4.875 2.438v-2.75c1.125-0.312 2.125-0.875 3-1.563l-5.688-5.688v9l-6.687-6.687h-5.313v-8h6.312l-6.312-6.312zM21.312 12c0-4.25-2.75-7.812-6.625-8.937v-2.75c5.375 1.188 9.312 6 9.312 11.688 0 2-0.5 3.938-1.375 5.562l-2-2.063c0.438-1.062 0.687-2.25 0.687-3.5zM18 12c0 0.312 0 0.563-0.063 0.813l-3.25-3.25v-2.937c2 1 3.312 3 3.312 5.375z"></path>
</svg>
