<svg xmlns="http://www.w3.org/2000/svg" width="1000" height="1000" viewBox="0 0 1000 1000"><path d="M500 54.688v234.375L382.812 171.875zM70.313 0l929.688 929.688-70.313 70.313-114.583-114.583c-59.896 46.875-127.604 83.333-203.125 101.563V872.398c46.875-13.021 88.542-36.458 125-65.104L500.001 570.315v375L221.355 666.669H.001V333.336h263.021L.001 70.315zm817.708 500c0-177.083-114.583-325.521-276.042-372.396V13.021C835.937 62.5 1000 263.021 1000 500c0 83.333-20.833 164.063-57.292 231.771l-83.333-85.938c18.229-44.271 28.646-93.75 28.646-145.833zM750 500c0 13.021 0 23.438-2.604 33.854L611.979 398.437V276.041C695.312 317.708 750 401.041 750 499.999z"/></svg>