<?xml version="1.0" encoding="UTF-8"?><!DOCTYPE svg PUBLIC "-//W3C//DTD SVG 1.1//EN" "http://www.w3.org/Graphics/SVG/1.1/DTD/svg11.dtd"><svg xmlns="http://www.w3.org/2000/svg" xmlns:xlink="http://www.w3.org/1999/xlink"><defs/><symbol id="browse" viewBox="0 0 1000 1000">
<title>browse</title>
<path d="M908.511 727.659v-544.681h-817.021v544.681h817.021zM908.511 91.489q38.298 0 64.894 26.596t26.596 64.894l-2.128 544.681q0 36.17-26.596 62.766t-62.766 26.596h-227.659v91.489h-361.702v-91.489h-227.659q-38.298 0-64.894-25.532t-26.596-63.83v-544.681q0-38.298 26.596-64.894t64.894-26.596h817.021z"/>
</symbol><symbol id="caret-down" viewBox="0 0 1000 1000">
<title>caret-down</title>
<path d="M0 299.065h1000l-500 500z"/>
</symbol><symbol id="caret-up" viewBox="0 0 1000 1000">
<title>caret-up</title>
<path d="M0 700.935l500-500 500 500h-1000z"/>
</symbol><symbol id="close" viewBox="0 0 1000 1000">
<title>close</title>
<path d="M1000 100.671l-399.329 399.329 399.329 399.329-100.671 100.671-399.329-399.329-399.329 399.329-100.671-100.671 399.329-399.329-399.329-399.329 100.671-100.671 399.329 399.329 399.329-399.329z"/>
</symbol><symbol id="github" viewBox="0 0 1000 1000">
<title>github</title>
<path d="M500 12.375c-276.25 0-500 223.875-500 500 0 220.958 143.25 408.333 341.875 474.375 25 4.708 34.167-10.75 34.167-24.042 0-11.875-0.417-43.333-0.625-85-139.083 30.167-168.417-67.083-168.417-67.083-22.75-57.708-55.625-73.125-55.625-73.125-45.292-31 3.5-30.375 3.5-30.375 50.208 3.5 76.583 51.5 76.583 51.5 44.583 76.458 117.042 54.375 145.625 41.583 4.5-32.333 17.375-54.375 31.667-66.875-111.042-12.5-227.75-55.5-227.75-247.083 0-54.583 19.375-99.167 51.458-134.167-5.625-12.625-22.5-63.458 4.375-132.333 0 0 41.875-13.417 137.5 51.25 40-11.125 82.5-16.625 125-16.875 42.5 0.25 85 5.75 125 16.875 95-64.667 136.875-51.25 136.875-51.25 26.875 68.875 10 119.708 5 132.333 31.875 35 51.25 79.583 51.25 134.167 0 192.083-116.875 234.375-228.125 246.667 17.5 15 33.75 45.667 33.75 92.5 0 66.917-0.625 120.667-0.625 136.917 0 13.125 8.75 28.75 34.375 23.75 200.042-65.583 343.167-253.083 343.167-473.708 0-276.125-223.875-500-500-500z"/>
</symbol><symbol id="minus" viewBox="0 0 1000 1000">
<title>minus</title>
<path d="M0.001 416.017h1000v167.968h-1000v-167.968z"/>
</symbol><symbol id="pause" viewBox="0 0 1000 1000">
<title>pause</title>
<path d="M644.295 0h285.235v1000h-285.235v-1000zM70.47 1000v-1000h285.235v1000h-285.235z"/>
</symbol><symbol id="piano" viewBox="0 0 1000 1000">
<title>piano</title>
<path d="M906.406 1000h-812.813c-51.594 0-93.594-42-93.594-93.594v-812.813c0-51.594 42-93.594 93.594-93.594h812.813c51.594 0 93.594 42 93.594 93.594v812.813c0 51.594-42 93.594-93.594 93.594zM93.594 62.5c-17.156 0-31.094 13.938-31.094 31.094v812.813c0 17.156 13.938 31.094 31.094 31.094h812.813c17.156 0 31.094-13.938 31.094-31.094v-812.813c0-17.156-13.938-31.094-31.094-31.094h-812.813zM468.75 62.5h62.5v875h-62.5zM718.75 62.5h62.5v875h-62.5zM218.75 62.5h62.5v875h-62.5zM296.969 625h-93.938c-25.813 0-46.781-21-46.781-46.781v-531.438c0-25.813 20.969-46.781 46.781-46.781h93.969c25.781 0 46.75 20.969 46.75 46.781v531.438c0 25.781-20.969 46.781-46.781 46.781zM218.75 562.5h62.5v-500h-62.5v500zM796.969 625h-93.938c-25.781 0-46.781-21-46.781-46.781v-531.438c0-25.813 21-46.781 46.781-46.781h93.938c25.781 0 46.781 20.969 46.781 46.781v531.438c0 25.781-21 46.781-46.781 46.781zM718.75 562.5h62.5v-500h-62.5v500zM546.969 625h-93.938c-25.813 0-46.781-21-46.781-46.781v-531.438c0-25.813 20.969-46.781 46.781-46.781h93.938c25.781 0 46.781 20.969 46.781 46.781v531.438c0 25.781-21 46.781-46.781 46.781zM468.75 562.5h62.5v-500h-62.5v500z"/>
</symbol><symbol id="play" viewBox="0 0 1000 1000">
<title>play</title>
<path d="M214.765 0l785.235 500-785.235 500v-1000z"/>
</symbol><symbol id="plus" viewBox="0 0 1000 1000">
<title>plus</title>
<path d="M1000 570.47h-429.53v429.53h-140.939v-429.53h-429.53v-140.939h429.53v-429.53h140.939v429.53h429.53v140.939z"/>
</symbol><symbol id="upload" viewBox="0 0 1000 1000">
<title>upload</title>
<path d="M300.47 650.234l199.53-199.53 199.53 199.53-70.423 72.77-79.812-79.813v206.573h-98.592v-206.573l-79.813 77.465zM800.47 901.408v-551.644h-251.174v-251.174h-349.766v802.817h600.939zM600.939 0l300.47 300.47v600.939q0 39.906-30.517 69.249t-70.423 29.343h-600.939q-39.906 0-70.423-29.343t-30.517-69.249l2.348-802.817q0-39.906 29.343-69.249t69.249-29.343h401.408z"/>
</symbol><symbol id="volume-off" viewBox="0 0 1000 1000">
<title>volume-off</title>
<path d="M500 54.688v234.375l-117.188-117.188zM70.313 0l929.688 929.688-70.313 70.313-114.583-114.583q-85.938 72.917-203.125 101.563v-114.583q65.104-18.229 125-65.104l-236.979-236.979v375l-278.646-278.646h-221.354v-333.333h263.021l-263.021-263.021zM888.021 500q0-132.813-76.823-234.375t-199.219-138.021v-114.583q169.271 36.458 278.646 173.177t109.375 313.802q0 122.396-57.292 231.771l-83.333-85.938q28.646-70.313 28.646-145.833zM750 500q0 23.438-2.604 33.854l-135.417-135.417v-122.396q57.292 28.646 97.656 93.75t40.364 130.208z"/>
</symbol><symbol id="volume" viewBox="0 0 1000 1000">
<title>volume</title>
<path d="M611.979 13.021q169.271 36.458 278.646 173.177t109.375 313.802-109.375 313.802-278.646 173.177v-114.583q122.396-36.458 199.219-138.021t76.823-234.375-76.823-234.375-199.219-138.021v-114.583zM750 500q0 156.25-138.021 223.958v-447.917q57.292 28.646 97.656 93.75t40.364 130.208zM0 333.333h221.354l278.646-278.646v890.625l-278.646-278.646h-221.354v-333.333z"/>
</symbol></svg>