<?xml version="1.0" encoding="UTF-8"?>
<svg width="123px" height="36px" viewBox="0 0 123 36" version="1.1" xmlns="http://www.w3.org/2000/svg" xmlns:xlink="http://www.w3.org/1999/xlink">
    <!-- Generator: Sketch 57.1 (83088) - https://sketch.com -->
    <title>raaga</title>
    <desc>Created with Sketch.</desc>
    <g id="Page-1" stroke="none" stroke-width="1" fill="none" fill-rule="evenodd">
        <g id="Logo" transform="translate(-250.000000, -49.000000)" fill-rule="nonzero">
            <g id="logo-text" transform="translate(250.000000, 49.000000)">
                <g id="raaga" transform="translate(0.400000, 0.400000)">
                    <path d="M5.82,3.36 C7.3000074,1.1999892 9.6199842,0.12 12.78,0.12 C13.780005,0.12 14.6999958,0.319998 15.54,0.72 L14.82,6 C13.9399956,5.4399972 12.9800052,5.16 11.94,5.16 C7.8599796,5.16 5.82,8.0799708 5.82,13.92 L5.82,24.6 L2.84217094e-14,24.6 L2.84217094e-14,0.9 L5.82,0.9 L5.82,3.36 Z M40.14,24.6 L34.44,24.6 L34.44,22.44 C32.7599916,24.4000098 30.2600166,25.38 26.94,25.38 C23.6199834,25.38 20.9700099,24.1000128 18.99,21.54 C17.0099901,18.9799872 16.02,15.9800172 16.02,12.54 C16.02,9.0999828 17.0299899,6.1700121 19.05,3.75 C21.0700101,1.3299879 23.6599842,0.12 26.82,0.12 C30.1800168,0.12 32.7199914,1.12 34.44,3.12 L34.44,0.9 L40.14,0.9 L40.14,24.6 Z M35.1,12.72 C35.1,10.519989 34.4800062,8.7100071 33.24,7.29 C31.9999938,5.8699929 30.4100097,5.16 28.47,5.16 C26.5299903,5.16 24.9500061,5.8499931 23.73,7.23 C22.5099939,8.6100069 21.9,10.4399886 21.9,12.72 C21.9,15.0000114 22.5199938,16.839993 23.76,18.24 C25.0000062,19.640007 26.5999902,20.34 28.56,20.34 C30.5200098,20.34 32.099994,19.66 33.3,18.3 C34.500006,16.9399932 35.1,15.0800118 35.1,12.72 Z M67.44,24.6 L61.74,24.6 L61.74,22.44 C60.0599916,24.4000098 57.5600166,25.38 54.24,25.38 C50.9199834,25.38 48.2700099,24.1000128 46.29,21.54 C44.3099901,18.9799872 43.32,15.9800172 43.32,12.54 C43.32,9.0999828 44.3299899,6.1700121 46.35,3.75 C48.3700101,1.3299879 50.9599842,0.12 54.12,0.12 C57.4800168,0.12 60.0199914,1.12 61.74,3.12 L61.74,0.9 L67.44,0.9 L67.44,24.6 Z M62.4,12.72 C62.4,10.519989 61.7800062,8.7100071 60.54,7.29 C59.2999938,5.8699929 57.7100097,5.16 55.77,5.16 C53.8299903,5.16 52.2500061,5.8499931 51.03,7.23 C49.8099939,8.6100069 49.2,10.4399886 49.2,12.72 C49.2,15.0000114 49.8199938,16.839993 51.06,18.24 C52.3000062,19.640007 53.8999902,20.34 55.86,20.34 C57.8200098,20.34 59.399994,19.66 60.6,18.3 C61.800006,16.9399932 62.4,15.0800118 62.4,12.72 Z" id="raa" fill="#32C5FF"></path>
                    <path d="M94.86,22.56 C94.86,30.6800406 91.0800378,34.74 83.52,34.74 C80.1599832,34.74 77.3200116,33.8300091 75,32.01 C72.6799884,30.1899909 71.52,27.8200146 71.52,24.9 L77.7,24.9 C77.7,26.0600058 78.2799942,27.1999944 79.44,28.32 C80.6000058,29.4400056 81.8999928,30 83.34,30 C87.140019,30 89.04,27.7200228 89.04,23.16 L89.04,21.66 C87.3999918,23.7400104 84.9100167,24.78 81.57,24.78 C78.2299833,24.78 75.6100095,23.6200116 73.71,21.3 C71.8099905,18.9799884 70.86,16.1400168 70.86,12.78 C70.86,9.1399818 71.8799898,6.1000122 73.92,3.66 C75.9600102,1.2199878 78.6099837,7.10542736e-15 81.87,7.10542736e-15 C85.1300163,7.10542736e-15 87.5199924,1.0199898 89.04,3.06 L89.04,0.78 L94.86,0.78 L94.86,22.56 Z M89.88,12.24 C89.88,10.0799892 89.280006,8.3400066 88.08,7.02 C86.879994,5.6999934 85.3000098,5.04 83.34,5.04 C81.3799902,5.04 79.7900061,5.7599928 78.57,7.2 C77.3499939,8.6400072 76.74,10.459989 76.74,12.66 C76.74,17.3800236 78.939978,19.74 83.34,19.74 C85.34001,19.74 86.9299941,19.0300071 88.11,17.61 C89.2900059,16.1899929 89.88,14.4000108 89.88,12.24 Z M121.86,24.6 L116.16,24.6 L116.16,22.44 C114.479992,24.4000098 111.980017,25.38 108.66,25.38 C105.339983,25.38 102.69001,24.1000128 100.71,21.54 C98.7299901,18.9799872 97.74,15.9800172 97.74,12.54 C97.74,9.0999828 98.7499899,6.1700121 100.77,3.75 C102.79001,1.3299879 105.379984,0.12 108.54,0.12 C111.900017,0.12 114.439991,1.12 116.16,3.12 L116.16,0.9 L121.86,0.9 L121.86,24.6 Z M116.82,12.72 C116.82,10.519989 116.200006,8.7100071 114.96,7.29 C113.719994,5.8699929 112.13001,5.16 110.19,5.16 C108.24999,5.16 106.670006,5.8499931 105.45,7.23 C104.229994,8.6100069 103.62,10.4399886 103.62,12.72 C103.62,15.0000114 104.239994,16.839993 105.48,18.24 C106.720006,19.640007 108.31999,20.34 110.28,20.34 C112.24001,20.34 113.819994,19.66 115.02,18.3 C116.220006,16.9399932 116.82,15.0800118 116.82,12.72 Z" id="ga" fill="#FFFFFF"></path>
                </g>
            </g>
        </g>
    </g>
</svg>