<?xml version="1.0" encoding="iso-8859-1"?>
<!-- Generator: Adobe Illustrator 19.0.0, SVG Export Plug-In . SVG Version: 6.00 Build 0)  -->
<svg version="1.1" id="Layer_1" xmlns="http://www.w3.org/2000/svg" xmlns:xlink="http://www.w3.org/1999/xlink" x="0px" y="0px"
	 viewBox="0 0 437.031 437.031" style="enable-background:new 0 0 437.031 437.031;" xml:space="preserve">
<g>
	<path style="fill:#F7B239;" d="M425.963,49.591c1.27,3.49,0.41,7.4-2.22,10.02l-3.38,3.38l-16.4,16.41l-16.41,16.4l-3.91,3.92
		c-4.76,4.75-12.46,4.75-17.22,0l-29.07-29.07c-4.75-4.76-4.75-12.47,0-17.22l3.92-3.91l16.4-16.41l16.41-16.41l3.38-3.38
		c2.62-2.62,6.53-3.49,10.02-2.22l24.03,8.76c2.65,0.96,4.73,3.05,5.7,5.7L425.963,49.591z"/>
	<path style="fill:#E0B08C;" d="M239.293,163.861l97.77-93.5l0.29,0.29l29.07,29.07l0.28,0.28l-93.5,97.77l-48.19,50.39h-0.01
		c-0.23-9.16-3.84-18.26-10.84-25.25c-7-6.99-16.1-10.61-25.26-10.84v-0.02L239.293,163.861z"/>
	<path style="fill:#F7B239;" d="M273.203,197.771c19.72,32.01,18.79,70.82-4.76,94.36c-6.8,6.81-14.88,11.72-23.7,14.79
		c-22.85,7.98-39.13,28.35-41.79,52.41c-2,17.96-9.32,34.59-22.21,47.48c-34.67,34.67-96.47,29.1-138.03-12.46
		c-41.55-41.55-47.12-103.36-12.45-138.02c12.89-12.9,29.52-20.21,47.48-22.21c24.06-2.65,44.44-18.93,52.41-41.79
		c3.07-8.82,7.99-16.89,14.79-23.69c23.55-23.55,62.35-24.48,94.35-4.78l-50.39,48.19v0.02c-9.79-0.25-19.67,3.37-27.14,10.84
		c-14.47,14.47-14.47,37.93,0,52.4c14.47,14.48,37.93,14.48,52.4,0c7.48-7.48,11.09-17.35,10.84-27.15h0.01L273.203,197.771z"/>
	<path style="fill:#4D4D4D;" d="M225.003,248.161c0.25,9.8-3.36,19.67-10.84,27.15c-14.47,14.48-37.93,14.48-52.4,0
		c-14.47-14.47-14.47-37.93,0-52.4c7.47-7.47,17.35-11.09,27.14-10.84c9.16,0.23,18.26,3.85,25.26,10.84
		C221.163,229.901,224.773,239.001,225.003,248.161z"/>
	<path style="fill:#FFFFFF;" d="M36.582,349.206c-3.062,0-5.936-1.888-7.046-4.931c-2.752-7.544-4.501-15.282-5.197-23
		c-1.904-21.112,4.346-40.036,17.6-53.285c9.767-9.775,22.771-15.816,37.603-17.468c7.901-0.87,15.614-2.939,22.934-6.15
		c3.793-1.664,8.217,0.062,9.881,3.855s-0.062,8.217-3.855,9.881c-8.714,3.823-17.901,6.286-27.308,7.322
		c-11.401,1.27-21.31,5.822-28.646,13.165c-10.054,10.051-14.765,24.729-13.268,41.332c0.579,6.422,2.042,12.884,4.349,19.206
		c1.419,3.891-0.584,8.197-4.476,9.616C38.303,349.059,37.435,349.206,36.582,349.206z"/>
	<path style="fill:#FFFFFF;" d="M124.872,247.03c-6.616,0-9.971-8.377-5.166-12.935c2.326-2.207,5.872-2.679,8.701-1.18
		c2.831,1.5,4.394,4.744,3.855,7.893C131.655,244.355,128.471,247.03,124.872,247.03z"/>
	<path style="fill:#FFFFFF;" d="M156.561,199.842c-1.353,0-2.722-0.366-3.956-1.134c-3.517-2.189-4.593-6.814-2.405-10.331
		c1.818-2.92,3.974-5.635,6.409-8.071c7.805-7.804,18.303-12.506,30.361-13.595c4.121-0.371,7.772,2.669,8.145,6.794
		c0.373,4.125-2.669,7.772-6.795,8.145c-8.516,0.77-15.813,3.973-21.104,9.263c-1.627,1.627-3.067,3.44-4.28,5.39
		C161.515,198.588,159.066,199.842,156.561,199.842z"/>
	<path style="fill:#FFFFFF;" d="M358.183,69.321c-1.919,0-3.839-0.732-5.303-2.197c-2.929-2.929-2.929-7.677,0-10.606l29.67-29.67
		c2.929-2.929,7.678-2.929,10.606,0c2.929,2.929,2.929,7.677,0,10.606l-29.67,29.67C362.022,68.588,360.102,69.321,358.183,69.321z"
		/>
	<g>
		<path style="fill:#333333;" d="M65.783,322.956c-2.929-2.929-7.678-2.929-10.606,0c-2.929,2.929-2.929,7.677,0,10.606
			l48.332,48.331c1.464,1.465,3.384,2.197,5.303,2.197s3.839-0.732,5.303-2.197c2.929-2.929,2.929-7.678,0-10.606L65.783,322.956z"
			/>
		<path style="fill:#333333;" d="M434.834,66.851l-4.022-4.022c3.258-4.528,4.145-10.468,2.201-15.804l-8.753-24.031
			c-1.728-4.743-5.439-8.455-10.183-10.182l-24.03-8.754c-5.335-1.944-11.276-1.056-15.804,2.202l-4.022-4.022
			c-2.929-2.929-7.678-2.929-10.606,0c-2.929,2.929-2.929,7.678,0,10.607l3.861,3.861l-5.8,5.8l-3.861-3.861
			c-2.929-2.929-7.678-2.929-10.606,0c-2.929,2.929-2.929,7.677,0,10.606l3.861,3.861l-5.8,5.8l-3.861-3.861
			c-2.928-2.929-7.677-2.929-10.606,0c-2.929,2.929-2.929,7.678,0,10.607l3.931,3.931c-4.545,5.55-5.581,13.019-3.136,19.458
			l-89.425,85.519c-34.6-18.863-74.048-15.711-98.53,8.771c-7.465,7.465-13.041,16.388-16.572,26.522
			c-6.987,20.041-25.104,34.49-46.159,36.812c-20.31,2.254-38.275,10.676-51.952,24.354C6.59,269.39-2.118,295.106,0.437,323.432
			c2.51,27.819,15.642,54.89,36.977,76.225c24.646,24.646,56.14,37.336,85.715,37.334c23.72-0.002,46.209-8.168,62.919-24.878
			c13.678-13.678,22.1-31.643,24.354-51.955c2.33-21.044,16.78-39.162,36.81-46.156c10.153-3.538,19.081-9.11,26.533-16.563
			c24.483-24.483,27.632-63.934,8.762-98.539l85.518-89.425c2.252,0.855,4.627,1.299,7.006,1.299c4.422,0,8.843-1.479,12.452-4.434
			l3.931,3.931c1.464,1.465,3.384,2.197,5.303,2.197s3.839-0.732,5.303-2.197c2.929-2.929,2.929-7.677,0-10.606l-3.861-3.861
			l5.8-5.8l3.861,3.861c1.464,1.465,3.384,2.197,5.303,2.197c1.919,0,3.839-0.732,5.303-2.197c2.929-2.929,2.929-7.678,0-10.607
			l-3.861-3.861l5.799-5.799l3.861,3.861c1.464,1.464,3.384,2.197,5.303,2.197s3.839-0.732,5.303-2.197
			C437.763,74.528,437.763,69.779,434.834,66.851z M263.139,286.832c-5.842,5.842-12.861,10.217-20.867,13.006
			c-25.456,8.889-43.817,31.918-46.778,58.667c-1.875,16.888-8.808,31.757-20.052,43.001
			c-13.823,13.823-32.482,20.554-52.336,20.553c-25.672-0.002-53.339-11.262-75.085-33.009
			c-18.856-18.856-30.449-42.639-32.644-66.966c-2.148-23.818,5.021-45.288,20.188-60.455
			c11.243-11.244,26.113-18.177,42.996-20.051c26.763-2.951,49.793-21.315,58.674-46.784c2.782-7.984,7.16-15,13.014-20.853
			c18.72-18.72,48.834-21.624,76.456-8.411l-40.864,39.079c-11.105,0.517-21.472,5.085-29.385,12.999
			c-17.373,17.373-17.373,45.64,0,63.012c8.416,8.416,19.605,13.05,31.506,13.05s23.09-4.635,31.506-13.05
			c7.916-7.916,12.484-18.285,12.999-29.393l39.076-40.861C284.762,237.992,281.86,268.111,263.139,286.832z M217.518,249.113
			c0,7.895-3.074,15.317-8.657,20.9s-13.005,8.657-20.899,8.657c-7.895,0-15.317-3.074-20.9-8.657
			c-11.524-11.524-11.524-30.275,0-41.799c5.583-5.583,13.005-8.657,20.9-8.657c7.895,0,15.317,3.074,20.899,8.657v0
			C214.444,233.795,217.518,241.218,217.518,249.113z M229.407,232.722c-2.211-5.595-5.557-10.733-9.939-15.116
			c-4.383-4.384-9.524-7.73-15.121-9.941L336.95,80.855l19.266,19.266L229.407,232.722z M371.728,94.414l-29.071-29.071
			c-1.822-1.822-1.822-4.786,0-6.608l40.107-40.107c0.39-0.389,0.916-0.598,1.451-0.598c0.234,0,0.47,0.04,0.697,0.123l24.03,8.753
			c0.57,0.208,1.016,0.653,1.223,1.223l8.753,24.031c0.271,0.744,0.084,1.587-0.476,2.148l-40.107,40.107
			C376.515,96.235,373.551,96.235,371.728,94.414z"/>
	</g>
</g>
<g>
</g>
<g>
</g>
<g>
</g>
<g>
</g>
<g>
</g>
<g>
</g>
<g>
</g>
<g>
</g>
<g>
</g>
<g>
</g>
<g>
</g>
<g>
</g>
<g>
</g>
<g>
</g>
<g>
</g>
</svg>
