<?xml version="1.0" encoding="iso-8859-1"?>
<!-- Generator: Adobe Illustrator 19.0.0, SVG Export Plug-In . SVG Version: 6.00 Build 0)  -->
<svg version="1.1" id="Layer_1" xmlns="http://www.w3.org/2000/svg" xmlns:xlink="http://www.w3.org/1999/xlink" x="0px" y="0px"
	 viewBox="0 0 446.34 446.34" style="enable-background:new 0 0 446.34 446.34;" xml:space="preserve">
<g>
	<path style="fill:#3A88D6;" d="M299.51,228.688c20.88,21.6,33.72,51.01,33.72,83.42c0,66.31-53.76,120.06-120.07,120.06
		S93.1,378.418,93.1,312.108c0-32.41,12.84-61.82,33.72-83.42c12.09-12.53,26.9-22.43,43.46-28.75c13.32-5.11,27.77-7.9,42.88-7.9
		s29.56,2.79,42.88,7.9C272.61,206.258,287.41,216.158,299.51,228.688z M306.23,312.108c0-51.4-41.67-93.07-93.07-93.07
		s-93.06,41.67-93.06,93.07c0,51.39,41.66,93.06,93.06,93.06S306.23,363.498,306.23,312.108z"/>
	<path style="fill:#F2F2F2;" d="M213.16,219.038c51.4,0,93.07,41.67,93.07,93.07c0,51.39-41.67,93.06-93.07,93.06
		s-93.06-41.67-93.06-93.06C120.1,260.708,161.76,219.038,213.16,219.038z"/>
	<path style="fill:#FFFFFF;" d="M158.622,357.921c-2.358,0-4.68-1.109-6.14-3.184c-8.814-12.525-13.473-27.266-13.473-42.63
		c0-40.891,33.264-74.159,74.152-74.159c9.784,0,19.295,1.877,28.269,5.58c3.829,1.58,5.652,5.965,4.072,9.794
		s-5.964,5.654-9.794,4.072c-7.15-2.95-14.736-4.446-22.547-4.446c-32.616,0-59.152,26.539-59.152,59.159
		c0,12.257,3.714,24.014,10.74,33.998c2.384,3.388,1.57,8.066-1.817,10.45C161.62,357.478,160.113,357.921,158.622,357.921z"/>
	<path style="fill:#F7B239;" d="M279.86,145.348v16.52l-28.7,4.13l4.88,33.94c-13.32-5.11-27.77-7.9-42.88-7.9
		s-29.56,2.79-42.88,7.9l4.88-33.94l-28.7-4.13v-16.52H279.86z"/>
	<polygon style="fill:#F95428;" points="64.19,150.038 64.19,219.678 37.71,215.868 47.52,147.638 	"/>
	<path style="fill:#F95428;" d="M175.16,165.998l-4.88,33.94c-16.56,6.32-31.37,16.22-43.46,28.75l-62.63-9.01v-69.64l82.27,11.83
		L175.16,165.998z"/>
	<polygon style="fill:#F95428;" points="378.81,147.638 388.61,215.868 362.13,219.678 362.13,150.038 	"/>
	<path style="fill:#F95428;" d="M362.13,150.038v69.64l-62.62,9.01c-12.1-12.53-26.9-22.43-43.47-28.75l-4.88-33.94l28.7-4.13
		L362.13,150.038z"/>
	<g>
		<path style="fill:#333333;" d="M213.162,211.542c-55.451,0-100.563,45.113-100.563,100.563
			c0,55.451,45.113,100.564,100.563,100.564c55.451,0,100.564-45.113,100.564-100.564
			C313.726,256.654,268.613,211.542,213.162,211.542z M213.162,397.669c-47.18,0-85.563-38.384-85.563-85.564
			c0-47.18,38.384-85.563,85.563-85.563c47.18,0,85.564,38.384,85.564,85.563C298.726,359.285,260.342,397.669,213.162,397.669z"/>
		<path style="fill:#333333;" d="M71.694,39.438V14.169c0-4.142-3.358-7.5-7.5-7.5s-7.5,3.358-7.5,7.5v25.269"/>
		<path style="fill:#333333;" d="M369.628,60.031V45.297c0-4.142-3.358-7.5-7.5-7.5s-7.5,3.358-7.5,7.5v14.734v15v68.508
			l-67.265,9.672v-7.861c0-4.142-3.358-7.5-7.5-7.5H146.459c-4.142,0-7.5,3.358-7.5,7.5v7.861l-67.266-9.672V67.438h-15v28.167
			H45.295c-4.142,0-7.5,3.358-7.5,7.5s3.358,7.5,7.5,7.5h11.399v30.777l-8.108-1.166c-1.968-0.281-3.97,0.228-5.562,1.42
			c-1.593,1.192-2.646,2.968-2.929,4.937l-9.805,68.225c-0.589,4.1,2.256,7.901,6.356,8.49l20.049,2.884v160.441l-40.252,40.252
			c-2.929,2.929-2.929,7.678,0,10.606c1.464,1.465,3.384,2.197,5.303,2.197c1.919,0,3.839-0.732,5.303-2.197l29.646-29.646v24.342
			c0,4.142,3.358,7.5,7.5,7.5s7.5-3.358,7.5-7.5v-24.342l29.646,29.646c2.929,2.929,7.678,2.929,10.606,0
			c2.929-2.929,2.929-7.678,0-10.606l-40.252-40.252V228.331l40.557,5.834c-16.699,21.571-26.653,48.613-26.653,77.94
			c0,39.269,17.84,74.444,45.835,97.863l-7.141,19.638c-1.416,3.893,0.592,8.196,4.485,9.611c0.846,0.308,1.711,0.454,2.563,0.454
			c3.064,0,5.941-1.893,7.049-4.939l5.628-15.477c19.935,12.909,43.679,20.414,69.145,20.414s49.21-7.505,69.145-20.414
			l5.628,15.477c1.108,3.047,3.984,4.939,7.049,4.939c0.851,0,1.717-0.146,2.563-0.454c3.893-1.416,5.901-5.719,4.485-9.611
			l-7.141-19.638c27.995-23.419,45.835-58.594,45.835-97.863c0-29.327-9.954-56.369-26.653-77.94l40.556-5.834v158.283
			l-40.252,40.252c-2.929,2.929-2.929,7.678,0,10.606c2.929,2.929,7.678,2.929,10.606,0l29.646-29.646v24.342
			c0,4.142,3.358,7.5,7.5,7.5s7.5-3.358,7.5-7.5v-24.342l29.646,29.646c1.464,1.464,3.384,2.197,5.303,2.197
			s3.839-0.732,5.303-2.197c2.929-2.929,2.929-7.678,0-10.606l-40.252-40.252V226.173l20.05-2.884c4.1-0.589,6.945-4.391,6.356-8.49
			l-9.806-68.225c-0.283-1.969-1.337-3.745-2.929-4.937c-1.592-1.192-3.593-1.7-5.562-1.42l-8.109,1.166v-30.777h11.399
			c4.142,0,7.5-3.358,7.5-7.5s-3.358-7.5-7.5-7.5h-11.399V75.031V60.031z M153.959,152.85h118.404v2.518l-22.271,3.203
			c-1.969,0.283-3.745,1.337-4.937,2.929c-1.192,1.592-1.703,3.593-1.42,5.562l3.166,22.018c-10.752-2.952-22.064-4.538-33.74-4.538
			c-11.677,0-22.988,1.585-33.74,4.538l3.166-22.018c0.283-1.969-0.228-3.97-1.42-5.562c-1.192-1.592-2.968-2.646-4.937-2.929
			l-22.271-3.203V152.85z M46.204,209.509l7.671-53.378l2.819,0.405v54.481L46.204,209.509z M71.694,158.693l94.979,13.657
			l-3.202,22.269c-14.683,6.234-27.96,15.148-39.228,26.116l-52.549-7.559V158.693z M213.162,424.669
			c-62.068,0-112.563-50.496-112.563-112.564s50.496-112.563,112.563-112.563s112.564,50.496,112.564,112.563
			S275.229,424.669,213.162,424.669z M302.081,220.735c-11.268-10.968-24.545-19.882-39.228-26.116l-3.202-22.269l94.978-13.657
			v54.482L302.081,220.735z M372.449,156.131l7.671,53.378l-10.492,1.509v-54.482L372.449,156.131z"/>
	</g>
	<path style="fill:#F7B239;" d="M120.89,48.348H7.5c-4.142,0-7.5-3.358-7.5-7.5s3.358-7.5,7.5-7.5h113.39c4.142,0,7.5,3.358,7.5,7.5
		S125.032,48.348,120.89,48.348z"/>
	<path style="fill:#F7B239;" d="M120.89,75.028H7.5c-4.142,0-7.5-3.358-7.5-7.5s3.358-7.5,7.5-7.5h113.39c4.142,0,7.5,3.358,7.5,7.5
		S125.032,75.028,120.89,75.028z"/>
	<path style="fill:#F7B239;" d="M438.84,75.028H285.42c-4.142,0-7.5-3.358-7.5-7.5s3.358-7.5,7.5-7.5h153.42
		c4.142,0,7.5,3.358,7.5,7.5S442.982,75.028,438.84,75.028z"/>
	<path style="fill:#FFFFFF;" d="M145.179,190.939c-0.396,0-0.796-0.031-1.199-0.096l-56-9c-4.09-0.657-6.872-4.505-6.215-8.595
		s4.509-6.87,8.595-6.215l56,9c4.09,0.657,6.872,4.505,6.215,8.595C151.982,188.314,148.797,190.939,145.179,190.939z"/>
	<path style="fill:#FFFFFF;" d="M279.17,190.938c-1.97,0-3.91-0.8-5.3-2.2c-0.35-0.34-0.66-0.73-0.94-1.14
		c-0.27-0.4-0.5-0.84-0.69-1.29c-0.18-0.45-0.33-0.93-0.42-1.4c-0.1-0.49-0.15-0.98-0.15-1.47c0-0.49,0.05-0.98,0.15-1.47
		c0.09-0.47,0.24-0.95,0.42-1.4c0.19-0.45,0.42-0.89,0.69-1.29c0.28-0.41,0.59-0.8,0.94-1.14c1.39-1.4,3.33-2.2,5.3-2.2
		c1.97,0,3.91,0.8,5.3,2.2c0.35,0.34,0.66,0.73,0.94,1.14c0.27,0.4,0.5,0.84,0.69,1.29c0.18,0.45,0.33,0.93,0.42,1.4
		c0.1,0.49,0.15,0.98,0.15,1.47c0,0.49-0.05,0.98-0.15,1.47c-0.09,0.47-0.24,0.95-0.42,1.4c-0.19,0.45-0.42,0.89-0.69,1.29
		c-0.28,0.41-0.59,0.8-0.94,1.14C283.08,190.138,281.14,190.938,279.17,190.938z"/>
	<path style="fill:#FFFFFF;" d="M302.87,187.128c-3.618,0-6.803-2.624-7.396-6.311c-0.657-4.089,2.125-7.938,6.215-8.595
		l32.291-5.189c4.089-0.659,7.938,2.125,8.595,6.215c0.657,4.089-2.125,7.938-6.215,8.595l-32.291,5.189
		C303.666,187.097,303.265,187.128,302.87,187.128z"/>
</g>
<g>
</g>
<g>
</g>
<g>
</g>
<g>
</g>
<g>
</g>
<g>
</g>
<g>
</g>
<g>
</g>
<g>
</g>
<g>
</g>
<g>
</g>
<g>
</g>
<g>
</g>
<g>
</g>
<g>
</g>
</svg>
