<svg width="123" height="36" viewBox="0 0 123 36" xmlns="http://www.w3.org/2000/svg"><g fill="none"><path d="M6.22 3.76C7.7 1.6 10.02.52 13.18.52c1 0 1.92.2 2.76.6l-.72 5.28a5.26 5.26 0 0 0-2.88-.84c-4.08 0-6.12 2.92-6.12 8.76V25H.4V1.3h5.82v2.46zM40.54 25h-5.7v-2.16c-1.68 1.96-4.18 2.94-7.5 2.94-3.32 0-5.97-1.28-7.95-3.84-1.98-2.56-2.97-5.56-2.97-9 0-3.44 1.01-6.37 3.03-8.79C21.47 1.73 24.06.52 27.22.52c3.36 0 5.9 1 7.62 3V1.3h5.7V25zM35.5 13.12c0-2.2-.62-4.01-1.86-5.43-1.24-1.42-2.83-2.13-4.77-2.13-1.94 0-3.52.69-4.74 2.07-1.22 1.38-1.83 3.21-1.83 5.49 0 2.28.62 4.12 1.86 5.52 1.24 1.4 2.84 2.1 4.8 2.1s3.54-.68 4.74-2.04c1.2-1.36 1.8-3.22 1.8-5.58zM67.84 25h-5.7v-2.16c-1.68 1.96-4.18 2.94-7.5 2.94-3.32 0-5.97-1.28-7.95-3.84-1.98-2.56-2.97-5.56-2.97-9 0-3.44 1.01-6.37 3.03-8.79C48.77 1.73 51.36.52 54.52.52c3.36 0 5.9 1 7.62 3V1.3h5.7V25zM62.8 13.12c0-2.2-.62-4.01-1.86-5.43-1.24-1.42-2.83-2.13-4.77-2.13-1.94 0-3.52.69-4.74 2.07-1.22 1.38-1.83 3.21-1.83 5.49 0 2.28.62 4.12 1.86 5.52 1.24 1.4 2.84 2.1 4.8 2.1s3.54-.68 4.74-2.04c1.2-1.36 1.8-3.22 1.8-5.58z" fill="#32C5FF"/><path d="M95.26 22.96c0 8.12-3.78 12.18-11.34 12.18-3.36 0-6.2-.91-8.52-2.73-2.32-1.82-3.48-4.19-3.48-7.11h6.18c0 1.16.58 2.3 1.74 3.42 1.16 1.12 2.46 1.68 3.9 1.68 3.8 0 5.7-2.28 5.7-6.84v-1.5c-1.64 2.08-4.13 3.12-7.47 3.12s-5.96-1.16-7.86-3.48c-1.9-2.32-2.85-5.16-2.85-8.52 0-3.64 1.02-6.68 3.06-9.12C76.36 1.62 79.01.4 82.27.4s5.65 1.02 7.17 3.06V1.18h5.82v21.78zm-4.98-10.32c0-2.16-.6-3.9-1.8-5.22-1.2-1.32-2.78-1.98-4.74-1.98-1.96 0-3.55.72-4.77 2.16-1.22 1.44-1.83 3.26-1.83 5.46 0 4.72 2.2 7.08 6.6 7.08 2 0 3.59-.71 4.77-2.13 1.18-1.42 1.77-3.21 1.77-5.37zM122.26 25h-5.7v-2.16c-1.68 1.96-4.18 2.94-7.5 2.94-3.32 0-5.97-1.28-7.95-3.84-1.98-2.56-2.97-5.56-2.97-9 0-3.44 1.01-6.37 3.03-8.79 2.02-2.42 4.61-3.63 7.77-3.63 3.36 0 5.9 1 7.62 3V1.3h5.7V25zm-5.04-11.88c0-2.2-.62-4.01-1.86-5.43-1.24-1.42-2.83-2.13-4.77-2.13-1.94 0-3.52.69-4.74 2.07-1.22 1.38-1.83 3.21-1.83 5.49 0 2.28.62 4.12 1.86 5.52 1.24 1.4 2.84 2.1 4.8 2.1s3.54-.68 4.74-2.04c1.2-1.36 1.8-3.22 1.8-5.58z" fill="#FFF"/></g></svg>