<svg xmlns="http://www.w3.org/2000/svg" width="1000" height="1000" viewBox="0 0 1000 1000"><path d="M481.233 402.01c0-1.505.526-2.804.828-4.195-116.023-1.204-225.65-14.167-314.395-37.157v54.484c83.325 20.601 190.544 34.392 313.566 35.689V402.01zm518.503-118.056c-25.417 22.99-65.979 45.887-129.137 65.829 1.486 2.766 2.577 5.775 2.577 9.125v45.115c59.583-18.137 103.099-39.903 126.54-62.461v-57.607h.019zM833.97 414.765v-54.541c-88.631 23.122-198.258 36.216-314.395 37.57.339 1.393.847 2.728.847 4.214v48.84c123.135-1.411 230.373-15.352 313.548-36.085zm-705.491-65.302C65.868 329.614 25.569 306.813.264 283.954v57.589c23.648 22.746 67.785 44.72 128.215 62.95v-55.03zm371.511 9.426c272.741 0 494.328-66.788 499.746-149.757.038-1.054.264-2.069.264-3.104 0-3.537-.546-7.074-1.317-10.573-.339-1.448-.602-2.916-1.072-4.365-.113-.376-.244-.733-.357-1.11-3.801-11.156-11.646-21.918-22.858-32.209C908.285 97.022 720.939 53.186 499.992 53.186S91.718 97.003 25.606 157.771c-11.213 10.31-19.059 21.071-22.858 32.246-.094.376-.226.696-.339 1.072-.471 1.448-.771 2.916-1.091 4.384-.753 3.519-1.317 7.018-1.317 10.555 0 1.035.207 2.051.264 3.085C5.646 292.1 227.251 358.888 499.993 358.888zm0 587.924c276.127 0 500.01-68.444 500.01-152.86 0-3.405-.489-6.792-1.204-10.122.489-3.085.96-6.208.96-9.482v-11.081a221.855 221.855 0 0 1-7.187 4.534c-31.269 19.266-72.112 35.689-119.392 49.197v25.925c0 10.799-8.768 19.585-19.604 19.585-10.78 0-19.604-8.786-19.604-19.585v-15.69a1028.824 1028.824 0 0 1-26.753 5.907c-86.919 18.137-187.459 28.032-286.795 29.255v9.952c0 10.799-8.768 19.585-19.604 19.585-10.817 0-19.604-8.786-19.604-19.585v-9.934c-99.9-1.11-201.062-11.024-288.469-29.274-8.504-1.769-16.876-3.594-25.098-5.55v10.46c0 10.817-8.786 19.604-19.604 19.604s-19.604-8.786-19.604-19.604v-20.582C80.482 803.865 39.054 787.291 7.429 767.8c-2.445-1.505-4.854-2.991-7.168-4.534v11.081c0 3.273.433 6.378.96 9.482-.696 3.367-1.223 6.735-1.223 10.122 0 84.417 223.863 152.86 499.99 152.86z"/><path d="M873.178 776.382c37.627-11.438 68.764-24.345 92.601-38.004 13.922-7.958 25.323-16.161 33.978-24.495V390.909c-32.096 21.24-75.612 39.188-126.578 53.751v51.398c0 10.837-8.768 19.604-19.604 19.604-10.78 0-19.604-8.768-19.604-19.604v-41.202c-92.639 21.899-203.808 33.827-313.548 35.182v49.142c0 10.817-8.768 19.604-19.604 19.604-10.817 0-19.604-8.786-19.604-19.604v-49.122c-109.608-1.204-220.777-13.038-313.566-34.824v49.649c0 10.799-8.786 19.585-19.604 19.585s-19.604-8.786-19.604-19.585v-59.752C76.779 430.494 32.642 412.376.226 390.929v322.992c8.636 8.297 20.056 16.519 33.959 24.495 24.176 13.81 55.896 26.903 94.237 38.455v-75.988c0-3.856 1.411-7.262 3.349-10.31 3.48-5.475 9.294-9.275 16.255-9.275 2.859 0 5.55.678 7.996 1.787 6.792 3.066 11.589 9.84 11.589 17.798v86.655c83.325 20.62 190.544 34.392 313.566 35.689v-88.066c0-10.799 8.768-19.604 19.604-19.604 10.799 0 19.604 8.805 19.604 19.604v88.048c123.135-1.393 230.335-15.352 313.548-36.085V692.04c0-4.102 1.543-7.657 3.669-10.799 3.537-5.192 9.162-8.786 15.936-8.786 10.78 0 19.604 8.786 19.604 19.585v84.342h.038z"/></svg>