<svg xmlns="http://www.w3.org/2000/svg" width="1000" height="1000" viewBox="0 0 1000 1000"><path d="M500 12.375c-276.25 0-500 223.875-500 500C0 733.333 143.25 920.708 341.875 986.75c25 4.708 34.167-10.75 34.167-24.042 0-11.875-.417-43.333-.625-85C236.334 907.875 207 810.625 207 810.625c-22.75-57.708-55.625-73.125-55.625-73.125-45.292-31 3.5-30.375 3.5-30.375 50.208 3.5 76.583 51.5 76.583 51.5C276.041 835.083 348.5 813 377.083 800.208c4.5-32.333 17.375-54.375 31.667-66.875C297.708 720.833 181 677.833 181 486.25c0-54.583 19.375-99.167 51.458-134.167-5.625-12.625-22.5-63.458 4.375-132.333 0 0 41.875-13.417 137.5 51.25 40-11.125 82.5-16.625 125-16.875 42.5.25 85 5.75 125 16.875 95-64.667 136.875-51.25 136.875-51.25 26.875 68.875 10 119.708 5 132.333 31.875 35 51.25 79.583 51.25 134.167 0 192.083-116.875 234.375-228.125 246.667 17.5 15 33.75 45.667 33.75 92.5 0 66.917-.625 120.667-.625 136.917 0 13.125 8.75 28.75 34.375 23.75C856.875 920.501 1000 733.001 1000 512.376c0-276.125-223.875-500-500-500z"/></svg>