<svg xmlns="http://www.w3.org/2000/svg" width="1000" height="1000" viewBox="0 0 1000 1000"><path d="M500 676.057q72.77 0 124.413-51.644T676.057 500t-51.644-124.413T500 323.943t-124.413 51.644T323.943 500t51.644 124.413T500 676.057zm373.239-126.761l105.634 82.159q16.432 11.737 4.695 32.864L882.629 838.028q-9.39 16.432-30.517 9.39l-124.413-49.296q-49.296 35.211-84.507 49.296l-18.779 131.455Q619.718 1000 600.938 1000H399.06q-18.779 0-23.475-21.127l-18.779-131.455q-44.601-18.779-84.507-49.296l-124.413 49.296q-21.127 7.042-30.517-9.39L16.43 664.319q-11.737-21.127 4.695-32.864l105.634-82.159q-2.348-16.432-2.348-49.296t2.348-49.296L21.125 368.545q-16.432-11.737-4.695-32.864l100.939-173.709q9.39-16.432 30.517-9.39l124.413 49.296q49.296-35.211 84.507-49.296l18.779-131.455Q380.28 0 399.06 0h201.878q18.779 0 23.475 21.127l18.779 131.455q44.601 18.779 84.507 49.296l124.413-49.296q21.127-7.042 30.517 9.39l100.939 173.709q11.737 21.127-4.695 32.864l-105.634 82.159q2.348 16.432 2.348 49.296t-2.348 49.296z"/></svg>