<svg xmlns="http://www.w3.org/2000/svg" width="1000" height="1000" viewBox="0 0 1000 1000"><path d="M500 54.688v234.375L382.812 171.875zM70.313 0l929.688 929.688-70.313 70.313-114.583-114.583q-85.938 72.917-203.125 101.563V872.398q65.104-18.229 125-65.104L500.001 570.315v375L221.355 666.669H.001V333.336h263.021L.001 70.315zm817.708 500q0-132.813-76.823-234.375T611.979 127.604V13.021Q781.25 49.479 890.625 186.198T1000 500q0 122.396-57.292 231.771l-83.333-85.938Q888.021 575.52 888.021 500zM750 500q0 23.438-2.604 33.854L611.979 398.437V276.041q57.292 28.646 97.656 93.75t40.364 130.208z"/></svg>