{"ticksPerQuarter":480,"timeSignatures":[{"time":0,"numerator":3,"denominator":4},{"time":40.344798000000004,"numerator":2,"denominator":4},{"time":41.37928000000001,"numerator":3,"denominator":4}],"tempos":[{"time":0,"qpm":116.00008506672904},{"time":41.37928000000001,"qpm":224.99971875035158}],"notes":[{"pitch":50,"velocity":128,"startTime":0,"endTime":0.12823266458333335,"instrument":0,"program":48,"isDrum":false},{"pitch":50,"velocity":110,"startTime":0.25862050000000003,"endTime":0.3221980395833334,"instrument":0,"program":48,"isDrum":false},{"pitch":50,"velocity":128,"startTime":0.38793075000000005,"endTime":0.4515082895833334,"instrument":0,"program":48,"isDrum":false},{"pitch":50,"velocity":110,"startTime":0.6465512500000001,"endTime":0.7101287895833334,"instrument":0,"program":48,"isDrum":false},{"pitch":50,"velocity":128,"startTime":0.7758615000000001,"endTime":0.9040941645833334,"instrument":0,"program":48,"isDrum":false},{"pitch":50,"velocity":110,"startTime":1.0344820000000001,"endTime":1.0980595395833335,"instrument":0,"program":48,"isDrum":false},{"pitch":50,"velocity":128,"startTime":1.1637922500000002,"endTime":1.2273697895833335,"instrument":0,"program":48,"isDrum":false},{"pitch":50,"velocity":110,"startTime":1.2931025000000003,"endTime":1.3566800395833336,"instrument":0,"program":48,"isDrum":false},{"pitch":50,"velocity":110,"startTime":1.4224127500000001,"endTime":1.4859902895833337,"instrument":0,"program":48,"isDrum":false},{"pitch":50,"velocity":128,"startTime":1.5517230000000002,"endTime":1.6799556645833336,"instrument":0,"program":48,"isDrum":false},{"pitch":50,"velocity":110,"startTime":1.8103435,"endTime":1.8739210395833337,"instrument":0,"program":48,"isDrum":false},{"pitch":50,"velocity":128,"startTime":1.9396537500000002,"endTime":2.0032312895833337,"instrument":0,"program":48,"isDrum":false},{"pitch":50,"velocity":110,"startTime":2.1982742500000003,"endTime":2.261851789583334,"instrument":0,"program":48,"isDrum":false},{"pitch":50,"velocity":128,"startTime":2.3275845000000004,"endTime":2.4558171645833338,"instrument":0,"program":48,"isDrum":false},{"pitch":50,"velocity":110,"startTime":2.5862050000000005,"endTime":2.6497825395833337,"instrument":0,"program":48,"isDrum":false},{"pitch":50,"velocity":128,"startTime":2.71551525,"endTime":2.7790927895833337,"instrument":0,"program":48,"isDrum":false},{"pitch":50,"velocity":110,"startTime":2.8448255000000002,"endTime":2.908403039583334,"instrument":0,"program":48,"isDrum":false},{"pitch":50,"velocity":110,"startTime":2.9741357500000003,"endTime":3.037713289583334,"instrument":0,"program":48,"isDrum":false},{"pitch":50,"velocity":128,"startTime":3.1034460000000004,"endTime":3.2316786645833337,"instrument":0,"program":48,"isDrum":false},{"pitch":50,"velocity":110,"startTime":3.3620665000000005,"endTime":3.4256440395833336,"instrument":0,"program":48,"isDrum":false},{"pitch":50,"velocity":128,"startTime":3.4913767500000006,"endTime":3.5549542895833337,"instrument":0,"program":48,"isDrum":false},{"pitch":50,"velocity":110,"startTime":3.7499972500000003,"endTime":3.813574789583334,"instrument":0,"program":48,"isDrum":false},{"pitch":50,"velocity":128,"startTime":3.8793075000000004,"endTime":4.007540164583334,"instrument":0,"program":48,"isDrum":false},{"pitch":50,"velocity":110,"startTime":4.1379280000000005,"endTime":4.201505539583334,"instrument":0,"program":48,"isDrum":false},{"pitch":50,"velocity":128,"startTime":4.26723825,"endTime":4.330815789583334,"instrument":0,"program":48,"isDrum":false},{"pitch":57,"velocity":128,"startTime":4.396548500000001,"endTime":4.524781164583334,"instrument":0,"program":48,"isDrum":false},{"pitch":50,"velocity":128,"startTime":4.52585875,"endTime":4.589436289583334,"instrument":0,"program":48,"isDrum":false},{"pitch":60,"velocity":128,"startTime":4.52585875,"endTime":4.589436289583334,"instrument":0,"program":48,"isDrum":false},{"pitch":62,"velocity":128,"startTime":4.655169000000001,"endTime":4.783401664583334,"instrument":0,"program":48,"isDrum":false},{"pitch":38,"velocity":128,"startTime":4.655169000000001,"endTime":5.429952914583334,"instrument":0,"program":48,"isDrum":false},{"pitch":62,"velocity":128,"startTime":4.913789500000001,"endTime":5.042022164583334,"instrument":0,"program":48,"isDrum":false},{"pitch":62,"velocity":128,"startTime":5.172410000000001,"endTime":5.300642664583334,"instrument":0,"program":48,"isDrum":false},{"pitch":64,"velocity":128,"startTime":5.301720250000001,"endTime":5.429952914583334,"instrument":0,"program":48,"isDrum":false},{"pitch":65,"velocity":128,"startTime":5.4310305,"endTime":5.559263164583334,"instrument":0,"program":48,"isDrum":false},{"pitch":34,"velocity":128,"startTime":5.4310305,"endTime":6.205814414583334,"instrument":0,"program":48,"isDrum":false},{"pitch":65,"velocity":128,"startTime":5.6896510000000005,"endTime":5.817883664583334,"instrument":0,"program":48,"isDrum":false},{"pitch":65,"velocity":128,"startTime":5.948271500000001,"endTime":6.076504164583334,"instrument":0,"program":48,"isDrum":false},{"pitch":67,"velocity":128,"startTime":6.077581750000001,"endTime":6.205814414583334,"instrument":0,"program":48,"isDrum":false},{"pitch":64,"velocity":128,"startTime":6.206892000000001,"endTime":6.335124664583335,"instrument":0,"program":48,"isDrum":false},{"pitch":33,"velocity":128,"startTime":6.206892000000001,"endTime":6.9816759145833345,"instrument":0,"program":48,"isDrum":false},{"pitch":64,"velocity":128,"startTime":6.465512500000001,"endTime":6.593745164583334,"instrument":0,"program":48,"isDrum":false},{"pitch":62,"velocity":128,"startTime":6.724133000000001,"endTime":6.852365664583334,"instrument":0,"program":48,"isDrum":false},{"pitch":60,"velocity":128,"startTime":6.853443250000001,"endTime":6.9816759145833345,"instrument":0,"program":48,"isDrum":false},{"pitch":60,"velocity":128,"startTime":6.982753500000001,"endTime":7.110986164583334,"instrument":0,"program":48,"isDrum":false},{"pitch":38,"velocity":128,"startTime":6.982753500000001,"endTime":7.757537414583334,"instrument":0,"program":48,"isDrum":false},{"pitch":62,"velocity":128,"startTime":7.112063750000001,"endTime":7.240296414583335,"instrument":0,"program":48,"isDrum":false},{"pitch":57,"velocity":128,"startTime":7.499994500000001,"endTime":7.628227164583334,"instrument":0,"program":48,"isDrum":false},{"pitch":60,"velocity":128,"startTime":7.629304750000001,"endTime":7.757537414583334,"instrument":0,"program":48,"isDrum":false},{"pitch":62,"velocity":128,"startTime":7.758615000000001,"endTime":7.8868476645833345,"instrument":0,"program":48,"isDrum":false},{"pitch":34,"velocity":128,"startTime":7.758615000000001,"endTime":8.533398914583334,"instrument":0,"program":48,"isDrum":false},{"pitch":62,"velocity":128,"startTime":8.017235500000002,"endTime":8.145468164583335,"instrument":0,"program":48,"isDrum":false},{"pitch":62,"velocity":128,"startTime":8.275856000000001,"endTime":8.404088664583334,"instrument":0,"program":48,"isDrum":false},{"pitch":64,"velocity":128,"startTime":8.40516625,"endTime":8.533398914583334,"instrument":0,"program":48,"isDrum":false},{"pitch":65,"velocity":128,"startTime":8.5344765,"endTime":8.662709164583333,"instrument":0,"program":48,"isDrum":false},{"pitch":41,"velocity":128,"startTime":8.5344765,"endTime":9.309260414583333,"instrument":0,"program":48,"isDrum":false},{"pitch":65,"velocity":128,"startTime":8.793097000000001,"endTime":8.921329664583334,"instrument":0,"program":48,"isDrum":false},{"pitch":65,"velocity":128,"startTime":9.0517175,"endTime":9.179950164583333,"instrument":0,"program":48,"isDrum":false},{"pitch":67,"velocity":128,"startTime":9.181027750000002,"endTime":9.309260414583333,"instrument":0,"program":48,"isDrum":false},{"pitch":64,"velocity":128,"startTime":9.310338000000002,"endTime":9.438570664583334,"instrument":0,"program":48,"isDrum":false},{"pitch":36,"velocity":128,"startTime":9.310338000000002,"endTime":10.085121914583334,"instrument":0,"program":48,"isDrum":false},{"pitch":64,"velocity":128,"startTime":9.5689585,"endTime":9.697191164583334,"instrument":0,"program":48,"isDrum":false},{"pitch":62,"velocity":128,"startTime":9.827579000000002,"endTime":9.955811664583333,"instrument":0,"program":48,"isDrum":false},{"pitch":60,"velocity":128,"startTime":9.956889250000001,"endTime":10.085121914583334,"instrument":0,"program":48,"isDrum":false},{"pitch":62,"velocity":128,"startTime":10.086199500000001,"endTime":10.214432164583334,"instrument":0,"program":48,"isDrum":false},{"pitch":38,"velocity":128,"startTime":10.086199500000001,"endTime":10.860983414583334,"instrument":0,"program":48,"isDrum":false},{"pitch":57,"velocity":128,"startTime":10.603440500000001,"endTime":10.731673164583334,"instrument":0,"program":48,"isDrum":false},{"pitch":60,"velocity":128,"startTime":10.732750750000001,"endTime":10.860983414583334,"instrument":0,"program":48,"isDrum":false},{"pitch":62,"velocity":128,"startTime":10.862061,"endTime":10.990293664583334,"instrument":0,"program":48,"isDrum":false},{"pitch":38,"velocity":128,"startTime":10.862061,"endTime":11.636844914583333,"instrument":0,"program":48,"isDrum":false},{"pitch":62,"velocity":128,"startTime":11.120681500000002,"endTime":11.248914164583335,"instrument":0,"program":48,"isDrum":false},{"pitch":62,"velocity":128,"startTime":11.379302000000001,"endTime":11.507534664583334,"instrument":0,"program":48,"isDrum":false},{"pitch":65,"velocity":128,"startTime":11.50861225,"endTime":11.636844914583333,"instrument":0,"program":48,"isDrum":false},{"pitch":67,"velocity":128,"startTime":11.637922500000002,"endTime":11.766155164583333,"instrument":0,"program":48,"isDrum":false},{"pitch":34,"velocity":128,"startTime":11.637922500000002,"endTime":12.412706414583335,"instrument":0,"program":48,"isDrum":false},{"pitch":67,"velocity":128,"startTime":11.896543000000001,"endTime":12.024775664583334,"instrument":0,"program":48,"isDrum":false},{"pitch":67,"velocity":128,"startTime":12.155163500000002,"endTime":12.283396164583333,"instrument":0,"program":48,"isDrum":false},{"pitch":69,"velocity":128,"startTime":12.284473750000002,"endTime":12.412706414583335,"instrument":0,"program":48,"isDrum":false},{"pitch":70,"velocity":128,"startTime":12.413784000000001,"endTime":12.542016664583334,"instrument":0,"program":48,"isDrum":false},{"pitch":43,"velocity":128,"startTime":12.413784000000001,"endTime":13.188567914583334,"instrument":0,"program":48,"isDrum":false},{"pitch":70,"velocity":128,"startTime":12.6724045,"endTime":12.800637164583334,"instrument":0,"program":48,"isDrum":false},{"pitch":69,"velocity":128,"startTime":12.931025000000002,"endTime":13.059257664583335,"instrument":0,"program":48,"isDrum":false},{"pitch":67,"velocity":128,"startTime":13.060335250000001,"endTime":13.188567914583334,"instrument":0,"program":48,"isDrum":false},{"pitch":69,"velocity":128,"startTime":13.189645500000001,"endTime":13.317878164583334,"instrument":0,"program":48,"isDrum":false},{"pitch":38,"velocity":128,"startTime":13.189645500000001,"endTime":13.964429414583334,"instrument":0,"program":48,"isDrum":false},{"pitch":62,"velocity":128,"startTime":13.318955750000002,"endTime":13.447188414583334,"instrument":0,"program":48,"isDrum":false},{"pitch":62,"velocity":128,"startTime":13.706886500000001,"endTime":13.835119164583334,"instrument":0,"program":48,"isDrum":false},{"pitch":64,"velocity":128,"startTime":13.836196750000001,"endTime":13.964429414583334,"instrument":0,"program":48,"isDrum":false},{"pitch":65,"velocity":128,"startTime":13.965507000000002,"endTime":14.093739664583333,"instrument":0,"program":48,"isDrum":false},{"pitch":34,"velocity":128,"startTime":13.965507000000002,"endTime":14.740290914583333,"instrument":0,"program":48,"isDrum":false},{"pitch":65,"velocity":128,"startTime":14.224127500000002,"endTime":14.352360164583335,"instrument":0,"program":48,"isDrum":false},{"pitch":67,"velocity":128,"startTime":14.482748,"endTime":14.610980664583334,"instrument":0,"program":48,"isDrum":false},{"pitch":69,"velocity":128,"startTime":14.741368500000002,"endTime":14.869601164583335,"instrument":0,"program":48,"isDrum":false},{"pitch":33,"velocity":128,"startTime":14.741368500000002,"endTime":15.516152414583335,"instrument":0,"program":48,"isDrum":false},{"pitch":62,"velocity":128,"startTime":14.870678750000002,"endTime":14.998911414583334,"instrument":0,"program":48,"isDrum":false},{"pitch":62,"velocity":128,"startTime":15.258609500000002,"endTime":15.386842164583335,"instrument":0,"program":48,"isDrum":false},{"pitch":65,"velocity":128,"startTime":15.387919750000002,"endTime":15.516152414583335,"instrument":0,"program":48,"isDrum":false},{"pitch":64,"velocity":128,"startTime":15.517230000000001,"endTime":15.645462664583334,"instrument":0,"program":48,"isDrum":false},{"pitch":33,"velocity":128,"startTime":15.517230000000001,"endTime":17.067875414583337,"instrument":0,"program":48,"isDrum":false},{"pitch":64,"velocity":128,"startTime":15.775850500000002,"endTime":15.904083164583334,"instrument":0,"program":48,"isDrum":false},{"pitch":65,"velocity":128,"startTime":16.034471000000003,"endTime":16.162703664583333,"instrument":0,"program":48,"isDrum":false},{"pitch":62,"velocity":128,"startTime":16.163781250000003,"endTime":16.292013914583336,"instrument":0,"program":48,"isDrum":false},{"pitch":64,"velocity":128,"startTime":16.293091500000003,"endTime":16.421324164583336,"instrument":0,"program":48,"isDrum":false},{"pitch":69,"velocity":128,"startTime":16.8103325,"endTime":16.938565164583338,"instrument":0,"program":48,"isDrum":false},{"pitch":72,"velocity":128,"startTime":16.93964275,"endTime":17.067875414583337,"instrument":0,"program":48,"isDrum":false},{"pitch":74,"velocity":128,"startTime":17.068953,"endTime":17.197185664583337,"instrument":0,"program":48,"isDrum":false},{"pitch":38,"velocity":128,"startTime":17.068953,"endTime":17.843736914583335,"instrument":0,"program":48,"isDrum":false},{"pitch":74,"velocity":128,"startTime":17.327573500000003,"endTime":17.455806164583336,"instrument":0,"program":48,"isDrum":false},{"pitch":74,"velocity":128,"startTime":17.586194000000003,"endTime":17.714426664583335,"instrument":0,"program":48,"isDrum":false},{"pitch":76,"velocity":128,"startTime":17.715504250000002,"endTime":17.843736914583335,"instrument":0,"program":48,"isDrum":false},{"pitch":77,"velocity":128,"startTime":17.844814500000002,"endTime":17.973047164583335,"instrument":0,"program":48,"isDrum":false},{"pitch":34,"velocity":128,"startTime":17.844814500000002,"endTime":18.619598414583336,"instrument":0,"program":48,"isDrum":false},{"pitch":77,"velocity":128,"startTime":18.103435,"endTime":18.231667664583338,"instrument":0,"program":48,"isDrum":false},{"pitch":77,"velocity":128,"startTime":18.362055500000004,"endTime":18.490288164583337,"instrument":0,"program":48,"isDrum":false},{"pitch":79,"velocity":128,"startTime":18.491365750000003,"endTime":18.619598414583336,"instrument":0,"program":48,"isDrum":false},{"pitch":76,"velocity":128,"startTime":18.620676000000003,"endTime":18.748908664583336,"instrument":0,"program":48,"isDrum":false},{"pitch":36,"velocity":128,"startTime":18.620676000000003,"endTime":19.395459914583338,"instrument":0,"program":48,"isDrum":false},{"pitch":76,"velocity":128,"startTime":18.879296500000002,"endTime":19.007529164583335,"instrument":0,"program":48,"isDrum":false},{"pitch":74,"velocity":128,"startTime":19.137917,"endTime":19.266149664583338,"instrument":0,"program":48,"isDrum":false},{"pitch":72,"velocity":128,"startTime":19.26722725,"endTime":19.395459914583338,"instrument":0,"program":48,"isDrum":false},{"pitch":72,"velocity":128,"startTime":19.3965375,"endTime":19.524770164583337,"instrument":0,"program":48,"isDrum":false},{"pitch":38,"velocity":128,"startTime":19.3965375,"endTime":20.171321414583335,"instrument":0,"program":48,"isDrum":false},{"pitch":74,"velocity":128,"startTime":19.525847750000004,"endTime":19.654080414583337,"instrument":0,"program":48,"isDrum":false},{"pitch":69,"velocity":128,"startTime":19.913778500000003,"endTime":20.042011164583336,"instrument":0,"program":48,"isDrum":false},{"pitch":72,"velocity":128,"startTime":20.043088750000003,"endTime":20.171321414583335,"instrument":0,"program":48,"isDrum":false},{"pitch":74,"velocity":128,"startTime":20.172399000000002,"endTime":20.300631664583335,"instrument":0,"program":48,"isDrum":false},{"pitch":34,"velocity":128,"startTime":20.172399000000002,"endTime":20.947182914583337,"instrument":0,"program":48,"isDrum":false},{"pitch":74,"velocity":128,"startTime":20.4310195,"endTime":20.559252164583338,"instrument":0,"program":48,"isDrum":false},{"pitch":74,"velocity":128,"startTime":20.689640000000004,"endTime":20.817872664583337,"instrument":0,"program":48,"isDrum":false},{"pitch":76,"velocity":128,"startTime":20.818950250000004,"endTime":20.947182914583337,"instrument":0,"program":48,"isDrum":false},{"pitch":77,"velocity":128,"startTime":20.948260500000004,"endTime":21.076493164583336,"instrument":0,"program":48,"isDrum":false},{"pitch":41,"velocity":128,"startTime":20.948260500000004,"endTime":21.723044414583338,"instrument":0,"program":48,"isDrum":false},{"pitch":77,"velocity":128,"startTime":21.206881000000003,"endTime":21.335113664583336,"instrument":0,"program":48,"isDrum":false},{"pitch":77,"velocity":128,"startTime":21.465501500000002,"endTime":21.59373416458334,"instrument":0,"program":48,"isDrum":false},{"pitch":79,"velocity":128,"startTime":21.59481175,"endTime":21.723044414583338,"instrument":0,"program":48,"isDrum":false},{"pitch":76,"velocity":128,"startTime":21.724122,"endTime":21.852354664583338,"instrument":0,"program":48,"isDrum":false},{"pitch":36,"velocity":128,"startTime":21.724122,"endTime":22.498905914583336,"instrument":0,"program":48,"isDrum":false},{"pitch":76,"velocity":128,"startTime":21.982742500000004,"endTime":22.110975164583337,"instrument":0,"program":48,"isDrum":false},{"pitch":74,"velocity":128,"startTime":22.241363000000003,"endTime":22.369595664583336,"instrument":0,"program":48,"isDrum":false},{"pitch":72,"velocity":128,"startTime":22.370673250000003,"endTime":22.498905914583336,"instrument":0,"program":48,"isDrum":false},{"pitch":74,"velocity":128,"startTime":22.499983500000003,"endTime":22.628216164583336,"instrument":0,"program":48,"isDrum":false},{"pitch":38,"velocity":128,"startTime":22.499983500000003,"endTime":23.274767414583337,"instrument":0,"program":48,"isDrum":false},{"pitch":69,"velocity":128,"startTime":23.0172245,"endTime":23.145457164583338,"instrument":0,"program":48,"isDrum":false},{"pitch":72,"velocity":128,"startTime":23.146534750000004,"endTime":23.274767414583337,"instrument":0,"program":48,"isDrum":false},{"pitch":74,"velocity":128,"startTime":23.275845000000004,"endTime":23.404077664583337,"instrument":0,"program":48,"isDrum":false},{"pitch":38,"velocity":128,"startTime":23.275845000000004,"endTime":24.05062891458334,"instrument":0,"program":48,"isDrum":false},{"pitch":74,"velocity":128,"startTime":23.534465500000003,"endTime":23.662698164583336,"instrument":0,"program":48,"isDrum":false},{"pitch":74,"velocity":128,"startTime":23.793086000000002,"endTime":23.92131866458334,"instrument":0,"program":48,"isDrum":false},{"pitch":77,"velocity":128,"startTime":23.922396250000002,"endTime":24.05062891458334,"instrument":0,"program":48,"isDrum":false},{"pitch":79,"velocity":128,"startTime":24.0517065,"endTime":24.179939164583338,"instrument":0,"program":48,"isDrum":false},{"pitch":34,"velocity":128,"startTime":24.0517065,"endTime":24.826490414583336,"instrument":0,"program":48,"isDrum":false},{"pitch":79,"velocity":128,"startTime":24.310327000000004,"endTime":24.438559664583337,"instrument":0,"program":48,"isDrum":false},{"pitch":79,"velocity":128,"startTime":24.568947500000004,"endTime":24.697180164583337,"instrument":0,"program":48,"isDrum":false},{"pitch":81,"velocity":128,"startTime":24.698257750000003,"endTime":24.826490414583336,"instrument":0,"program":48,"isDrum":false},{"pitch":82,"velocity":128,"startTime":24.827568000000003,"endTime":24.955800664583336,"instrument":0,"program":48,"isDrum":false},{"pitch":43,"velocity":128,"startTime":24.827568000000003,"endTime":25.602351914583338,"instrument":0,"program":48,"isDrum":false},{"pitch":82,"velocity":128,"startTime":25.086188500000002,"endTime":25.21442116458334,"instrument":0,"program":48,"isDrum":false},{"pitch":81,"velocity":128,"startTime":25.344809,"endTime":25.473041664583338,"instrument":0,"program":48,"isDrum":false},{"pitch":79,"velocity":128,"startTime":25.474119250000005,"endTime":25.602351914583338,"instrument":0,"program":48,"isDrum":false},{"pitch":81,"velocity":128,"startTime":25.603429500000004,"endTime":25.731662164583337,"instrument":0,"program":48,"isDrum":false},{"pitch":38,"velocity":128,"startTime":25.603429500000004,"endTime":26.37821341458334,"instrument":0,"program":48,"isDrum":false},{"pitch":74,"velocity":128,"startTime":25.732739750000004,"endTime":25.860972414583337,"instrument":0,"program":48,"isDrum":false},{"pitch":74,"velocity":128,"startTime":26.120670500000003,"endTime":26.248903164583336,"instrument":0,"program":48,"isDrum":false},{"pitch":76,"velocity":128,"startTime":26.249980750000002,"endTime":26.37821341458334,"instrument":0,"program":48,"isDrum":false},{"pitch":77,"velocity":128,"startTime":26.379291000000002,"endTime":26.50752366458334,"instrument":0,"program":48,"isDrum":false},{"pitch":34,"velocity":128,"startTime":26.379291000000002,"endTime":27.154074914583337,"instrument":0,"program":48,"isDrum":false},{"pitch":77,"velocity":128,"startTime":26.637911500000005,"endTime":26.766144164583338,"instrument":0,"program":48,"isDrum":false},{"pitch":79,"velocity":128,"startTime":26.896532000000004,"endTime":27.024764664583337,"instrument":0,"program":48,"isDrum":false},{"pitch":81,"velocity":128,"startTime":27.155152500000003,"endTime":27.283385164583336,"instrument":0,"program":48,"isDrum":false},{"pitch":38,"velocity":128,"startTime":27.155152500000003,"endTime":27.929936414583338,"instrument":0,"program":48,"isDrum":false},{"pitch":74,"velocity":128,"startTime":27.284462750000003,"endTime":27.412695414583336,"instrument":0,"program":48,"isDrum":false},{"pitch":74,"velocity":128,"startTime":27.672393500000002,"endTime":27.80062616458334,"instrument":0,"program":48,"isDrum":false},{"pitch":77,"velocity":128,"startTime":27.801703750000005,"endTime":27.929936414583338,"instrument":0,"program":48,"isDrum":false},{"pitch":76,"velocity":128,"startTime":27.931014000000005,"endTime":28.059246664583338,"instrument":0,"program":48,"isDrum":false},{"pitch":33,"velocity":128,"startTime":27.931014000000005,"endTime":29.481659414583337,"instrument":0,"program":48,"isDrum":false},{"pitch":76,"velocity":128,"startTime":28.189634500000004,"endTime":28.317867164583337,"instrument":0,"program":48,"isDrum":false},{"pitch":74,"velocity":128,"startTime":28.448255000000003,"endTime":28.576487664583336,"instrument":0,"program":48,"isDrum":false},{"pitch":73,"velocity":128,"startTime":28.577565250000003,"endTime":28.70579791458334,"instrument":0,"program":48,"isDrum":false},{"pitch":74,"velocity":128,"startTime":28.706875500000002,"endTime":28.83510816458334,"instrument":0,"program":48,"isDrum":false},{"pitch":74,"velocity":128,"startTime":28.965496,"endTime":29.093728664583338,"instrument":0,"program":48,"isDrum":false},{"pitch":76,"velocity":128,"startTime":29.224116500000004,"endTime":29.352349164583337,"instrument":0,"program":48,"isDrum":false},{"pitch":38,"velocity":128,"startTime":29.482737000000004,"endTime":29.610969664583337,"instrument":0,"program":48,"isDrum":false},{"pitch":77,"velocity":128,"startTime":29.482737000000004,"endTime":29.610969664583337,"instrument":0,"program":48,"isDrum":false},{"pitch":77,"velocity":128,"startTime":29.741357500000003,"endTime":29.86959016458334,"instrument":0,"program":48,"isDrum":false},{"pitch":36,"velocity":128,"startTime":29.741357500000003,"endTime":29.99890041458334,"instrument":0,"program":48,"isDrum":false},{"pitch":77,"velocity":128,"startTime":29.870667750000003,"endTime":29.99890041458334,"instrument":0,"program":48,"isDrum":false},{"pitch":34,"velocity":128,"startTime":29.999978000000002,"endTime":30.12821066458334,"instrument":0,"program":48,"isDrum":false},{"pitch":79,"velocity":128,"startTime":29.999978000000002,"endTime":30.12821066458334,"instrument":0,"program":48,"isDrum":false},{"pitch":81,"velocity":128,"startTime":30.258598500000005,"endTime":30.386831164583338,"instrument":0,"program":48,"isDrum":false},{"pitch":33,"velocity":128,"startTime":30.258598500000005,"endTime":31.809243914583337,"instrument":0,"program":48,"isDrum":false},{"pitch":38,"velocity":128,"startTime":30.258598500000005,"endTime":31.809243914583337,"instrument":0,"program":48,"isDrum":false},{"pitch":77,"velocity":128,"startTime":30.775839500000004,"endTime":30.904072164583337,"instrument":0,"program":48,"isDrum":false},{"pitch":74,"velocity":128,"startTime":30.905149750000003,"endTime":31.03338241458334,"instrument":0,"program":48,"isDrum":false},{"pitch":69,"velocity":128,"startTime":31.034460000000003,"endTime":31.29200291458334,"instrument":0,"program":48,"isDrum":false},{"pitch":82,"velocity":128,"startTime":31.810321500000004,"endTime":31.938554164583337,"instrument":0,"program":48,"isDrum":false},{"pitch":34,"velocity":128,"startTime":31.810321500000004,"endTime":33.36096691458334,"instrument":0,"program":48,"isDrum":false},{"pitch":43,"velocity":128,"startTime":31.810321500000004,"endTime":33.36096691458334,"instrument":0,"program":48,"isDrum":false},{"pitch":77,"velocity":128,"startTime":32.45687275,"endTime":32.58510541458334,"instrument":0,"program":48,"isDrum":false},{"pitch":74,"velocity":128,"startTime":32.586183000000005,"endTime":32.714415664583335,"instrument":0,"program":48,"isDrum":false},{"pitch":70,"velocity":128,"startTime":32.71549325,"endTime":32.90838103958334,"instrument":0,"program":48,"isDrum":false},{"pitch":33,"velocity":128,"startTime":33.3620445,"endTime":34.13682841458334,"instrument":0,"program":48,"isDrum":false},{"pitch":40,"velocity":128,"startTime":33.749975250000006,"endTime":33.94286303958334,"instrument":0,"program":48,"isDrum":false},{"pitch":45,"velocity":128,"startTime":34.137906,"endTime":34.65406941458334,"instrument":0,"program":48,"isDrum":false},{"pitch":33,"velocity":128,"startTime":34.137906,"endTime":34.91268991458334,"instrument":0,"program":48,"isDrum":false},{"pitch":40,"velocity":128,"startTime":34.137906,"endTime":34.91268991458334,"instrument":0,"program":48,"isDrum":false},{"pitch":53,"velocity":128,"startTime":34.78445725,"endTime":34.91268991458334,"instrument":0,"program":48,"isDrum":false},{"pitch":65,"velocity":128,"startTime":34.78445725,"endTime":34.91268991458334,"instrument":0,"program":48,"isDrum":false},{"pitch":55,"velocity":128,"startTime":34.913767500000006,"endTime":35.042000164583335,"instrument":0,"program":48,"isDrum":false},{"pitch":67,"velocity":128,"startTime":34.913767500000006,"endTime":35.042000164583335,"instrument":0,"program":48,"isDrum":false},{"pitch":57,"velocity":128,"startTime":35.04307775,"endTime":35.17131041458334,"instrument":0,"program":48,"isDrum":false},{"pitch":69,"velocity":128,"startTime":35.04307775,"endTime":35.17131041458334,"instrument":0,"program":48,"isDrum":false},{"pitch":38,"velocity":128,"startTime":35.04307775,"endTime":36.59372316458334,"instrument":0,"program":48,"isDrum":false},{"pitch":57,"velocity":128,"startTime":35.30169825,"endTime":35.42993091458334,"instrument":0,"program":48,"isDrum":false},{"pitch":69,"velocity":128,"startTime":35.30169825,"endTime":35.42993091458334,"instrument":0,"program":48,"isDrum":false},{"pitch":57,"velocity":128,"startTime":35.56031875000001,"endTime":35.68855141458334,"instrument":0,"program":48,"isDrum":false},{"pitch":69,"velocity":128,"startTime":35.56031875000001,"endTime":35.68855141458334,"instrument":0,"program":48,"isDrum":false},{"pitch":58,"velocity":128,"startTime":35.81893925000001,"endTime":35.947171914583336,"instrument":0,"program":48,"isDrum":false},{"pitch":70,"velocity":128,"startTime":35.81893925000001,"endTime":35.947171914583336,"instrument":0,"program":48,"isDrum":false},{"pitch":57,"velocity":128,"startTime":35.9482495,"endTime":36.07648216458334,"instrument":0,"program":48,"isDrum":false},{"pitch":69,"velocity":128,"startTime":35.9482495,"endTime":36.07648216458334,"instrument":0,"program":48,"isDrum":false},{"pitch":55,"velocity":128,"startTime":36.594800750000005,"endTime":36.72303341458334,"instrument":0,"program":48,"isDrum":false},{"pitch":67,"velocity":128,"startTime":36.594800750000005,"endTime":36.72303341458334,"instrument":0,"program":48,"isDrum":false},{"pitch":36,"velocity":128,"startTime":36.594800750000005,"endTime":37.49889491458334,"instrument":0,"program":48,"isDrum":false},{"pitch":55,"velocity":128,"startTime":36.853421250000004,"endTime":36.98165391458334,"instrument":0,"program":48,"isDrum":false},{"pitch":67,"velocity":128,"startTime":36.853421250000004,"endTime":36.98165391458334,"instrument":0,"program":48,"isDrum":false},{"pitch":55,"velocity":128,"startTime":37.11204175,"endTime":37.24027441458334,"instrument":0,"program":48,"isDrum":false},{"pitch":67,"velocity":128,"startTime":37.11204175,"endTime":37.24027441458334,"instrument":0,"program":48,"isDrum":false},{"pitch":55,"velocity":128,"startTime":37.37066225,"endTime":37.49889491458334,"instrument":0,"program":48,"isDrum":false},{"pitch":67,"velocity":128,"startTime":37.37066225,"endTime":37.49889491458334,"instrument":0,"program":48,"isDrum":false},{"pitch":57,"velocity":128,"startTime":37.499972500000005,"endTime":37.62820516458334,"instrument":0,"program":48,"isDrum":false},{"pitch":69,"velocity":128,"startTime":37.499972500000005,"endTime":37.62820516458334,"instrument":0,"program":48,"isDrum":false},{"pitch":38,"velocity":128,"startTime":37.499972500000005,"endTime":39.82647941458334,"instrument":0,"program":48,"isDrum":false},{"pitch":57,"velocity":128,"startTime":38.14652375000001,"endTime":38.27475641458334,"instrument":0,"program":48,"isDrum":false},{"pitch":69,"velocity":128,"startTime":38.14652375000001,"endTime":38.27475641458334,"instrument":0,"program":48,"isDrum":false},{"pitch":57,"velocity":128,"startTime":38.405144250000006,"endTime":38.533376914583336,"instrument":0,"program":48,"isDrum":false},{"pitch":69,"velocity":128,"startTime":38.405144250000006,"endTime":38.533376914583336,"instrument":0,"program":48,"isDrum":false},{"pitch":57,"velocity":128,"startTime":38.663764750000006,"endTime":38.79199741458334,"instrument":0,"program":48,"isDrum":false},{"pitch":69,"velocity":128,"startTime":38.663764750000006,"endTime":38.79199741458334,"instrument":0,"program":48,"isDrum":false},{"pitch":58,"velocity":128,"startTime":38.922385250000005,"endTime":39.05061791458334,"instrument":0,"program":48,"isDrum":false},{"pitch":70,"velocity":128,"startTime":38.922385250000005,"endTime":39.05061791458334,"instrument":0,"program":48,"isDrum":false},{"pitch":57,"velocity":128,"startTime":39.05169550000001,"endTime":39.17992816458334,"instrument":0,"program":48,"isDrum":false},{"pitch":69,"velocity":128,"startTime":39.05169550000001,"endTime":39.17992816458334,"instrument":0,"program":48,"isDrum":false},{"pitch":36,"velocity":128,"startTime":39.69824675,"endTime":39.82647941458334,"instrument":0,"program":48,"isDrum":false},{"pitch":50,"velocity":128,"startTime":39.69824675,"endTime":39.82647941458334,"instrument":0,"program":48,"isDrum":false},{"pitch":55,"velocity":128,"startTime":39.69824675,"endTime":39.82647941458334,"instrument":0,"program":48,"isDrum":false},{"pitch":67,"velocity":128,"startTime":39.69824675,"endTime":39.82647941458334,"instrument":0,"program":48,"isDrum":false},{"pitch":34,"velocity":128,"startTime":39.95686725,"endTime":40.08509991458334,"instrument":0,"program":48,"isDrum":false},{"pitch":48,"velocity":128,"startTime":39.95686725,"endTime":40.08509991458334,"instrument":0,"program":48,"isDrum":false},{"pitch":53,"velocity":128,"startTime":39.95686725,"endTime":40.08509991458334,"instrument":0,"program":48,"isDrum":false},{"pitch":65,"velocity":128,"startTime":39.95686725,"endTime":40.08509991458334,"instrument":0,"program":48,"isDrum":false},{"pitch":33,"velocity":128,"startTime":40.21548775000001,"endTime":40.34372041458334,"instrument":0,"program":48,"isDrum":false},{"pitch":45,"velocity":128,"startTime":40.21548775000001,"endTime":40.34372041458334,"instrument":0,"program":48,"isDrum":false},{"pitch":52,"velocity":128,"startTime":40.21548775000001,"endTime":40.34372041458334,"instrument":0,"program":48,"isDrum":false},{"pitch":64,"velocity":128,"startTime":40.21548775000001,"endTime":40.34372041458334,"instrument":0,"program":48,"isDrum":false},{"pitch":38,"velocity":128,"startTime":40.47410825000001,"endTime":40.66699603958334,"instrument":0,"program":48,"isDrum":false},{"pitch":41,"velocity":128,"startTime":40.47410825000001,"endTime":40.66699603958334,"instrument":0,"program":48,"isDrum":false},{"pitch":50,"velocity":128,"startTime":40.47410825000001,"endTime":40.66699603958334,"instrument":0,"program":48,"isDrum":false},{"pitch":62,"velocity":128,"startTime":40.47410825000001,"endTime":40.66699603958334,"instrument":0,"program":48,"isDrum":false},{"pitch":62,"velocity":128,"startTime":41.1206595,"endTime":41.24889216458334,"instrument":0,"program":48,"isDrum":false},{"pitch":64,"velocity":128,"startTime":41.249969750000005,"endTime":41.37820241458334,"instrument":0,"program":48,"isDrum":false},{"pitch":65,"velocity":128,"startTime":41.37928000000001,"endTime":41.912058443750006,"instrument":0,"program":48,"isDrum":false},{"pitch":53,"velocity":128,"startTime":41.37928000000001,"endTime":41.51205794375001,"instrument":0,"program":48,"isDrum":false},{"pitch":57,"velocity":128,"startTime":41.37928000000001,"endTime":41.51205794375001,"instrument":0,"program":48,"isDrum":false},{"pitch":53,"velocity":128,"startTime":41.64594700000001,"endTime":41.71205819375001,"instrument":0,"program":48,"isDrum":false},{"pitch":57,"velocity":128,"startTime":41.64594700000001,"endTime":41.71205819375001,"instrument":0,"program":48,"isDrum":false},{"pitch":53,"velocity":128,"startTime":41.779280500000006,"endTime":41.84539169375001,"instrument":0,"program":48,"isDrum":false},{"pitch":57,"velocity":128,"startTime":41.779280500000006,"endTime":41.84539169375001,"instrument":0,"program":48,"isDrum":false},{"pitch":53,"velocity":128,"startTime":41.912614000000005,"endTime":41.97872519375001,"instrument":0,"program":48,"isDrum":false},{"pitch":57,"velocity":128,"startTime":41.912614000000005,"endTime":41.97872519375001,"instrument":0,"program":48,"isDrum":false},{"pitch":67,"velocity":128,"startTime":41.912614000000005,"endTime":41.97872519375001,"instrument":0,"program":48,"isDrum":false},{"pitch":53,"velocity":128,"startTime":42.04594750000001,"endTime":42.11205869375001,"instrument":0,"program":48,"isDrum":false},{"pitch":57,"velocity":128,"startTime":42.04594750000001,"endTime":42.11205869375001,"instrument":0,"program":48,"isDrum":false},{"pitch":69,"velocity":128,"startTime":42.04594750000001,"endTime":42.11205869375001,"instrument":0,"program":48,"isDrum":false},{"pitch":53,"velocity":128,"startTime":42.17928100000001,"endTime":42.31205894375001,"instrument":0,"program":48,"isDrum":false},{"pitch":60,"velocity":128,"startTime":42.17928100000001,"endTime":42.31205894375001,"instrument":0,"program":48,"isDrum":false},{"pitch":67,"velocity":128,"startTime":42.17928100000001,"endTime":42.31205894375001,"instrument":0,"program":48,"isDrum":false},{"pitch":53,"velocity":128,"startTime":42.44594800000001,"endTime":42.512059193750005,"instrument":0,"program":48,"isDrum":false},{"pitch":60,"velocity":128,"startTime":42.44594800000001,"endTime":42.512059193750005,"instrument":0,"program":48,"isDrum":false},{"pitch":65,"velocity":128,"startTime":42.44594800000001,"endTime":42.512059193750005,"instrument":0,"program":48,"isDrum":false},{"pitch":53,"velocity":128,"startTime":42.57928150000001,"endTime":42.64539269375001,"instrument":0,"program":48,"isDrum":false},{"pitch":60,"velocity":128,"startTime":42.57928150000001,"endTime":42.64539269375001,"instrument":0,"program":48,"isDrum":false},{"pitch":53,"velocity":128,"startTime":42.71261500000001,"endTime":42.77872619375001,"instrument":0,"program":48,"isDrum":false},{"pitch":60,"velocity":128,"startTime":42.71261500000001,"endTime":42.77872619375001,"instrument":0,"program":48,"isDrum":false},{"pitch":64,"velocity":128,"startTime":42.71261500000001,"endTime":42.77872619375001,"instrument":0,"program":48,"isDrum":false},{"pitch":53,"velocity":128,"startTime":42.845948500000006,"endTime":42.91205969375001,"instrument":0,"program":48,"isDrum":false},{"pitch":60,"velocity":128,"startTime":42.845948500000006,"endTime":42.91205969375001,"instrument":0,"program":48,"isDrum":false},{"pitch":53,"velocity":128,"startTime":42.97928200000001,"endTime":43.11205994375001,"instrument":0,"program":48,"isDrum":false},{"pitch":57,"velocity":128,"startTime":42.97928200000001,"endTime":43.11205994375001,"instrument":0,"program":48,"isDrum":false},{"pitch":65,"velocity":128,"startTime":42.97928200000001,"endTime":43.11205994375001,"instrument":0,"program":48,"isDrum":false},{"pitch":53,"velocity":128,"startTime":43.24594900000001,"endTime":43.31206019375001,"instrument":0,"program":48,"isDrum":false},{"pitch":57,"velocity":128,"startTime":43.24594900000001,"endTime":43.31206019375001,"instrument":0,"program":48,"isDrum":false},{"pitch":67,"velocity":128,"startTime":43.24594900000001,"endTime":43.31206019375001,"instrument":0,"program":48,"isDrum":false},{"pitch":53,"velocity":128,"startTime":43.37928250000001,"endTime":43.445393693750006,"instrument":0,"program":48,"isDrum":false},{"pitch":57,"velocity":128,"startTime":43.37928250000001,"endTime":43.445393693750006,"instrument":0,"program":48,"isDrum":false},{"pitch":53,"velocity":128,"startTime":43.51261600000001,"endTime":43.578727193750005,"instrument":0,"program":48,"isDrum":false},{"pitch":57,"velocity":128,"startTime":43.51261600000001,"endTime":43.578727193750005,"instrument":0,"program":48,"isDrum":false},{"pitch":69,"velocity":128,"startTime":43.51261600000001,"endTime":43.578727193750005,"instrument":0,"program":48,"isDrum":false},{"pitch":53,"velocity":128,"startTime":43.64594950000001,"endTime":43.71206069375001,"instrument":0,"program":48,"isDrum":false},{"pitch":57,"velocity":128,"startTime":43.64594950000001,"endTime":43.71206069375001,"instrument":0,"program":48,"isDrum":false},{"pitch":55,"velocity":128,"startTime":43.77928300000001,"endTime":43.91206094375001,"instrument":0,"program":48,"isDrum":false},{"pitch":60,"velocity":128,"startTime":43.77928300000001,"endTime":43.91206094375001,"instrument":0,"program":48,"isDrum":false},{"pitch":67,"velocity":128,"startTime":43.77928300000001,"endTime":43.91206094375001,"instrument":0,"program":48,"isDrum":false},{"pitch":55,"velocity":128,"startTime":44.045950000000005,"endTime":44.11206119375001,"instrument":0,"program":48,"isDrum":false},{"pitch":60,"velocity":128,"startTime":44.045950000000005,"endTime":44.11206119375001,"instrument":0,"program":48,"isDrum":false},{"pitch":55,"velocity":128,"startTime":44.17928350000001,"endTime":44.24539469375001,"instrument":0,"program":48,"isDrum":false},{"pitch":60,"velocity":128,"startTime":44.17928350000001,"endTime":44.24539469375001,"instrument":0,"program":48,"isDrum":false},{"pitch":55,"velocity":128,"startTime":44.31261700000001,"endTime":44.37872819375001,"instrument":0,"program":48,"isDrum":false},{"pitch":60,"velocity":128,"startTime":44.31261700000001,"endTime":44.37872819375001,"instrument":0,"program":48,"isDrum":false},{"pitch":65,"velocity":128,"startTime":44.31261700000001,"endTime":44.37872819375001,"instrument":0,"program":48,"isDrum":false},{"pitch":55,"velocity":128,"startTime":44.44595050000001,"endTime":44.512061693750006,"instrument":0,"program":48,"isDrum":false},{"pitch":60,"velocity":128,"startTime":44.44595050000001,"endTime":44.512061693750006,"instrument":0,"program":48,"isDrum":false},{"pitch":67,"velocity":128,"startTime":44.44595050000001,"endTime":44.512061693750006,"instrument":0,"program":48,"isDrum":false},{"pitch":69,"velocity":128,"startTime":44.57928400000001,"endTime":45.112062443750006,"instrument":0,"program":48,"isDrum":false},{"pitch":53,"velocity":128,"startTime":44.57928400000001,"endTime":44.71206194375001,"instrument":0,"program":48,"isDrum":false},{"pitch":60,"velocity":128,"startTime":44.57928400000001,"endTime":44.71206194375001,"instrument":0,"program":48,"isDrum":false},{"pitch":53,"velocity":128,"startTime":44.84595100000001,"endTime":44.91206219375001,"instrument":0,"program":48,"isDrum":false},{"pitch":60,"velocity":128,"startTime":44.84595100000001,"endTime":44.91206219375001,"instrument":0,"program":48,"isDrum":false},{"pitch":53,"velocity":128,"startTime":44.979284500000006,"endTime":45.04539569375001,"instrument":0,"program":48,"isDrum":false},{"pitch":60,"velocity":128,"startTime":44.979284500000006,"endTime":45.04539569375001,"instrument":0,"program":48,"isDrum":false},{"pitch":53,"velocity":128,"startTime":45.11261800000001,"endTime":45.17872919375001,"instrument":0,"program":48,"isDrum":false},{"pitch":60,"velocity":128,"startTime":45.11261800000001,"endTime":45.17872919375001,"instrument":0,"program":48,"isDrum":false},{"pitch":67,"velocity":128,"startTime":45.11261800000001,"endTime":45.17872919375001,"instrument":0,"program":48,"isDrum":false},{"pitch":53,"velocity":128,"startTime":45.24595150000001,"endTime":45.31206269375001,"instrument":0,"program":48,"isDrum":false},{"pitch":60,"velocity":128,"startTime":45.24595150000001,"endTime":45.31206269375001,"instrument":0,"program":48,"isDrum":false},{"pitch":65,"velocity":128,"startTime":45.24595150000001,"endTime":45.31206269375001,"instrument":0,"program":48,"isDrum":false},{"pitch":48,"velocity":128,"startTime":45.37928500000001,"endTime":45.51206294375001,"instrument":0,"program":48,"isDrum":false},{"pitch":52,"velocity":128,"startTime":45.37928500000001,"endTime":45.51206294375001,"instrument":0,"program":48,"isDrum":false},{"pitch":64,"velocity":128,"startTime":45.37928500000001,"endTime":45.51206294375001,"instrument":0,"program":48,"isDrum":false},{"pitch":48,"velocity":128,"startTime":45.64595200000001,"endTime":45.712063193750005,"instrument":0,"program":48,"isDrum":false},{"pitch":52,"velocity":128,"startTime":45.64595200000001,"endTime":45.712063193750005,"instrument":0,"program":48,"isDrum":false},{"pitch":65,"velocity":128,"startTime":45.64595200000001,"endTime":45.712063193750005,"instrument":0,"program":48,"isDrum":false},{"pitch":48,"velocity":128,"startTime":45.77928550000001,"endTime":45.845396693750004,"instrument":0,"program":48,"isDrum":false},{"pitch":52,"velocity":128,"startTime":45.77928550000001,"endTime":45.845396693750004,"instrument":0,"program":48,"isDrum":false},{"pitch":48,"velocity":128,"startTime":45.91261900000001,"endTime":45.97873019375001,"instrument":0,"program":48,"isDrum":false},{"pitch":52,"velocity":128,"startTime":45.91261900000001,"endTime":45.97873019375001,"instrument":0,"program":48,"isDrum":false},{"pitch":64,"velocity":128,"startTime":45.91261900000001,"endTime":45.97873019375001,"instrument":0,"program":48,"isDrum":false},{"pitch":48,"velocity":128,"startTime":46.045952500000006,"endTime":46.11206369375001,"instrument":0,"program":48,"isDrum":false},{"pitch":52,"velocity":128,"startTime":46.045952500000006,"endTime":46.11206369375001,"instrument":0,"program":48,"isDrum":false},{"pitch":62,"velocity":128,"startTime":46.179286000000005,"endTime":46.71206444375001,"instrument":0,"program":48,"isDrum":false},{"pitch":52,"velocity":128,"startTime":46.179286000000005,"endTime":46.312063943750005,"instrument":0,"program":48,"isDrum":false},{"pitch":55,"velocity":128,"startTime":46.179286000000005,"endTime":46.312063943750005,"instrument":0,"program":48,"isDrum":false},{"pitch":60,"velocity":128,"startTime":46.179286000000005,"endTime":46.312063943750005,"instrument":0,"program":48,"isDrum":false},{"pitch":53,"velocity":128,"startTime":46.44595300000001,"endTime":46.57873094375001,"instrument":0,"program":48,"isDrum":false},{"pitch":57,"velocity":128,"startTime":46.44595300000001,"endTime":46.57873094375001,"instrument":0,"program":48,"isDrum":false},{"pitch":65,"velocity":128,"startTime":46.44595300000001,"endTime":46.57873094375001,"instrument":0,"program":48,"isDrum":false},{"pitch":52,"velocity":128,"startTime":46.71262000000001,"endTime":46.778731193750005,"instrument":0,"program":48,"isDrum":false},{"pitch":55,"velocity":128,"startTime":46.71262000000001,"endTime":46.778731193750005,"instrument":0,"program":48,"isDrum":false},{"pitch":64,"velocity":128,"startTime":46.71262000000001,"endTime":46.778731193750005,"instrument":0,"program":48,"isDrum":false},{"pitch":60,"velocity":128,"startTime":46.84595350000001,"endTime":46.97873144375001,"instrument":0,"program":48,"isDrum":false},{"pitch":50,"velocity":128,"startTime":46.97928700000001,"endTime":47.112064943750006,"instrument":0,"program":48,"isDrum":false},{"pitch":53,"velocity":128,"startTime":46.97928700000001,"endTime":47.112064943750006,"instrument":0,"program":48,"isDrum":false},{"pitch":62,"velocity":128,"startTime":46.97928700000001,"endTime":47.112064943750006,"instrument":0,"program":48,"isDrum":false},{"pitch":62,"velocity":128,"startTime":47.51262100000001,"endTime":47.64539894375001,"instrument":0,"program":48,"isDrum":false},{"pitch":74,"velocity":128,"startTime":47.51262100000001,"endTime":47.64539894375001,"instrument":0,"program":48,"isDrum":false},{"pitch":64,"velocity":128,"startTime":47.64595450000001,"endTime":47.77873244375001,"instrument":0,"program":48,"isDrum":false},{"pitch":76,"velocity":128,"startTime":47.64595450000001,"endTime":47.77873244375001,"instrument":0,"program":48,"isDrum":false},{"pitch":65,"velocity":128,"startTime":47.77928800000001,"endTime":48.312066443750005,"instrument":0,"program":48,"isDrum":false},{"pitch":77,"velocity":128,"startTime":47.77928800000001,"endTime":48.312066443750005,"instrument":0,"program":48,"isDrum":false},{"pitch":69,"velocity":128,"startTime":47.77928800000001,"endTime":47.91206594375001,"instrument":0,"program":48,"isDrum":false},{"pitch":69,"velocity":128,"startTime":48.045955000000006,"endTime":48.178732943750006,"instrument":0,"program":48,"isDrum":false},{"pitch":69,"velocity":128,"startTime":48.179288500000006,"endTime":48.312066443750005,"instrument":0,"program":48,"isDrum":false},{"pitch":64,"velocity":128,"startTime":48.312622000000005,"endTime":48.37873319375001,"instrument":0,"program":48,"isDrum":false},{"pitch":69,"velocity":128,"startTime":48.312622000000005,"endTime":48.37873319375001,"instrument":0,"program":48,"isDrum":false},{"pitch":76,"velocity":128,"startTime":48.312622000000005,"endTime":48.37873319375001,"instrument":0,"program":48,"isDrum":false},{"pitch":65,"velocity":128,"startTime":48.44595550000001,"endTime":48.51206669375001,"instrument":0,"program":48,"isDrum":false},{"pitch":69,"velocity":128,"startTime":48.44595550000001,"endTime":48.51206669375001,"instrument":0,"program":48,"isDrum":false},{"pitch":77,"velocity":128,"startTime":48.44595550000001,"endTime":48.51206669375001,"instrument":0,"program":48,"isDrum":false},{"pitch":67,"velocity":128,"startTime":48.57928900000001,"endTime":48.71206694375001,"instrument":0,"program":48,"isDrum":false},{"pitch":72,"velocity":128,"startTime":48.57928900000001,"endTime":48.71206694375001,"instrument":0,"program":48,"isDrum":false},{"pitch":79,"velocity":128,"startTime":48.57928900000001,"endTime":48.71206694375001,"instrument":0,"program":48,"isDrum":false},{"pitch":65,"velocity":128,"startTime":48.84595600000001,"endTime":48.912067193750005,"instrument":0,"program":48,"isDrum":false},{"pitch":72,"velocity":128,"startTime":48.84595600000001,"endTime":48.912067193750005,"instrument":0,"program":48,"isDrum":false},{"pitch":77,"velocity":128,"startTime":48.84595600000001,"endTime":48.912067193750005,"instrument":0,"program":48,"isDrum":false},{"pitch":72,"velocity":128,"startTime":48.97928950000001,"endTime":49.04540069375001,"instrument":0,"program":48,"isDrum":false},{"pitch":67,"velocity":128,"startTime":49.112623000000006,"endTime":49.17873419375001,"instrument":0,"program":48,"isDrum":false},{"pitch":72,"velocity":128,"startTime":49.112623000000006,"endTime":49.17873419375001,"instrument":0,"program":48,"isDrum":false},{"pitch":79,"velocity":128,"startTime":49.112623000000006,"endTime":49.17873419375001,"instrument":0,"program":48,"isDrum":false},{"pitch":72,"velocity":128,"startTime":49.245956500000005,"endTime":49.31206769375001,"instrument":0,"program":48,"isDrum":false},{"pitch":69,"velocity":128,"startTime":49.37929000000001,"endTime":49.51206794375001,"instrument":0,"program":48,"isDrum":false},{"pitch":72,"velocity":128,"startTime":49.37929000000001,"endTime":49.51206794375001,"instrument":0,"program":48,"isDrum":false},{"pitch":81,"velocity":128,"startTime":49.37929000000001,"endTime":49.51206794375001,"instrument":0,"program":48,"isDrum":false},{"pitch":67,"velocity":128,"startTime":49.64595700000001,"endTime":49.77873494375001,"instrument":0,"program":48,"isDrum":false},{"pitch":69,"velocity":128,"startTime":49.64595700000001,"endTime":49.77873494375001,"instrument":0,"program":48,"isDrum":false},{"pitch":72,"velocity":128,"startTime":49.64595700000001,"endTime":49.77873494375001,"instrument":0,"program":48,"isDrum":false},{"pitch":79,"velocity":128,"startTime":49.64595700000001,"endTime":49.77873494375001,"instrument":0,"program":48,"isDrum":false},{"pitch":65,"velocity":128,"startTime":49.91262400000001,"endTime":50.04540194375001,"instrument":0,"program":48,"isDrum":false},{"pitch":72,"velocity":128,"startTime":49.91262400000001,"endTime":50.04540194375001,"instrument":0,"program":48,"isDrum":false},{"pitch":77,"velocity":128,"startTime":49.91262400000001,"endTime":50.04540194375001,"instrument":0,"program":48,"isDrum":false},{"pitch":62,"velocity":128,"startTime":50.179291000000006,"endTime":50.312068943750006,"instrument":0,"program":48,"isDrum":false},{"pitch":70,"velocity":128,"startTime":50.179291000000006,"endTime":50.312068943750006,"instrument":0,"program":48,"isDrum":false},{"pitch":74,"velocity":128,"startTime":50.179291000000006,"endTime":50.312068943750006,"instrument":0,"program":48,"isDrum":false},{"pitch":70,"velocity":128,"startTime":50.445958000000005,"endTime":50.51206919375001,"instrument":0,"program":48,"isDrum":false},{"pitch":70,"velocity":128,"startTime":50.57929150000001,"endTime":50.64540269375001,"instrument":0,"program":48,"isDrum":false},{"pitch":62,"velocity":128,"startTime":50.71262500000001,"endTime":50.77873619375001,"instrument":0,"program":48,"isDrum":false},{"pitch":70,"velocity":128,"startTime":50.71262500000001,"endTime":50.77873619375001,"instrument":0,"program":48,"isDrum":false},{"pitch":74,"velocity":128,"startTime":50.71262500000001,"endTime":50.77873619375001,"instrument":0,"program":48,"isDrum":false},{"pitch":64,"velocity":128,"startTime":50.84595850000001,"endTime":50.91206969375001,"instrument":0,"program":48,"isDrum":false},{"pitch":70,"velocity":128,"startTime":50.84595850000001,"endTime":50.91206969375001,"instrument":0,"program":48,"isDrum":false},{"pitch":76,"velocity":128,"startTime":50.84595850000001,"endTime":50.91206969375001,"instrument":0,"program":48,"isDrum":false},{"pitch":65,"velocity":128,"startTime":50.97929200000001,"endTime":51.11206994375001,"instrument":0,"program":48,"isDrum":false},{"pitch":69,"velocity":128,"startTime":50.97929200000001,"endTime":51.11206994375001,"instrument":0,"program":48,"isDrum":false},{"pitch":77,"velocity":128,"startTime":50.97929200000001,"endTime":51.11206994375001,"instrument":0,"program":48,"isDrum":false},{"pitch":67,"velocity":128,"startTime":51.245959000000006,"endTime":51.31207019375001,"instrument":0,"program":48,"isDrum":false},{"pitch":69,"velocity":128,"startTime":51.245959000000006,"endTime":51.31207019375001,"instrument":0,"program":48,"isDrum":false},{"pitch":79,"velocity":128,"startTime":51.245959000000006,"endTime":51.31207019375001,"instrument":0,"program":48,"isDrum":false},{"pitch":69,"velocity":128,"startTime":51.379292500000005,"endTime":51.44540369375001,"instrument":0,"program":48,"isDrum":false},{"pitch":69,"velocity":128,"startTime":51.51262600000001,"endTime":51.57873719375001,"instrument":0,"program":48,"isDrum":false},{"pitch":81,"velocity":128,"startTime":51.51262600000001,"endTime":51.57873719375001,"instrument":0,"program":48,"isDrum":false},{"pitch":69,"velocity":128,"startTime":51.645959500000004,"endTime":51.71207069375001,"instrument":0,"program":48,"isDrum":false},{"pitch":70,"velocity":128,"startTime":51.77929300000001,"endTime":51.91207094375001,"instrument":0,"program":48,"isDrum":false},{"pitch":82,"velocity":128,"startTime":51.77929300000001,"endTime":51.91207094375001,"instrument":0,"program":48,"isDrum":false},{"pitch":62,"velocity":128,"startTime":52.04596000000001,"endTime":52.11207119375001,"instrument":0,"program":48,"isDrum":false},{"pitch":70,"velocity":128,"startTime":52.04596000000001,"endTime":52.11207119375001,"instrument":0,"program":48,"isDrum":false},{"pitch":74,"velocity":128,"startTime":52.04596000000001,"endTime":52.11207119375001,"instrument":0,"program":48,"isDrum":false},{"pitch":70,"velocity":128,"startTime":52.17929350000001,"endTime":52.24540469375001,"instrument":0,"program":48,"isDrum":false},{"pitch":67,"velocity":128,"startTime":52.312627000000006,"endTime":52.37873819375001,"instrument":0,"program":48,"isDrum":false},{"pitch":70,"velocity":128,"startTime":52.312627000000006,"endTime":52.37873819375001,"instrument":0,"program":48,"isDrum":false},{"pitch":79,"velocity":128,"startTime":52.312627000000006,"endTime":52.37873819375001,"instrument":0,"program":48,"isDrum":false},{"pitch":70,"velocity":128,"startTime":52.44596050000001,"endTime":52.51207169375001,"instrument":0,"program":48,"isDrum":false},{"pitch":65,"velocity":128,"startTime":52.579294000000004,"endTime":52.712071943750004,"instrument":0,"program":48,"isDrum":false},{"pitch":69,"velocity":128,"startTime":52.579294000000004,"endTime":52.712071943750004,"instrument":0,"program":48,"isDrum":false},{"pitch":77,"velocity":128,"startTime":52.579294000000004,"endTime":52.712071943750004,"instrument":0,"program":48,"isDrum":false},{"pitch":69,"velocity":128,"startTime":52.84596100000001,"endTime":52.91207219375001,"instrument":0,"program":48,"isDrum":false},{"pitch":67,"velocity":128,"startTime":52.97929450000001,"endTime":53.04540569375001,"instrument":0,"program":48,"isDrum":false},{"pitch":69,"velocity":128,"startTime":52.97929450000001,"endTime":53.04540569375001,"instrument":0,"program":48,"isDrum":false},{"pitch":79,"velocity":128,"startTime":52.97929450000001,"endTime":53.04540569375001,"instrument":0,"program":48,"isDrum":false},{"pitch":64,"velocity":128,"startTime":53.11262800000001,"endTime":53.24540594375001,"instrument":0,"program":48,"isDrum":false},{"pitch":76,"velocity":128,"startTime":53.11262800000001,"endTime":53.24540594375001,"instrument":0,"program":48,"isDrum":false},{"pitch":62,"velocity":128,"startTime":53.379295000000006,"endTime":53.512072943750006,"instrument":0,"program":48,"isDrum":false},{"pitch":74,"velocity":128,"startTime":53.379295000000006,"endTime":53.512072943750006,"instrument":0,"program":48,"isDrum":false},{"pitch":64,"velocity":128,"startTime":53.7792955,"endTime":53.91207344375001,"instrument":0,"program":48,"isDrum":false},{"pitch":76,"velocity":128,"startTime":53.7792955,"endTime":53.91207344375001,"instrument":0,"program":48,"isDrum":false},{"pitch":60,"velocity":128,"startTime":53.91262900000001,"endTime":54.04540694375001,"instrument":0,"program":48,"isDrum":false},{"pitch":73,"velocity":128,"startTime":53.91262900000001,"endTime":54.04540694375001,"instrument":0,"program":48,"isDrum":false},{"pitch":65,"velocity":128,"startTime":54.17929600000001,"endTime":54.31207394375001,"instrument":0,"program":48,"isDrum":false},{"pitch":69,"velocity":128,"startTime":54.17929600000001,"endTime":54.31207394375001,"instrument":0,"program":48,"isDrum":false},{"pitch":62,"velocity":128,"startTime":54.97929700000001,"endTime":55.11207494375001,"instrument":0,"program":48,"isDrum":false},{"pitch":70,"velocity":128,"startTime":54.97929700000001,"endTime":55.11207494375001,"instrument":0,"program":48,"isDrum":false},{"pitch":60,"velocity":128,"startTime":55.77929800000001,"endTime":55.91207594375001,"instrument":0,"program":48,"isDrum":false},{"pitch":69,"velocity":128,"startTime":55.77929800000001,"endTime":55.91207594375001,"instrument":0,"program":48,"isDrum":false},{"pitch":60,"velocity":128,"startTime":56.04596500000001,"endTime":56.17874294375001,"instrument":0,"program":48,"isDrum":false},{"pitch":69,"velocity":128,"startTime":56.04596500000001,"endTime":56.17874294375001,"instrument":0,"program":48,"isDrum":false},{"pitch":60,"velocity":128,"startTime":56.31263200000001,"endTime":56.44540994375001,"instrument":0,"program":48,"isDrum":false},{"pitch":69,"velocity":128,"startTime":56.31263200000001,"endTime":56.44540994375001,"instrument":0,"program":48,"isDrum":false},{"pitch":60,"velocity":128,"startTime":56.579299000000006,"endTime":56.712076943750006,"instrument":0,"program":48,"isDrum":false},{"pitch":69,"velocity":128,"startTime":56.579299000000006,"endTime":56.712076943750006,"instrument":0,"program":48,"isDrum":false},{"pitch":64,"velocity":128,"startTime":56.71263250000001,"endTime":56.84541044375001,"instrument":0,"program":48,"isDrum":false},{"pitch":67,"velocity":128,"startTime":56.71263250000001,"endTime":56.84541044375001,"instrument":0,"program":48,"isDrum":false},{"pitch":62,"velocity":128,"startTime":57.37930000000001,"endTime":57.51207794375001,"instrument":0,"program":48,"isDrum":false},{"pitch":67,"velocity":128,"startTime":57.37930000000001,"endTime":57.51207794375001,"instrument":0,"program":48,"isDrum":false},{"pitch":57,"velocity":128,"startTime":58.17930100000001,"endTime":58.31207894375001,"instrument":0,"program":48,"isDrum":false},{"pitch":65,"velocity":128,"startTime":58.17930100000001,"endTime":58.31207894375001,"instrument":0,"program":48,"isDrum":false},{"pitch":55,"velocity":128,"startTime":58.979302000000004,"endTime":59.112079943750004,"instrument":0,"program":48,"isDrum":false},{"pitch":64,"velocity":128,"startTime":58.979302000000004,"endTime":59.112079943750004,"instrument":0,"program":48,"isDrum":false},{"pitch":57,"velocity":128,"startTime":59.24596900000001,"endTime":59.37874694375001,"instrument":0,"program":48,"isDrum":false},{"pitch":65,"velocity":128,"startTime":59.24596900000001,"endTime":59.37874694375001,"instrument":0,"program":48,"isDrum":false},{"pitch":55,"velocity":128,"startTime":59.51263600000001,"endTime":59.64541394375001,"instrument":0,"program":48,"isDrum":false},{"pitch":64,"velocity":128,"startTime":59.51263600000001,"endTime":59.64541394375001,"instrument":0,"program":48,"isDrum":false},{"pitch":55,"velocity":128,"startTime":59.779303000000006,"endTime":59.91208094375001,"instrument":0,"program":48,"isDrum":false},{"pitch":64,"velocity":128,"startTime":59.779303000000006,"endTime":59.91208094375001,"instrument":0,"program":48,"isDrum":false},{"pitch":57,"velocity":128,"startTime":59.912636500000005,"endTime":60.045414443750005,"instrument":0,"program":48,"isDrum":false},{"pitch":62,"velocity":128,"startTime":59.912636500000005,"endTime":60.045414443750005,"instrument":0,"program":48,"isDrum":false},{"pitch":57,"velocity":128,"startTime":60.57930400000001,"endTime":60.71208194375001,"instrument":0,"program":48,"isDrum":false},{"pitch":65,"velocity":128,"startTime":60.57930400000001,"endTime":60.71208194375001,"instrument":0,"program":48,"isDrum":false},{"pitch":58,"velocity":128,"startTime":61.37930500000001,"endTime":61.51208294375001,"instrument":0,"program":48,"isDrum":false},{"pitch":65,"velocity":128,"startTime":61.37930500000001,"endTime":61.51208294375001,"instrument":0,"program":48,"isDrum":false},{"pitch":57,"velocity":128,"startTime":62.17930600000001,"endTime":62.31208394375001,"instrument":0,"program":48,"isDrum":false},{"pitch":65,"velocity":128,"startTime":62.17930600000001,"endTime":62.31208394375001,"instrument":0,"program":48,"isDrum":false},{"pitch":57,"velocity":128,"startTime":62.44597300000001,"endTime":62.57875094375001,"instrument":0,"program":48,"isDrum":false},{"pitch":65,"velocity":128,"startTime":62.44597300000001,"endTime":62.57875094375001,"instrument":0,"program":48,"isDrum":false},{"pitch":60,"velocity":128,"startTime":62.71264000000001,"endTime":62.84541794375001,"instrument":0,"program":48,"isDrum":false},{"pitch":65,"velocity":128,"startTime":62.71264000000001,"endTime":62.84541794375001,"instrument":0,"program":48,"isDrum":false},{"pitch":57,"velocity":128,"startTime":62.979307000000006,"endTime":63.112084943750006,"instrument":0,"program":48,"isDrum":false},{"pitch":65,"velocity":128,"startTime":62.979307000000006,"endTime":63.112084943750006,"instrument":0,"program":48,"isDrum":false},{"pitch":55,"velocity":128,"startTime":63.11264050000001,"endTime":63.24541844375001,"instrument":0,"program":48,"isDrum":false},{"pitch":64,"velocity":128,"startTime":63.11264050000001,"endTime":63.24541844375001,"instrument":0,"program":48,"isDrum":false},{"pitch":55,"velocity":128,"startTime":63.77930800000001,"endTime":63.91208594375001,"instrument":0,"program":48,"isDrum":false},{"pitch":62,"velocity":128,"startTime":63.77930800000001,"endTime":63.91208594375001,"instrument":0,"program":48,"isDrum":false},{"pitch":53,"velocity":128,"startTime":64.57930900000001,"endTime":64.71208694375001,"instrument":0,"program":48,"isDrum":false},{"pitch":62,"velocity":128,"startTime":64.57930900000001,"endTime":64.71208694375001,"instrument":0,"program":48,"isDrum":false},{"pitch":52,"velocity":128,"startTime":65.37931,"endTime":65.51208794375,"instrument":0,"program":48,"isDrum":false},{"pitch":64,"velocity":128,"startTime":65.37931,"endTime":65.51208794375,"instrument":0,"program":48,"isDrum":false},{"pitch":53,"velocity":128,"startTime":65.64597700000002,"endTime":65.77875494375002,"instrument":0,"program":48,"isDrum":false},{"pitch":62,"velocity":128,"startTime":65.64597700000002,"endTime":65.77875494375002,"instrument":0,"program":48,"isDrum":false},{"pitch":52,"velocity":128,"startTime":65.912644,"endTime":66.04542194375,"instrument":0,"program":48,"isDrum":false},{"pitch":60,"velocity":128,"startTime":65.912644,"endTime":66.04542194375,"instrument":0,"program":48,"isDrum":false},{"pitch":50,"velocity":128,"startTime":66.17931100000001,"endTime":66.31208894375001,"instrument":0,"program":48,"isDrum":false},{"pitch":62,"velocity":128,"startTime":66.17931100000001,"endTime":66.31208894375001,"instrument":0,"program":48,"isDrum":false},{"pitch":50,"velocity":128,"startTime":4.396548500000001,"endTime":4.524781164583334,"instrument":1,"program":48,"isDrum":false},{"pitch":53,"velocity":128,"startTime":4.396548500000001,"endTime":4.524781164583334,"instrument":1,"program":48,"isDrum":false},{"pitch":57,"velocity":128,"startTime":4.396548500000001,"endTime":4.524781164583334,"instrument":1,"program":48,"isDrum":false},{"pitch":52,"velocity":128,"startTime":4.52585875,"endTime":4.654091414583334,"instrument":1,"program":48,"isDrum":false},{"pitch":55,"velocity":128,"startTime":4.52585875,"endTime":4.654091414583334,"instrument":1,"program":48,"isDrum":false},{"pitch":60,"velocity":128,"startTime":4.52585875,"endTime":4.654091414583334,"instrument":1,"program":48,"isDrum":false},{"pitch":53,"velocity":128,"startTime":4.655169000000001,"endTime":4.783401664583334,"instrument":1,"program":48,"isDrum":false},{"pitch":57,"velocity":128,"startTime":4.655169000000001,"endTime":4.783401664583334,"instrument":1,"program":48,"isDrum":false},{"pitch":62,"velocity":128,"startTime":4.655169000000001,"endTime":4.783401664583334,"instrument":1,"program":48,"isDrum":false},{"pitch":53,"velocity":128,"startTime":4.913789500000001,"endTime":5.042022164583334,"instrument":1,"program":48,"isDrum":false},{"pitch":57,"velocity":128,"startTime":4.913789500000001,"endTime":5.042022164583334,"instrument":1,"program":48,"isDrum":false},{"pitch":62,"velocity":128,"startTime":4.913789500000001,"endTime":5.042022164583334,"instrument":1,"program":48,"isDrum":false},{"pitch":53,"velocity":128,"startTime":5.172410000000001,"endTime":5.300642664583334,"instrument":1,"program":48,"isDrum":false},{"pitch":57,"velocity":128,"startTime":5.172410000000001,"endTime":5.300642664583334,"instrument":1,"program":48,"isDrum":false},{"pitch":62,"velocity":128,"startTime":5.172410000000001,"endTime":5.300642664583334,"instrument":1,"program":48,"isDrum":false},{"pitch":55,"velocity":128,"startTime":5.301720250000001,"endTime":5.429952914583334,"instrument":1,"program":48,"isDrum":false},{"pitch":60,"velocity":128,"startTime":5.301720250000001,"endTime":5.429952914583334,"instrument":1,"program":48,"isDrum":false},{"pitch":64,"velocity":128,"startTime":5.301720250000001,"endTime":5.429952914583334,"instrument":1,"program":48,"isDrum":false},{"pitch":58,"velocity":128,"startTime":5.4310305,"endTime":5.559263164583334,"instrument":1,"program":48,"isDrum":false},{"pitch":62,"velocity":128,"startTime":5.4310305,"endTime":5.559263164583334,"instrument":1,"program":48,"isDrum":false},{"pitch":65,"velocity":128,"startTime":5.4310305,"endTime":5.559263164583334,"instrument":1,"program":48,"isDrum":false},{"pitch":58,"velocity":128,"startTime":5.6896510000000005,"endTime":5.817883664583334,"instrument":1,"program":48,"isDrum":false},{"pitch":62,"velocity":128,"startTime":5.6896510000000005,"endTime":5.817883664583334,"instrument":1,"program":48,"isDrum":false},{"pitch":65,"velocity":128,"startTime":5.6896510000000005,"endTime":5.817883664583334,"instrument":1,"program":48,"isDrum":false},{"pitch":58,"velocity":128,"startTime":5.948271500000001,"endTime":6.076504164583334,"instrument":1,"program":48,"isDrum":false},{"pitch":62,"velocity":128,"startTime":5.948271500000001,"endTime":6.076504164583334,"instrument":1,"program":48,"isDrum":false},{"pitch":65,"velocity":128,"startTime":5.948271500000001,"endTime":6.076504164583334,"instrument":1,"program":48,"isDrum":false},{"pitch":58,"velocity":128,"startTime":6.077581750000001,"endTime":6.205814414583334,"instrument":1,"program":48,"isDrum":false},{"pitch":64,"velocity":128,"startTime":6.077581750000001,"endTime":6.205814414583334,"instrument":1,"program":48,"isDrum":false},{"pitch":67,"velocity":128,"startTime":6.077581750000001,"endTime":6.205814414583334,"instrument":1,"program":48,"isDrum":false},{"pitch":57,"velocity":128,"startTime":6.206892000000001,"endTime":6.335124664583335,"instrument":1,"program":48,"isDrum":false},{"pitch":60,"velocity":128,"startTime":6.206892000000001,"endTime":6.335124664583335,"instrument":1,"program":48,"isDrum":false},{"pitch":64,"velocity":128,"startTime":6.206892000000001,"endTime":6.335124664583335,"instrument":1,"program":48,"isDrum":false},{"pitch":57,"velocity":128,"startTime":6.465512500000001,"endTime":6.593745164583334,"instrument":1,"program":48,"isDrum":false},{"pitch":60,"velocity":128,"startTime":6.465512500000001,"endTime":6.593745164583334,"instrument":1,"program":48,"isDrum":false},{"pitch":64,"velocity":128,"startTime":6.465512500000001,"endTime":6.593745164583334,"instrument":1,"program":48,"isDrum":false},{"pitch":53,"velocity":128,"startTime":6.724133000000001,"endTime":6.852365664583334,"instrument":1,"program":48,"isDrum":false},{"pitch":57,"velocity":128,"startTime":6.724133000000001,"endTime":6.852365664583334,"instrument":1,"program":48,"isDrum":false},{"pitch":62,"velocity":128,"startTime":6.724133000000001,"endTime":6.852365664583334,"instrument":1,"program":48,"isDrum":false},{"pitch":52,"velocity":128,"startTime":6.853443250000001,"endTime":6.9816759145833345,"instrument":1,"program":48,"isDrum":false},{"pitch":55,"velocity":128,"startTime":6.853443250000001,"endTime":6.9816759145833345,"instrument":1,"program":48,"isDrum":false},{"pitch":60,"velocity":128,"startTime":6.853443250000001,"endTime":6.9816759145833345,"instrument":1,"program":48,"isDrum":false},{"pitch":52,"velocity":128,"startTime":6.982753500000001,"endTime":7.110986164583334,"instrument":1,"program":48,"isDrum":false},{"pitch":55,"velocity":128,"startTime":6.982753500000001,"endTime":7.110986164583334,"instrument":1,"program":48,"isDrum":false},{"pitch":60,"velocity":128,"startTime":6.982753500000001,"endTime":7.110986164583334,"instrument":1,"program":48,"isDrum":false},{"pitch":53,"velocity":128,"startTime":7.112063750000001,"endTime":7.240296414583335,"instrument":1,"program":48,"isDrum":false},{"pitch":57,"velocity":128,"startTime":7.112063750000001,"endTime":7.240296414583335,"instrument":1,"program":48,"isDrum":false},{"pitch":62,"velocity":128,"startTime":7.112063750000001,"endTime":7.240296414583335,"instrument":1,"program":48,"isDrum":false},{"pitch":50,"velocity":128,"startTime":7.499994500000001,"endTime":7.628227164583334,"instrument":1,"program":48,"isDrum":false},{"pitch":53,"velocity":128,"startTime":7.499994500000001,"endTime":7.628227164583334,"instrument":1,"program":48,"isDrum":false},{"pitch":57,"velocity":128,"startTime":7.499994500000001,"endTime":7.628227164583334,"instrument":1,"program":48,"isDrum":false},{"pitch":53,"velocity":128,"startTime":7.629304750000001,"endTime":7.757537414583334,"instrument":1,"program":48,"isDrum":false},{"pitch":57,"velocity":128,"startTime":7.629304750000001,"endTime":7.757537414583334,"instrument":1,"program":48,"isDrum":false},{"pitch":60,"velocity":128,"startTime":7.629304750000001,"endTime":7.757537414583334,"instrument":1,"program":48,"isDrum":false},{"pitch":53,"velocity":128,"startTime":7.758615000000001,"endTime":7.8868476645833345,"instrument":1,"program":48,"isDrum":false},{"pitch":58,"velocity":128,"startTime":7.758615000000001,"endTime":7.8868476645833345,"instrument":1,"program":48,"isDrum":false},{"pitch":62,"velocity":128,"startTime":7.758615000000001,"endTime":7.8868476645833345,"instrument":1,"program":48,"isDrum":false},{"pitch":53,"velocity":128,"startTime":8.017235500000002,"endTime":8.145468164583335,"instrument":1,"program":48,"isDrum":false},{"pitch":58,"velocity":128,"startTime":8.017235500000002,"endTime":8.145468164583335,"instrument":1,"program":48,"isDrum":false},{"pitch":62,"velocity":128,"startTime":8.017235500000002,"endTime":8.145468164583335,"instrument":1,"program":48,"isDrum":false},{"pitch":53,"velocity":128,"startTime":8.275856000000001,"endTime":8.404088664583334,"instrument":1,"program":48,"isDrum":false},{"pitch":58,"velocity":128,"startTime":8.275856000000001,"endTime":8.404088664583334,"instrument":1,"program":48,"isDrum":false},{"pitch":62,"velocity":128,"startTime":8.275856000000001,"endTime":8.404088664583334,"instrument":1,"program":48,"isDrum":false},{"pitch":55,"velocity":128,"startTime":8.40516625,"endTime":8.533398914583334,"instrument":1,"program":48,"isDrum":false},{"pitch":60,"velocity":128,"startTime":8.40516625,"endTime":8.533398914583334,"instrument":1,"program":48,"isDrum":false},{"pitch":64,"velocity":128,"startTime":8.40516625,"endTime":8.533398914583334,"instrument":1,"program":48,"isDrum":false},{"pitch":57,"velocity":128,"startTime":8.5344765,"endTime":8.662709164583333,"instrument":1,"program":48,"isDrum":false},{"pitch":60,"velocity":128,"startTime":8.5344765,"endTime":8.662709164583333,"instrument":1,"program":48,"isDrum":false},{"pitch":65,"velocity":128,"startTime":8.5344765,"endTime":8.662709164583333,"instrument":1,"program":48,"isDrum":false},{"pitch":57,"velocity":128,"startTime":8.793097000000001,"endTime":8.921329664583334,"instrument":1,"program":48,"isDrum":false},{"pitch":60,"velocity":128,"startTime":8.793097000000001,"endTime":8.921329664583334,"instrument":1,"program":48,"isDrum":false},{"pitch":65,"velocity":128,"startTime":8.793097000000001,"endTime":8.921329664583334,"instrument":1,"program":48,"isDrum":false},{"pitch":57,"velocity":128,"startTime":9.0517175,"endTime":9.179950164583333,"instrument":1,"program":48,"isDrum":false},{"pitch":60,"velocity":128,"startTime":9.0517175,"endTime":9.179950164583333,"instrument":1,"program":48,"isDrum":false},{"pitch":65,"velocity":128,"startTime":9.0517175,"endTime":9.179950164583333,"instrument":1,"program":48,"isDrum":false},{"pitch":57,"velocity":128,"startTime":9.181027750000002,"endTime":9.309260414583333,"instrument":1,"program":48,"isDrum":false},{"pitch":62,"velocity":128,"startTime":9.181027750000002,"endTime":9.309260414583333,"instrument":1,"program":48,"isDrum":false},{"pitch":67,"velocity":128,"startTime":9.181027750000002,"endTime":9.309260414583333,"instrument":1,"program":48,"isDrum":false},{"pitch":55,"velocity":128,"startTime":9.310338000000002,"endTime":9.438570664583334,"instrument":1,"program":48,"isDrum":false},{"pitch":60,"velocity":128,"startTime":9.310338000000002,"endTime":9.438570664583334,"instrument":1,"program":48,"isDrum":false},{"pitch":64,"velocity":128,"startTime":9.310338000000002,"endTime":9.438570664583334,"instrument":1,"program":48,"isDrum":false},{"pitch":55,"velocity":128,"startTime":9.5689585,"endTime":9.697191164583334,"instrument":1,"program":48,"isDrum":false},{"pitch":60,"velocity":128,"startTime":9.5689585,"endTime":9.697191164583334,"instrument":1,"program":48,"isDrum":false},{"pitch":64,"velocity":128,"startTime":9.5689585,"endTime":9.697191164583334,"instrument":1,"program":48,"isDrum":false},{"pitch":53,"velocity":128,"startTime":9.827579000000002,"endTime":9.955811664583333,"instrument":1,"program":48,"isDrum":false},{"pitch":57,"velocity":128,"startTime":9.827579000000002,"endTime":9.955811664583333,"instrument":1,"program":48,"isDrum":false},{"pitch":62,"velocity":128,"startTime":9.827579000000002,"endTime":9.955811664583333,"instrument":1,"program":48,"isDrum":false},{"pitch":52,"velocity":128,"startTime":9.956889250000001,"endTime":10.085121914583334,"instrument":1,"program":48,"isDrum":false},{"pitch":55,"velocity":128,"startTime":9.956889250000001,"endTime":10.085121914583334,"instrument":1,"program":48,"isDrum":false},{"pitch":60,"velocity":128,"startTime":9.956889250000001,"endTime":10.085121914583334,"instrument":1,"program":48,"isDrum":false},{"pitch":53,"velocity":128,"startTime":10.086199500000001,"endTime":10.214432164583334,"instrument":1,"program":48,"isDrum":false},{"pitch":57,"velocity":128,"startTime":10.086199500000001,"endTime":10.214432164583334,"instrument":1,"program":48,"isDrum":false},{"pitch":62,"velocity":128,"startTime":10.086199500000001,"endTime":10.214432164583334,"instrument":1,"program":48,"isDrum":false},{"pitch":50,"velocity":128,"startTime":10.603440500000001,"endTime":10.731673164583334,"instrument":1,"program":48,"isDrum":false},{"pitch":53,"velocity":128,"startTime":10.603440500000001,"endTime":10.731673164583334,"instrument":1,"program":48,"isDrum":false},{"pitch":57,"velocity":128,"startTime":10.603440500000001,"endTime":10.731673164583334,"instrument":1,"program":48,"isDrum":false},{"pitch":53,"velocity":128,"startTime":10.732750750000001,"endTime":10.860983414583334,"instrument":1,"program":48,"isDrum":false},{"pitch":57,"velocity":128,"startTime":10.732750750000001,"endTime":10.860983414583334,"instrument":1,"program":48,"isDrum":false},{"pitch":60,"velocity":128,"startTime":10.732750750000001,"endTime":10.860983414583334,"instrument":1,"program":48,"isDrum":false},{"pitch":53,"velocity":128,"startTime":10.862061,"endTime":10.990293664583334,"instrument":1,"program":48,"isDrum":false},{"pitch":57,"velocity":128,"startTime":10.862061,"endTime":10.990293664583334,"instrument":1,"program":48,"isDrum":false},{"pitch":62,"velocity":128,"startTime":10.862061,"endTime":10.990293664583334,"instrument":1,"program":48,"isDrum":false},{"pitch":53,"velocity":128,"startTime":11.120681500000002,"endTime":11.248914164583335,"instrument":1,"program":48,"isDrum":false},{"pitch":57,"velocity":128,"startTime":11.120681500000002,"endTime":11.248914164583335,"instrument":1,"program":48,"isDrum":false},{"pitch":62,"velocity":128,"startTime":11.120681500000002,"endTime":11.248914164583335,"instrument":1,"program":48,"isDrum":false},{"pitch":53,"velocity":128,"startTime":11.379302000000001,"endTime":11.507534664583334,"instrument":1,"program":48,"isDrum":false},{"pitch":57,"velocity":128,"startTime":11.379302000000001,"endTime":11.507534664583334,"instrument":1,"program":48,"isDrum":false},{"pitch":62,"velocity":128,"startTime":11.379302000000001,"endTime":11.507534664583334,"instrument":1,"program":48,"isDrum":false},{"pitch":57,"velocity":128,"startTime":11.50861225,"endTime":11.636844914583333,"instrument":1,"program":48,"isDrum":false},{"pitch":62,"velocity":128,"startTime":11.50861225,"endTime":11.636844914583333,"instrument":1,"program":48,"isDrum":false},{"pitch":65,"velocity":128,"startTime":11.50861225,"endTime":11.636844914583333,"instrument":1,"program":48,"isDrum":false},{"pitch":58,"velocity":128,"startTime":11.637922500000002,"endTime":11.766155164583333,"instrument":1,"program":48,"isDrum":false},{"pitch":62,"velocity":128,"startTime":11.637922500000002,"endTime":11.766155164583333,"instrument":1,"program":48,"isDrum":false},{"pitch":67,"velocity":128,"startTime":11.637922500000002,"endTime":11.766155164583333,"instrument":1,"program":48,"isDrum":false},{"pitch":58,"velocity":128,"startTime":11.896543000000001,"endTime":12.024775664583334,"instrument":1,"program":48,"isDrum":false},{"pitch":62,"velocity":128,"startTime":11.896543000000001,"endTime":12.024775664583334,"instrument":1,"program":48,"isDrum":false},{"pitch":67,"velocity":128,"startTime":11.896543000000001,"endTime":12.024775664583334,"instrument":1,"program":48,"isDrum":false},{"pitch":58,"velocity":128,"startTime":12.155163500000002,"endTime":12.283396164583333,"instrument":1,"program":48,"isDrum":false},{"pitch":62,"velocity":128,"startTime":12.155163500000002,"endTime":12.283396164583333,"instrument":1,"program":48,"isDrum":false},{"pitch":67,"velocity":128,"startTime":12.155163500000002,"endTime":12.283396164583333,"instrument":1,"program":48,"isDrum":false},{"pitch":62,"velocity":128,"startTime":12.284473750000002,"endTime":12.412706414583335,"instrument":1,"program":48,"isDrum":false},{"pitch":65,"velocity":128,"startTime":12.284473750000002,"endTime":12.412706414583335,"instrument":1,"program":48,"isDrum":false},{"pitch":69,"velocity":128,"startTime":12.284473750000002,"endTime":12.412706414583335,"instrument":1,"program":48,"isDrum":false},{"pitch":62,"velocity":128,"startTime":12.413784000000001,"endTime":12.542016664583334,"instrument":1,"program":48,"isDrum":false},{"pitch":67,"velocity":128,"startTime":12.413784000000001,"endTime":12.542016664583334,"instrument":1,"program":48,"isDrum":false},{"pitch":70,"velocity":128,"startTime":12.413784000000001,"endTime":12.542016664583334,"instrument":1,"program":48,"isDrum":false},{"pitch":62,"velocity":128,"startTime":12.6724045,"endTime":12.800637164583334,"instrument":1,"program":48,"isDrum":false},{"pitch":67,"velocity":128,"startTime":12.6724045,"endTime":12.800637164583334,"instrument":1,"program":48,"isDrum":false},{"pitch":70,"velocity":128,"startTime":12.6724045,"endTime":12.800637164583334,"instrument":1,"program":48,"isDrum":false},{"pitch":62,"velocity":128,"startTime":12.931025000000002,"endTime":13.059257664583335,"instrument":1,"program":48,"isDrum":false},{"pitch":65,"velocity":128,"startTime":12.931025000000002,"endTime":13.059257664583335,"instrument":1,"program":48,"isDrum":false},{"pitch":69,"velocity":128,"startTime":12.931025000000002,"endTime":13.059257664583335,"instrument":1,"program":48,"isDrum":false},{"pitch":60,"velocity":128,"startTime":13.060335250000001,"endTime":13.188567914583334,"instrument":1,"program":48,"isDrum":false},{"pitch":64,"velocity":128,"startTime":13.060335250000001,"endTime":13.188567914583334,"instrument":1,"program":48,"isDrum":false},{"pitch":67,"velocity":128,"startTime":13.060335250000001,"endTime":13.188567914583334,"instrument":1,"program":48,"isDrum":false},{"pitch":62,"velocity":128,"startTime":13.189645500000001,"endTime":13.317878164583334,"instrument":1,"program":48,"isDrum":false},{"pitch":65,"velocity":128,"startTime":13.189645500000001,"endTime":13.317878164583334,"instrument":1,"program":48,"isDrum":false},{"pitch":69,"velocity":128,"startTime":13.189645500000001,"endTime":13.317878164583334,"instrument":1,"program":48,"isDrum":false},{"pitch":53,"velocity":128,"startTime":13.318955750000002,"endTime":13.447188414583334,"instrument":1,"program":48,"isDrum":false},{"pitch":57,"velocity":128,"startTime":13.318955750000002,"endTime":13.447188414583334,"instrument":1,"program":48,"isDrum":false},{"pitch":62,"velocity":128,"startTime":13.318955750000002,"endTime":13.447188414583334,"instrument":1,"program":48,"isDrum":false},{"pitch":53,"velocity":128,"startTime":13.706886500000001,"endTime":13.835119164583334,"instrument":1,"program":48,"isDrum":false},{"pitch":57,"velocity":128,"startTime":13.706886500000001,"endTime":13.835119164583334,"instrument":1,"program":48,"isDrum":false},{"pitch":62,"velocity":128,"startTime":13.706886500000001,"endTime":13.835119164583334,"instrument":1,"program":48,"isDrum":false},{"pitch":57,"velocity":128,"startTime":13.836196750000001,"endTime":13.964429414583334,"instrument":1,"program":48,"isDrum":false},{"pitch":60,"velocity":128,"startTime":13.836196750000001,"endTime":13.964429414583334,"instrument":1,"program":48,"isDrum":false},{"pitch":64,"velocity":128,"startTime":13.836196750000001,"endTime":13.964429414583334,"instrument":1,"program":48,"isDrum":false},{"pitch":58,"velocity":128,"startTime":13.965507000000002,"endTime":14.093739664583333,"instrument":1,"program":48,"isDrum":false},{"pitch":62,"velocity":128,"startTime":13.965507000000002,"endTime":14.093739664583333,"instrument":1,"program":48,"isDrum":false},{"pitch":65,"velocity":128,"startTime":13.965507000000002,"endTime":14.093739664583333,"instrument":1,"program":48,"isDrum":false},{"pitch":58,"velocity":128,"startTime":14.224127500000002,"endTime":14.352360164583335,"instrument":1,"program":48,"isDrum":false},{"pitch":62,"velocity":128,"startTime":14.224127500000002,"endTime":14.352360164583335,"instrument":1,"program":48,"isDrum":false},{"pitch":65,"velocity":128,"startTime":14.224127500000002,"endTime":14.352360164583335,"instrument":1,"program":48,"isDrum":false},{"pitch":58,"velocity":128,"startTime":14.482748,"endTime":14.610980664583334,"instrument":1,"program":48,"isDrum":false},{"pitch":62,"velocity":128,"startTime":14.482748,"endTime":14.610980664583334,"instrument":1,"program":48,"isDrum":false},{"pitch":67,"velocity":128,"startTime":14.482748,"endTime":14.610980664583334,"instrument":1,"program":48,"isDrum":false},{"pitch":62,"velocity":128,"startTime":14.741368500000002,"endTime":14.869601164583335,"instrument":1,"program":48,"isDrum":false},{"pitch":65,"velocity":128,"startTime":14.741368500000002,"endTime":14.869601164583335,"instrument":1,"program":48,"isDrum":false},{"pitch":69,"velocity":128,"startTime":14.741368500000002,"endTime":14.869601164583335,"instrument":1,"program":48,"isDrum":false},{"pitch":53,"velocity":128,"startTime":14.870678750000002,"endTime":14.998911414583334,"instrument":1,"program":48,"isDrum":false},{"pitch":57,"velocity":128,"startTime":14.870678750000002,"endTime":14.998911414583334,"instrument":1,"program":48,"isDrum":false},{"pitch":62,"velocity":128,"startTime":14.870678750000002,"endTime":14.998911414583334,"instrument":1,"program":48,"isDrum":false},{"pitch":53,"velocity":128,"startTime":15.258609500000002,"endTime":15.386842164583335,"instrument":1,"program":48,"isDrum":false},{"pitch":57,"velocity":128,"startTime":15.258609500000002,"endTime":15.386842164583335,"instrument":1,"program":48,"isDrum":false},{"pitch":62,"velocity":128,"startTime":15.258609500000002,"endTime":15.386842164583335,"instrument":1,"program":48,"isDrum":false},{"pitch":57,"velocity":128,"startTime":15.387919750000002,"endTime":15.516152414583335,"instrument":1,"program":48,"isDrum":false},{"pitch":62,"velocity":128,"startTime":15.387919750000002,"endTime":15.516152414583335,"instrument":1,"program":48,"isDrum":false},{"pitch":65,"velocity":128,"startTime":15.387919750000002,"endTime":15.516152414583335,"instrument":1,"program":48,"isDrum":false},{"pitch":57,"velocity":128,"startTime":15.517230000000001,"endTime":15.645462664583334,"instrument":1,"program":48,"isDrum":false},{"pitch":61,"velocity":128,"startTime":15.517230000000001,"endTime":15.645462664583334,"instrument":1,"program":48,"isDrum":false},{"pitch":64,"velocity":128,"startTime":15.517230000000001,"endTime":15.645462664583334,"instrument":1,"program":48,"isDrum":false},{"pitch":57,"velocity":128,"startTime":15.775850500000002,"endTime":15.904083164583334,"instrument":1,"program":48,"isDrum":false},{"pitch":61,"velocity":128,"startTime":15.775850500000002,"endTime":15.904083164583334,"instrument":1,"program":48,"isDrum":false},{"pitch":64,"velocity":128,"startTime":15.775850500000002,"endTime":15.904083164583334,"instrument":1,"program":48,"isDrum":false},{"pitch":57,"velocity":128,"startTime":16.034471000000003,"endTime":16.162703664583333,"instrument":1,"program":48,"isDrum":false},{"pitch":62,"velocity":128,"startTime":16.034471000000003,"endTime":16.162703664583333,"instrument":1,"program":48,"isDrum":false},{"pitch":65,"velocity":128,"startTime":16.034471000000003,"endTime":16.162703664583333,"instrument":1,"program":48,"isDrum":false},{"pitch":55,"velocity":128,"startTime":16.163781250000003,"endTime":16.292013914583336,"instrument":1,"program":48,"isDrum":false},{"pitch":59,"velocity":128,"startTime":16.163781250000003,"endTime":16.292013914583336,"instrument":1,"program":48,"isDrum":false},{"pitch":62,"velocity":128,"startTime":16.163781250000003,"endTime":16.292013914583336,"instrument":1,"program":48,"isDrum":false},{"pitch":57,"velocity":128,"startTime":16.293091500000003,"endTime":16.421324164583336,"instrument":1,"program":48,"isDrum":false},{"pitch":61,"velocity":128,"startTime":16.293091500000003,"endTime":16.421324164583336,"instrument":1,"program":48,"isDrum":false},{"pitch":64,"velocity":128,"startTime":16.293091500000003,"endTime":16.421324164583336,"instrument":1,"program":48,"isDrum":false},{"pitch":50,"velocity":128,"startTime":16.8103325,"endTime":16.938565164583338,"instrument":1,"program":48,"isDrum":false},{"pitch":53,"velocity":128,"startTime":16.8103325,"endTime":16.938565164583338,"instrument":1,"program":48,"isDrum":false},{"pitch":57,"velocity":128,"startTime":16.8103325,"endTime":16.938565164583338,"instrument":1,"program":48,"isDrum":false},{"pitch":69,"velocity":128,"startTime":16.8103325,"endTime":16.938565164583338,"instrument":1,"program":48,"isDrum":false},{"pitch":52,"velocity":128,"startTime":16.93964275,"endTime":17.067875414583337,"instrument":1,"program":48,"isDrum":false},{"pitch":55,"velocity":128,"startTime":16.93964275,"endTime":17.067875414583337,"instrument":1,"program":48,"isDrum":false},{"pitch":60,"velocity":128,"startTime":16.93964275,"endTime":17.067875414583337,"instrument":1,"program":48,"isDrum":false},{"pitch":72,"velocity":128,"startTime":16.93964275,"endTime":17.067875414583337,"instrument":1,"program":48,"isDrum":false},{"pitch":53,"velocity":128,"startTime":17.068953,"endTime":17.197185664583337,"instrument":1,"program":48,"isDrum":false},{"pitch":57,"velocity":128,"startTime":17.068953,"endTime":17.197185664583337,"instrument":1,"program":48,"isDrum":false},{"pitch":62,"velocity":128,"startTime":17.068953,"endTime":17.197185664583337,"instrument":1,"program":48,"isDrum":false},{"pitch":74,"velocity":128,"startTime":17.068953,"endTime":17.197185664583337,"instrument":1,"program":48,"isDrum":false},{"pitch":53,"velocity":128,"startTime":17.327573500000003,"endTime":17.455806164583336,"instrument":1,"program":48,"isDrum":false},{"pitch":57,"velocity":128,"startTime":17.327573500000003,"endTime":17.455806164583336,"instrument":1,"program":48,"isDrum":false},{"pitch":62,"velocity":128,"startTime":17.327573500000003,"endTime":17.455806164583336,"instrument":1,"program":48,"isDrum":false},{"pitch":74,"velocity":128,"startTime":17.327573500000003,"endTime":17.455806164583336,"instrument":1,"program":48,"isDrum":false},{"pitch":53,"velocity":128,"startTime":17.586194000000003,"endTime":17.714426664583335,"instrument":1,"program":48,"isDrum":false},{"pitch":57,"velocity":128,"startTime":17.586194000000003,"endTime":17.714426664583335,"instrument":1,"program":48,"isDrum":false},{"pitch":62,"velocity":128,"startTime":17.586194000000003,"endTime":17.714426664583335,"instrument":1,"program":48,"isDrum":false},{"pitch":74,"velocity":128,"startTime":17.586194000000003,"endTime":17.714426664583335,"instrument":1,"program":48,"isDrum":false},{"pitch":57,"velocity":128,"startTime":17.715504250000002,"endTime":17.843736914583335,"instrument":1,"program":48,"isDrum":false},{"pitch":60,"velocity":128,"startTime":17.715504250000002,"endTime":17.843736914583335,"instrument":1,"program":48,"isDrum":false},{"pitch":64,"velocity":128,"startTime":17.715504250000002,"endTime":17.843736914583335,"instrument":1,"program":48,"isDrum":false},{"pitch":76,"velocity":128,"startTime":17.715504250000002,"endTime":17.843736914583335,"instrument":1,"program":48,"isDrum":false},{"pitch":58,"velocity":128,"startTime":17.844814500000002,"endTime":17.973047164583335,"instrument":1,"program":48,"isDrum":false},{"pitch":62,"velocity":128,"startTime":17.844814500000002,"endTime":17.973047164583335,"instrument":1,"program":48,"isDrum":false},{"pitch":65,"velocity":128,"startTime":17.844814500000002,"endTime":17.973047164583335,"instrument":1,"program":48,"isDrum":false},{"pitch":77,"velocity":128,"startTime":17.844814500000002,"endTime":17.973047164583335,"instrument":1,"program":48,"isDrum":false},{"pitch":58,"velocity":128,"startTime":18.103435,"endTime":18.231667664583338,"instrument":1,"program":48,"isDrum":false},{"pitch":62,"velocity":128,"startTime":18.103435,"endTime":18.231667664583338,"instrument":1,"program":48,"isDrum":false},{"pitch":65,"velocity":128,"startTime":18.103435,"endTime":18.231667664583338,"instrument":1,"program":48,"isDrum":false},{"pitch":77,"velocity":128,"startTime":18.103435,"endTime":18.231667664583338,"instrument":1,"program":48,"isDrum":false},{"pitch":58,"velocity":128,"startTime":18.362055500000004,"endTime":18.490288164583337,"instrument":1,"program":48,"isDrum":false},{"pitch":62,"velocity":128,"startTime":18.362055500000004,"endTime":18.490288164583337,"instrument":1,"program":48,"isDrum":false},{"pitch":65,"velocity":128,"startTime":18.362055500000004,"endTime":18.490288164583337,"instrument":1,"program":48,"isDrum":false},{"pitch":77,"velocity":128,"startTime":18.362055500000004,"endTime":18.490288164583337,"instrument":1,"program":48,"isDrum":false},{"pitch":60,"velocity":128,"startTime":18.491365750000003,"endTime":18.619598414583336,"instrument":1,"program":48,"isDrum":false},{"pitch":64,"velocity":128,"startTime":18.491365750000003,"endTime":18.619598414583336,"instrument":1,"program":48,"isDrum":false},{"pitch":67,"velocity":128,"startTime":18.491365750000003,"endTime":18.619598414583336,"instrument":1,"program":48,"isDrum":false},{"pitch":79,"velocity":128,"startTime":18.491365750000003,"endTime":18.619598414583336,"instrument":1,"program":48,"isDrum":false},{"pitch":57,"velocity":128,"startTime":18.620676000000003,"endTime":18.748908664583336,"instrument":1,"program":48,"isDrum":false},{"pitch":60,"velocity":128,"startTime":18.620676000000003,"endTime":18.748908664583336,"instrument":1,"program":48,"isDrum":false},{"pitch":64,"velocity":128,"startTime":18.620676000000003,"endTime":18.748908664583336,"instrument":1,"program":48,"isDrum":false},{"pitch":76,"velocity":128,"startTime":18.620676000000003,"endTime":18.748908664583336,"instrument":1,"program":48,"isDrum":false},{"pitch":57,"velocity":128,"startTime":18.879296500000002,"endTime":19.007529164583335,"instrument":1,"program":48,"isDrum":false},{"pitch":60,"velocity":128,"startTime":18.879296500000002,"endTime":19.007529164583335,"instrument":1,"program":48,"isDrum":false},{"pitch":64,"velocity":128,"startTime":18.879296500000002,"endTime":19.007529164583335,"instrument":1,"program":48,"isDrum":false},{"pitch":76,"velocity":128,"startTime":18.879296500000002,"endTime":19.007529164583335,"instrument":1,"program":48,"isDrum":false},{"pitch":53,"velocity":128,"startTime":19.137917,"endTime":19.266149664583338,"instrument":1,"program":48,"isDrum":false},{"pitch":57,"velocity":128,"startTime":19.137917,"endTime":19.266149664583338,"instrument":1,"program":48,"isDrum":false},{"pitch":62,"velocity":128,"startTime":19.137917,"endTime":19.266149664583338,"instrument":1,"program":48,"isDrum":false},{"pitch":74,"velocity":128,"startTime":19.137917,"endTime":19.266149664583338,"instrument":1,"program":48,"isDrum":false},{"pitch":52,"velocity":128,"startTime":19.26722725,"endTime":19.395459914583338,"instrument":1,"program":48,"isDrum":false},{"pitch":55,"velocity":128,"startTime":19.26722725,"endTime":19.395459914583338,"instrument":1,"program":48,"isDrum":false},{"pitch":60,"velocity":128,"startTime":19.26722725,"endTime":19.395459914583338,"instrument":1,"program":48,"isDrum":false},{"pitch":72,"velocity":128,"startTime":19.26722725,"endTime":19.395459914583338,"instrument":1,"program":48,"isDrum":false},{"pitch":52,"velocity":128,"startTime":19.3965375,"endTime":19.524770164583337,"instrument":1,"program":48,"isDrum":false},{"pitch":55,"velocity":128,"startTime":19.3965375,"endTime":19.524770164583337,"instrument":1,"program":48,"isDrum":false},{"pitch":60,"velocity":128,"startTime":19.3965375,"endTime":19.524770164583337,"instrument":1,"program":48,"isDrum":false},{"pitch":72,"velocity":128,"startTime":19.3965375,"endTime":19.524770164583337,"instrument":1,"program":48,"isDrum":false},{"pitch":53,"velocity":128,"startTime":19.525847750000004,"endTime":19.654080414583337,"instrument":1,"program":48,"isDrum":false},{"pitch":57,"velocity":128,"startTime":19.525847750000004,"endTime":19.654080414583337,"instrument":1,"program":48,"isDrum":false},{"pitch":62,"velocity":128,"startTime":19.525847750000004,"endTime":19.654080414583337,"instrument":1,"program":48,"isDrum":false},{"pitch":74,"velocity":128,"startTime":19.525847750000004,"endTime":19.654080414583337,"instrument":1,"program":48,"isDrum":false},{"pitch":50,"velocity":128,"startTime":19.913778500000003,"endTime":20.042011164583336,"instrument":1,"program":48,"isDrum":false},{"pitch":53,"velocity":128,"startTime":19.913778500000003,"endTime":20.042011164583336,"instrument":1,"program":48,"isDrum":false},{"pitch":57,"velocity":128,"startTime":19.913778500000003,"endTime":20.042011164583336,"instrument":1,"program":48,"isDrum":false},{"pitch":69,"velocity":128,"startTime":19.913778500000003,"endTime":20.042011164583336,"instrument":1,"program":48,"isDrum":false},{"pitch":53,"velocity":128,"startTime":20.043088750000003,"endTime":20.171321414583335,"instrument":1,"program":48,"isDrum":false},{"pitch":57,"velocity":128,"startTime":20.043088750000003,"endTime":20.171321414583335,"instrument":1,"program":48,"isDrum":false},{"pitch":60,"velocity":128,"startTime":20.043088750000003,"endTime":20.171321414583335,"instrument":1,"program":48,"isDrum":false},{"pitch":72,"velocity":128,"startTime":20.043088750000003,"endTime":20.171321414583335,"instrument":1,"program":48,"isDrum":false},{"pitch":53,"velocity":128,"startTime":20.172399000000002,"endTime":20.300631664583335,"instrument":1,"program":48,"isDrum":false},{"pitch":58,"velocity":128,"startTime":20.172399000000002,"endTime":20.300631664583335,"instrument":1,"program":48,"isDrum":false},{"pitch":62,"velocity":128,"startTime":20.172399000000002,"endTime":20.300631664583335,"instrument":1,"program":48,"isDrum":false},{"pitch":74,"velocity":128,"startTime":20.172399000000002,"endTime":20.300631664583335,"instrument":1,"program":48,"isDrum":false},{"pitch":53,"velocity":128,"startTime":20.4310195,"endTime":20.559252164583338,"instrument":1,"program":48,"isDrum":false},{"pitch":58,"velocity":128,"startTime":20.4310195,"endTime":20.559252164583338,"instrument":1,"program":48,"isDrum":false},{"pitch":62,"velocity":128,"startTime":20.4310195,"endTime":20.559252164583338,"instrument":1,"program":48,"isDrum":false},{"pitch":74,"velocity":128,"startTime":20.4310195,"endTime":20.559252164583338,"instrument":1,"program":48,"isDrum":false},{"pitch":53,"velocity":128,"startTime":20.689640000000004,"endTime":20.817872664583337,"instrument":1,"program":48,"isDrum":false},{"pitch":58,"velocity":128,"startTime":20.689640000000004,"endTime":20.817872664583337,"instrument":1,"program":48,"isDrum":false},{"pitch":62,"velocity":128,"startTime":20.689640000000004,"endTime":20.817872664583337,"instrument":1,"program":48,"isDrum":false},{"pitch":74,"velocity":128,"startTime":20.689640000000004,"endTime":20.817872664583337,"instrument":1,"program":48,"isDrum":false},{"pitch":55,"velocity":128,"startTime":20.818950250000004,"endTime":20.947182914583337,"instrument":1,"program":48,"isDrum":false},{"pitch":58,"velocity":128,"startTime":20.818950250000004,"endTime":20.947182914583337,"instrument":1,"program":48,"isDrum":false},{"pitch":64,"velocity":128,"startTime":20.818950250000004,"endTime":20.947182914583337,"instrument":1,"program":48,"isDrum":false},{"pitch":76,"velocity":128,"startTime":20.818950250000004,"endTime":20.947182914583337,"instrument":1,"program":48,"isDrum":false},{"pitch":57,"velocity":128,"startTime":20.948260500000004,"endTime":21.076493164583336,"instrument":1,"program":48,"isDrum":false},{"pitch":60,"velocity":128,"startTime":20.948260500000004,"endTime":21.076493164583336,"instrument":1,"program":48,"isDrum":false},{"pitch":65,"velocity":128,"startTime":20.948260500000004,"endTime":21.076493164583336,"instrument":1,"program":48,"isDrum":false},{"pitch":77,"velocity":128,"startTime":20.948260500000004,"endTime":21.076493164583336,"instrument":1,"program":48,"isDrum":false},{"pitch":57,"velocity":128,"startTime":21.206881000000003,"endTime":21.335113664583336,"instrument":1,"program":48,"isDrum":false},{"pitch":60,"velocity":128,"startTime":21.206881000000003,"endTime":21.335113664583336,"instrument":1,"program":48,"isDrum":false},{"pitch":65,"velocity":128,"startTime":21.206881000000003,"endTime":21.335113664583336,"instrument":1,"program":48,"isDrum":false},{"pitch":77,"velocity":128,"startTime":21.206881000000003,"endTime":21.335113664583336,"instrument":1,"program":48,"isDrum":false},{"pitch":57,"velocity":128,"startTime":21.465501500000002,"endTime":21.59373416458334,"instrument":1,"program":48,"isDrum":false},{"pitch":60,"velocity":128,"startTime":21.465501500000002,"endTime":21.59373416458334,"instrument":1,"program":48,"isDrum":false},{"pitch":65,"velocity":128,"startTime":21.465501500000002,"endTime":21.59373416458334,"instrument":1,"program":48,"isDrum":false},{"pitch":77,"velocity":128,"startTime":21.465501500000002,"endTime":21.59373416458334,"instrument":1,"program":48,"isDrum":false},{"pitch":57,"velocity":128,"startTime":21.59481175,"endTime":21.723044414583338,"instrument":1,"program":48,"isDrum":false},{"pitch":60,"velocity":128,"startTime":21.59481175,"endTime":21.723044414583338,"instrument":1,"program":48,"isDrum":false},{"pitch":67,"velocity":128,"startTime":21.59481175,"endTime":21.723044414583338,"instrument":1,"program":48,"isDrum":false},{"pitch":79,"velocity":128,"startTime":21.59481175,"endTime":21.723044414583338,"instrument":1,"program":48,"isDrum":false},{"pitch":55,"velocity":128,"startTime":21.724122,"endTime":21.852354664583338,"instrument":1,"program":48,"isDrum":false},{"pitch":60,"velocity":128,"startTime":21.724122,"endTime":21.852354664583338,"instrument":1,"program":48,"isDrum":false},{"pitch":64,"velocity":128,"startTime":21.724122,"endTime":21.852354664583338,"instrument":1,"program":48,"isDrum":false},{"pitch":76,"velocity":128,"startTime":21.724122,"endTime":21.852354664583338,"instrument":1,"program":48,"isDrum":false},{"pitch":55,"velocity":128,"startTime":21.982742500000004,"endTime":22.110975164583337,"instrument":1,"program":48,"isDrum":false},{"pitch":60,"velocity":128,"startTime":21.982742500000004,"endTime":22.110975164583337,"instrument":1,"program":48,"isDrum":false},{"pitch":64,"velocity":128,"startTime":21.982742500000004,"endTime":22.110975164583337,"instrument":1,"program":48,"isDrum":false},{"pitch":76,"velocity":128,"startTime":21.982742500000004,"endTime":22.110975164583337,"instrument":1,"program":48,"isDrum":false},{"pitch":53,"velocity":128,"startTime":22.241363000000003,"endTime":22.369595664583336,"instrument":1,"program":48,"isDrum":false},{"pitch":57,"velocity":128,"startTime":22.241363000000003,"endTime":22.369595664583336,"instrument":1,"program":48,"isDrum":false},{"pitch":62,"velocity":128,"startTime":22.241363000000003,"endTime":22.369595664583336,"instrument":1,"program":48,"isDrum":false},{"pitch":74,"velocity":128,"startTime":22.241363000000003,"endTime":22.369595664583336,"instrument":1,"program":48,"isDrum":false},{"pitch":52,"velocity":128,"startTime":22.370673250000003,"endTime":22.498905914583336,"instrument":1,"program":48,"isDrum":false},{"pitch":55,"velocity":128,"startTime":22.370673250000003,"endTime":22.498905914583336,"instrument":1,"program":48,"isDrum":false},{"pitch":60,"velocity":128,"startTime":22.370673250000003,"endTime":22.498905914583336,"instrument":1,"program":48,"isDrum":false},{"pitch":72,"velocity":128,"startTime":22.370673250000003,"endTime":22.498905914583336,"instrument":1,"program":48,"isDrum":false},{"pitch":53,"velocity":128,"startTime":22.499983500000003,"endTime":22.628216164583336,"instrument":1,"program":48,"isDrum":false},{"pitch":57,"velocity":128,"startTime":22.499983500000003,"endTime":22.628216164583336,"instrument":1,"program":48,"isDrum":false},{"pitch":62,"velocity":128,"startTime":22.499983500000003,"endTime":22.628216164583336,"instrument":1,"program":48,"isDrum":false},{"pitch":74,"velocity":128,"startTime":22.499983500000003,"endTime":22.628216164583336,"instrument":1,"program":48,"isDrum":false},{"pitch":50,"velocity":128,"startTime":23.0172245,"endTime":23.145457164583338,"instrument":1,"program":48,"isDrum":false},{"pitch":53,"velocity":128,"startTime":23.0172245,"endTime":23.145457164583338,"instrument":1,"program":48,"isDrum":false},{"pitch":57,"velocity":128,"startTime":23.0172245,"endTime":23.145457164583338,"instrument":1,"program":48,"isDrum":false},{"pitch":69,"velocity":128,"startTime":23.0172245,"endTime":23.145457164583338,"instrument":1,"program":48,"isDrum":false},{"pitch":53,"velocity":128,"startTime":23.146534750000004,"endTime":23.274767414583337,"instrument":1,"program":48,"isDrum":false},{"pitch":57,"velocity":128,"startTime":23.146534750000004,"endTime":23.274767414583337,"instrument":1,"program":48,"isDrum":false},{"pitch":60,"velocity":128,"startTime":23.146534750000004,"endTime":23.274767414583337,"instrument":1,"program":48,"isDrum":false},{"pitch":72,"velocity":128,"startTime":23.146534750000004,"endTime":23.274767414583337,"instrument":1,"program":48,"isDrum":false},{"pitch":53,"velocity":128,"startTime":23.275845000000004,"endTime":23.404077664583337,"instrument":1,"program":48,"isDrum":false},{"pitch":57,"velocity":128,"startTime":23.275845000000004,"endTime":23.404077664583337,"instrument":1,"program":48,"isDrum":false},{"pitch":62,"velocity":128,"startTime":23.275845000000004,"endTime":23.404077664583337,"instrument":1,"program":48,"isDrum":false},{"pitch":74,"velocity":128,"startTime":23.275845000000004,"endTime":23.404077664583337,"instrument":1,"program":48,"isDrum":false},{"pitch":53,"velocity":128,"startTime":23.534465500000003,"endTime":23.662698164583336,"instrument":1,"program":48,"isDrum":false},{"pitch":57,"velocity":128,"startTime":23.534465500000003,"endTime":23.662698164583336,"instrument":1,"program":48,"isDrum":false},{"pitch":62,"velocity":128,"startTime":23.534465500000003,"endTime":23.662698164583336,"instrument":1,"program":48,"isDrum":false},{"pitch":74,"velocity":128,"startTime":23.534465500000003,"endTime":23.662698164583336,"instrument":1,"program":48,"isDrum":false},{"pitch":53,"velocity":128,"startTime":23.793086000000002,"endTime":23.92131866458334,"instrument":1,"program":48,"isDrum":false},{"pitch":57,"velocity":128,"startTime":23.793086000000002,"endTime":23.92131866458334,"instrument":1,"program":48,"isDrum":false},{"pitch":62,"velocity":128,"startTime":23.793086000000002,"endTime":23.92131866458334,"instrument":1,"program":48,"isDrum":false},{"pitch":74,"velocity":128,"startTime":23.793086000000002,"endTime":23.92131866458334,"instrument":1,"program":48,"isDrum":false},{"pitch":57,"velocity":128,"startTime":23.922396250000002,"endTime":24.05062891458334,"instrument":1,"program":48,"isDrum":false},{"pitch":62,"velocity":128,"startTime":23.922396250000002,"endTime":24.05062891458334,"instrument":1,"program":48,"isDrum":false},{"pitch":65,"velocity":128,"startTime":23.922396250000002,"endTime":24.05062891458334,"instrument":1,"program":48,"isDrum":false},{"pitch":77,"velocity":128,"startTime":23.922396250000002,"endTime":24.05062891458334,"instrument":1,"program":48,"isDrum":false},{"pitch":58,"velocity":128,"startTime":24.0517065,"endTime":24.179939164583338,"instrument":1,"program":48,"isDrum":false},{"pitch":62,"velocity":128,"startTime":24.0517065,"endTime":24.179939164583338,"instrument":1,"program":48,"isDrum":false},{"pitch":67,"velocity":128,"startTime":24.0517065,"endTime":24.179939164583338,"instrument":1,"program":48,"isDrum":false},{"pitch":79,"velocity":128,"startTime":24.0517065,"endTime":24.179939164583338,"instrument":1,"program":48,"isDrum":false},{"pitch":58,"velocity":128,"startTime":24.310327000000004,"endTime":24.438559664583337,"instrument":1,"program":48,"isDrum":false},{"pitch":62,"velocity":128,"startTime":24.310327000000004,"endTime":24.438559664583337,"instrument":1,"program":48,"isDrum":false},{"pitch":67,"velocity":128,"startTime":24.310327000000004,"endTime":24.438559664583337,"instrument":1,"program":48,"isDrum":false},{"pitch":79,"velocity":128,"startTime":24.310327000000004,"endTime":24.438559664583337,"instrument":1,"program":48,"isDrum":false},{"pitch":58,"velocity":128,"startTime":24.568947500000004,"endTime":24.697180164583337,"instrument":1,"program":48,"isDrum":false},{"pitch":62,"velocity":128,"startTime":24.568947500000004,"endTime":24.697180164583337,"instrument":1,"program":48,"isDrum":false},{"pitch":67,"velocity":128,"startTime":24.568947500000004,"endTime":24.697180164583337,"instrument":1,"program":48,"isDrum":false},{"pitch":79,"velocity":128,"startTime":24.568947500000004,"endTime":24.697180164583337,"instrument":1,"program":48,"isDrum":false},{"pitch":62,"velocity":128,"startTime":24.698257750000003,"endTime":24.826490414583336,"instrument":1,"program":48,"isDrum":false},{"pitch":65,"velocity":128,"startTime":24.698257750000003,"endTime":24.826490414583336,"instrument":1,"program":48,"isDrum":false},{"pitch":69,"velocity":128,"startTime":24.698257750000003,"endTime":24.826490414583336,"instrument":1,"program":48,"isDrum":false},{"pitch":81,"velocity":128,"startTime":24.698257750000003,"endTime":24.826490414583336,"instrument":1,"program":48,"isDrum":false},{"pitch":62,"velocity":128,"startTime":24.827568000000003,"endTime":24.955800664583336,"instrument":1,"program":48,"isDrum":false},{"pitch":67,"velocity":128,"startTime":24.827568000000003,"endTime":24.955800664583336,"instrument":1,"program":48,"isDrum":false},{"pitch":70,"velocity":128,"startTime":24.827568000000003,"endTime":24.955800664583336,"instrument":1,"program":48,"isDrum":false},{"pitch":82,"velocity":128,"startTime":24.827568000000003,"endTime":24.955800664583336,"instrument":1,"program":48,"isDrum":false},{"pitch":62,"velocity":128,"startTime":25.086188500000002,"endTime":25.21442116458334,"instrument":1,"program":48,"isDrum":false},{"pitch":67,"velocity":128,"startTime":25.086188500000002,"endTime":25.21442116458334,"instrument":1,"program":48,"isDrum":false},{"pitch":70,"velocity":128,"startTime":25.086188500000002,"endTime":25.21442116458334,"instrument":1,"program":48,"isDrum":false},{"pitch":82,"velocity":128,"startTime":25.086188500000002,"endTime":25.21442116458334,"instrument":1,"program":48,"isDrum":false},{"pitch":62,"velocity":128,"startTime":25.344809,"endTime":25.473041664583338,"instrument":1,"program":48,"isDrum":false},{"pitch":65,"velocity":128,"startTime":25.344809,"endTime":25.473041664583338,"instrument":1,"program":48,"isDrum":false},{"pitch":69,"velocity":128,"startTime":25.344809,"endTime":25.473041664583338,"instrument":1,"program":48,"isDrum":false},{"pitch":81,"velocity":128,"startTime":25.344809,"endTime":25.473041664583338,"instrument":1,"program":48,"isDrum":false},{"pitch":60,"velocity":128,"startTime":25.474119250000005,"endTime":25.602351914583338,"instrument":1,"program":48,"isDrum":false},{"pitch":64,"velocity":128,"startTime":25.474119250000005,"endTime":25.602351914583338,"instrument":1,"program":48,"isDrum":false},{"pitch":67,"velocity":128,"startTime":25.474119250000005,"endTime":25.602351914583338,"instrument":1,"program":48,"isDrum":false},{"pitch":79,"velocity":128,"startTime":25.474119250000005,"endTime":25.602351914583338,"instrument":1,"program":48,"isDrum":false},{"pitch":62,"velocity":128,"startTime":25.603429500000004,"endTime":25.731662164583337,"instrument":1,"program":48,"isDrum":false},{"pitch":65,"velocity":128,"startTime":25.603429500000004,"endTime":25.731662164583337,"instrument":1,"program":48,"isDrum":false},{"pitch":69,"velocity":128,"startTime":25.603429500000004,"endTime":25.731662164583337,"instrument":1,"program":48,"isDrum":false},{"pitch":81,"velocity":128,"startTime":25.603429500000004,"endTime":25.731662164583337,"instrument":1,"program":48,"isDrum":false},{"pitch":53,"velocity":128,"startTime":25.732739750000004,"endTime":25.860972414583337,"instrument":1,"program":48,"isDrum":false},{"pitch":57,"velocity":128,"startTime":25.732739750000004,"endTime":25.860972414583337,"instrument":1,"program":48,"isDrum":false},{"pitch":62,"velocity":128,"startTime":25.732739750000004,"endTime":25.860972414583337,"instrument":1,"program":48,"isDrum":false},{"pitch":74,"velocity":128,"startTime":25.732739750000004,"endTime":25.860972414583337,"instrument":1,"program":48,"isDrum":false},{"pitch":53,"velocity":128,"startTime":26.120670500000003,"endTime":26.248903164583336,"instrument":1,"program":48,"isDrum":false},{"pitch":57,"velocity":128,"startTime":26.120670500000003,"endTime":26.248903164583336,"instrument":1,"program":48,"isDrum":false},{"pitch":62,"velocity":128,"startTime":26.120670500000003,"endTime":26.248903164583336,"instrument":1,"program":48,"isDrum":false},{"pitch":74,"velocity":128,"startTime":26.120670500000003,"endTime":26.248903164583336,"instrument":1,"program":48,"isDrum":false},{"pitch":57,"velocity":128,"startTime":26.249980750000002,"endTime":26.37821341458334,"instrument":1,"program":48,"isDrum":false},{"pitch":60,"velocity":128,"startTime":26.249980750000002,"endTime":26.37821341458334,"instrument":1,"program":48,"isDrum":false},{"pitch":64,"velocity":128,"startTime":26.249980750000002,"endTime":26.37821341458334,"instrument":1,"program":48,"isDrum":false},{"pitch":76,"velocity":128,"startTime":26.249980750000002,"endTime":26.37821341458334,"instrument":1,"program":48,"isDrum":false},{"pitch":58,"velocity":128,"startTime":26.379291000000002,"endTime":26.50752366458334,"instrument":1,"program":48,"isDrum":false},{"pitch":62,"velocity":128,"startTime":26.379291000000002,"endTime":26.50752366458334,"instrument":1,"program":48,"isDrum":false},{"pitch":65,"velocity":128,"startTime":26.379291000000002,"endTime":26.50752366458334,"instrument":1,"program":48,"isDrum":false},{"pitch":77,"velocity":128,"startTime":26.379291000000002,"endTime":26.50752366458334,"instrument":1,"program":48,"isDrum":false},{"pitch":58,"velocity":128,"startTime":26.637911500000005,"endTime":26.766144164583338,"instrument":1,"program":48,"isDrum":false},{"pitch":62,"velocity":128,"startTime":26.637911500000005,"endTime":26.766144164583338,"instrument":1,"program":48,"isDrum":false},{"pitch":65,"velocity":128,"startTime":26.637911500000005,"endTime":26.766144164583338,"instrument":1,"program":48,"isDrum":false},{"pitch":77,"velocity":128,"startTime":26.637911500000005,"endTime":26.766144164583338,"instrument":1,"program":48,"isDrum":false},{"pitch":58,"velocity":128,"startTime":26.896532000000004,"endTime":27.024764664583337,"instrument":1,"program":48,"isDrum":false},{"pitch":62,"velocity":128,"startTime":26.896532000000004,"endTime":27.024764664583337,"instrument":1,"program":48,"isDrum":false},{"pitch":67,"velocity":128,"startTime":26.896532000000004,"endTime":27.024764664583337,"instrument":1,"program":48,"isDrum":false},{"pitch":79,"velocity":128,"startTime":26.896532000000004,"endTime":27.024764664583337,"instrument":1,"program":48,"isDrum":false},{"pitch":62,"velocity":128,"startTime":27.155152500000003,"endTime":27.283385164583336,"instrument":1,"program":48,"isDrum":false},{"pitch":65,"velocity":128,"startTime":27.155152500000003,"endTime":27.283385164583336,"instrument":1,"program":48,"isDrum":false},{"pitch":69,"velocity":128,"startTime":27.155152500000003,"endTime":27.283385164583336,"instrument":1,"program":48,"isDrum":false},{"pitch":81,"velocity":128,"startTime":27.155152500000003,"endTime":27.283385164583336,"instrument":1,"program":48,"isDrum":false},{"pitch":53,"velocity":128,"startTime":27.284462750000003,"endTime":27.412695414583336,"instrument":1,"program":48,"isDrum":false},{"pitch":57,"velocity":128,"startTime":27.284462750000003,"endTime":27.412695414583336,"instrument":1,"program":48,"isDrum":false},{"pitch":62,"velocity":128,"startTime":27.284462750000003,"endTime":27.412695414583336,"instrument":1,"program":48,"isDrum":false},{"pitch":74,"velocity":128,"startTime":27.284462750000003,"endTime":27.412695414583336,"instrument":1,"program":48,"isDrum":false},{"pitch":62,"velocity":128,"startTime":27.672393500000002,"endTime":27.80062616458334,"instrument":1,"program":48,"isDrum":false},{"pitch":69,"velocity":128,"startTime":27.672393500000002,"endTime":27.80062616458334,"instrument":1,"program":48,"isDrum":false},{"pitch":74,"velocity":128,"startTime":27.672393500000002,"endTime":27.80062616458334,"instrument":1,"program":48,"isDrum":false},{"pitch":65,"velocity":128,"startTime":27.801703750000005,"endTime":27.929936414583338,"instrument":1,"program":48,"isDrum":false},{"pitch":74,"velocity":128,"startTime":27.801703750000005,"endTime":27.929936414583338,"instrument":1,"program":48,"isDrum":false},{"pitch":77,"velocity":128,"startTime":27.801703750000005,"endTime":27.929936414583338,"instrument":1,"program":48,"isDrum":false},{"pitch":64,"velocity":128,"startTime":27.931014000000005,"endTime":28.059246664583338,"instrument":1,"program":48,"isDrum":false},{"pitch":69,"velocity":128,"startTime":27.931014000000005,"endTime":28.059246664583338,"instrument":1,"program":48,"isDrum":false},{"pitch":73,"velocity":128,"startTime":27.931014000000005,"endTime":28.059246664583338,"instrument":1,"program":48,"isDrum":false},{"pitch":76,"velocity":128,"startTime":27.931014000000005,"endTime":28.059246664583338,"instrument":1,"program":48,"isDrum":false},{"pitch":64,"velocity":128,"startTime":28.189634500000004,"endTime":28.317867164583337,"instrument":1,"program":48,"isDrum":false},{"pitch":69,"velocity":128,"startTime":28.189634500000004,"endTime":28.317867164583337,"instrument":1,"program":48,"isDrum":false},{"pitch":73,"velocity":128,"startTime":28.189634500000004,"endTime":28.317867164583337,"instrument":1,"program":48,"isDrum":false},{"pitch":76,"velocity":128,"startTime":28.189634500000004,"endTime":28.317867164583337,"instrument":1,"program":48,"isDrum":false},{"pitch":62,"velocity":128,"startTime":28.448255000000003,"endTime":28.576487664583336,"instrument":1,"program":48,"isDrum":false},{"pitch":65,"velocity":128,"startTime":28.448255000000003,"endTime":28.576487664583336,"instrument":1,"program":48,"isDrum":false},{"pitch":69,"velocity":128,"startTime":28.448255000000003,"endTime":28.576487664583336,"instrument":1,"program":48,"isDrum":false},{"pitch":74,"velocity":128,"startTime":28.448255000000003,"endTime":28.576487664583336,"instrument":1,"program":48,"isDrum":false},{"pitch":61,"velocity":128,"startTime":28.577565250000003,"endTime":28.70579791458334,"instrument":1,"program":48,"isDrum":false},{"pitch":64,"velocity":128,"startTime":28.577565250000003,"endTime":28.70579791458334,"instrument":1,"program":48,"isDrum":false},{"pitch":69,"velocity":128,"startTime":28.577565250000003,"endTime":28.70579791458334,"instrument":1,"program":48,"isDrum":false},{"pitch":73,"velocity":128,"startTime":28.577565250000003,"endTime":28.70579791458334,"instrument":1,"program":48,"isDrum":false},{"pitch":62,"velocity":128,"startTime":28.706875500000002,"endTime":28.83510816458334,"instrument":1,"program":48,"isDrum":false},{"pitch":65,"velocity":128,"startTime":28.706875500000002,"endTime":28.83510816458334,"instrument":1,"program":48,"isDrum":false},{"pitch":69,"velocity":128,"startTime":28.706875500000002,"endTime":28.83510816458334,"instrument":1,"program":48,"isDrum":false},{"pitch":74,"velocity":128,"startTime":28.706875500000002,"endTime":28.83510816458334,"instrument":1,"program":48,"isDrum":false},{"pitch":62,"velocity":128,"startTime":28.965496,"endTime":29.093728664583338,"instrument":1,"program":48,"isDrum":false},{"pitch":65,"velocity":128,"startTime":28.965496,"endTime":29.093728664583338,"instrument":1,"program":48,"isDrum":false},{"pitch":69,"velocity":128,"startTime":28.965496,"endTime":29.093728664583338,"instrument":1,"program":48,"isDrum":false},{"pitch":74,"velocity":128,"startTime":28.965496,"endTime":29.093728664583338,"instrument":1,"program":48,"isDrum":false},{"pitch":64,"velocity":128,"startTime":29.224116500000004,"endTime":29.352349164583337,"instrument":1,"program":48,"isDrum":false},{"pitch":69,"velocity":128,"startTime":29.224116500000004,"endTime":29.352349164583337,"instrument":1,"program":48,"isDrum":false},{"pitch":72,"velocity":128,"startTime":29.224116500000004,"endTime":29.352349164583337,"instrument":1,"program":48,"isDrum":false},{"pitch":76,"velocity":128,"startTime":29.224116500000004,"endTime":29.352349164583337,"instrument":1,"program":48,"isDrum":false},{"pitch":65,"velocity":128,"startTime":29.482737000000004,"endTime":29.610969664583337,"instrument":1,"program":48,"isDrum":false},{"pitch":69,"velocity":128,"startTime":29.482737000000004,"endTime":29.610969664583337,"instrument":1,"program":48,"isDrum":false},{"pitch":74,"velocity":128,"startTime":29.482737000000004,"endTime":29.610969664583337,"instrument":1,"program":48,"isDrum":false},{"pitch":77,"velocity":128,"startTime":29.482737000000004,"endTime":29.610969664583337,"instrument":1,"program":48,"isDrum":false},{"pitch":65,"velocity":128,"startTime":29.741357500000003,"endTime":29.86959016458334,"instrument":1,"program":48,"isDrum":false},{"pitch":69,"velocity":128,"startTime":29.741357500000003,"endTime":29.86959016458334,"instrument":1,"program":48,"isDrum":false},{"pitch":74,"velocity":128,"startTime":29.741357500000003,"endTime":29.86959016458334,"instrument":1,"program":48,"isDrum":false},{"pitch":77,"velocity":128,"startTime":29.741357500000003,"endTime":29.86959016458334,"instrument":1,"program":48,"isDrum":false},{"pitch":65,"velocity":128,"startTime":29.870667750000003,"endTime":29.99890041458334,"instrument":1,"program":48,"isDrum":false},{"pitch":69,"velocity":128,"startTime":29.870667750000003,"endTime":29.99890041458334,"instrument":1,"program":48,"isDrum":false},{"pitch":74,"velocity":128,"startTime":29.870667750000003,"endTime":29.99890041458334,"instrument":1,"program":48,"isDrum":false},{"pitch":77,"velocity":128,"startTime":29.870667750000003,"endTime":29.99890041458334,"instrument":1,"program":48,"isDrum":false},{"pitch":67,"velocity":128,"startTime":29.999978000000002,"endTime":30.12821066458334,"instrument":1,"program":48,"isDrum":false},{"pitch":72,"velocity":128,"startTime":29.999978000000002,"endTime":30.12821066458334,"instrument":1,"program":48,"isDrum":false},{"pitch":76,"velocity":128,"startTime":29.999978000000002,"endTime":30.12821066458334,"instrument":1,"program":48,"isDrum":false},{"pitch":79,"velocity":128,"startTime":29.999978000000002,"endTime":30.12821066458334,"instrument":1,"program":48,"isDrum":false},{"pitch":69,"velocity":128,"startTime":30.258598500000005,"endTime":30.386831164583338,"instrument":1,"program":48,"isDrum":false},{"pitch":74,"velocity":128,"startTime":30.258598500000005,"endTime":30.386831164583338,"instrument":1,"program":48,"isDrum":false},{"pitch":77,"velocity":128,"startTime":30.258598500000005,"endTime":30.386831164583338,"instrument":1,"program":48,"isDrum":false},{"pitch":81,"velocity":128,"startTime":30.258598500000005,"endTime":30.386831164583338,"instrument":1,"program":48,"isDrum":false},{"pitch":65,"velocity":128,"startTime":30.775839500000004,"endTime":30.904072164583337,"instrument":1,"program":48,"isDrum":false},{"pitch":70,"velocity":128,"startTime":30.775839500000004,"endTime":30.904072164583337,"instrument":1,"program":48,"isDrum":false},{"pitch":77,"velocity":128,"startTime":30.775839500000004,"endTime":30.904072164583337,"instrument":1,"program":48,"isDrum":false},{"pitch":62,"velocity":128,"startTime":30.905149750000003,"endTime":31.03338241458334,"instrument":1,"program":48,"isDrum":false},{"pitch":65,"velocity":128,"startTime":30.905149750000003,"endTime":31.03338241458334,"instrument":1,"program":48,"isDrum":false},{"pitch":74,"velocity":128,"startTime":30.905149750000003,"endTime":31.03338241458334,"instrument":1,"program":48,"isDrum":false},{"pitch":57,"velocity":128,"startTime":31.034460000000003,"endTime":31.29200291458334,"instrument":1,"program":48,"isDrum":false},{"pitch":62,"velocity":128,"startTime":31.034460000000003,"endTime":31.29200291458334,"instrument":1,"program":48,"isDrum":false},{"pitch":69,"velocity":128,"startTime":31.034460000000003,"endTime":31.29200291458334,"instrument":1,"program":48,"isDrum":false},{"pitch":67,"velocity":128,"startTime":31.810321500000004,"endTime":31.938554164583337,"instrument":1,"program":48,"isDrum":false},{"pitch":74,"velocity":128,"startTime":31.810321500000004,"endTime":31.938554164583337,"instrument":1,"program":48,"isDrum":false},{"pitch":77,"velocity":128,"startTime":31.810321500000004,"endTime":31.938554164583337,"instrument":1,"program":48,"isDrum":false},{"pitch":82,"velocity":128,"startTime":31.810321500000004,"endTime":31.938554164583337,"instrument":1,"program":48,"isDrum":false},{"pitch":65,"velocity":128,"startTime":32.45687275,"endTime":32.58510541458334,"instrument":1,"program":48,"isDrum":false},{"pitch":70,"velocity":128,"startTime":32.45687275,"endTime":32.58510541458334,"instrument":1,"program":48,"isDrum":false},{"pitch":77,"velocity":128,"startTime":32.45687275,"endTime":32.58510541458334,"instrument":1,"program":48,"isDrum":false},{"pitch":62,"velocity":128,"startTime":32.586183000000005,"endTime":32.714415664583335,"instrument":1,"program":48,"isDrum":false},{"pitch":65,"velocity":128,"startTime":32.586183000000005,"endTime":32.714415664583335,"instrument":1,"program":48,"isDrum":false},{"pitch":74,"velocity":128,"startTime":32.586183000000005,"endTime":32.714415664583335,"instrument":1,"program":48,"isDrum":false},{"pitch":55,"velocity":128,"startTime":32.71549325,"endTime":32.90838103958334,"instrument":1,"program":48,"isDrum":false},{"pitch":62,"velocity":128,"startTime":32.71549325,"endTime":32.90838103958334,"instrument":1,"program":48,"isDrum":false},{"pitch":70,"velocity":128,"startTime":32.71549325,"endTime":32.90838103958334,"instrument":1,"program":48,"isDrum":false},{"pitch":45,"velocity":128,"startTime":33.3620445,"endTime":33.49027716458334,"instrument":1,"program":48,"isDrum":false},{"pitch":52,"velocity":128,"startTime":33.3620445,"endTime":33.49027716458334,"instrument":1,"program":48,"isDrum":false},{"pitch":45,"velocity":128,"startTime":33.491354750000006,"endTime":33.619587414583336,"instrument":1,"program":48,"isDrum":false},{"pitch":52,"velocity":128,"startTime":33.491354750000006,"endTime":33.619587414583336,"instrument":1,"program":48,"isDrum":false},{"pitch":46,"velocity":128,"startTime":33.749975250000006,"endTime":33.94286303958334,"instrument":1,"program":48,"isDrum":false},{"pitch":53,"velocity":128,"startTime":33.749975250000006,"endTime":33.94286303958334,"instrument":1,"program":48,"isDrum":false},{"pitch":58,"velocity":128,"startTime":33.749975250000006,"endTime":33.94286303958334,"instrument":1,"program":48,"isDrum":false},{"pitch":62,"velocity":128,"startTime":33.749975250000006,"endTime":33.94286303958334,"instrument":1,"program":48,"isDrum":false},{"pitch":45,"velocity":128,"startTime":34.137906,"endTime":34.39544891458334,"instrument":1,"program":48,"isDrum":false},{"pitch":52,"velocity":128,"startTime":34.137906,"endTime":34.39544891458334,"instrument":1,"program":48,"isDrum":false},{"pitch":57,"velocity":128,"startTime":34.137906,"endTime":34.39544891458334,"instrument":1,"program":48,"isDrum":false},{"pitch":61,"velocity":128,"startTime":34.137906,"endTime":34.39544891458334,"instrument":1,"program":48,"isDrum":false},{"pitch":65,"velocity":128,"startTime":34.137906,"endTime":34.39544891458334,"instrument":1,"program":48,"isDrum":false},{"pitch":50,"velocity":128,"startTime":34.78445725,"endTime":34.91268991458334,"instrument":1,"program":48,"isDrum":false},{"pitch":57,"velocity":128,"startTime":34.78445725,"endTime":34.91268991458334,"instrument":1,"program":48,"isDrum":false},{"pitch":62,"velocity":128,"startTime":34.78445725,"endTime":34.91268991458334,"instrument":1,"program":48,"isDrum":false},{"pitch":65,"velocity":128,"startTime":34.78445725,"endTime":34.91268991458334,"instrument":1,"program":48,"isDrum":false},{"pitch":77,"velocity":80,"startTime":34.78445725,"endTime":34.91268991458334,"instrument":1,"program":48,"isDrum":false},{"pitch":50,"velocity":128,"startTime":34.913767500000006,"endTime":35.042000164583335,"instrument":1,"program":48,"isDrum":false},{"pitch":57,"velocity":128,"startTime":34.913767500000006,"endTime":35.042000164583335,"instrument":1,"program":48,"isDrum":false},{"pitch":62,"velocity":128,"startTime":34.913767500000006,"endTime":35.042000164583335,"instrument":1,"program":48,"isDrum":false},{"pitch":65,"velocity":128,"startTime":34.913767500000006,"endTime":35.042000164583335,"instrument":1,"program":48,"isDrum":false},{"pitch":67,"velocity":80,"startTime":34.913767500000006,"endTime":35.042000164583335,"instrument":1,"program":48,"isDrum":false},{"pitch":79,"velocity":80,"startTime":34.913767500000006,"endTime":35.042000164583335,"instrument":1,"program":48,"isDrum":false},{"pitch":57,"velocity":128,"startTime":35.04307775,"endTime":35.17131041458334,"instrument":1,"program":48,"isDrum":false},{"pitch":62,"velocity":128,"startTime":35.04307775,"endTime":35.17131041458334,"instrument":1,"program":48,"isDrum":false},{"pitch":65,"velocity":128,"startTime":35.04307775,"endTime":35.17131041458334,"instrument":1,"program":48,"isDrum":false},{"pitch":69,"velocity":128,"startTime":35.04307775,"endTime":35.17131041458334,"instrument":1,"program":48,"isDrum":false},{"pitch":81,"velocity":80,"startTime":35.04307775,"endTime":35.17131041458334,"instrument":1,"program":48,"isDrum":false},{"pitch":57,"velocity":128,"startTime":35.30169825,"endTime":35.42993091458334,"instrument":1,"program":48,"isDrum":false},{"pitch":62,"velocity":128,"startTime":35.30169825,"endTime":35.42993091458334,"instrument":1,"program":48,"isDrum":false},{"pitch":65,"velocity":128,"startTime":35.30169825,"endTime":35.42993091458334,"instrument":1,"program":48,"isDrum":false},{"pitch":69,"velocity":128,"startTime":35.30169825,"endTime":35.42993091458334,"instrument":1,"program":48,"isDrum":false},{"pitch":81,"velocity":80,"startTime":35.30169825,"endTime":35.42993091458334,"instrument":1,"program":48,"isDrum":false},{"pitch":57,"velocity":128,"startTime":35.56031875000001,"endTime":35.68855141458334,"instrument":1,"program":48,"isDrum":false},{"pitch":62,"velocity":128,"startTime":35.56031875000001,"endTime":35.68855141458334,"instrument":1,"program":48,"isDrum":false},{"pitch":65,"velocity":128,"startTime":35.56031875000001,"endTime":35.68855141458334,"instrument":1,"program":48,"isDrum":false},{"pitch":69,"velocity":128,"startTime":35.56031875000001,"endTime":35.68855141458334,"instrument":1,"program":48,"isDrum":false},{"pitch":81,"velocity":80,"startTime":35.56031875000001,"endTime":35.68855141458334,"instrument":1,"program":48,"isDrum":false},{"pitch":57,"velocity":128,"startTime":35.81893925000001,"endTime":35.947171914583336,"instrument":1,"program":48,"isDrum":false},{"pitch":62,"velocity":128,"startTime":35.81893925000001,"endTime":35.947171914583336,"instrument":1,"program":48,"isDrum":false},{"pitch":65,"velocity":128,"startTime":35.81893925000001,"endTime":35.947171914583336,"instrument":1,"program":48,"isDrum":false},{"pitch":70,"velocity":128,"startTime":35.81893925000001,"endTime":35.947171914583336,"instrument":1,"program":48,"isDrum":false},{"pitch":82,"velocity":80,"startTime":35.81893925000001,"endTime":35.947171914583336,"instrument":1,"program":48,"isDrum":false},{"pitch":57,"velocity":128,"startTime":35.9482495,"endTime":36.07648216458334,"instrument":1,"program":48,"isDrum":false},{"pitch":62,"velocity":128,"startTime":35.9482495,"endTime":36.07648216458334,"instrument":1,"program":48,"isDrum":false},{"pitch":65,"velocity":128,"startTime":35.9482495,"endTime":36.07648216458334,"instrument":1,"program":48,"isDrum":false},{"pitch":69,"velocity":128,"startTime":35.9482495,"endTime":36.07648216458334,"instrument":1,"program":48,"isDrum":false},{"pitch":81,"velocity":80,"startTime":35.9482495,"endTime":36.07648216458334,"instrument":1,"program":48,"isDrum":false},{"pitch":52,"velocity":128,"startTime":36.594800750000005,"endTime":36.72303341458334,"instrument":1,"program":48,"isDrum":false},{"pitch":60,"velocity":128,"startTime":36.594800750000005,"endTime":36.72303341458334,"instrument":1,"program":48,"isDrum":false},{"pitch":64,"velocity":128,"startTime":36.594800750000005,"endTime":36.72303341458334,"instrument":1,"program":48,"isDrum":false},{"pitch":67,"velocity":128,"startTime":36.594800750000005,"endTime":36.72303341458334,"instrument":1,"program":48,"isDrum":false},{"pitch":79,"velocity":80,"startTime":36.594800750000005,"endTime":36.72303341458334,"instrument":1,"program":48,"isDrum":false},{"pitch":52,"velocity":128,"startTime":36.853421250000004,"endTime":36.98165391458334,"instrument":1,"program":48,"isDrum":false},{"pitch":60,"velocity":128,"startTime":36.853421250000004,"endTime":36.98165391458334,"instrument":1,"program":48,"isDrum":false},{"pitch":64,"velocity":128,"startTime":36.853421250000004,"endTime":36.98165391458334,"instrument":1,"program":48,"isDrum":false},{"pitch":67,"velocity":128,"startTime":36.853421250000004,"endTime":36.98165391458334,"instrument":1,"program":48,"isDrum":false},{"pitch":79,"velocity":80,"startTime":36.853421250000004,"endTime":36.98165391458334,"instrument":1,"program":48,"isDrum":false},{"pitch":52,"velocity":128,"startTime":37.11204175,"endTime":37.24027441458334,"instrument":1,"program":48,"isDrum":false},{"pitch":60,"velocity":128,"startTime":37.11204175,"endTime":37.24027441458334,"instrument":1,"program":48,"isDrum":false},{"pitch":64,"velocity":128,"startTime":37.11204175,"endTime":37.24027441458334,"instrument":1,"program":48,"isDrum":false},{"pitch":67,"velocity":128,"startTime":37.11204175,"endTime":37.24027441458334,"instrument":1,"program":48,"isDrum":false},{"pitch":79,"velocity":80,"startTime":37.11204175,"endTime":37.24027441458334,"instrument":1,"program":48,"isDrum":false},{"pitch":52,"velocity":128,"startTime":37.37066225,"endTime":37.49889491458334,"instrument":1,"program":48,"isDrum":false},{"pitch":60,"velocity":128,"startTime":37.37066225,"endTime":37.49889491458334,"instrument":1,"program":48,"isDrum":false},{"pitch":64,"velocity":128,"startTime":37.37066225,"endTime":37.49889491458334,"instrument":1,"program":48,"isDrum":false},{"pitch":67,"velocity":128,"startTime":37.37066225,"endTime":37.49889491458334,"instrument":1,"program":48,"isDrum":false},{"pitch":79,"velocity":80,"startTime":37.37066225,"endTime":37.49889491458334,"instrument":1,"program":48,"isDrum":false},{"pitch":53,"velocity":128,"startTime":37.499972500000005,"endTime":37.62820516458334,"instrument":1,"program":48,"isDrum":false},{"pitch":62,"velocity":128,"startTime":37.499972500000005,"endTime":37.62820516458334,"instrument":1,"program":48,"isDrum":false},{"pitch":65,"velocity":128,"startTime":37.499972500000005,"endTime":37.62820516458334,"instrument":1,"program":48,"isDrum":false},{"pitch":69,"velocity":128,"startTime":37.499972500000005,"endTime":37.62820516458334,"instrument":1,"program":48,"isDrum":false},{"pitch":81,"velocity":80,"startTime":37.499972500000005,"endTime":37.62820516458334,"instrument":1,"program":48,"isDrum":false},{"pitch":53,"velocity":128,"startTime":38.14652375000001,"endTime":38.27475641458334,"instrument":1,"program":48,"isDrum":false},{"pitch":62,"velocity":128,"startTime":38.14652375000001,"endTime":38.27475641458334,"instrument":1,"program":48,"isDrum":false},{"pitch":65,"velocity":128,"startTime":38.14652375000001,"endTime":38.27475641458334,"instrument":1,"program":48,"isDrum":false},{"pitch":69,"velocity":128,"startTime":38.14652375000001,"endTime":38.27475641458334,"instrument":1,"program":48,"isDrum":false},{"pitch":81,"velocity":80,"startTime":38.14652375000001,"endTime":38.27475641458334,"instrument":1,"program":48,"isDrum":false},{"pitch":53,"velocity":128,"startTime":38.405144250000006,"endTime":38.533376914583336,"instrument":1,"program":48,"isDrum":false},{"pitch":62,"velocity":128,"startTime":38.405144250000006,"endTime":38.533376914583336,"instrument":1,"program":48,"isDrum":false},{"pitch":65,"velocity":128,"startTime":38.405144250000006,"endTime":38.533376914583336,"instrument":1,"program":48,"isDrum":false},{"pitch":69,"velocity":128,"startTime":38.405144250000006,"endTime":38.533376914583336,"instrument":1,"program":48,"isDrum":false},{"pitch":81,"velocity":80,"startTime":38.405144250000006,"endTime":38.533376914583336,"instrument":1,"program":48,"isDrum":false},{"pitch":53,"velocity":128,"startTime":38.663764750000006,"endTime":38.79199741458334,"instrument":1,"program":48,"isDrum":false},{"pitch":62,"velocity":128,"startTime":38.663764750000006,"endTime":38.79199741458334,"instrument":1,"program":48,"isDrum":false},{"pitch":65,"velocity":128,"startTime":38.663764750000006,"endTime":38.79199741458334,"instrument":1,"program":48,"isDrum":false},{"pitch":69,"velocity":128,"startTime":38.663764750000006,"endTime":38.79199741458334,"instrument":1,"program":48,"isDrum":false},{"pitch":81,"velocity":80,"startTime":38.663764750000006,"endTime":38.79199741458334,"instrument":1,"program":48,"isDrum":false},{"pitch":55,"velocity":128,"startTime":38.922385250000005,"endTime":39.05061791458334,"instrument":1,"program":48,"isDrum":false},{"pitch":62,"velocity":128,"startTime":38.922385250000005,"endTime":39.05061791458334,"instrument":1,"program":48,"isDrum":false},{"pitch":67,"velocity":128,"startTime":38.922385250000005,"endTime":39.05061791458334,"instrument":1,"program":48,"isDrum":false},{"pitch":70,"velocity":128,"startTime":38.922385250000005,"endTime":39.05061791458334,"instrument":1,"program":48,"isDrum":false},{"pitch":82,"velocity":80,"startTime":38.922385250000005,"endTime":39.05061791458334,"instrument":1,"program":48,"isDrum":false},{"pitch":53,"velocity":128,"startTime":39.05169550000001,"endTime":39.17992816458334,"instrument":1,"program":48,"isDrum":false},{"pitch":62,"velocity":128,"startTime":39.05169550000001,"endTime":39.17992816458334,"instrument":1,"program":48,"isDrum":false},{"pitch":65,"velocity":128,"startTime":39.05169550000001,"endTime":39.17992816458334,"instrument":1,"program":48,"isDrum":false},{"pitch":69,"velocity":128,"startTime":39.05169550000001,"endTime":39.17992816458334,"instrument":1,"program":48,"isDrum":false},{"pitch":81,"velocity":80,"startTime":39.05169550000001,"endTime":39.17992816458334,"instrument":1,"program":48,"isDrum":false},{"pitch":52,"velocity":128,"startTime":39.69824675,"endTime":39.82647941458334,"instrument":1,"program":48,"isDrum":false},{"pitch":60,"velocity":128,"startTime":39.69824675,"endTime":39.82647941458334,"instrument":1,"program":48,"isDrum":false},{"pitch":64,"velocity":128,"startTime":39.69824675,"endTime":39.82647941458334,"instrument":1,"program":48,"isDrum":false},{"pitch":67,"velocity":128,"startTime":39.69824675,"endTime":39.82647941458334,"instrument":1,"program":48,"isDrum":false},{"pitch":79,"velocity":80,"startTime":39.69824675,"endTime":39.82647941458334,"instrument":1,"program":48,"isDrum":false},{"pitch":50,"velocity":128,"startTime":39.95686725,"endTime":40.08509991458334,"instrument":1,"program":48,"isDrum":false},{"pitch":57,"velocity":128,"startTime":39.95686725,"endTime":40.08509991458334,"instrument":1,"program":48,"isDrum":false},{"pitch":62,"velocity":128,"startTime":39.95686725,"endTime":40.08509991458334,"instrument":1,"program":48,"isDrum":false},{"pitch":65,"velocity":128,"startTime":39.95686725,"endTime":40.08509991458334,"instrument":1,"program":48,"isDrum":false},{"pitch":77,"velocity":80,"startTime":39.95686725,"endTime":40.08509991458334,"instrument":1,"program":48,"isDrum":false},{"pitch":48,"velocity":128,"startTime":40.21548775000001,"endTime":40.34372041458334,"instrument":1,"program":48,"isDrum":false},{"pitch":55,"velocity":128,"startTime":40.21548775000001,"endTime":40.34372041458334,"instrument":1,"program":48,"isDrum":false},{"pitch":60,"velocity":128,"startTime":40.21548775000001,"endTime":40.34372041458334,"instrument":1,"program":48,"isDrum":false},{"pitch":64,"velocity":128,"startTime":40.21548775000001,"endTime":40.34372041458334,"instrument":1,"program":48,"isDrum":false},{"pitch":76,"velocity":80,"startTime":40.21548775000001,"endTime":40.34372041458334,"instrument":1,"program":48,"isDrum":false},{"pitch":50,"velocity":128,"startTime":40.47410825000001,"endTime":40.66699603958334,"instrument":1,"program":48,"isDrum":false},{"pitch":53,"velocity":128,"startTime":40.47410825000001,"endTime":40.66699603958334,"instrument":1,"program":48,"isDrum":false},{"pitch":57,"velocity":128,"startTime":40.47410825000001,"endTime":40.66699603958334,"instrument":1,"program":48,"isDrum":false},{"pitch":62,"velocity":128,"startTime":40.47410825000001,"endTime":40.66699603958334,"instrument":1,"program":48,"isDrum":false},{"pitch":74,"velocity":80,"startTime":40.47410825000001,"endTime":40.66699603958334,"instrument":1,"program":48,"isDrum":false},{"pitch":62,"velocity":128,"startTime":41.1206595,"endTime":41.24889216458334,"instrument":1,"program":48,"isDrum":false},{"pitch":64,"velocity":128,"startTime":41.249969750000005,"endTime":41.37820241458334,"instrument":1,"program":48,"isDrum":false},{"pitch":65,"velocity":128,"startTime":41.37928000000001,"endTime":41.912058443750006,"instrument":1,"program":48,"isDrum":false},{"pitch":50,"velocity":128,"startTime":41.37928000000001,"endTime":42.17872544375001,"instrument":1,"program":48,"isDrum":false},{"pitch":67,"velocity":128,"startTime":41.912614000000005,"endTime":42.04539194375001,"instrument":1,"program":48,"isDrum":false},{"pitch":69,"velocity":128,"startTime":42.04594750000001,"endTime":42.17872544375001,"instrument":1,"program":48,"isDrum":false},{"pitch":67,"velocity":128,"startTime":42.17928100000001,"endTime":42.31205894375001,"instrument":1,"program":48,"isDrum":false},{"pitch":48,"velocity":128,"startTime":42.17928100000001,"endTime":42.978726443750006,"instrument":1,"program":48,"isDrum":false},{"pitch":65,"velocity":128,"startTime":42.44594800000001,"endTime":42.57872594375001,"instrument":1,"program":48,"isDrum":false},{"pitch":64,"velocity":128,"startTime":42.71261500000001,"endTime":42.84539294375001,"instrument":1,"program":48,"isDrum":false},{"pitch":65,"velocity":128,"startTime":42.97928200000001,"endTime":43.11205994375001,"instrument":1,"program":48,"isDrum":false},{"pitch":53,"velocity":128,"startTime":42.97928200000001,"endTime":43.77872744375001,"instrument":1,"program":48,"isDrum":false},{"pitch":67,"velocity":128,"startTime":43.24594900000001,"endTime":43.37872694375001,"instrument":1,"program":48,"isDrum":false},{"pitch":69,"velocity":128,"startTime":43.51261600000001,"endTime":43.64539394375001,"instrument":1,"program":48,"isDrum":false},{"pitch":67,"velocity":128,"startTime":43.77928300000001,"endTime":43.91206094375001,"instrument":1,"program":48,"isDrum":false},{"pitch":48,"velocity":128,"startTime":43.77928300000001,"endTime":44.57872844375001,"instrument":1,"program":48,"isDrum":false},{"pitch":65,"velocity":128,"startTime":44.31261700000001,"endTime":44.44539494375001,"instrument":1,"program":48,"isDrum":false},{"pitch":67,"velocity":128,"startTime":44.44595050000001,"endTime":44.57872844375001,"instrument":1,"program":48,"isDrum":false},{"pitch":69,"velocity":128,"startTime":44.57928400000001,"endTime":45.112062443750006,"instrument":1,"program":48,"isDrum":false},{"pitch":53,"velocity":128,"startTime":44.57928400000001,"endTime":45.37872944375001,"instrument":1,"program":48,"isDrum":false},{"pitch":67,"velocity":128,"startTime":45.11261800000001,"endTime":45.24539594375001,"instrument":1,"program":48,"isDrum":false},{"pitch":65,"velocity":128,"startTime":45.24595150000001,"endTime":45.37872944375001,"instrument":1,"program":48,"isDrum":false},{"pitch":64,"velocity":128,"startTime":45.37928500000001,"endTime":45.51206294375001,"instrument":1,"program":48,"isDrum":false},{"pitch":52,"velocity":128,"startTime":45.37928500000001,"endTime":46.178730443750005,"instrument":1,"program":48,"isDrum":false},{"pitch":65,"velocity":128,"startTime":45.64595200000001,"endTime":45.77872994375001,"instrument":1,"program":48,"isDrum":false},{"pitch":64,"velocity":128,"startTime":45.91261900000001,"endTime":46.045396943750006,"instrument":1,"program":48,"isDrum":false},{"pitch":62,"velocity":128,"startTime":46.179286000000005,"endTime":46.71206444375001,"instrument":1,"program":48,"isDrum":false},{"pitch":50,"velocity":128,"startTime":46.179286000000005,"endTime":47.77873244375001,"instrument":1,"program":48,"isDrum":false},{"pitch":64,"velocity":128,"startTime":46.71262000000001,"endTime":46.84539794375001,"instrument":1,"program":48,"isDrum":false},{"pitch":60,"velocity":128,"startTime":46.84595350000001,"endTime":46.97873144375001,"instrument":1,"program":48,"isDrum":false},{"pitch":62,"velocity":128,"startTime":46.97928700000001,"endTime":47.112064943750006,"instrument":1,"program":48,"isDrum":false},{"pitch":62,"velocity":128,"startTime":47.51262100000001,"endTime":47.64539894375001,"instrument":1,"program":48,"isDrum":false},{"pitch":74,"velocity":128,"startTime":47.51262100000001,"endTime":47.64539894375001,"instrument":1,"program":48,"isDrum":false},{"pitch":64,"velocity":128,"startTime":47.64595450000001,"endTime":47.77873244375001,"instrument":1,"program":48,"isDrum":false},{"pitch":76,"velocity":128,"startTime":47.64595450000001,"endTime":47.77873244375001,"instrument":1,"program":48,"isDrum":false},{"pitch":65,"velocity":128,"startTime":47.77928800000001,"endTime":48.312066443750005,"instrument":1,"program":48,"isDrum":false},{"pitch":77,"velocity":128,"startTime":47.77928800000001,"endTime":48.312066443750005,"instrument":1,"program":48,"isDrum":false},{"pitch":50,"velocity":128,"startTime":47.77928800000001,"endTime":48.57873344375001,"instrument":1,"program":48,"isDrum":false},{"pitch":64,"velocity":128,"startTime":48.312622000000005,"endTime":48.445399943750004,"instrument":1,"program":48,"isDrum":false},{"pitch":76,"velocity":128,"startTime":48.312622000000005,"endTime":48.445399943750004,"instrument":1,"program":48,"isDrum":false},{"pitch":65,"velocity":128,"startTime":48.44595550000001,"endTime":48.57873344375001,"instrument":1,"program":48,"isDrum":false},{"pitch":77,"velocity":128,"startTime":48.44595550000001,"endTime":48.57873344375001,"instrument":1,"program":48,"isDrum":false},{"pitch":55,"velocity":128,"startTime":48.57928900000001,"endTime":49.378734443750005,"instrument":1,"program":48,"isDrum":false},{"pitch":67,"velocity":128,"startTime":48.57928900000001,"endTime":48.84540044375001,"instrument":1,"program":48,"isDrum":false},{"pitch":79,"velocity":128,"startTime":48.57928900000001,"endTime":48.84540044375001,"instrument":1,"program":48,"isDrum":false},{"pitch":48,"velocity":128,"startTime":48.57928900000001,"endTime":50.17873544375001,"instrument":1,"program":48,"isDrum":false},{"pitch":65,"velocity":128,"startTime":48.84595600000001,"endTime":49.11206744375001,"instrument":1,"program":48,"isDrum":false},{"pitch":77,"velocity":128,"startTime":48.84595600000001,"endTime":49.11206744375001,"instrument":1,"program":48,"isDrum":false},{"pitch":67,"velocity":128,"startTime":49.112623000000006,"endTime":49.378734443750005,"instrument":1,"program":48,"isDrum":false},{"pitch":79,"velocity":128,"startTime":49.112623000000006,"endTime":49.378734443750005,"instrument":1,"program":48,"isDrum":false},{"pitch":69,"velocity":128,"startTime":49.37929000000001,"endTime":49.51206794375001,"instrument":1,"program":48,"isDrum":false},{"pitch":72,"velocity":128,"startTime":49.37929000000001,"endTime":49.51206794375001,"instrument":1,"program":48,"isDrum":false},{"pitch":81,"velocity":128,"startTime":49.37929000000001,"endTime":49.51206794375001,"instrument":1,"program":48,"isDrum":false},{"pitch":53,"velocity":128,"startTime":49.37929000000001,"endTime":50.17873544375001,"instrument":1,"program":48,"isDrum":false},{"pitch":67,"velocity":128,"startTime":49.64595700000001,"endTime":49.77873494375001,"instrument":1,"program":48,"isDrum":false},{"pitch":72,"velocity":128,"startTime":49.64595700000001,"endTime":49.77873494375001,"instrument":1,"program":48,"isDrum":false},{"pitch":79,"velocity":128,"startTime":49.64595700000001,"endTime":49.77873494375001,"instrument":1,"program":48,"isDrum":false},{"pitch":65,"velocity":128,"startTime":49.91262400000001,"endTime":50.04540194375001,"instrument":1,"program":48,"isDrum":false},{"pitch":72,"velocity":128,"startTime":49.91262400000001,"endTime":50.04540194375001,"instrument":1,"program":48,"isDrum":false},{"pitch":77,"velocity":128,"startTime":49.91262400000001,"endTime":50.04540194375001,"instrument":1,"program":48,"isDrum":false},{"pitch":62,"velocity":128,"startTime":50.179291000000006,"endTime":50.312068943750006,"instrument":1,"program":48,"isDrum":false},{"pitch":70,"velocity":128,"startTime":50.179291000000006,"endTime":50.312068943750006,"instrument":1,"program":48,"isDrum":false},{"pitch":74,"velocity":128,"startTime":50.179291000000006,"endTime":50.312068943750006,"instrument":1,"program":48,"isDrum":false},{"pitch":46,"velocity":128,"startTime":50.179291000000006,"endTime":50.97873644375001,"instrument":1,"program":48,"isDrum":false},{"pitch":53,"velocity":128,"startTime":50.179291000000006,"endTime":50.97873644375001,"instrument":1,"program":48,"isDrum":false},{"pitch":62,"velocity":128,"startTime":50.71262500000001,"endTime":50.84540294375001,"instrument":1,"program":48,"isDrum":false},{"pitch":74,"velocity":128,"startTime":50.71262500000001,"endTime":50.84540294375001,"instrument":1,"program":48,"isDrum":false},{"pitch":64,"velocity":128,"startTime":50.84595850000001,"endTime":50.97873644375001,"instrument":1,"program":48,"isDrum":false},{"pitch":76,"velocity":128,"startTime":50.84595850000001,"endTime":50.97873644375001,"instrument":1,"program":48,"isDrum":false},{"pitch":65,"velocity":128,"startTime":50.97929200000001,"endTime":51.11206994375001,"instrument":1,"program":48,"isDrum":false},{"pitch":69,"velocity":128,"startTime":50.97929200000001,"endTime":51.11206994375001,"instrument":1,"program":48,"isDrum":false},{"pitch":77,"velocity":128,"startTime":50.97929200000001,"endTime":51.11206994375001,"instrument":1,"program":48,"isDrum":false},{"pitch":45,"velocity":128,"startTime":50.97929200000001,"endTime":51.77873744375001,"instrument":1,"program":48,"isDrum":false},{"pitch":50,"velocity":128,"startTime":50.97929200000001,"endTime":51.77873744375001,"instrument":1,"program":48,"isDrum":false},{"pitch":67,"velocity":128,"startTime":51.245959000000006,"endTime":51.378736943750006,"instrument":1,"program":48,"isDrum":false},{"pitch":76,"velocity":128,"startTime":51.245959000000006,"endTime":51.378736943750006,"instrument":1,"program":48,"isDrum":false},{"pitch":79,"velocity":128,"startTime":51.245959000000006,"endTime":51.378736943750006,"instrument":1,"program":48,"isDrum":false},{"pitch":69,"velocity":128,"startTime":51.51262600000001,"endTime":51.64540394375001,"instrument":1,"program":48,"isDrum":false},{"pitch":74,"velocity":128,"startTime":51.51262600000001,"endTime":51.64540394375001,"instrument":1,"program":48,"isDrum":false},{"pitch":81,"velocity":128,"startTime":51.51262600000001,"endTime":51.64540394375001,"instrument":1,"program":48,"isDrum":false},{"pitch":70,"velocity":128,"startTime":51.77929300000001,"endTime":51.91207094375001,"instrument":1,"program":48,"isDrum":false},{"pitch":77,"velocity":128,"startTime":51.77929300000001,"endTime":51.91207094375001,"instrument":1,"program":48,"isDrum":false},{"pitch":82,"velocity":128,"startTime":51.77929300000001,"endTime":51.91207094375001,"instrument":1,"program":48,"isDrum":false},{"pitch":46,"velocity":128,"startTime":51.77929300000001,"endTime":52.57873844375001,"instrument":1,"program":48,"isDrum":false},{"pitch":55,"velocity":128,"startTime":51.77929300000001,"endTime":52.57873844375001,"instrument":1,"program":48,"isDrum":false},{"pitch":62,"velocity":128,"startTime":52.04596000000001,"endTime":52.17873794375001,"instrument":1,"program":48,"isDrum":false},{"pitch":70,"velocity":128,"startTime":52.04596000000001,"endTime":52.17873794375001,"instrument":1,"program":48,"isDrum":false},{"pitch":74,"velocity":128,"startTime":52.04596000000001,"endTime":52.17873794375001,"instrument":1,"program":48,"isDrum":false},{"pitch":67,"velocity":128,"startTime":52.312627000000006,"endTime":52.445404943750006,"instrument":1,"program":48,"isDrum":false},{"pitch":74,"velocity":128,"startTime":52.312627000000006,"endTime":52.445404943750006,"instrument":1,"program":48,"isDrum":false},{"pitch":79,"velocity":128,"startTime":52.312627000000006,"endTime":52.445404943750006,"instrument":1,"program":48,"isDrum":false},{"pitch":65,"velocity":128,"startTime":52.579294000000004,"endTime":52.712071943750004,"instrument":1,"program":48,"isDrum":false},{"pitch":74,"velocity":128,"startTime":52.579294000000004,"endTime":52.712071943750004,"instrument":1,"program":48,"isDrum":false},{"pitch":77,"velocity":128,"startTime":52.579294000000004,"endTime":52.712071943750004,"instrument":1,"program":48,"isDrum":false},{"pitch":50,"velocity":128,"startTime":52.579294000000004,"endTime":53.91207344375001,"instrument":1,"program":48,"isDrum":false},{"pitch":57,"velocity":128,"startTime":52.579294000000004,"endTime":53.37873944375001,"instrument":1,"program":48,"isDrum":false},{"pitch":67,"velocity":128,"startTime":52.97929450000001,"endTime":53.11207244375001,"instrument":1,"program":48,"isDrum":false},{"pitch":70,"velocity":128,"startTime":52.97929450000001,"endTime":53.11207244375001,"instrument":1,"program":48,"isDrum":false},{"pitch":79,"velocity":128,"startTime":52.97929450000001,"endTime":53.11207244375001,"instrument":1,"program":48,"isDrum":false},{"pitch":64,"velocity":128,"startTime":53.11262800000001,"endTime":53.24540594375001,"instrument":1,"program":48,"isDrum":false},{"pitch":67,"velocity":128,"startTime":53.11262800000001,"endTime":53.24540594375001,"instrument":1,"program":48,"isDrum":false},{"pitch":76,"velocity":128,"startTime":53.11262800000001,"endTime":53.24540594375001,"instrument":1,"program":48,"isDrum":false},{"pitch":62,"velocity":128,"startTime":53.379295000000006,"endTime":53.512072943750006,"instrument":1,"program":48,"isDrum":false},{"pitch":69,"velocity":128,"startTime":53.379295000000006,"endTime":53.512072943750006,"instrument":1,"program":48,"isDrum":false},{"pitch":74,"velocity":128,"startTime":53.379295000000006,"endTime":53.512072943750006,"instrument":1,"program":48,"isDrum":false},{"pitch":45,"velocity":128,"startTime":53.379295000000006,"endTime":54.17874044375001,"instrument":1,"program":48,"isDrum":false},{"pitch":64,"velocity":128,"startTime":53.7792955,"endTime":53.91207344375001,"instrument":1,"program":48,"isDrum":false},{"pitch":69,"velocity":128,"startTime":53.7792955,"endTime":53.91207344375001,"instrument":1,"program":48,"isDrum":false},{"pitch":76,"velocity":128,"startTime":53.7792955,"endTime":53.91207344375001,"instrument":1,"program":48,"isDrum":false},{"pitch":55,"velocity":128,"startTime":53.91262900000001,"endTime":54.04540694375001,"instrument":1,"program":48,"isDrum":false},{"pitch":61,"velocity":128,"startTime":53.91262900000001,"endTime":54.04540694375001,"instrument":1,"program":48,"isDrum":false},{"pitch":64,"velocity":128,"startTime":53.91262900000001,"endTime":54.04540694375001,"instrument":1,"program":48,"isDrum":false},{"pitch":73,"velocity":128,"startTime":53.91262900000001,"endTime":54.04540694375001,"instrument":1,"program":48,"isDrum":false},{"pitch":53,"velocity":128,"startTime":54.17929600000001,"endTime":54.31207394375001,"instrument":1,"program":48,"isDrum":false},{"pitch":62,"velocity":128,"startTime":54.17929600000001,"endTime":54.31207394375001,"instrument":1,"program":48,"isDrum":false},{"pitch":69,"velocity":128,"startTime":54.17929600000001,"endTime":54.31207394375001,"instrument":1,"program":48,"isDrum":false},{"pitch":81,"velocity":128,"startTime":54.17929600000001,"endTime":54.31207394375001,"instrument":1,"program":48,"isDrum":false},{"pitch":53,"velocity":128,"startTime":54.97929700000001,"endTime":55.11207494375001,"instrument":1,"program":48,"isDrum":false},{"pitch":62,"velocity":128,"startTime":54.97929700000001,"endTime":55.11207494375001,"instrument":1,"program":48,"isDrum":false},{"pitch":70,"velocity":128,"startTime":54.97929700000001,"endTime":55.11207494375001,"instrument":1,"program":48,"isDrum":false},{"pitch":82,"velocity":128,"startTime":54.97929700000001,"endTime":55.11207494375001,"instrument":1,"program":48,"isDrum":false},{"pitch":53,"velocity":128,"startTime":55.77929800000001,"endTime":55.91207594375001,"instrument":1,"program":48,"isDrum":false},{"pitch":60,"velocity":128,"startTime":55.77929800000001,"endTime":55.91207594375001,"instrument":1,"program":48,"isDrum":false},{"pitch":69,"velocity":128,"startTime":55.77929800000001,"endTime":55.91207594375001,"instrument":1,"program":48,"isDrum":false},{"pitch":81,"velocity":128,"startTime":55.77929800000001,"endTime":55.91207594375001,"instrument":1,"program":48,"isDrum":false},{"pitch":53,"velocity":128,"startTime":56.04596500000001,"endTime":56.17874294375001,"instrument":1,"program":48,"isDrum":false},{"pitch":60,"velocity":128,"startTime":56.04596500000001,"endTime":56.17874294375001,"instrument":1,"program":48,"isDrum":false},{"pitch":69,"velocity":128,"startTime":56.04596500000001,"endTime":56.17874294375001,"instrument":1,"program":48,"isDrum":false},{"pitch":81,"velocity":128,"startTime":56.04596500000001,"endTime":56.17874294375001,"instrument":1,"program":48,"isDrum":false},{"pitch":53,"velocity":128,"startTime":56.31263200000001,"endTime":56.44540994375001,"instrument":1,"program":48,"isDrum":false},{"pitch":60,"velocity":128,"startTime":56.31263200000001,"endTime":56.44540994375001,"instrument":1,"program":48,"isDrum":false},{"pitch":69,"velocity":128,"startTime":56.31263200000001,"endTime":56.44540994375001,"instrument":1,"program":48,"isDrum":false},{"pitch":81,"velocity":128,"startTime":56.31263200000001,"endTime":56.44540994375001,"instrument":1,"program":48,"isDrum":false},{"pitch":53,"velocity":128,"startTime":56.579299000000006,"endTime":56.712076943750006,"instrument":1,"program":48,"isDrum":false},{"pitch":60,"velocity":128,"startTime":56.579299000000006,"endTime":56.712076943750006,"instrument":1,"program":48,"isDrum":false},{"pitch":69,"velocity":128,"startTime":56.579299000000006,"endTime":56.712076943750006,"instrument":1,"program":48,"isDrum":false},{"pitch":81,"velocity":128,"startTime":56.579299000000006,"endTime":56.712076943750006,"instrument":1,"program":48,"isDrum":false},{"pitch":52,"velocity":128,"startTime":56.71263250000001,"endTime":56.84541044375001,"instrument":1,"program":48,"isDrum":false},{"pitch":60,"velocity":128,"startTime":56.71263250000001,"endTime":56.84541044375001,"instrument":1,"program":48,"isDrum":false},{"pitch":67,"velocity":128,"startTime":56.71263250000001,"endTime":56.84541044375001,"instrument":1,"program":48,"isDrum":false},{"pitch":79,"velocity":128,"startTime":56.71263250000001,"endTime":56.84541044375001,"instrument":1,"program":48,"isDrum":false},{"pitch":50,"velocity":128,"startTime":57.37930000000001,"endTime":57.51207794375001,"instrument":1,"program":48,"isDrum":false},{"pitch":58,"velocity":128,"startTime":57.37930000000001,"endTime":57.51207794375001,"instrument":1,"program":48,"isDrum":false},{"pitch":67,"velocity":128,"startTime":57.37930000000001,"endTime":57.51207794375001,"instrument":1,"program":48,"isDrum":false},{"pitch":79,"velocity":128,"startTime":57.37930000000001,"endTime":57.51207794375001,"instrument":1,"program":48,"isDrum":false},{"pitch":50,"velocity":128,"startTime":58.17930100000001,"endTime":58.31207894375001,"instrument":1,"program":48,"isDrum":false},{"pitch":57,"velocity":128,"startTime":58.17930100000001,"endTime":58.31207894375001,"instrument":1,"program":48,"isDrum":false},{"pitch":65,"velocity":128,"startTime":58.17930100000001,"endTime":58.31207894375001,"instrument":1,"program":48,"isDrum":false},{"pitch":77,"velocity":128,"startTime":58.17930100000001,"endTime":58.31207894375001,"instrument":1,"program":48,"isDrum":false},{"pitch":48,"velocity":128,"startTime":58.979302000000004,"endTime":59.112079943750004,"instrument":1,"program":48,"isDrum":false},{"pitch":55,"velocity":128,"startTime":58.979302000000004,"endTime":59.112079943750004,"instrument":1,"program":48,"isDrum":false},{"pitch":64,"velocity":128,"startTime":58.979302000000004,"endTime":59.112079943750004,"instrument":1,"program":48,"isDrum":false},{"pitch":76,"velocity":128,"startTime":58.979302000000004,"endTime":59.112079943750004,"instrument":1,"program":48,"isDrum":false},{"pitch":48,"velocity":128,"startTime":59.24596900000001,"endTime":59.37874694375001,"instrument":1,"program":48,"isDrum":false},{"pitch":55,"velocity":128,"startTime":59.24596900000001,"endTime":59.37874694375001,"instrument":1,"program":48,"isDrum":false},{"pitch":65,"velocity":128,"startTime":59.24596900000001,"endTime":59.37874694375001,"instrument":1,"program":48,"isDrum":false},{"pitch":77,"velocity":128,"startTime":59.24596900000001,"endTime":59.37874694375001,"instrument":1,"program":48,"isDrum":false},{"pitch":48,"velocity":128,"startTime":59.51263600000001,"endTime":59.64541394375001,"instrument":1,"program":48,"isDrum":false},{"pitch":55,"velocity":128,"startTime":59.51263600000001,"endTime":59.64541394375001,"instrument":1,"program":48,"isDrum":false},{"pitch":64,"velocity":128,"startTime":59.51263600000001,"endTime":59.64541394375001,"instrument":1,"program":48,"isDrum":false},{"pitch":76,"velocity":128,"startTime":59.51263600000001,"endTime":59.64541394375001,"instrument":1,"program":48,"isDrum":false},{"pitch":48,"velocity":128,"startTime":59.779303000000006,"endTime":59.91208094375001,"instrument":1,"program":48,"isDrum":false},{"pitch":55,"velocity":128,"startTime":59.779303000000006,"endTime":59.91208094375001,"instrument":1,"program":48,"isDrum":false},{"pitch":64,"velocity":128,"startTime":59.779303000000006,"endTime":59.91208094375001,"instrument":1,"program":48,"isDrum":false},{"pitch":76,"velocity":128,"startTime":59.779303000000006,"endTime":59.91208094375001,"instrument":1,"program":48,"isDrum":false},{"pitch":45,"velocity":128,"startTime":59.912636500000005,"endTime":60.045414443750005,"instrument":1,"program":48,"isDrum":false},{"pitch":53,"velocity":128,"startTime":59.912636500000005,"endTime":60.045414443750005,"instrument":1,"program":48,"isDrum":false},{"pitch":62,"velocity":128,"startTime":59.912636500000005,"endTime":60.045414443750005,"instrument":1,"program":48,"isDrum":false},{"pitch":74,"velocity":128,"startTime":59.912636500000005,"endTime":60.045414443750005,"instrument":1,"program":48,"isDrum":false},{"pitch":50,"velocity":128,"startTime":60.1793035,"endTime":60.31208144375,"instrument":1,"program":48,"isDrum":false},{"pitch":62,"velocity":128,"startTime":60.1793035,"endTime":60.31208144375,"instrument":1,"program":48,"isDrum":false},{"pitch":74,"velocity":128,"startTime":60.1793035,"endTime":60.31208144375,"instrument":1,"program":48,"isDrum":false},{"pitch":52,"velocity":128,"startTime":60.31263700000001,"endTime":60.44541494375001,"instrument":1,"program":48,"isDrum":false},{"pitch":64,"velocity":128,"startTime":60.31263700000001,"endTime":60.44541494375001,"instrument":1,"program":48,"isDrum":false},{"pitch":76,"velocity":128,"startTime":60.31263700000001,"endTime":60.44541494375001,"instrument":1,"program":48,"isDrum":false},{"pitch":53,"velocity":128,"startTime":60.44597050000001,"endTime":60.57874844375001,"instrument":1,"program":48,"isDrum":false},{"pitch":65,"velocity":128,"startTime":60.44597050000001,"endTime":60.57874844375001,"instrument":1,"program":48,"isDrum":false},{"pitch":77,"velocity":128,"startTime":60.44597050000001,"endTime":60.57874844375001,"instrument":1,"program":48,"isDrum":false},{"pitch":53,"velocity":128,"startTime":60.57930400000001,"endTime":60.71208194375001,"instrument":1,"program":48,"isDrum":false},{"pitch":62,"velocity":128,"startTime":60.57930400000001,"endTime":60.71208194375001,"instrument":1,"program":48,"isDrum":false},{"pitch":69,"velocity":128,"startTime":60.57930400000001,"endTime":60.71208194375001,"instrument":1,"program":48,"isDrum":false},{"pitch":81,"velocity":128,"startTime":60.57930400000001,"endTime":60.71208194375001,"instrument":1,"program":48,"isDrum":false},{"pitch":50,"velocity":128,"startTime":60.97930450000001,"endTime":61.11208244375001,"instrument":1,"program":48,"isDrum":false},{"pitch":62,"velocity":128,"startTime":60.97930450000001,"endTime":61.11208244375001,"instrument":1,"program":48,"isDrum":false},{"pitch":74,"velocity":128,"startTime":60.97930450000001,"endTime":61.11208244375001,"instrument":1,"program":48,"isDrum":false},{"pitch":52,"velocity":128,"startTime":61.112638000000004,"endTime":61.245415943750004,"instrument":1,"program":48,"isDrum":false},{"pitch":64,"velocity":128,"startTime":61.112638000000004,"endTime":61.245415943750004,"instrument":1,"program":48,"isDrum":false},{"pitch":76,"velocity":128,"startTime":61.112638000000004,"endTime":61.245415943750004,"instrument":1,"program":48,"isDrum":false},{"pitch":53,"velocity":128,"startTime":61.24597150000001,"endTime":61.37874944375001,"instrument":1,"program":48,"isDrum":false},{"pitch":65,"velocity":128,"startTime":61.24597150000001,"endTime":61.37874944375001,"instrument":1,"program":48,"isDrum":false},{"pitch":77,"velocity":128,"startTime":61.24597150000001,"endTime":61.37874944375001,"instrument":1,"program":48,"isDrum":false},{"pitch":53,"velocity":128,"startTime":61.37930500000001,"endTime":61.51208294375001,"instrument":1,"program":48,"isDrum":false},{"pitch":62,"velocity":128,"startTime":61.37930500000001,"endTime":61.51208294375001,"instrument":1,"program":48,"isDrum":false},{"pitch":70,"velocity":128,"startTime":61.37930500000001,"endTime":61.51208294375001,"instrument":1,"program":48,"isDrum":false},{"pitch":82,"velocity":128,"startTime":61.37930500000001,"endTime":61.51208294375001,"instrument":1,"program":48,"isDrum":false},{"pitch":50,"velocity":128,"startTime":61.77930550000001,"endTime":61.91208344375001,"instrument":1,"program":48,"isDrum":false},{"pitch":62,"velocity":128,"startTime":61.77930550000001,"endTime":61.91208344375001,"instrument":1,"program":48,"isDrum":false},{"pitch":74,"velocity":128,"startTime":61.77930550000001,"endTime":61.91208344375001,"instrument":1,"program":48,"isDrum":false},{"pitch":52,"velocity":128,"startTime":61.912639000000006,"endTime":62.04541694375001,"instrument":1,"program":48,"isDrum":false},{"pitch":64,"velocity":128,"startTime":61.912639000000006,"endTime":62.04541694375001,"instrument":1,"program":48,"isDrum":false},{"pitch":76,"velocity":128,"startTime":61.912639000000006,"endTime":62.04541694375001,"instrument":1,"program":48,"isDrum":false},{"pitch":53,"velocity":128,"startTime":62.045972500000005,"endTime":62.178750443750005,"instrument":1,"program":48,"isDrum":false},{"pitch":65,"velocity":128,"startTime":62.045972500000005,"endTime":62.178750443750005,"instrument":1,"program":48,"isDrum":false},{"pitch":77,"velocity":128,"startTime":62.045972500000005,"endTime":62.178750443750005,"instrument":1,"program":48,"isDrum":false},{"pitch":53,"velocity":128,"startTime":62.17930600000001,"endTime":62.31208394375001,"instrument":1,"program":48,"isDrum":false},{"pitch":60,"velocity":128,"startTime":62.17930600000001,"endTime":62.31208394375001,"instrument":1,"program":48,"isDrum":false},{"pitch":69,"velocity":128,"startTime":62.17930600000001,"endTime":62.31208394375001,"instrument":1,"program":48,"isDrum":false},{"pitch":81,"velocity":128,"startTime":62.17930600000001,"endTime":62.31208394375001,"instrument":1,"program":48,"isDrum":false},{"pitch":53,"velocity":128,"startTime":62.44597300000001,"endTime":62.57875094375001,"instrument":1,"program":48,"isDrum":false},{"pitch":60,"velocity":128,"startTime":62.44597300000001,"endTime":62.57875094375001,"instrument":1,"program":48,"isDrum":false},{"pitch":69,"velocity":128,"startTime":62.44597300000001,"endTime":62.57875094375001,"instrument":1,"program":48,"isDrum":false},{"pitch":81,"velocity":128,"startTime":62.44597300000001,"endTime":62.57875094375001,"instrument":1,"program":48,"isDrum":false},{"pitch":53,"velocity":128,"startTime":62.71264000000001,"endTime":62.84541794375001,"instrument":1,"program":48,"isDrum":false},{"pitch":60,"velocity":128,"startTime":62.71264000000001,"endTime":62.84541794375001,"instrument":1,"program":48,"isDrum":false},{"pitch":72,"velocity":128,"startTime":62.71264000000001,"endTime":62.84541794375001,"instrument":1,"program":48,"isDrum":false},{"pitch":84,"velocity":128,"startTime":62.71264000000001,"endTime":62.84541794375001,"instrument":1,"program":48,"isDrum":false},{"pitch":53,"velocity":128,"startTime":62.979307000000006,"endTime":63.112084943750006,"instrument":1,"program":48,"isDrum":false},{"pitch":60,"velocity":128,"startTime":62.979307000000006,"endTime":63.112084943750006,"instrument":1,"program":48,"isDrum":false},{"pitch":69,"velocity":128,"startTime":62.979307000000006,"endTime":63.112084943750006,"instrument":1,"program":48,"isDrum":false},{"pitch":81,"velocity":128,"startTime":62.979307000000006,"endTime":63.112084943750006,"instrument":1,"program":48,"isDrum":false},{"pitch":52,"velocity":128,"startTime":63.11264050000001,"endTime":63.24541844375001,"instrument":1,"program":48,"isDrum":false},{"pitch":60,"velocity":128,"startTime":63.11264050000001,"endTime":63.24541844375001,"instrument":1,"program":48,"isDrum":false},{"pitch":67,"velocity":128,"startTime":63.11264050000001,"endTime":63.24541844375001,"instrument":1,"program":48,"isDrum":false},{"pitch":79,"velocity":128,"startTime":63.11264050000001,"endTime":63.24541844375001,"instrument":1,"program":48,"isDrum":false},{"pitch":50,"velocity":128,"startTime":63.77930800000001,"endTime":63.91208594375001,"instrument":1,"program":48,"isDrum":false},{"pitch":58,"velocity":128,"startTime":63.77930800000001,"endTime":63.91208594375001,"instrument":1,"program":48,"isDrum":false},{"pitch":67,"velocity":128,"startTime":63.77930800000001,"endTime":63.91208594375001,"instrument":1,"program":48,"isDrum":false},{"pitch":79,"velocity":128,"startTime":63.77930800000001,"endTime":63.91208594375001,"instrument":1,"program":48,"isDrum":false},{"pitch":50,"velocity":128,"startTime":64.57930900000001,"endTime":64.71208694375001,"instrument":1,"program":48,"isDrum":false},{"pitch":57,"velocity":128,"startTime":64.57930900000001,"endTime":64.71208694375001,"instrument":1,"program":48,"isDrum":false},{"pitch":65,"velocity":128,"startTime":64.57930900000001,"endTime":64.71208694375001,"instrument":1,"program":48,"isDrum":false},{"pitch":77,"velocity":128,"startTime":64.57930900000001,"endTime":64.71208694375001,"instrument":1,"program":48,"isDrum":false},{"pitch":48,"velocity":128,"startTime":65.37931,"endTime":65.51208794375,"instrument":1,"program":48,"isDrum":false},{"pitch":55,"velocity":128,"startTime":65.37931,"endTime":65.51208794375,"instrument":1,"program":48,"isDrum":false},{"pitch":64,"velocity":128,"startTime":65.37931,"endTime":65.51208794375,"instrument":1,"program":48,"isDrum":false},{"pitch":76,"velocity":128,"startTime":65.37931,"endTime":65.51208794375,"instrument":1,"program":48,"isDrum":false},{"pitch":48,"velocity":128,"startTime":65.64597700000002,"endTime":65.77875494375002,"instrument":1,"program":48,"isDrum":false},{"pitch":55,"velocity":128,"startTime":65.64597700000002,"endTime":65.77875494375002,"instrument":1,"program":48,"isDrum":false},{"pitch":65,"velocity":128,"startTime":65.64597700000002,"endTime":65.77875494375002,"instrument":1,"program":48,"isDrum":false},{"pitch":77,"velocity":128,"startTime":65.64597700000002,"endTime":65.77875494375002,"instrument":1,"program":48,"isDrum":false},{"pitch":48,"velocity":128,"startTime":65.912644,"endTime":66.04542194375,"instrument":1,"program":48,"isDrum":false},{"pitch":55,"velocity":128,"startTime":65.912644,"endTime":66.04542194375,"instrument":1,"program":48,"isDrum":false},{"pitch":64,"velocity":128,"startTime":65.912644,"endTime":66.04542194375,"instrument":1,"program":48,"isDrum":false},{"pitch":76,"velocity":128,"startTime":65.912644,"endTime":66.04542194375,"instrument":1,"program":48,"isDrum":false},{"pitch":45,"velocity":128,"startTime":66.17931100000001,"endTime":66.31208894375001,"instrument":1,"program":48,"isDrum":false},{"pitch":53,"velocity":128,"startTime":66.17931100000001,"endTime":66.31208894375001,"instrument":1,"program":48,"isDrum":false},{"pitch":62,"velocity":128,"startTime":66.17931100000001,"endTime":66.31208894375001,"instrument":1,"program":48,"isDrum":false},{"pitch":74,"velocity":128,"startTime":66.17931100000001,"endTime":66.31208894375001,"instrument":1,"program":48,"isDrum":false},{"pitch":38,"velocity":128,"startTime":3.1034460000000004,"endTime":4.654091414583334,"instrument":2,"program":60,"isDrum":false},{"pitch":38,"velocity":128,"startTime":4.655169000000001,"endTime":5.429952914583334,"instrument":2,"program":60,"isDrum":false},{"pitch":34,"velocity":128,"startTime":5.4310305,"endTime":6.205814414583334,"instrument":2,"program":60,"isDrum":false},{"pitch":33,"velocity":128,"startTime":6.206892000000001,"endTime":6.9816759145833345,"instrument":2,"program":60,"isDrum":false},{"pitch":38,"velocity":128,"startTime":6.982753500000001,"endTime":7.757537414583334,"instrument":2,"program":60,"isDrum":false},{"pitch":34,"velocity":128,"startTime":7.758615000000001,"endTime":8.533398914583334,"instrument":2,"program":60,"isDrum":false},{"pitch":41,"velocity":128,"startTime":8.5344765,"endTime":9.309260414583333,"instrument":2,"program":60,"isDrum":false},{"pitch":36,"velocity":128,"startTime":9.310338000000002,"endTime":10.085121914583334,"instrument":2,"program":60,"isDrum":false},{"pitch":38,"velocity":128,"startTime":10.086199500000001,"endTime":10.860983414583334,"instrument":2,"program":60,"isDrum":false},{"pitch":38,"velocity":128,"startTime":10.862061,"endTime":11.636844914583333,"instrument":2,"program":60,"isDrum":false},{"pitch":34,"velocity":128,"startTime":11.637922500000002,"endTime":12.412706414583335,"instrument":2,"program":60,"isDrum":false},{"pitch":43,"velocity":128,"startTime":12.413784000000001,"endTime":13.188567914583334,"instrument":2,"program":60,"isDrum":false},{"pitch":38,"velocity":128,"startTime":13.189645500000001,"endTime":13.964429414583334,"instrument":2,"program":60,"isDrum":false},{"pitch":34,"velocity":128,"startTime":13.965507000000002,"endTime":14.740290914583333,"instrument":2,"program":60,"isDrum":false},{"pitch":33,"velocity":128,"startTime":14.741368500000002,"endTime":15.516152414583335,"instrument":2,"program":60,"isDrum":false},{"pitch":33,"velocity":128,"startTime":15.517230000000001,"endTime":17.067875414583337,"instrument":2,"program":60,"isDrum":false},{"pitch":38,"velocity":128,"startTime":17.068953,"endTime":17.843736914583335,"instrument":2,"program":60,"isDrum":false},{"pitch":34,"velocity":128,"startTime":17.844814500000002,"endTime":18.619598414583336,"instrument":2,"program":60,"isDrum":false},{"pitch":36,"velocity":128,"startTime":18.620676000000003,"endTime":19.395459914583338,"instrument":2,"program":60,"isDrum":false},{"pitch":38,"velocity":128,"startTime":19.3965375,"endTime":20.171321414583335,"instrument":2,"program":60,"isDrum":false},{"pitch":34,"velocity":128,"startTime":20.172399000000002,"endTime":20.947182914583337,"instrument":2,"program":60,"isDrum":false},{"pitch":41,"velocity":128,"startTime":20.948260500000004,"endTime":21.723044414583338,"instrument":2,"program":60,"isDrum":false},{"pitch":36,"velocity":128,"startTime":21.724122,"endTime":22.498905914583336,"instrument":2,"program":60,"isDrum":false},{"pitch":38,"velocity":128,"startTime":22.499983500000003,"endTime":23.274767414583337,"instrument":2,"program":60,"isDrum":false},{"pitch":38,"velocity":128,"startTime":23.275845000000004,"endTime":24.05062891458334,"instrument":2,"program":60,"isDrum":false},{"pitch":34,"velocity":128,"startTime":24.0517065,"endTime":24.826490414583336,"instrument":2,"program":60,"isDrum":false},{"pitch":43,"velocity":128,"startTime":24.827568000000003,"endTime":25.602351914583338,"instrument":2,"program":60,"isDrum":false},{"pitch":38,"velocity":128,"startTime":25.603429500000004,"endTime":26.37821341458334,"instrument":2,"program":60,"isDrum":false},{"pitch":34,"velocity":128,"startTime":26.379291000000002,"endTime":27.154074914583337,"instrument":2,"program":60,"isDrum":false},{"pitch":38,"velocity":128,"startTime":27.155152500000003,"endTime":27.929936414583338,"instrument":2,"program":60,"isDrum":false},{"pitch":33,"velocity":128,"startTime":27.931014000000005,"endTime":29.99890041458334,"instrument":2,"program":60,"isDrum":false},{"pitch":38,"velocity":128,"startTime":29.482737000000004,"endTime":29.740279914583336,"instrument":2,"program":60,"isDrum":false},{"pitch":36,"velocity":128,"startTime":29.741357500000003,"endTime":29.99890041458334,"instrument":2,"program":60,"isDrum":false},{"pitch":33,"velocity":128,"startTime":29.999978000000002,"endTime":30.25752091458334,"instrument":2,"program":60,"isDrum":false},{"pitch":38,"velocity":128,"startTime":30.258598500000005,"endTime":31.809243914583337,"instrument":2,"program":60,"isDrum":false},{"pitch":43,"velocity":128,"startTime":31.810321500000004,"endTime":33.36096691458334,"instrument":2,"program":60,"isDrum":false},{"pitch":45,"velocity":128,"startTime":33.3620445,"endTime":33.49027716458334,"instrument":2,"program":60,"isDrum":false},{"pitch":50,"velocity":128,"startTime":40.47410825000001,"endTime":40.66699603958334,"instrument":2,"program":60,"isDrum":false},{"pitch":53,"velocity":128,"startTime":40.47410825000001,"endTime":40.66699603958334,"instrument":2,"program":60,"isDrum":false},{"pitch":57,"velocity":128,"startTime":40.47410825000001,"endTime":40.66699603958334,"instrument":2,"program":60,"isDrum":false},{"pitch":62,"velocity":128,"startTime":40.47410825000001,"endTime":40.66699603958334,"instrument":2,"program":60,"isDrum":false},{"pitch":62,"velocity":128,"startTime":41.1206595,"endTime":41.24889216458334,"instrument":2,"program":60,"isDrum":false},{"pitch":60,"velocity":128,"startTime":41.249969750000005,"endTime":41.37820241458334,"instrument":2,"program":60,"isDrum":false},{"pitch":57,"velocity":128,"startTime":41.37928000000001,"endTime":41.912058443750006,"instrument":2,"program":60,"isDrum":false},{"pitch":38,"velocity":128,"startTime":41.37928000000001,"endTime":42.17872544375001,"instrument":2,"program":60,"isDrum":false},{"pitch":55,"velocity":128,"startTime":41.912614000000005,"endTime":42.04539194375001,"instrument":2,"program":60,"isDrum":false},{"pitch":53,"velocity":128,"startTime":42.04594750000001,"endTime":42.17872544375001,"instrument":2,"program":60,"isDrum":false},{"pitch":50,"velocity":128,"startTime":42.17928100000001,"endTime":42.31205894375001,"instrument":2,"program":60,"isDrum":false},{"pitch":36,"velocity":128,"startTime":42.17928100000001,"endTime":42.978726443750006,"instrument":2,"program":60,"isDrum":false},{"pitch":53,"velocity":128,"startTime":42.44594800000001,"endTime":42.57872594375001,"instrument":2,"program":60,"isDrum":false},{"pitch":57,"velocity":128,"startTime":42.71261500000001,"endTime":42.84539294375001,"instrument":2,"program":60,"isDrum":false},{"pitch":60,"velocity":128,"startTime":42.97928200000001,"endTime":43.11205994375001,"instrument":2,"program":60,"isDrum":false},{"pitch":41,"velocity":128,"startTime":42.97928200000001,"endTime":43.77872744375001,"instrument":2,"program":60,"isDrum":false},{"pitch":53,"velocity":128,"startTime":43.24594900000001,"endTime":43.37872694375001,"instrument":2,"program":60,"isDrum":false},{"pitch":57,"velocity":128,"startTime":43.51261600000001,"endTime":43.64539394375001,"instrument":2,"program":60,"isDrum":false},{"pitch":60,"velocity":128,"startTime":43.77928300000001,"endTime":43.91206094375001,"instrument":2,"program":60,"isDrum":false},{"pitch":36,"velocity":128,"startTime":43.77928300000001,"endTime":44.57872844375001,"instrument":2,"program":60,"isDrum":false},{"pitch":60,"velocity":128,"startTime":44.31261700000001,"endTime":44.44539494375001,"instrument":2,"program":60,"isDrum":false},{"pitch":57,"velocity":128,"startTime":44.44595050000001,"endTime":44.57872844375001,"instrument":2,"program":60,"isDrum":false},{"pitch":53,"velocity":128,"startTime":44.57928400000001,"endTime":45.112062443750006,"instrument":2,"program":60,"isDrum":false},{"pitch":41,"velocity":128,"startTime":44.57928400000001,"endTime":45.37872944375001,"instrument":2,"program":60,"isDrum":false},{"pitch":55,"velocity":128,"startTime":45.11261800000001,"endTime":45.24539594375001,"instrument":2,"program":60,"isDrum":false},{"pitch":57,"velocity":128,"startTime":45.24595150000001,"endTime":45.37872944375001,"instrument":2,"program":60,"isDrum":false},{"pitch":60,"velocity":128,"startTime":45.37928500000001,"endTime":45.51206294375001,"instrument":2,"program":60,"isDrum":false},{"pitch":40,"velocity":128,"startTime":45.37928500000001,"endTime":46.178730443750005,"instrument":2,"program":60,"isDrum":false},{"pitch":57,"velocity":128,"startTime":45.64595200000001,"endTime":45.77872994375001,"instrument":2,"program":60,"isDrum":false},{"pitch":48,"velocity":128,"startTime":45.91261900000001,"endTime":46.045396943750006,"instrument":2,"program":60,"isDrum":false},{"pitch":53,"velocity":128,"startTime":46.179286000000005,"endTime":46.71206444375001,"instrument":2,"program":60,"isDrum":false},{"pitch":38,"velocity":128,"startTime":46.179286000000005,"endTime":46.97873144375001,"instrument":2,"program":60,"isDrum":false},{"pitch":55,"velocity":128,"startTime":46.71262000000001,"endTime":46.84539794375001,"instrument":2,"program":60,"isDrum":false},{"pitch":52,"velocity":128,"startTime":46.84595350000001,"endTime":46.97873144375001,"instrument":2,"program":60,"isDrum":false},{"pitch":53,"velocity":128,"startTime":46.97928700000001,"endTime":47.112064943750006,"instrument":2,"program":60,"isDrum":false},{"pitch":38,"velocity":128,"startTime":46.97928700000001,"endTime":47.77873244375001,"instrument":2,"program":60,"isDrum":false},{"pitch":58,"velocity":128,"startTime":47.51262100000001,"endTime":47.64539894375001,"instrument":2,"program":60,"isDrum":false},{"pitch":52,"velocity":128,"startTime":47.64595450000001,"endTime":47.77873244375001,"instrument":2,"program":60,"isDrum":false},{"pitch":50,"velocity":128,"startTime":47.77928800000001,"endTime":48.312066443750005,"instrument":2,"program":60,"isDrum":false},{"pitch":38,"velocity":128,"startTime":47.77928800000001,"endTime":48.57873344375001,"instrument":2,"program":60,"isDrum":false},{"pitch":50,"velocity":128,"startTime":48.312622000000005,"endTime":48.445399943750004,"instrument":2,"program":60,"isDrum":false},{"pitch":48,"velocity":128,"startTime":48.44595550000001,"endTime":48.57873344375001,"instrument":2,"program":60,"isDrum":false},{"pitch":52,"velocity":128,"startTime":48.57928900000001,"endTime":48.71206694375001,"instrument":2,"program":60,"isDrum":false},{"pitch":36,"velocity":128,"startTime":48.57928900000001,"endTime":49.378734443750005,"instrument":2,"program":60,"isDrum":false},{"pitch":53,"velocity":128,"startTime":48.84595600000001,"endTime":48.97873394375001,"instrument":2,"program":60,"isDrum":false},{"pitch":53,"velocity":128,"startTime":49.112623000000006,"endTime":49.245400943750006,"instrument":2,"program":60,"isDrum":false},{"pitch":53,"velocity":128,"startTime":49.37929000000001,"endTime":49.51206794375001,"instrument":2,"program":60,"isDrum":false},{"pitch":41,"velocity":128,"startTime":49.37929000000001,"endTime":50.17873544375001,"instrument":2,"program":60,"isDrum":false},{"pitch":46,"velocity":128,"startTime":49.64595700000001,"endTime":49.77873494375001,"instrument":2,"program":60,"isDrum":false},{"pitch":48,"velocity":128,"startTime":49.64595700000001,"endTime":49.77873494375001,"instrument":2,"program":60,"isDrum":false},{"pitch":45,"velocity":128,"startTime":49.91262400000001,"endTime":50.04540194375001,"instrument":2,"program":60,"isDrum":false},{"pitch":41,"velocity":128,"startTime":50.179291000000006,"endTime":50.97873644375001,"instrument":2,"program":60,"isDrum":false},{"pitch":62,"velocity":128,"startTime":50.71262500000001,"endTime":50.84540294375001,"instrument":2,"program":60,"isDrum":false},{"pitch":64,"velocity":128,"startTime":50.84595850000001,"endTime":50.97873644375001,"instrument":2,"program":60,"isDrum":false},{"pitch":65,"velocity":128,"startTime":50.97929200000001,"endTime":51.11206994375001,"instrument":2,"program":60,"isDrum":false},{"pitch":38,"velocity":128,"startTime":50.97929200000001,"endTime":51.77873744375001,"instrument":2,"program":60,"isDrum":false},{"pitch":67,"velocity":128,"startTime":51.245959000000006,"endTime":51.378736943750006,"instrument":2,"program":60,"isDrum":false},{"pitch":46,"velocity":128,"startTime":51.245959000000006,"endTime":51.77873744375001,"instrument":2,"program":60,"isDrum":false},{"pitch":69,"velocity":128,"startTime":51.51262600000001,"endTime":51.64540394375001,"instrument":2,"program":60,"isDrum":false},{"pitch":46,"velocity":128,"startTime":51.77929300000001,"endTime":51.91207094375001,"instrument":2,"program":60,"isDrum":false},{"pitch":70,"velocity":128,"startTime":51.77929300000001,"endTime":51.91207094375001,"instrument":2,"program":60,"isDrum":false},{"pitch":62,"velocity":128,"startTime":52.04596000000001,"endTime":52.17873794375001,"instrument":2,"program":60,"isDrum":false},{"pitch":67,"velocity":128,"startTime":52.312627000000006,"endTime":52.445404943750006,"instrument":2,"program":60,"isDrum":false},{"pitch":65,"velocity":128,"startTime":52.579294000000004,"endTime":52.712071943750004,"instrument":2,"program":60,"isDrum":false},{"pitch":45,"velocity":128,"startTime":52.579294000000004,"endTime":53.37873944375001,"instrument":2,"program":60,"isDrum":false},{"pitch":67,"velocity":128,"startTime":52.97929450000001,"endTime":53.11207244375001,"instrument":2,"program":60,"isDrum":false},{"pitch":64,"velocity":128,"startTime":53.11262800000001,"endTime":53.24540594375001,"instrument":2,"program":60,"isDrum":false},{"pitch":62,"velocity":128,"startTime":53.379295000000006,"endTime":53.512072943750006,"instrument":2,"program":60,"isDrum":false},{"pitch":38,"velocity":128,"startTime":53.379295000000006,"endTime":54.17874044375001,"instrument":2,"program":60,"isDrum":false},{"pitch":64,"velocity":128,"startTime":53.7792955,"endTime":53.91207344375001,"instrument":2,"program":60,"isDrum":false},{"pitch":61,"velocity":128,"startTime":53.91262900000001,"endTime":54.04540694375001,"instrument":2,"program":60,"isDrum":false},{"pitch":65,"velocity":128,"startTime":54.17929600000001,"endTime":54.31207394375001,"instrument":2,"program":60,"isDrum":false},{"pitch":69,"velocity":128,"startTime":54.17929600000001,"endTime":54.31207394375001,"instrument":2,"program":60,"isDrum":false},{"pitch":62,"velocity":128,"startTime":54.97929700000001,"endTime":55.11207494375001,"instrument":2,"program":60,"isDrum":false},{"pitch":70,"velocity":128,"startTime":54.97929700000001,"endTime":55.11207494375001,"instrument":2,"program":60,"isDrum":false},{"pitch":60,"velocity":128,"startTime":55.77929800000001,"endTime":55.91207594375001,"instrument":2,"program":60,"isDrum":false},{"pitch":69,"velocity":128,"startTime":55.77929800000001,"endTime":55.91207594375001,"instrument":2,"program":60,"isDrum":false},{"pitch":60,"velocity":128,"startTime":56.04596500000001,"endTime":56.17874294375001,"instrument":2,"program":60,"isDrum":false},{"pitch":69,"velocity":128,"startTime":56.04596500000001,"endTime":56.17874294375001,"instrument":2,"program":60,"isDrum":false},{"pitch":60,"velocity":128,"startTime":56.31263200000001,"endTime":56.44540994375001,"instrument":2,"program":60,"isDrum":false},{"pitch":69,"velocity":128,"startTime":56.31263200000001,"endTime":56.44540994375001,"instrument":2,"program":60,"isDrum":false},{"pitch":60,"velocity":128,"startTime":56.579299000000006,"endTime":56.712076943750006,"instrument":2,"program":60,"isDrum":false},{"pitch":69,"velocity":128,"startTime":56.579299000000006,"endTime":56.712076943750006,"instrument":2,"program":60,"isDrum":false},{"pitch":64,"velocity":128,"startTime":56.71263250000001,"endTime":56.84541044375001,"instrument":2,"program":60,"isDrum":false},{"pitch":67,"velocity":128,"startTime":56.71263250000001,"endTime":56.84541044375001,"instrument":2,"program":60,"isDrum":false},{"pitch":62,"velocity":128,"startTime":57.37930000000001,"endTime":57.51207794375001,"instrument":2,"program":60,"isDrum":false},{"pitch":67,"velocity":128,"startTime":57.37930000000001,"endTime":57.51207794375001,"instrument":2,"program":60,"isDrum":false},{"pitch":57,"velocity":128,"startTime":58.17930100000001,"endTime":58.31207894375001,"instrument":2,"program":60,"isDrum":false},{"pitch":65,"velocity":128,"startTime":58.17930100000001,"endTime":58.31207894375001,"instrument":2,"program":60,"isDrum":false},{"pitch":55,"velocity":128,"startTime":58.979302000000004,"endTime":59.112079943750004,"instrument":2,"program":60,"isDrum":false},{"pitch":64,"velocity":128,"startTime":58.979302000000004,"endTime":59.112079943750004,"instrument":2,"program":60,"isDrum":false},{"pitch":57,"velocity":128,"startTime":59.24596900000001,"endTime":59.37874694375001,"instrument":2,"program":60,"isDrum":false},{"pitch":65,"velocity":128,"startTime":59.24596900000001,"endTime":59.37874694375001,"instrument":2,"program":60,"isDrum":false},{"pitch":55,"velocity":128,"startTime":59.51263600000001,"endTime":59.64541394375001,"instrument":2,"program":60,"isDrum":false},{"pitch":64,"velocity":128,"startTime":59.51263600000001,"endTime":59.64541394375001,"instrument":2,"program":60,"isDrum":false},{"pitch":55,"velocity":128,"startTime":59.779303000000006,"endTime":59.91208094375001,"instrument":2,"program":60,"isDrum":false},{"pitch":64,"velocity":128,"startTime":59.779303000000006,"endTime":59.91208094375001,"instrument":2,"program":60,"isDrum":false},{"pitch":57,"velocity":128,"startTime":59.912636500000005,"endTime":60.045414443750005,"instrument":2,"program":60,"isDrum":false},{"pitch":62,"velocity":128,"startTime":59.912636500000005,"endTime":60.045414443750005,"instrument":2,"program":60,"isDrum":false},{"pitch":57,"velocity":128,"startTime":60.57930400000001,"endTime":60.71208194375001,"instrument":2,"program":60,"isDrum":false},{"pitch":65,"velocity":128,"startTime":60.57930400000001,"endTime":60.71208194375001,"instrument":2,"program":60,"isDrum":false},{"pitch":58,"velocity":128,"startTime":61.37930500000001,"endTime":61.51208294375001,"instrument":2,"program":60,"isDrum":false},{"pitch":65,"velocity":128,"startTime":61.37930500000001,"endTime":61.51208294375001,"instrument":2,"program":60,"isDrum":false},{"pitch":57,"velocity":128,"startTime":62.17930600000001,"endTime":62.31208394375001,"instrument":2,"program":60,"isDrum":false},{"pitch":65,"velocity":128,"startTime":62.17930600000001,"endTime":62.31208394375001,"instrument":2,"program":60,"isDrum":false},{"pitch":57,"velocity":128,"startTime":62.44597300000001,"endTime":62.57875094375001,"instrument":2,"program":60,"isDrum":false},{"pitch":65,"velocity":128,"startTime":62.44597300000001,"endTime":62.57875094375001,"instrument":2,"program":60,"isDrum":false},{"pitch":60,"velocity":128,"startTime":62.71264000000001,"endTime":62.84541794375001,"instrument":2,"program":60,"isDrum":false},{"pitch":65,"velocity":128,"startTime":62.71264000000001,"endTime":62.84541794375001,"instrument":2,"program":60,"isDrum":false},{"pitch":57,"velocity":128,"startTime":62.979307000000006,"endTime":63.112084943750006,"instrument":2,"program":60,"isDrum":false},{"pitch":65,"velocity":128,"startTime":62.979307000000006,"endTime":63.112084943750006,"instrument":2,"program":60,"isDrum":false},{"pitch":55,"velocity":128,"startTime":63.11264050000001,"endTime":63.24541844375001,"instrument":2,"program":60,"isDrum":false},{"pitch":64,"velocity":128,"startTime":63.11264050000001,"endTime":63.24541844375001,"instrument":2,"program":60,"isDrum":false},{"pitch":55,"velocity":128,"startTime":63.77930800000001,"endTime":63.91208594375001,"instrument":2,"program":60,"isDrum":false},{"pitch":62,"velocity":128,"startTime":63.77930800000001,"endTime":63.91208594375001,"instrument":2,"program":60,"isDrum":false},{"pitch":53,"velocity":128,"startTime":64.57930900000001,"endTime":64.71208694375001,"instrument":2,"program":60,"isDrum":false},{"pitch":62,"velocity":128,"startTime":64.57930900000001,"endTime":64.71208694375001,"instrument":2,"program":60,"isDrum":false},{"pitch":52,"velocity":128,"startTime":65.37931,"endTime":65.51208794375,"instrument":2,"program":60,"isDrum":false},{"pitch":64,"velocity":128,"startTime":65.37931,"endTime":65.51208794375,"instrument":2,"program":60,"isDrum":false},{"pitch":53,"velocity":128,"startTime":65.64597700000002,"endTime":65.77875494375002,"instrument":2,"program":60,"isDrum":false},{"pitch":62,"velocity":128,"startTime":65.64597700000002,"endTime":65.77875494375002,"instrument":2,"program":60,"isDrum":false},{"pitch":52,"velocity":128,"startTime":65.912644,"endTime":66.04542194375,"instrument":2,"program":60,"isDrum":false},{"pitch":60,"velocity":128,"startTime":65.912644,"endTime":66.04542194375,"instrument":2,"program":60,"isDrum":false},{"pitch":50,"velocity":128,"startTime":66.17931100000001,"endTime":66.31208894375001,"instrument":2,"program":60,"isDrum":false},{"pitch":62,"velocity":128,"startTime":66.17931100000001,"endTime":66.31208894375001,"instrument":2,"program":60,"isDrum":false},{"pitch":57,"velocity":128,"startTime":10.603440500000001,"endTime":10.731673164583334,"instrument":3,"program":60,"isDrum":false},{"pitch":60,"velocity":128,"startTime":10.732750750000001,"endTime":10.860983414583334,"instrument":3,"program":60,"isDrum":false},{"pitch":57,"velocity":128,"startTime":10.862061,"endTime":10.990293664583334,"instrument":3,"program":60,"isDrum":false},{"pitch":62,"velocity":128,"startTime":10.862061,"endTime":10.990293664583334,"instrument":3,"program":60,"isDrum":false},{"pitch":57,"velocity":128,"startTime":11.120681500000002,"endTime":11.248914164583335,"instrument":3,"program":60,"isDrum":false},{"pitch":62,"velocity":128,"startTime":11.120681500000002,"endTime":11.248914164583335,"instrument":3,"program":60,"isDrum":false},{"pitch":57,"velocity":128,"startTime":11.379302000000001,"endTime":11.507534664583334,"instrument":3,"program":60,"isDrum":false},{"pitch":62,"velocity":128,"startTime":11.379302000000001,"endTime":11.507534664583334,"instrument":3,"program":60,"isDrum":false},{"pitch":60,"velocity":128,"startTime":11.50861225,"endTime":11.636844914583333,"instrument":3,"program":60,"isDrum":false},{"pitch":65,"velocity":128,"startTime":11.50861225,"endTime":11.636844914583333,"instrument":3,"program":60,"isDrum":false},{"pitch":62,"velocity":128,"startTime":11.637922500000002,"endTime":11.766155164583333,"instrument":3,"program":60,"isDrum":false},{"pitch":67,"velocity":128,"startTime":11.637922500000002,"endTime":11.766155164583333,"instrument":3,"program":60,"isDrum":false},{"pitch":62,"velocity":128,"startTime":11.896543000000001,"endTime":12.024775664583334,"instrument":3,"program":60,"isDrum":false},{"pitch":67,"velocity":128,"startTime":11.896543000000001,"endTime":12.024775664583334,"instrument":3,"program":60,"isDrum":false},{"pitch":62,"velocity":128,"startTime":12.155163500000002,"endTime":12.283396164583333,"instrument":3,"program":60,"isDrum":false},{"pitch":67,"velocity":128,"startTime":12.155163500000002,"endTime":12.283396164583333,"instrument":3,"program":60,"isDrum":false},{"pitch":64,"velocity":128,"startTime":12.284473750000002,"endTime":12.412706414583335,"instrument":3,"program":60,"isDrum":false},{"pitch":69,"velocity":128,"startTime":12.284473750000002,"endTime":12.412706414583335,"instrument":3,"program":60,"isDrum":false},{"pitch":67,"velocity":128,"startTime":12.413784000000001,"endTime":12.542016664583334,"instrument":3,"program":60,"isDrum":false},{"pitch":70,"velocity":128,"startTime":12.413784000000001,"endTime":12.542016664583334,"instrument":3,"program":60,"isDrum":false},{"pitch":67,"velocity":128,"startTime":12.6724045,"endTime":12.800637164583334,"instrument":3,"program":60,"isDrum":false},{"pitch":70,"velocity":128,"startTime":12.6724045,"endTime":12.800637164583334,"instrument":3,"program":60,"isDrum":false},{"pitch":65,"velocity":128,"startTime":12.931025000000002,"endTime":13.059257664583335,"instrument":3,"program":60,"isDrum":false},{"pitch":69,"velocity":128,"startTime":12.931025000000002,"endTime":13.059257664583335,"instrument":3,"program":60,"isDrum":false},{"pitch":64,"velocity":128,"startTime":13.060335250000001,"endTime":13.188567914583334,"instrument":3,"program":60,"isDrum":false},{"pitch":67,"velocity":128,"startTime":13.060335250000001,"endTime":13.188567914583334,"instrument":3,"program":60,"isDrum":false},{"pitch":65,"velocity":128,"startTime":13.189645500000001,"endTime":13.317878164583334,"instrument":3,"program":60,"isDrum":false},{"pitch":69,"velocity":128,"startTime":13.189645500000001,"endTime":13.317878164583334,"instrument":3,"program":60,"isDrum":false},{"pitch":57,"velocity":128,"startTime":13.318955750000002,"endTime":13.447188414583334,"instrument":3,"program":60,"isDrum":false},{"pitch":62,"velocity":128,"startTime":13.318955750000002,"endTime":13.447188414583334,"instrument":3,"program":60,"isDrum":false},{"pitch":57,"velocity":128,"startTime":13.706886500000001,"endTime":13.835119164583334,"instrument":3,"program":60,"isDrum":false},{"pitch":62,"velocity":128,"startTime":13.706886500000001,"endTime":13.835119164583334,"instrument":3,"program":60,"isDrum":false},{"pitch":60,"velocity":128,"startTime":13.836196750000001,"endTime":13.964429414583334,"instrument":3,"program":60,"isDrum":false},{"pitch":64,"velocity":128,"startTime":13.836196750000001,"endTime":13.964429414583334,"instrument":3,"program":60,"isDrum":false},{"pitch":58,"velocity":128,"startTime":13.965507000000002,"endTime":14.093739664583333,"instrument":3,"program":60,"isDrum":false},{"pitch":65,"velocity":128,"startTime":13.965507000000002,"endTime":14.093739664583333,"instrument":3,"program":60,"isDrum":false},{"pitch":58,"velocity":128,"startTime":14.224127500000002,"endTime":14.352360164583335,"instrument":3,"program":60,"isDrum":false},{"pitch":65,"velocity":128,"startTime":14.224127500000002,"endTime":14.352360164583335,"instrument":3,"program":60,"isDrum":false},{"pitch":60,"velocity":128,"startTime":14.482748,"endTime":14.610980664583334,"instrument":3,"program":60,"isDrum":false},{"pitch":67,"velocity":128,"startTime":14.482748,"endTime":14.610980664583334,"instrument":3,"program":60,"isDrum":false},{"pitch":62,"velocity":128,"startTime":14.741368500000002,"endTime":14.869601164583335,"instrument":3,"program":60,"isDrum":false},{"pitch":69,"velocity":128,"startTime":14.741368500000002,"endTime":14.869601164583335,"instrument":3,"program":60,"isDrum":false},{"pitch":57,"velocity":128,"startTime":14.870678750000002,"endTime":14.998911414583334,"instrument":3,"program":60,"isDrum":false},{"pitch":62,"velocity":128,"startTime":14.870678750000002,"endTime":14.998911414583334,"instrument":3,"program":60,"isDrum":false},{"pitch":57,"velocity":128,"startTime":15.258609500000002,"endTime":15.386842164583335,"instrument":3,"program":60,"isDrum":false},{"pitch":62,"velocity":128,"startTime":15.258609500000002,"endTime":15.386842164583335,"instrument":3,"program":60,"isDrum":false},{"pitch":60,"velocity":128,"startTime":15.387919750000002,"endTime":15.516152414583335,"instrument":3,"program":60,"isDrum":false},{"pitch":65,"velocity":128,"startTime":15.387919750000002,"endTime":15.516152414583335,"instrument":3,"program":60,"isDrum":false},{"pitch":57,"velocity":128,"startTime":15.517230000000001,"endTime":15.645462664583334,"instrument":3,"program":60,"isDrum":false},{"pitch":64,"velocity":128,"startTime":15.517230000000001,"endTime":15.645462664583334,"instrument":3,"program":60,"isDrum":false},{"pitch":57,"velocity":128,"startTime":15.775850500000002,"endTime":15.904083164583334,"instrument":3,"program":60,"isDrum":false},{"pitch":64,"velocity":128,"startTime":15.775850500000002,"endTime":15.904083164583334,"instrument":3,"program":60,"isDrum":false},{"pitch":58,"velocity":128,"startTime":16.034471000000003,"endTime":16.162703664583333,"instrument":3,"program":60,"isDrum":false},{"pitch":65,"velocity":128,"startTime":16.034471000000003,"endTime":16.162703664583333,"instrument":3,"program":60,"isDrum":false},{"pitch":55,"velocity":128,"startTime":16.163781250000003,"endTime":16.292013914583336,"instrument":3,"program":60,"isDrum":false},{"pitch":62,"velocity":128,"startTime":16.163781250000003,"endTime":16.292013914583336,"instrument":3,"program":60,"isDrum":false},{"pitch":57,"velocity":128,"startTime":16.293091500000003,"endTime":16.421324164583336,"instrument":3,"program":60,"isDrum":false},{"pitch":64,"velocity":128,"startTime":16.293091500000003,"endTime":16.421324164583336,"instrument":3,"program":60,"isDrum":false},{"pitch":69,"velocity":128,"startTime":16.8103325,"endTime":16.938565164583338,"instrument":3,"program":60,"isDrum":false},{"pitch":67,"velocity":128,"startTime":16.93964275,"endTime":17.067875414583337,"instrument":3,"program":60,"isDrum":false},{"pitch":65,"velocity":128,"startTime":17.068953,"endTime":17.197185664583337,"instrument":3,"program":60,"isDrum":false},{"pitch":65,"velocity":128,"startTime":17.327573500000003,"endTime":17.455806164583336,"instrument":3,"program":60,"isDrum":false},{"pitch":65,"velocity":128,"startTime":17.586194000000003,"endTime":17.714426664583335,"instrument":3,"program":60,"isDrum":false},{"pitch":64,"velocity":128,"startTime":17.715504250000002,"endTime":17.843736914583335,"instrument":3,"program":60,"isDrum":false},{"pitch":62,"velocity":128,"startTime":17.844814500000002,"endTime":17.973047164583335,"instrument":3,"program":60,"isDrum":false},{"pitch":62,"velocity":128,"startTime":18.103435,"endTime":18.231667664583338,"instrument":3,"program":60,"isDrum":false},{"pitch":62,"velocity":128,"startTime":18.362055500000004,"endTime":18.490288164583337,"instrument":3,"program":60,"isDrum":false},{"pitch":65,"velocity":128,"startTime":18.491365750000003,"endTime":18.619598414583336,"instrument":3,"program":60,"isDrum":false},{"pitch":64,"velocity":128,"startTime":18.620676000000003,"endTime":18.748908664583336,"instrument":3,"program":60,"isDrum":false},{"pitch":64,"velocity":128,"startTime":18.879296500000002,"endTime":19.007529164583335,"instrument":3,"program":60,"isDrum":false},{"pitch":65,"velocity":128,"startTime":19.137917,"endTime":19.266149664583338,"instrument":3,"program":60,"isDrum":false},{"pitch":64,"velocity":128,"startTime":19.26722725,"endTime":19.395459914583338,"instrument":3,"program":60,"isDrum":false},{"pitch":64,"velocity":128,"startTime":19.3965375,"endTime":19.524770164583337,"instrument":3,"program":60,"isDrum":false},{"pitch":62,"velocity":128,"startTime":19.525847750000004,"endTime":19.654080414583337,"instrument":3,"program":60,"isDrum":false},{"pitch":69,"velocity":128,"startTime":19.913778500000003,"endTime":20.042011164583336,"instrument":3,"program":60,"isDrum":false},{"pitch":67,"velocity":128,"startTime":20.043088750000003,"endTime":20.171321414583335,"instrument":3,"program":60,"isDrum":false},{"pitch":65,"velocity":128,"startTime":20.172399000000002,"endTime":20.300631664583335,"instrument":3,"program":60,"isDrum":false},{"pitch":65,"velocity":128,"startTime":20.4310195,"endTime":20.559252164583338,"instrument":3,"program":60,"isDrum":false},{"pitch":65,"velocity":128,"startTime":20.689640000000004,"endTime":20.817872664583337,"instrument":3,"program":60,"isDrum":false},{"pitch":62,"velocity":128,"startTime":20.818950250000004,"endTime":20.947182914583337,"instrument":3,"program":60,"isDrum":false},{"pitch":60,"velocity":128,"startTime":20.948260500000004,"endTime":21.076493164583336,"instrument":3,"program":60,"isDrum":false},{"pitch":60,"velocity":128,"startTime":21.206881000000003,"endTime":21.335113664583336,"instrument":3,"program":60,"isDrum":false},{"pitch":60,"velocity":128,"startTime":21.465501500000002,"endTime":21.59373416458334,"instrument":3,"program":60,"isDrum":false},{"pitch":57,"velocity":128,"startTime":21.59481175,"endTime":21.723044414583338,"instrument":3,"program":60,"isDrum":false},{"pitch":55,"velocity":128,"startTime":21.724122,"endTime":21.852354664583338,"instrument":3,"program":60,"isDrum":false},{"pitch":55,"velocity":128,"startTime":21.982742500000004,"endTime":22.110975164583337,"instrument":3,"program":60,"isDrum":false},{"pitch":53,"velocity":128,"startTime":22.241363000000003,"endTime":22.369595664583336,"instrument":3,"program":60,"isDrum":false},{"pitch":52,"velocity":128,"startTime":22.370673250000003,"endTime":22.498905914583336,"instrument":3,"program":60,"isDrum":false},{"pitch":50,"velocity":128,"startTime":22.499983500000003,"endTime":22.628216164583336,"instrument":3,"program":60,"isDrum":false},{"pitch":62,"velocity":128,"startTime":23.0172245,"endTime":23.145457164583338,"instrument":3,"program":60,"isDrum":false},{"pitch":60,"velocity":128,"startTime":23.146534750000004,"endTime":23.274767414583337,"instrument":3,"program":60,"isDrum":false},{"pitch":57,"velocity":128,"startTime":23.275845000000004,"endTime":23.404077664583337,"instrument":3,"program":60,"isDrum":false},{"pitch":57,"velocity":128,"startTime":23.534465500000003,"endTime":23.662698164583336,"instrument":3,"program":60,"isDrum":false},{"pitch":57,"velocity":128,"startTime":23.793086000000002,"endTime":23.92131866458334,"instrument":3,"program":60,"isDrum":false},{"pitch":60,"velocity":128,"startTime":23.922396250000002,"endTime":24.05062891458334,"instrument":3,"program":60,"isDrum":false},{"pitch":58,"velocity":128,"startTime":24.0517065,"endTime":24.179939164583338,"instrument":3,"program":60,"isDrum":false},{"pitch":58,"velocity":128,"startTime":24.310327000000004,"endTime":24.438559664583337,"instrument":3,"program":60,"isDrum":false},{"pitch":58,"velocity":128,"startTime":24.568947500000004,"endTime":24.697180164583337,"instrument":3,"program":60,"isDrum":false},{"pitch":65,"velocity":128,"startTime":24.698257750000003,"endTime":24.826490414583336,"instrument":3,"program":60,"isDrum":false},{"pitch":62,"velocity":128,"startTime":24.827568000000003,"endTime":24.955800664583336,"instrument":3,"program":60,"isDrum":false},{"pitch":62,"velocity":128,"startTime":25.086188500000002,"endTime":25.21442116458334,"instrument":3,"program":60,"isDrum":false},{"pitch":65,"velocity":128,"startTime":25.344809,"endTime":25.473041664583338,"instrument":3,"program":60,"isDrum":false},{"pitch":64,"velocity":128,"startTime":25.474119250000005,"endTime":25.602351914583338,"instrument":3,"program":60,"isDrum":false},{"pitch":65,"velocity":128,"startTime":25.603429500000004,"endTime":25.731662164583337,"instrument":3,"program":60,"isDrum":false},{"pitch":69,"velocity":128,"startTime":25.732739750000004,"endTime":25.860972414583337,"instrument":3,"program":60,"isDrum":false},{"pitch":69,"velocity":128,"startTime":26.120670500000003,"endTime":26.248903164583336,"instrument":3,"program":60,"isDrum":false},{"pitch":67,"velocity":128,"startTime":26.249980750000002,"endTime":26.37821341458334,"instrument":3,"program":60,"isDrum":false},{"pitch":62,"velocity":128,"startTime":26.379291000000002,"endTime":26.50752366458334,"instrument":3,"program":60,"isDrum":false},{"pitch":62,"velocity":128,"startTime":26.637911500000005,"endTime":26.766144164583338,"instrument":3,"program":60,"isDrum":false},{"pitch":60,"velocity":128,"startTime":26.896532000000004,"endTime":27.024764664583337,"instrument":3,"program":60,"isDrum":false},{"pitch":60,"velocity":128,"startTime":27.155152500000003,"endTime":27.283385164583336,"instrument":3,"program":60,"isDrum":false},{"pitch":57,"velocity":128,"startTime":27.284462750000003,"endTime":27.412695414583336,"instrument":3,"program":60,"isDrum":false},{"pitch":57,"velocity":128,"startTime":27.672393500000002,"endTime":27.80062616458334,"instrument":3,"program":60,"isDrum":false},{"pitch":62,"velocity":128,"startTime":27.801703750000005,"endTime":27.929936414583338,"instrument":3,"program":60,"isDrum":false},{"pitch":61,"velocity":128,"startTime":27.931014000000005,"endTime":28.059246664583338,"instrument":3,"program":60,"isDrum":false},{"pitch":61,"velocity":128,"startTime":28.189634500000004,"endTime":28.317867164583337,"instrument":3,"program":60,"isDrum":false},{"pitch":57,"velocity":128,"startTime":28.448255000000003,"endTime":28.576487664583336,"instrument":3,"program":60,"isDrum":false},{"pitch":56,"velocity":128,"startTime":28.577565250000003,"endTime":28.70579791458334,"instrument":3,"program":60,"isDrum":false},{"pitch":57,"velocity":128,"startTime":28.706875500000002,"endTime":28.83510816458334,"instrument":3,"program":60,"isDrum":false},{"pitch":57,"velocity":128,"startTime":28.965496,"endTime":29.093728664583338,"instrument":3,"program":60,"isDrum":false},{"pitch":61,"velocity":128,"startTime":29.224116500000004,"endTime":29.352349164583337,"instrument":3,"program":60,"isDrum":false},{"pitch":62,"velocity":128,"startTime":29.482737000000004,"endTime":29.610969664583337,"instrument":3,"program":60,"isDrum":false},{"pitch":62,"velocity":128,"startTime":29.741357500000003,"endTime":29.86959016458334,"instrument":3,"program":60,"isDrum":false},{"pitch":62,"velocity":128,"startTime":29.870667750000003,"endTime":29.99890041458334,"instrument":3,"program":60,"isDrum":false},{"pitch":64,"velocity":128,"startTime":29.999978000000002,"endTime":30.12821066458334,"instrument":3,"program":60,"isDrum":false},{"pitch":57,"velocity":128,"startTime":30.258598500000005,"endTime":30.386831164583338,"instrument":3,"program":60,"isDrum":false},{"pitch":62,"velocity":128,"startTime":30.258598500000005,"endTime":30.386831164583338,"instrument":3,"program":60,"isDrum":false},{"pitch":65,"velocity":128,"startTime":30.258598500000005,"endTime":30.386831164583338,"instrument":3,"program":60,"isDrum":false},{"pitch":69,"velocity":128,"startTime":30.258598500000005,"endTime":30.386831164583338,"instrument":3,"program":60,"isDrum":false},{"pitch":53,"velocity":128,"startTime":30.775839500000004,"endTime":30.904072164583337,"instrument":3,"program":60,"isDrum":false},{"pitch":58,"velocity":128,"startTime":30.775839500000004,"endTime":30.904072164583337,"instrument":3,"program":60,"isDrum":false},{"pitch":65,"velocity":128,"startTime":30.775839500000004,"endTime":30.904072164583337,"instrument":3,"program":60,"isDrum":false},{"pitch":50,"velocity":128,"startTime":30.905149750000003,"endTime":31.03338241458334,"instrument":3,"program":60,"isDrum":false},{"pitch":53,"velocity":128,"startTime":30.905149750000003,"endTime":31.03338241458334,"instrument":3,"program":60,"isDrum":false},{"pitch":62,"velocity":128,"startTime":30.905149750000003,"endTime":31.03338241458334,"instrument":3,"program":60,"isDrum":false},{"pitch":45,"velocity":128,"startTime":31.034460000000003,"endTime":31.29200291458334,"instrument":3,"program":60,"isDrum":false},{"pitch":50,"velocity":128,"startTime":31.034460000000003,"endTime":31.29200291458334,"instrument":3,"program":60,"isDrum":false},{"pitch":57,"velocity":128,"startTime":31.034460000000003,"endTime":31.29200291458334,"instrument":3,"program":60,"isDrum":false},{"pitch":55,"velocity":128,"startTime":31.810321500000004,"endTime":31.938554164583337,"instrument":3,"program":60,"isDrum":false},{"pitch":62,"velocity":128,"startTime":31.810321500000004,"endTime":31.938554164583337,"instrument":3,"program":60,"isDrum":false},{"pitch":65,"velocity":128,"startTime":31.810321500000004,"endTime":31.938554164583337,"instrument":3,"program":60,"isDrum":false},{"pitch":70,"velocity":128,"startTime":31.810321500000004,"endTime":31.938554164583337,"instrument":3,"program":60,"isDrum":false},{"pitch":53,"velocity":128,"startTime":32.45687275,"endTime":32.58510541458334,"instrument":3,"program":60,"isDrum":false},{"pitch":58,"velocity":128,"startTime":32.45687275,"endTime":32.58510541458334,"instrument":3,"program":60,"isDrum":false},{"pitch":65,"velocity":128,"startTime":32.45687275,"endTime":32.58510541458334,"instrument":3,"program":60,"isDrum":false},{"pitch":50,"velocity":128,"startTime":32.586183000000005,"endTime":32.714415664583335,"instrument":3,"program":60,"isDrum":false},{"pitch":53,"velocity":128,"startTime":32.586183000000005,"endTime":32.714415664583335,"instrument":3,"program":60,"isDrum":false},{"pitch":62,"velocity":128,"startTime":32.586183000000005,"endTime":32.714415664583335,"instrument":3,"program":60,"isDrum":false},{"pitch":46,"velocity":128,"startTime":32.71549325,"endTime":32.90838103958334,"instrument":3,"program":60,"isDrum":false},{"pitch":50,"velocity":128,"startTime":32.71549325,"endTime":32.90838103958334,"instrument":3,"program":60,"isDrum":false},{"pitch":58,"velocity":128,"startTime":32.71549325,"endTime":32.90838103958334,"instrument":3,"program":60,"isDrum":false},{"pitch":40,"velocity":128,"startTime":33.3620445,"endTime":33.49027716458334,"instrument":3,"program":60,"isDrum":false},{"pitch":52,"velocity":128,"startTime":33.3620445,"endTime":33.49027716458334,"instrument":3,"program":60,"isDrum":false},{"pitch":40,"velocity":128,"startTime":33.491354750000006,"endTime":33.619587414583336,"instrument":3,"program":60,"isDrum":false},{"pitch":52,"velocity":128,"startTime":33.491354750000006,"endTime":33.619587414583336,"instrument":3,"program":60,"isDrum":false},{"pitch":41,"velocity":128,"startTime":33.749975250000006,"endTime":33.94286303958334,"instrument":3,"program":60,"isDrum":false},{"pitch":52,"velocity":128,"startTime":33.749975250000006,"endTime":33.94286303958334,"instrument":3,"program":60,"isDrum":false},{"pitch":62,"velocity":128,"startTime":33.749975250000006,"endTime":33.94286303958334,"instrument":3,"program":60,"isDrum":false},{"pitch":45,"velocity":128,"startTime":34.137906,"endTime":34.39544891458334,"instrument":3,"program":60,"isDrum":false},{"pitch":52,"velocity":128,"startTime":34.137906,"endTime":34.39544891458334,"instrument":3,"program":60,"isDrum":false},{"pitch":57,"velocity":128,"startTime":34.137906,"endTime":34.39544891458334,"instrument":3,"program":60,"isDrum":false},{"pitch":65,"velocity":128,"startTime":34.137906,"endTime":34.39544891458334,"instrument":3,"program":60,"isDrum":false},{"pitch":53,"velocity":128,"startTime":34.78445725,"endTime":34.91268991458334,"instrument":3,"program":60,"isDrum":false},{"pitch":55,"velocity":128,"startTime":34.913767500000006,"endTime":35.042000164583335,"instrument":3,"program":60,"isDrum":false},{"pitch":50,"velocity":128,"startTime":35.04307775,"endTime":35.17131041458334,"instrument":3,"program":60,"isDrum":false},{"pitch":57,"velocity":128,"startTime":35.04307775,"endTime":35.17131041458334,"instrument":3,"program":60,"isDrum":false},{"pitch":50,"velocity":128,"startTime":35.30169825,"endTime":35.42993091458334,"instrument":3,"program":60,"isDrum":false},{"pitch":57,"velocity":128,"startTime":35.30169825,"endTime":35.42993091458334,"instrument":3,"program":60,"isDrum":false},{"pitch":50,"velocity":128,"startTime":35.56031875000001,"endTime":35.68855141458334,"instrument":3,"program":60,"isDrum":false},{"pitch":57,"velocity":128,"startTime":35.56031875000001,"endTime":35.68855141458334,"instrument":3,"program":60,"isDrum":false},{"pitch":53,"velocity":128,"startTime":35.81893925000001,"endTime":35.947171914583336,"instrument":3,"program":60,"isDrum":false},{"pitch":58,"velocity":128,"startTime":35.81893925000001,"endTime":35.947171914583336,"instrument":3,"program":60,"isDrum":false},{"pitch":53,"velocity":128,"startTime":35.9482495,"endTime":36.07648216458334,"instrument":3,"program":60,"isDrum":false},{"pitch":57,"velocity":128,"startTime":35.9482495,"endTime":36.07648216458334,"instrument":3,"program":60,"isDrum":false},{"pitch":48,"velocity":128,"startTime":36.594800750000005,"endTime":36.72303341458334,"instrument":3,"program":60,"isDrum":false},{"pitch":55,"velocity":128,"startTime":36.594800750000005,"endTime":36.72303341458334,"instrument":3,"program":60,"isDrum":false},{"pitch":48,"velocity":128,"startTime":36.853421250000004,"endTime":36.98165391458334,"instrument":3,"program":60,"isDrum":false},{"pitch":55,"velocity":128,"startTime":36.853421250000004,"endTime":36.98165391458334,"instrument":3,"program":60,"isDrum":false},{"pitch":48,"velocity":128,"startTime":37.11204175,"endTime":37.24027441458334,"instrument":3,"program":60,"isDrum":false},{"pitch":55,"velocity":128,"startTime":37.11204175,"endTime":37.24027441458334,"instrument":3,"program":60,"isDrum":false},{"pitch":48,"velocity":128,"startTime":37.37066225,"endTime":37.49889491458334,"instrument":3,"program":60,"isDrum":false},{"pitch":55,"velocity":128,"startTime":37.37066225,"endTime":37.49889491458334,"instrument":3,"program":60,"isDrum":false},{"pitch":53,"velocity":128,"startTime":37.499972500000005,"endTime":37.62820516458334,"instrument":3,"program":60,"isDrum":false},{"pitch":57,"velocity":128,"startTime":37.499972500000005,"endTime":37.62820516458334,"instrument":3,"program":60,"isDrum":false},{"pitch":50,"velocity":128,"startTime":38.14652375000001,"endTime":38.27475641458334,"instrument":3,"program":60,"isDrum":false},{"pitch":57,"velocity":128,"startTime":38.14652375000001,"endTime":38.27475641458334,"instrument":3,"program":60,"isDrum":false},{"pitch":50,"velocity":128,"startTime":38.405144250000006,"endTime":38.533376914583336,"instrument":3,"program":60,"isDrum":false},{"pitch":57,"velocity":128,"startTime":38.405144250000006,"endTime":38.533376914583336,"instrument":3,"program":60,"isDrum":false},{"pitch":50,"velocity":128,"startTime":38.663764750000006,"endTime":38.79199741458334,"instrument":3,"program":60,"isDrum":false},{"pitch":57,"velocity":128,"startTime":38.663764750000006,"endTime":38.79199741458334,"instrument":3,"program":60,"isDrum":false},{"pitch":52,"velocity":128,"startTime":38.922385250000005,"endTime":39.05061791458334,"instrument":3,"program":60,"isDrum":false},{"pitch":58,"velocity":128,"startTime":38.922385250000005,"endTime":39.05061791458334,"instrument":3,"program":60,"isDrum":false},{"pitch":52,"velocity":128,"startTime":39.05169550000001,"endTime":39.17992816458334,"instrument":3,"program":60,"isDrum":false},{"pitch":57,"velocity":128,"startTime":39.05169550000001,"endTime":39.17992816458334,"instrument":3,"program":60,"isDrum":false},{"pitch":45,"velocity":128,"startTime":39.69824675,"endTime":39.82647941458334,"instrument":3,"program":60,"isDrum":false},{"pitch":52,"velocity":128,"startTime":39.69824675,"endTime":39.82647941458334,"instrument":3,"program":60,"isDrum":false},{"pitch":55,"velocity":128,"startTime":39.69824675,"endTime":39.82647941458334,"instrument":3,"program":60,"isDrum":false},{"pitch":57,"velocity":128,"startTime":39.69824675,"endTime":39.82647941458334,"instrument":3,"program":60,"isDrum":false},{"pitch":45,"velocity":128,"startTime":39.95686725,"endTime":40.08509991458334,"instrument":3,"program":60,"isDrum":false},{"pitch":52,"velocity":128,"startTime":39.95686725,"endTime":40.08509991458334,"instrument":3,"program":60,"isDrum":false},{"pitch":57,"velocity":128,"startTime":39.95686725,"endTime":40.08509991458334,"instrument":3,"program":60,"isDrum":false},{"pitch":45,"velocity":128,"startTime":40.21548775000001,"endTime":40.34372041458334,"instrument":3,"program":60,"isDrum":false},{"pitch":49,"velocity":128,"startTime":40.21548775000001,"endTime":40.34372041458334,"instrument":3,"program":60,"isDrum":false},{"pitch":53,"velocity":128,"startTime":40.21548775000001,"endTime":40.34372041458334,"instrument":3,"program":60,"isDrum":false},{"pitch":57,"velocity":128,"startTime":40.21548775000001,"endTime":40.34372041458334,"instrument":3,"program":60,"isDrum":false},{"pitch":41,"velocity":128,"startTime":40.47410825000001,"endTime":40.66699603958334,"instrument":3,"program":60,"isDrum":false},{"pitch":50,"velocity":128,"startTime":40.47410825000001,"endTime":40.66699603958334,"instrument":3,"program":60,"isDrum":false},{"pitch":62,"velocity":128,"startTime":40.47410825000001,"endTime":40.66699603958334,"instrument":3,"program":60,"isDrum":false},{"pitch":41,"velocity":128,"startTime":54.17929600000001,"endTime":54.31207394375001,"instrument":3,"program":60,"isDrum":false},{"pitch":50,"velocity":128,"startTime":54.17929600000001,"endTime":54.31207394375001,"instrument":3,"program":60,"isDrum":false},{"pitch":57,"velocity":128,"startTime":54.17929600000001,"endTime":54.31207394375001,"instrument":3,"program":60,"isDrum":false},{"pitch":41,"velocity":128,"startTime":54.97929700000001,"endTime":55.11207494375001,"instrument":3,"program":60,"isDrum":false},{"pitch":50,"velocity":128,"startTime":54.97929700000001,"endTime":55.11207494375001,"instrument":3,"program":60,"isDrum":false},{"pitch":58,"velocity":128,"startTime":54.97929700000001,"endTime":55.11207494375001,"instrument":3,"program":60,"isDrum":false},{"pitch":41,"velocity":128,"startTime":55.77929800000001,"endTime":55.91207594375001,"instrument":3,"program":60,"isDrum":false},{"pitch":48,"velocity":128,"startTime":55.77929800000001,"endTime":55.91207594375001,"instrument":3,"program":60,"isDrum":false},{"pitch":57,"velocity":128,"startTime":55.77929800000001,"endTime":55.91207594375001,"instrument":3,"program":60,"isDrum":false},{"pitch":41,"velocity":128,"startTime":56.04596500000001,"endTime":56.17874294375001,"instrument":3,"program":60,"isDrum":false},{"pitch":48,"velocity":128,"startTime":56.04596500000001,"endTime":56.17874294375001,"instrument":3,"program":60,"isDrum":false},{"pitch":57,"velocity":128,"startTime":56.04596500000001,"endTime":56.17874294375001,"instrument":3,"program":60,"isDrum":false},{"pitch":41,"velocity":128,"startTime":56.31263200000001,"endTime":56.44540994375001,"instrument":3,"program":60,"isDrum":false},{"pitch":48,"velocity":128,"startTime":56.31263200000001,"endTime":56.44540994375001,"instrument":3,"program":60,"isDrum":false},{"pitch":57,"velocity":128,"startTime":56.31263200000001,"endTime":56.44540994375001,"instrument":3,"program":60,"isDrum":false},{"pitch":41,"velocity":128,"startTime":56.579299000000006,"endTime":56.712076943750006,"instrument":3,"program":60,"isDrum":false},{"pitch":48,"velocity":128,"startTime":56.579299000000006,"endTime":56.712076943750006,"instrument":3,"program":60,"isDrum":false},{"pitch":57,"velocity":128,"startTime":56.579299000000006,"endTime":56.712076943750006,"instrument":3,"program":60,"isDrum":false},{"pitch":40,"velocity":128,"startTime":56.71263250000001,"endTime":56.84541044375001,"instrument":3,"program":60,"isDrum":false},{"pitch":48,"velocity":128,"startTime":56.71263250000001,"endTime":56.84541044375001,"instrument":3,"program":60,"isDrum":false},{"pitch":55,"velocity":128,"startTime":56.71263250000001,"endTime":56.84541044375001,"instrument":3,"program":60,"isDrum":false},{"pitch":38,"velocity":128,"startTime":57.37930000000001,"endTime":57.51207794375001,"instrument":3,"program":60,"isDrum":false},{"pitch":46,"velocity":128,"startTime":57.37930000000001,"endTime":57.51207794375001,"instrument":3,"program":60,"isDrum":false},{"pitch":55,"velocity":128,"startTime":57.37930000000001,"endTime":57.51207794375001,"instrument":3,"program":60,"isDrum":false},{"pitch":38,"velocity":128,"startTime":58.17930100000001,"endTime":58.31207894375001,"instrument":3,"program":60,"isDrum":false},{"pitch":45,"velocity":128,"startTime":58.17930100000001,"endTime":58.31207894375001,"instrument":3,"program":60,"isDrum":false},{"pitch":53,"velocity":128,"startTime":58.17930100000001,"endTime":58.31207894375001,"instrument":3,"program":60,"isDrum":false},{"pitch":36,"velocity":128,"startTime":58.979302000000004,"endTime":59.112079943750004,"instrument":3,"program":60,"isDrum":false},{"pitch":43,"velocity":128,"startTime":58.979302000000004,"endTime":59.112079943750004,"instrument":3,"program":60,"isDrum":false},{"pitch":52,"velocity":128,"startTime":58.979302000000004,"endTime":59.112079943750004,"instrument":3,"program":60,"isDrum":false},{"pitch":36,"velocity":128,"startTime":59.24596900000001,"endTime":59.37874694375001,"instrument":3,"program":60,"isDrum":false},{"pitch":43,"velocity":128,"startTime":59.24596900000001,"endTime":59.37874694375001,"instrument":3,"program":60,"isDrum":false},{"pitch":53,"velocity":128,"startTime":59.24596900000001,"endTime":59.37874694375001,"instrument":3,"program":60,"isDrum":false},{"pitch":36,"velocity":128,"startTime":59.51263600000001,"endTime":59.64541394375001,"instrument":3,"program":60,"isDrum":false},{"pitch":43,"velocity":128,"startTime":59.51263600000001,"endTime":59.64541394375001,"instrument":3,"program":60,"isDrum":false},{"pitch":52,"velocity":128,"startTime":59.51263600000001,"endTime":59.64541394375001,"instrument":3,"program":60,"isDrum":false},{"pitch":36,"velocity":128,"startTime":59.779303000000006,"endTime":59.91208094375001,"instrument":3,"program":60,"isDrum":false},{"pitch":43,"velocity":128,"startTime":59.779303000000006,"endTime":59.91208094375001,"instrument":3,"program":60,"isDrum":false},{"pitch":52,"velocity":128,"startTime":59.779303000000006,"endTime":59.91208094375001,"instrument":3,"program":60,"isDrum":false},{"pitch":33,"velocity":128,"startTime":59.912636500000005,"endTime":60.045414443750005,"instrument":3,"program":60,"isDrum":false},{"pitch":41,"velocity":128,"startTime":59.912636500000005,"endTime":60.045414443750005,"instrument":3,"program":60,"isDrum":false},{"pitch":50,"velocity":128,"startTime":59.912636500000005,"endTime":60.045414443750005,"instrument":3,"program":60,"isDrum":false},{"pitch":38,"velocity":128,"startTime":60.1793035,"endTime":60.31208144375,"instrument":3,"program":60,"isDrum":false},{"pitch":50,"velocity":128,"startTime":60.1793035,"endTime":60.31208144375,"instrument":3,"program":60,"isDrum":false},{"pitch":40,"velocity":128,"startTime":60.31263700000001,"endTime":60.44541494375001,"instrument":3,"program":60,"isDrum":false},{"pitch":52,"velocity":128,"startTime":60.31263700000001,"endTime":60.44541494375001,"instrument":3,"program":60,"isDrum":false},{"pitch":41,"velocity":128,"startTime":60.44597050000001,"endTime":60.57874844375001,"instrument":3,"program":60,"isDrum":false},{"pitch":53,"velocity":128,"startTime":60.44597050000001,"endTime":60.57874844375001,"instrument":3,"program":60,"isDrum":false},{"pitch":41,"velocity":128,"startTime":60.57930400000001,"endTime":60.71208194375001,"instrument":3,"program":60,"isDrum":false},{"pitch":50,"velocity":128,"startTime":60.57930400000001,"endTime":60.71208194375001,"instrument":3,"program":60,"isDrum":false},{"pitch":57,"velocity":128,"startTime":60.57930400000001,"endTime":60.71208194375001,"instrument":3,"program":60,"isDrum":false},{"pitch":38,"velocity":128,"startTime":60.97930450000001,"endTime":61.11208244375001,"instrument":3,"program":60,"isDrum":false},{"pitch":50,"velocity":128,"startTime":60.97930450000001,"endTime":61.11208244375001,"instrument":3,"program":60,"isDrum":false},{"pitch":40,"velocity":128,"startTime":61.112638000000004,"endTime":61.245415943750004,"instrument":3,"program":60,"isDrum":false},{"pitch":52,"velocity":128,"startTime":61.112638000000004,"endTime":61.245415943750004,"instrument":3,"program":60,"isDrum":false},{"pitch":41,"velocity":128,"startTime":61.24597150000001,"endTime":61.37874944375001,"instrument":3,"program":60,"isDrum":false},{"pitch":53,"velocity":128,"startTime":61.24597150000001,"endTime":61.37874944375001,"instrument":3,"program":60,"isDrum":false},{"pitch":41,"velocity":128,"startTime":61.37930500000001,"endTime":61.51208294375001,"instrument":3,"program":60,"isDrum":false},{"pitch":50,"velocity":128,"startTime":61.37930500000001,"endTime":61.51208294375001,"instrument":3,"program":60,"isDrum":false},{"pitch":58,"velocity":128,"startTime":61.37930500000001,"endTime":61.51208294375001,"instrument":3,"program":60,"isDrum":false},{"pitch":38,"velocity":128,"startTime":61.77930550000001,"endTime":61.91208344375001,"instrument":3,"program":60,"isDrum":false},{"pitch":50,"velocity":128,"startTime":61.77930550000001,"endTime":61.91208344375001,"instrument":3,"program":60,"isDrum":false},{"pitch":40,"velocity":128,"startTime":61.912639000000006,"endTime":62.04541694375001,"instrument":3,"program":60,"isDrum":false},{"pitch":52,"velocity":128,"startTime":61.912639000000006,"endTime":62.04541694375001,"instrument":3,"program":60,"isDrum":false},{"pitch":41,"velocity":128,"startTime":62.045972500000005,"endTime":62.178750443750005,"instrument":3,"program":60,"isDrum":false},{"pitch":53,"velocity":128,"startTime":62.045972500000005,"endTime":62.178750443750005,"instrument":3,"program":60,"isDrum":false},{"pitch":41,"velocity":128,"startTime":62.17930600000001,"endTime":62.31208394375001,"instrument":3,"program":60,"isDrum":false},{"pitch":48,"velocity":128,"startTime":62.17930600000001,"endTime":62.31208394375001,"instrument":3,"program":60,"isDrum":false},{"pitch":57,"velocity":128,"startTime":62.17930600000001,"endTime":62.31208394375001,"instrument":3,"program":60,"isDrum":false},{"pitch":41,"velocity":128,"startTime":62.44597300000001,"endTime":62.57875094375001,"instrument":3,"program":60,"isDrum":false},{"pitch":48,"velocity":128,"startTime":62.44597300000001,"endTime":62.57875094375001,"instrument":3,"program":60,"isDrum":false},{"pitch":57,"velocity":128,"startTime":62.44597300000001,"endTime":62.57875094375001,"instrument":3,"program":60,"isDrum":false},{"pitch":41,"velocity":128,"startTime":62.71264000000001,"endTime":62.84541794375001,"instrument":3,"program":60,"isDrum":false},{"pitch":48,"velocity":128,"startTime":62.71264000000001,"endTime":62.84541794375001,"instrument":3,"program":60,"isDrum":false},{"pitch":60,"velocity":128,"startTime":62.71264000000001,"endTime":62.84541794375001,"instrument":3,"program":60,"isDrum":false},{"pitch":41,"velocity":128,"startTime":62.979307000000006,"endTime":63.112084943750006,"instrument":3,"program":60,"isDrum":false},{"pitch":48,"velocity":128,"startTime":62.979307000000006,"endTime":63.112084943750006,"instrument":3,"program":60,"isDrum":false},{"pitch":57,"velocity":128,"startTime":62.979307000000006,"endTime":63.112084943750006,"instrument":3,"program":60,"isDrum":false},{"pitch":40,"velocity":128,"startTime":63.11264050000001,"endTime":63.24541844375001,"instrument":3,"program":60,"isDrum":false},{"pitch":48,"velocity":128,"startTime":63.11264050000001,"endTime":63.24541844375001,"instrument":3,"program":60,"isDrum":false},{"pitch":55,"velocity":128,"startTime":63.11264050000001,"endTime":63.24541844375001,"instrument":3,"program":60,"isDrum":false},{"pitch":38,"velocity":128,"startTime":63.77930800000001,"endTime":63.91208594375001,"instrument":3,"program":60,"isDrum":false},{"pitch":46,"velocity":128,"startTime":63.77930800000001,"endTime":63.91208594375001,"instrument":3,"program":60,"isDrum":false},{"pitch":55,"velocity":128,"startTime":63.77930800000001,"endTime":63.91208594375001,"instrument":3,"program":60,"isDrum":false},{"pitch":38,"velocity":128,"startTime":64.57930900000001,"endTime":64.71208694375001,"instrument":3,"program":60,"isDrum":false},{"pitch":45,"velocity":128,"startTime":64.57930900000001,"endTime":64.71208694375001,"instrument":3,"program":60,"isDrum":false},{"pitch":53,"velocity":128,"startTime":64.57930900000001,"endTime":64.71208694375001,"instrument":3,"program":60,"isDrum":false},{"pitch":36,"velocity":128,"startTime":65.37931,"endTime":65.51208794375,"instrument":3,"program":60,"isDrum":false},{"pitch":43,"velocity":128,"startTime":65.37931,"endTime":65.51208794375,"instrument":3,"program":60,"isDrum":false},{"pitch":52,"velocity":128,"startTime":65.37931,"endTime":65.51208794375,"instrument":3,"program":60,"isDrum":false},{"pitch":36,"velocity":128,"startTime":65.64597700000002,"endTime":65.77875494375002,"instrument":3,"program":60,"isDrum":false},{"pitch":43,"velocity":128,"startTime":65.64597700000002,"endTime":65.77875494375002,"instrument":3,"program":60,"isDrum":false},{"pitch":53,"velocity":128,"startTime":65.64597700000002,"endTime":65.77875494375002,"instrument":3,"program":60,"isDrum":false},{"pitch":36,"velocity":128,"startTime":65.912644,"endTime":66.04542194375,"instrument":3,"program":60,"isDrum":false},{"pitch":43,"velocity":128,"startTime":65.912644,"endTime":66.04542194375,"instrument":3,"program":60,"isDrum":false},{"pitch":52,"velocity":128,"startTime":65.912644,"endTime":66.04542194375,"instrument":3,"program":60,"isDrum":false},{"pitch":33,"velocity":128,"startTime":66.17931100000001,"endTime":66.31208894375001,"instrument":3,"program":60,"isDrum":false},{"pitch":41,"velocity":128,"startTime":66.17931100000001,"endTime":66.31208894375001,"instrument":3,"program":60,"isDrum":false},{"pitch":50,"velocity":128,"startTime":66.17931100000001,"endTime":66.31208894375001,"instrument":3,"program":60,"isDrum":false},{"pitch":57,"velocity":90,"startTime":4.396548500000001,"endTime":4.524781164583334,"instrument":4,"program":56,"isDrum":false},{"pitch":60,"velocity":90,"startTime":4.52585875,"endTime":4.654091414583334,"instrument":4,"program":56,"isDrum":false},{"pitch":62,"velocity":90,"startTime":4.655169000000001,"endTime":4.783401664583334,"instrument":4,"program":56,"isDrum":false},{"pitch":62,"velocity":90,"startTime":4.913789500000001,"endTime":5.042022164583334,"instrument":4,"program":56,"isDrum":false},{"pitch":62,"velocity":90,"startTime":5.172410000000001,"endTime":5.300642664583334,"instrument":4,"program":56,"isDrum":false},{"pitch":64,"velocity":90,"startTime":5.301720250000001,"endTime":5.429952914583334,"instrument":4,"program":56,"isDrum":false},{"pitch":65,"velocity":90,"startTime":5.4310305,"endTime":5.559263164583334,"instrument":4,"program":56,"isDrum":false},{"pitch":65,"velocity":90,"startTime":5.6896510000000005,"endTime":5.817883664583334,"instrument":4,"program":56,"isDrum":false},{"pitch":65,"velocity":90,"startTime":5.948271500000001,"endTime":6.076504164583334,"instrument":4,"program":56,"isDrum":false},{"pitch":67,"velocity":90,"startTime":6.077581750000001,"endTime":6.205814414583334,"instrument":4,"program":56,"isDrum":false},{"pitch":64,"velocity":90,"startTime":6.206892000000001,"endTime":6.335124664583335,"instrument":4,"program":56,"isDrum":false},{"pitch":64,"velocity":90,"startTime":6.465512500000001,"endTime":6.593745164583334,"instrument":4,"program":56,"isDrum":false},{"pitch":62,"velocity":90,"startTime":6.724133000000001,"endTime":6.852365664583334,"instrument":4,"program":56,"isDrum":false},{"pitch":60,"velocity":90,"startTime":6.853443250000001,"endTime":6.9816759145833345,"instrument":4,"program":56,"isDrum":false},{"pitch":60,"velocity":90,"startTime":6.982753500000001,"endTime":7.110986164583334,"instrument":4,"program":56,"isDrum":false},{"pitch":62,"velocity":90,"startTime":7.112063750000001,"endTime":7.240296414583335,"instrument":4,"program":56,"isDrum":false},{"pitch":57,"velocity":90,"startTime":7.499994500000001,"endTime":7.628227164583334,"instrument":4,"program":56,"isDrum":false},{"pitch":60,"velocity":90,"startTime":7.629304750000001,"endTime":7.757537414583334,"instrument":4,"program":56,"isDrum":false},{"pitch":62,"velocity":90,"startTime":7.758615000000001,"endTime":7.8868476645833345,"instrument":4,"program":56,"isDrum":false},{"pitch":62,"velocity":90,"startTime":8.017235500000002,"endTime":8.145468164583335,"instrument":4,"program":56,"isDrum":false},{"pitch":62,"velocity":90,"startTime":8.275856000000001,"endTime":8.404088664583334,"instrument":4,"program":56,"isDrum":false},{"pitch":64,"velocity":90,"startTime":8.40516625,"endTime":8.533398914583334,"instrument":4,"program":56,"isDrum":false},{"pitch":65,"velocity":90,"startTime":8.5344765,"endTime":8.662709164583333,"instrument":4,"program":56,"isDrum":false},{"pitch":65,"velocity":90,"startTime":8.793097000000001,"endTime":8.921329664583334,"instrument":4,"program":56,"isDrum":false},{"pitch":65,"velocity":90,"startTime":9.0517175,"endTime":9.179950164583333,"instrument":4,"program":56,"isDrum":false},{"pitch":67,"velocity":90,"startTime":9.181027750000002,"endTime":9.309260414583333,"instrument":4,"program":56,"isDrum":false},{"pitch":64,"velocity":90,"startTime":9.310338000000002,"endTime":9.438570664583334,"instrument":4,"program":56,"isDrum":false},{"pitch":64,"velocity":90,"startTime":9.5689585,"endTime":9.697191164583334,"instrument":4,"program":56,"isDrum":false},{"pitch":62,"velocity":90,"startTime":9.827579000000002,"endTime":9.955811664583333,"instrument":4,"program":56,"isDrum":false},{"pitch":60,"velocity":90,"startTime":9.956889250000001,"endTime":10.085121914583334,"instrument":4,"program":56,"isDrum":false},{"pitch":62,"velocity":90,"startTime":10.086199500000001,"endTime":10.214432164583334,"instrument":4,"program":56,"isDrum":false},{"pitch":57,"velocity":90,"startTime":10.603440500000001,"endTime":10.731673164583334,"instrument":4,"program":56,"isDrum":false},{"pitch":60,"velocity":90,"startTime":10.732750750000001,"endTime":10.860983414583334,"instrument":4,"program":56,"isDrum":false},{"pitch":62,"velocity":90,"startTime":10.862061,"endTime":10.990293664583334,"instrument":4,"program":56,"isDrum":false},{"pitch":62,"velocity":90,"startTime":11.120681500000002,"endTime":11.248914164583335,"instrument":4,"program":56,"isDrum":false},{"pitch":62,"velocity":90,"startTime":11.379302000000001,"endTime":11.507534664583334,"instrument":4,"program":56,"isDrum":false},{"pitch":65,"velocity":90,"startTime":11.50861225,"endTime":11.636844914583333,"instrument":4,"program":56,"isDrum":false},{"pitch":67,"velocity":90,"startTime":11.637922500000002,"endTime":11.766155164583333,"instrument":4,"program":56,"isDrum":false},{"pitch":67,"velocity":90,"startTime":11.896543000000001,"endTime":12.024775664583334,"instrument":4,"program":56,"isDrum":false},{"pitch":67,"velocity":90,"startTime":12.155163500000002,"endTime":12.283396164583333,"instrument":4,"program":56,"isDrum":false},{"pitch":69,"velocity":90,"startTime":12.284473750000002,"endTime":12.412706414583335,"instrument":4,"program":56,"isDrum":false},{"pitch":70,"velocity":90,"startTime":12.413784000000001,"endTime":12.542016664583334,"instrument":4,"program":56,"isDrum":false},{"pitch":70,"velocity":90,"startTime":12.6724045,"endTime":12.800637164583334,"instrument":4,"program":56,"isDrum":false},{"pitch":69,"velocity":90,"startTime":12.931025000000002,"endTime":13.059257664583335,"instrument":4,"program":56,"isDrum":false},{"pitch":67,"velocity":90,"startTime":13.060335250000001,"endTime":13.188567914583334,"instrument":4,"program":56,"isDrum":false},{"pitch":69,"velocity":90,"startTime":13.189645500000001,"endTime":13.317878164583334,"instrument":4,"program":56,"isDrum":false},{"pitch":62,"velocity":90,"startTime":13.318955750000002,"endTime":13.447188414583334,"instrument":4,"program":56,"isDrum":false},{"pitch":62,"velocity":90,"startTime":13.706886500000001,"endTime":13.835119164583334,"instrument":4,"program":56,"isDrum":false},{"pitch":64,"velocity":90,"startTime":13.836196750000001,"endTime":13.964429414583334,"instrument":4,"program":56,"isDrum":false},{"pitch":65,"velocity":90,"startTime":13.965507000000002,"endTime":14.093739664583333,"instrument":4,"program":56,"isDrum":false},{"pitch":65,"velocity":90,"startTime":14.224127500000002,"endTime":14.352360164583335,"instrument":4,"program":56,"isDrum":false},{"pitch":67,"velocity":90,"startTime":14.482748,"endTime":14.610980664583334,"instrument":4,"program":56,"isDrum":false},{"pitch":69,"velocity":90,"startTime":14.741368500000002,"endTime":14.869601164583335,"instrument":4,"program":56,"isDrum":false},{"pitch":62,"velocity":90,"startTime":14.870678750000002,"endTime":14.998911414583334,"instrument":4,"program":56,"isDrum":false},{"pitch":62,"velocity":90,"startTime":15.258609500000002,"endTime":15.386842164583335,"instrument":4,"program":56,"isDrum":false},{"pitch":65,"velocity":90,"startTime":15.387919750000002,"endTime":15.516152414583335,"instrument":4,"program":56,"isDrum":false},{"pitch":64,"velocity":90,"startTime":15.517230000000001,"endTime":15.645462664583334,"instrument":4,"program":56,"isDrum":false},{"pitch":64,"velocity":90,"startTime":15.775850500000002,"endTime":15.904083164583334,"instrument":4,"program":56,"isDrum":false},{"pitch":65,"velocity":90,"startTime":16.034471000000003,"endTime":16.162703664583333,"instrument":4,"program":56,"isDrum":false},{"pitch":62,"velocity":90,"startTime":16.163781250000003,"endTime":16.292013914583336,"instrument":4,"program":56,"isDrum":false},{"pitch":64,"velocity":90,"startTime":16.293091500000003,"endTime":16.421324164583336,"instrument":4,"program":56,"isDrum":false},{"pitch":69,"velocity":90,"startTime":16.8103325,"endTime":16.938565164583338,"instrument":4,"program":56,"isDrum":false},{"pitch":72,"velocity":90,"startTime":16.93964275,"endTime":17.067875414583337,"instrument":4,"program":56,"isDrum":false},{"pitch":74,"velocity":90,"startTime":17.068953,"endTime":17.197185664583337,"instrument":4,"program":56,"isDrum":false},{"pitch":74,"velocity":90,"startTime":17.327573500000003,"endTime":17.455806164583336,"instrument":4,"program":56,"isDrum":false},{"pitch":74,"velocity":90,"startTime":17.586194000000003,"endTime":17.714426664583335,"instrument":4,"program":56,"isDrum":false},{"pitch":76,"velocity":90,"startTime":17.715504250000002,"endTime":17.843736914583335,"instrument":4,"program":56,"isDrum":false},{"pitch":77,"velocity":90,"startTime":17.844814500000002,"endTime":17.973047164583335,"instrument":4,"program":56,"isDrum":false},{"pitch":77,"velocity":90,"startTime":18.103435,"endTime":18.231667664583338,"instrument":4,"program":56,"isDrum":false},{"pitch":77,"velocity":90,"startTime":18.362055500000004,"endTime":18.490288164583337,"instrument":4,"program":56,"isDrum":false},{"pitch":79,"velocity":90,"startTime":18.491365750000003,"endTime":18.619598414583336,"instrument":4,"program":56,"isDrum":false},{"pitch":76,"velocity":90,"startTime":18.620676000000003,"endTime":18.748908664583336,"instrument":4,"program":56,"isDrum":false},{"pitch":76,"velocity":90,"startTime":18.879296500000002,"endTime":19.007529164583335,"instrument":4,"program":56,"isDrum":false},{"pitch":74,"velocity":90,"startTime":19.137917,"endTime":19.266149664583338,"instrument":4,"program":56,"isDrum":false},{"pitch":72,"velocity":90,"startTime":19.26722725,"endTime":19.395459914583338,"instrument":4,"program":56,"isDrum":false},{"pitch":72,"velocity":90,"startTime":19.3965375,"endTime":19.524770164583337,"instrument":4,"program":56,"isDrum":false},{"pitch":74,"velocity":90,"startTime":19.525847750000004,"endTime":19.654080414583337,"instrument":4,"program":56,"isDrum":false},{"pitch":69,"velocity":90,"startTime":19.913778500000003,"endTime":20.042011164583336,"instrument":4,"program":56,"isDrum":false},{"pitch":72,"velocity":90,"startTime":20.043088750000003,"endTime":20.171321414583335,"instrument":4,"program":56,"isDrum":false},{"pitch":74,"velocity":90,"startTime":20.172399000000002,"endTime":20.300631664583335,"instrument":4,"program":56,"isDrum":false},{"pitch":74,"velocity":90,"startTime":20.4310195,"endTime":20.559252164583338,"instrument":4,"program":56,"isDrum":false},{"pitch":74,"velocity":90,"startTime":20.689640000000004,"endTime":20.817872664583337,"instrument":4,"program":56,"isDrum":false},{"pitch":76,"velocity":90,"startTime":20.818950250000004,"endTime":20.947182914583337,"instrument":4,"program":56,"isDrum":false},{"pitch":77,"velocity":90,"startTime":20.948260500000004,"endTime":21.076493164583336,"instrument":4,"program":56,"isDrum":false},{"pitch":77,"velocity":90,"startTime":21.206881000000003,"endTime":21.335113664583336,"instrument":4,"program":56,"isDrum":false},{"pitch":77,"velocity":90,"startTime":21.465501500000002,"endTime":21.59373416458334,"instrument":4,"program":56,"isDrum":false},{"pitch":79,"velocity":90,"startTime":21.59481175,"endTime":21.723044414583338,"instrument":4,"program":56,"isDrum":false},{"pitch":76,"velocity":90,"startTime":21.724122,"endTime":21.852354664583338,"instrument":4,"program":56,"isDrum":false},{"pitch":76,"velocity":90,"startTime":21.982742500000004,"endTime":22.110975164583337,"instrument":4,"program":56,"isDrum":false},{"pitch":74,"velocity":90,"startTime":22.241363000000003,"endTime":22.369595664583336,"instrument":4,"program":56,"isDrum":false},{"pitch":72,"velocity":90,"startTime":22.370673250000003,"endTime":22.498905914583336,"instrument":4,"program":56,"isDrum":false},{"pitch":74,"velocity":90,"startTime":22.499983500000003,"endTime":22.628216164583336,"instrument":4,"program":56,"isDrum":false},{"pitch":69,"velocity":128,"startTime":23.0172245,"endTime":23.145457164583338,"instrument":4,"program":56,"isDrum":false},{"pitch":72,"velocity":128,"startTime":23.146534750000004,"endTime":23.274767414583337,"instrument":4,"program":56,"isDrum":false},{"pitch":74,"velocity":100,"startTime":23.275845000000004,"endTime":23.404077664583337,"instrument":4,"program":56,"isDrum":false},{"pitch":74,"velocity":100,"startTime":23.534465500000003,"endTime":23.662698164583336,"instrument":4,"program":56,"isDrum":false},{"pitch":74,"velocity":100,"startTime":23.793086000000002,"endTime":23.92131866458334,"instrument":4,"program":56,"isDrum":false},{"pitch":77,"velocity":100,"startTime":23.922396250000002,"endTime":24.05062891458334,"instrument":4,"program":56,"isDrum":false},{"pitch":79,"velocity":100,"startTime":24.0517065,"endTime":24.179939164583338,"instrument":4,"program":56,"isDrum":false},{"pitch":79,"velocity":100,"startTime":24.310327000000004,"endTime":24.438559664583337,"instrument":4,"program":56,"isDrum":false},{"pitch":79,"velocity":100,"startTime":24.568947500000004,"endTime":24.697180164583337,"instrument":4,"program":56,"isDrum":false},{"pitch":81,"velocity":100,"startTime":24.698257750000003,"endTime":24.826490414583336,"instrument":4,"program":56,"isDrum":false},{"pitch":82,"velocity":100,"startTime":24.827568000000003,"endTime":24.955800664583336,"instrument":4,"program":56,"isDrum":false},{"pitch":82,"velocity":100,"startTime":25.086188500000002,"endTime":25.21442116458334,"instrument":4,"program":56,"isDrum":false},{"pitch":81,"velocity":100,"startTime":25.344809,"endTime":25.473041664583338,"instrument":4,"program":56,"isDrum":false},{"pitch":79,"velocity":100,"startTime":25.474119250000005,"endTime":25.602351914583338,"instrument":4,"program":56,"isDrum":false},{"pitch":81,"velocity":100,"startTime":25.603429500000004,"endTime":25.731662164583337,"instrument":4,"program":56,"isDrum":false},{"pitch":74,"velocity":100,"startTime":25.732739750000004,"endTime":25.860972414583337,"instrument":4,"program":56,"isDrum":false},{"pitch":74,"velocity":100,"startTime":26.120670500000003,"endTime":26.248903164583336,"instrument":4,"program":56,"isDrum":false},{"pitch":76,"velocity":100,"startTime":26.249980750000002,"endTime":26.37821341458334,"instrument":4,"program":56,"isDrum":false},{"pitch":77,"velocity":100,"startTime":26.379291000000002,"endTime":26.50752366458334,"instrument":4,"program":56,"isDrum":false},{"pitch":77,"velocity":100,"startTime":26.637911500000005,"endTime":26.766144164583338,"instrument":4,"program":56,"isDrum":false},{"pitch":79,"velocity":100,"startTime":26.896532000000004,"endTime":27.024764664583337,"instrument":4,"program":56,"isDrum":false},{"pitch":81,"velocity":100,"startTime":27.155152500000003,"endTime":27.283385164583336,"instrument":4,"program":56,"isDrum":false},{"pitch":74,"velocity":100,"startTime":27.284462750000003,"endTime":27.412695414583336,"instrument":4,"program":56,"isDrum":false},{"pitch":74,"velocity":100,"startTime":27.672393500000002,"endTime":27.80062616458334,"instrument":4,"program":56,"isDrum":false},{"pitch":77,"velocity":100,"startTime":27.801703750000005,"endTime":27.929936414583338,"instrument":4,"program":56,"isDrum":false},{"pitch":76,"velocity":100,"startTime":27.931014000000005,"endTime":28.059246664583338,"instrument":4,"program":56,"isDrum":false},{"pitch":76,"velocity":100,"startTime":28.189634500000004,"endTime":28.317867164583337,"instrument":4,"program":56,"isDrum":false},{"pitch":74,"velocity":100,"startTime":28.448255000000003,"endTime":28.576487664583336,"instrument":4,"program":56,"isDrum":false},{"pitch":74,"velocity":100,"startTime":28.706875500000002,"endTime":28.83510816458334,"instrument":4,"program":56,"isDrum":false},{"pitch":74,"velocity":100,"startTime":28.965496,"endTime":29.093728664583338,"instrument":4,"program":56,"isDrum":false},{"pitch":76,"velocity":100,"startTime":29.224116500000004,"endTime":29.352349164583337,"instrument":4,"program":56,"isDrum":false},{"pitch":77,"velocity":100,"startTime":29.482737000000004,"endTime":29.610969664583337,"instrument":4,"program":56,"isDrum":false},{"pitch":77,"velocity":100,"startTime":29.741357500000003,"endTime":29.86959016458334,"instrument":4,"program":56,"isDrum":false},{"pitch":77,"velocity":100,"startTime":29.870667750000003,"endTime":29.99890041458334,"instrument":4,"program":56,"isDrum":false},{"pitch":79,"velocity":100,"startTime":29.999978000000002,"endTime":30.12821066458334,"instrument":4,"program":56,"isDrum":false},{"pitch":65,"velocity":100,"startTime":30.258598500000005,"endTime":30.386831164583338,"instrument":4,"program":56,"isDrum":false},{"pitch":74,"velocity":100,"startTime":30.258598500000005,"endTime":30.386831164583338,"instrument":4,"program":56,"isDrum":false},{"pitch":81,"velocity":100,"startTime":30.258598500000005,"endTime":30.386831164583338,"instrument":4,"program":56,"isDrum":false},{"pitch":77,"velocity":100,"startTime":30.775839500000004,"endTime":30.904072164583337,"instrument":4,"program":56,"isDrum":false},{"pitch":74,"velocity":100,"startTime":30.905149750000003,"endTime":31.03338241458334,"instrument":4,"program":56,"isDrum":false},{"pitch":69,"velocity":100,"startTime":31.034460000000003,"endTime":31.29200291458334,"instrument":4,"program":56,"isDrum":false},{"pitch":67,"velocity":100,"startTime":31.810321500000004,"endTime":31.938554164583337,"instrument":4,"program":56,"isDrum":false},{"pitch":74,"velocity":100,"startTime":31.810321500000004,"endTime":31.938554164583337,"instrument":4,"program":56,"isDrum":false},{"pitch":82,"velocity":100,"startTime":31.810321500000004,"endTime":31.938554164583337,"instrument":4,"program":56,"isDrum":false},{"pitch":77,"velocity":100,"startTime":32.45687275,"endTime":32.58510541458334,"instrument":4,"program":56,"isDrum":false},{"pitch":74,"velocity":100,"startTime":32.586183000000005,"endTime":32.714415664583335,"instrument":4,"program":56,"isDrum":false},{"pitch":62,"velocity":100,"startTime":32.71549325,"endTime":32.90838103958334,"instrument":4,"program":56,"isDrum":false},{"pitch":70,"velocity":100,"startTime":32.71549325,"endTime":32.90838103958334,"instrument":4,"program":56,"isDrum":false},{"pitch":53,"velocity":128,"startTime":34.78445725,"endTime":34.91268991458334,"instrument":4,"program":56,"isDrum":false},{"pitch":65,"velocity":128,"startTime":34.78445725,"endTime":34.91268991458334,"instrument":4,"program":56,"isDrum":false},{"pitch":53,"velocity":128,"startTime":34.913767500000006,"endTime":35.042000164583335,"instrument":4,"program":56,"isDrum":false},{"pitch":67,"velocity":128,"startTime":34.913767500000006,"endTime":35.042000164583335,"instrument":4,"program":56,"isDrum":false},{"pitch":57,"velocity":128,"startTime":35.04307775,"endTime":35.17131041458334,"instrument":4,"program":56,"isDrum":false},{"pitch":69,"velocity":128,"startTime":35.04307775,"endTime":35.17131041458334,"instrument":4,"program":56,"isDrum":false},{"pitch":57,"velocity":128,"startTime":35.30169825,"endTime":35.42993091458334,"instrument":4,"program":56,"isDrum":false},{"pitch":69,"velocity":128,"startTime":35.30169825,"endTime":35.42993091458334,"instrument":4,"program":56,"isDrum":false},{"pitch":57,"velocity":128,"startTime":35.56031875000001,"endTime":35.68855141458334,"instrument":4,"program":56,"isDrum":false},{"pitch":69,"velocity":128,"startTime":35.56031875000001,"endTime":35.68855141458334,"instrument":4,"program":56,"isDrum":false},{"pitch":58,"velocity":128,"startTime":35.81893925000001,"endTime":35.947171914583336,"instrument":4,"program":56,"isDrum":false},{"pitch":70,"velocity":128,"startTime":35.81893925000001,"endTime":35.947171914583336,"instrument":4,"program":56,"isDrum":false},{"pitch":57,"velocity":128,"startTime":35.9482495,"endTime":36.07648216458334,"instrument":4,"program":56,"isDrum":false},{"pitch":69,"velocity":128,"startTime":35.9482495,"endTime":36.07648216458334,"instrument":4,"program":56,"isDrum":false},{"pitch":55,"velocity":128,"startTime":36.594800750000005,"endTime":36.72303341458334,"instrument":4,"program":56,"isDrum":false},{"pitch":67,"velocity":128,"startTime":36.594800750000005,"endTime":36.72303341458334,"instrument":4,"program":56,"isDrum":false},{"pitch":55,"velocity":128,"startTime":36.853421250000004,"endTime":36.98165391458334,"instrument":4,"program":56,"isDrum":false},{"pitch":67,"velocity":128,"startTime":36.853421250000004,"endTime":36.98165391458334,"instrument":4,"program":56,"isDrum":false},{"pitch":55,"velocity":128,"startTime":37.11204175,"endTime":37.24027441458334,"instrument":4,"program":56,"isDrum":false},{"pitch":67,"velocity":128,"startTime":37.11204175,"endTime":37.24027441458334,"instrument":4,"program":56,"isDrum":false},{"pitch":55,"velocity":128,"startTime":37.37066225,"endTime":37.49889491458334,"instrument":4,"program":56,"isDrum":false},{"pitch":67,"velocity":128,"startTime":37.37066225,"endTime":37.49889491458334,"instrument":4,"program":56,"isDrum":false},{"pitch":57,"velocity":128,"startTime":37.499972500000005,"endTime":37.62820516458334,"instrument":4,"program":56,"isDrum":false},{"pitch":69,"velocity":128,"startTime":37.499972500000005,"endTime":37.62820516458334,"instrument":4,"program":56,"isDrum":false},{"pitch":57,"velocity":128,"startTime":38.14652375000001,"endTime":38.27475641458334,"instrument":4,"program":56,"isDrum":false},{"pitch":69,"velocity":128,"startTime":38.14652375000001,"endTime":38.27475641458334,"instrument":4,"program":56,"isDrum":false},{"pitch":57,"velocity":128,"startTime":38.405144250000006,"endTime":38.533376914583336,"instrument":4,"program":56,"isDrum":false},{"pitch":69,"velocity":128,"startTime":38.405144250000006,"endTime":38.533376914583336,"instrument":4,"program":56,"isDrum":false},{"pitch":57,"velocity":128,"startTime":38.663764750000006,"endTime":38.79199741458334,"instrument":4,"program":56,"isDrum":false},{"pitch":69,"velocity":128,"startTime":38.663764750000006,"endTime":38.79199741458334,"instrument":4,"program":56,"isDrum":false},{"pitch":58,"velocity":128,"startTime":38.922385250000005,"endTime":39.05061791458334,"instrument":4,"program":56,"isDrum":false},{"pitch":70,"velocity":128,"startTime":38.922385250000005,"endTime":39.05061791458334,"instrument":4,"program":56,"isDrum":false},{"pitch":57,"velocity":128,"startTime":39.05169550000001,"endTime":39.17992816458334,"instrument":4,"program":56,"isDrum":false},{"pitch":69,"velocity":128,"startTime":39.05169550000001,"endTime":39.17992816458334,"instrument":4,"program":56,"isDrum":false},{"pitch":55,"velocity":128,"startTime":39.69824675,"endTime":39.82647941458334,"instrument":4,"program":56,"isDrum":false},{"pitch":67,"velocity":128,"startTime":39.69824675,"endTime":39.82647941458334,"instrument":4,"program":56,"isDrum":false},{"pitch":53,"velocity":128,"startTime":39.95686725,"endTime":40.08509991458334,"instrument":4,"program":56,"isDrum":false},{"pitch":65,"velocity":128,"startTime":39.95686725,"endTime":40.08509991458334,"instrument":4,"program":56,"isDrum":false},{"pitch":52,"velocity":128,"startTime":40.21548775000001,"endTime":40.34372041458334,"instrument":4,"program":56,"isDrum":false},{"pitch":64,"velocity":128,"startTime":40.21548775000001,"endTime":40.34372041458334,"instrument":4,"program":56,"isDrum":false},{"pitch":50,"velocity":128,"startTime":40.47410825000001,"endTime":40.66699603958334,"instrument":4,"program":56,"isDrum":false},{"pitch":62,"velocity":128,"startTime":40.47410825000001,"endTime":40.66699603958334,"instrument":4,"program":56,"isDrum":false},{"pitch":41,"velocity":128,"startTime":54.17929600000001,"endTime":54.31207394375001,"instrument":4,"program":56,"isDrum":false},{"pitch":50,"velocity":128,"startTime":54.17929600000001,"endTime":54.31207394375001,"instrument":4,"program":56,"isDrum":false},{"pitch":57,"velocity":128,"startTime":54.17929600000001,"endTime":54.31207394375001,"instrument":4,"program":56,"isDrum":false},{"pitch":41,"velocity":128,"startTime":54.97929700000001,"endTime":55.11207494375001,"instrument":4,"program":56,"isDrum":false},{"pitch":50,"velocity":128,"startTime":54.97929700000001,"endTime":55.11207494375001,"instrument":4,"program":56,"isDrum":false},{"pitch":58,"velocity":128,"startTime":54.97929700000001,"endTime":55.11207494375001,"instrument":4,"program":56,"isDrum":false},{"pitch":41,"velocity":128,"startTime":55.77929800000001,"endTime":55.91207594375001,"instrument":4,"program":56,"isDrum":false},{"pitch":48,"velocity":128,"startTime":55.77929800000001,"endTime":55.91207594375001,"instrument":4,"program":56,"isDrum":false},{"pitch":57,"velocity":128,"startTime":55.77929800000001,"endTime":55.91207594375001,"instrument":4,"program":56,"isDrum":false},{"pitch":41,"velocity":128,"startTime":56.04596500000001,"endTime":56.17874294375001,"instrument":4,"program":56,"isDrum":false},{"pitch":48,"velocity":128,"startTime":56.04596500000001,"endTime":56.17874294375001,"instrument":4,"program":56,"isDrum":false},{"pitch":57,"velocity":128,"startTime":56.04596500000001,"endTime":56.17874294375001,"instrument":4,"program":56,"isDrum":false},{"pitch":41,"velocity":128,"startTime":56.31263200000001,"endTime":56.44540994375001,"instrument":4,"program":56,"isDrum":false},{"pitch":48,"velocity":128,"startTime":56.31263200000001,"endTime":56.44540994375001,"instrument":4,"program":56,"isDrum":false},{"pitch":57,"velocity":128,"startTime":56.31263200000001,"endTime":56.44540994375001,"instrument":4,"program":56,"isDrum":false},{"pitch":41,"velocity":128,"startTime":56.579299000000006,"endTime":56.712076943750006,"instrument":4,"program":56,"isDrum":false},{"pitch":48,"velocity":128,"startTime":56.579299000000006,"endTime":56.712076943750006,"instrument":4,"program":56,"isDrum":false},{"pitch":57,"velocity":128,"startTime":56.579299000000006,"endTime":56.712076943750006,"instrument":4,"program":56,"isDrum":false},{"pitch":40,"velocity":128,"startTime":56.71263250000001,"endTime":56.84541044375001,"instrument":4,"program":56,"isDrum":false},{"pitch":48,"velocity":128,"startTime":56.71263250000001,"endTime":56.84541044375001,"instrument":4,"program":56,"isDrum":false},{"pitch":55,"velocity":128,"startTime":56.71263250000001,"endTime":56.84541044375001,"instrument":4,"program":56,"isDrum":false},{"pitch":38,"velocity":128,"startTime":57.37930000000001,"endTime":57.51207794375001,"instrument":4,"program":56,"isDrum":false},{"pitch":46,"velocity":128,"startTime":57.37930000000001,"endTime":57.51207794375001,"instrument":4,"program":56,"isDrum":false},{"pitch":55,"velocity":128,"startTime":57.37930000000001,"endTime":57.51207794375001,"instrument":4,"program":56,"isDrum":false},{"pitch":38,"velocity":128,"startTime":58.17930100000001,"endTime":58.31207894375001,"instrument":4,"program":56,"isDrum":false},{"pitch":45,"velocity":128,"startTime":58.17930100000001,"endTime":58.31207894375001,"instrument":4,"program":56,"isDrum":false},{"pitch":53,"velocity":128,"startTime":58.17930100000001,"endTime":58.31207894375001,"instrument":4,"program":56,"isDrum":false},{"pitch":36,"velocity":128,"startTime":58.979302000000004,"endTime":59.112079943750004,"instrument":4,"program":56,"isDrum":false},{"pitch":43,"velocity":128,"startTime":58.979302000000004,"endTime":59.112079943750004,"instrument":4,"program":56,"isDrum":false},{"pitch":52,"velocity":128,"startTime":58.979302000000004,"endTime":59.112079943750004,"instrument":4,"program":56,"isDrum":false},{"pitch":36,"velocity":128,"startTime":59.24596900000001,"endTime":59.37874694375001,"instrument":4,"program":56,"isDrum":false},{"pitch":43,"velocity":128,"startTime":59.24596900000001,"endTime":59.37874694375001,"instrument":4,"program":56,"isDrum":false},{"pitch":53,"velocity":128,"startTime":59.24596900000001,"endTime":59.37874694375001,"instrument":4,"program":56,"isDrum":false},{"pitch":36,"velocity":128,"startTime":59.51263600000001,"endTime":59.64541394375001,"instrument":4,"program":56,"isDrum":false},{"pitch":43,"velocity":128,"startTime":59.51263600000001,"endTime":59.64541394375001,"instrument":4,"program":56,"isDrum":false},{"pitch":52,"velocity":128,"startTime":59.51263600000001,"endTime":59.64541394375001,"instrument":4,"program":56,"isDrum":false},{"pitch":36,"velocity":128,"startTime":59.779303000000006,"endTime":59.91208094375001,"instrument":4,"program":56,"isDrum":false},{"pitch":43,"velocity":128,"startTime":59.779303000000006,"endTime":59.91208094375001,"instrument":4,"program":56,"isDrum":false},{"pitch":52,"velocity":128,"startTime":59.779303000000006,"endTime":59.91208094375001,"instrument":4,"program":56,"isDrum":false},{"pitch":33,"velocity":128,"startTime":59.912636500000005,"endTime":60.045414443750005,"instrument":4,"program":56,"isDrum":false},{"pitch":41,"velocity":128,"startTime":59.912636500000005,"endTime":60.045414443750005,"instrument":4,"program":56,"isDrum":false},{"pitch":50,"velocity":128,"startTime":59.912636500000005,"endTime":60.045414443750005,"instrument":4,"program":56,"isDrum":false},{"pitch":38,"velocity":128,"startTime":60.1793035,"endTime":60.31208144375,"instrument":4,"program":56,"isDrum":false},{"pitch":50,"velocity":128,"startTime":60.1793035,"endTime":60.31208144375,"instrument":4,"program":56,"isDrum":false},{"pitch":40,"velocity":128,"startTime":60.31263700000001,"endTime":60.44541494375001,"instrument":4,"program":56,"isDrum":false},{"pitch":52,"velocity":128,"startTime":60.31263700000001,"endTime":60.44541494375001,"instrument":4,"program":56,"isDrum":false},{"pitch":41,"velocity":128,"startTime":60.44597050000001,"endTime":60.57874844375001,"instrument":4,"program":56,"isDrum":false},{"pitch":53,"velocity":128,"startTime":60.44597050000001,"endTime":60.57874844375001,"instrument":4,"program":56,"isDrum":false},{"pitch":41,"velocity":128,"startTime":60.57930400000001,"endTime":60.71208194375001,"instrument":4,"program":56,"isDrum":false},{"pitch":50,"velocity":128,"startTime":60.57930400000001,"endTime":60.71208194375001,"instrument":4,"program":56,"isDrum":false},{"pitch":57,"velocity":128,"startTime":60.57930400000001,"endTime":60.71208194375001,"instrument":4,"program":56,"isDrum":false},{"pitch":38,"velocity":128,"startTime":60.97930450000001,"endTime":61.11208244375001,"instrument":4,"program":56,"isDrum":false},{"pitch":50,"velocity":128,"startTime":60.97930450000001,"endTime":61.11208244375001,"instrument":4,"program":56,"isDrum":false},{"pitch":40,"velocity":128,"startTime":61.112638000000004,"endTime":61.245415943750004,"instrument":4,"program":56,"isDrum":false},{"pitch":52,"velocity":128,"startTime":61.112638000000004,"endTime":61.245415943750004,"instrument":4,"program":56,"isDrum":false},{"pitch":41,"velocity":128,"startTime":61.24597150000001,"endTime":61.37874944375001,"instrument":4,"program":56,"isDrum":false},{"pitch":53,"velocity":128,"startTime":61.24597150000001,"endTime":61.37874944375001,"instrument":4,"program":56,"isDrum":false},{"pitch":41,"velocity":128,"startTime":61.37930500000001,"endTime":61.51208294375001,"instrument":4,"program":56,"isDrum":false},{"pitch":50,"velocity":128,"startTime":61.37930500000001,"endTime":61.51208294375001,"instrument":4,"program":56,"isDrum":false},{"pitch":58,"velocity":128,"startTime":61.37930500000001,"endTime":61.51208294375001,"instrument":4,"program":56,"isDrum":false},{"pitch":38,"velocity":128,"startTime":61.77930550000001,"endTime":61.91208344375001,"instrument":4,"program":56,"isDrum":false},{"pitch":50,"velocity":128,"startTime":61.77930550000001,"endTime":61.91208344375001,"instrument":4,"program":56,"isDrum":false},{"pitch":40,"velocity":128,"startTime":61.912639000000006,"endTime":62.04541694375001,"instrument":4,"program":56,"isDrum":false},{"pitch":52,"velocity":128,"startTime":61.912639000000006,"endTime":62.04541694375001,"instrument":4,"program":56,"isDrum":false},{"pitch":41,"velocity":128,"startTime":62.045972500000005,"endTime":62.178750443750005,"instrument":4,"program":56,"isDrum":false},{"pitch":53,"velocity":128,"startTime":62.045972500000005,"endTime":62.178750443750005,"instrument":4,"program":56,"isDrum":false},{"pitch":41,"velocity":128,"startTime":62.17930600000001,"endTime":62.31208394375001,"instrument":4,"program":56,"isDrum":false},{"pitch":48,"velocity":128,"startTime":62.17930600000001,"endTime":62.31208394375001,"instrument":4,"program":56,"isDrum":false},{"pitch":57,"velocity":128,"startTime":62.17930600000001,"endTime":62.31208394375001,"instrument":4,"program":56,"isDrum":false},{"pitch":41,"velocity":128,"startTime":62.44597300000001,"endTime":62.57875094375001,"instrument":4,"program":56,"isDrum":false},{"pitch":48,"velocity":128,"startTime":62.44597300000001,"endTime":62.57875094375001,"instrument":4,"program":56,"isDrum":false},{"pitch":57,"velocity":128,"startTime":62.44597300000001,"endTime":62.57875094375001,"instrument":4,"program":56,"isDrum":false},{"pitch":41,"velocity":128,"startTime":62.71264000000001,"endTime":62.84541794375001,"instrument":4,"program":56,"isDrum":false},{"pitch":48,"velocity":128,"startTime":62.71264000000001,"endTime":62.84541794375001,"instrument":4,"program":56,"isDrum":false},{"pitch":60,"velocity":128,"startTime":62.71264000000001,"endTime":62.84541794375001,"instrument":4,"program":56,"isDrum":false},{"pitch":41,"velocity":128,"startTime":62.979307000000006,"endTime":63.112084943750006,"instrument":4,"program":56,"isDrum":false},{"pitch":48,"velocity":128,"startTime":62.979307000000006,"endTime":63.112084943750006,"instrument":4,"program":56,"isDrum":false},{"pitch":57,"velocity":128,"startTime":62.979307000000006,"endTime":63.112084943750006,"instrument":4,"program":56,"isDrum":false},{"pitch":40,"velocity":128,"startTime":63.11264050000001,"endTime":63.24541844375001,"instrument":4,"program":56,"isDrum":false},{"pitch":48,"velocity":128,"startTime":63.11264050000001,"endTime":63.24541844375001,"instrument":4,"program":56,"isDrum":false},{"pitch":55,"velocity":128,"startTime":63.11264050000001,"endTime":63.24541844375001,"instrument":4,"program":56,"isDrum":false},{"pitch":38,"velocity":128,"startTime":63.77930800000001,"endTime":63.91208594375001,"instrument":4,"program":56,"isDrum":false},{"pitch":46,"velocity":128,"startTime":63.77930800000001,"endTime":63.91208594375001,"instrument":4,"program":56,"isDrum":false},{"pitch":55,"velocity":128,"startTime":63.77930800000001,"endTime":63.91208594375001,"instrument":4,"program":56,"isDrum":false},{"pitch":38,"velocity":128,"startTime":64.57930900000001,"endTime":64.71208694375001,"instrument":4,"program":56,"isDrum":false},{"pitch":45,"velocity":128,"startTime":64.57930900000001,"endTime":64.71208694375001,"instrument":4,"program":56,"isDrum":false},{"pitch":53,"velocity":128,"startTime":64.57930900000001,"endTime":64.71208694375001,"instrument":4,"program":56,"isDrum":false},{"pitch":36,"velocity":128,"startTime":65.37931,"endTime":65.51208794375,"instrument":4,"program":56,"isDrum":false},{"pitch":43,"velocity":128,"startTime":65.37931,"endTime":65.51208794375,"instrument":4,"program":56,"isDrum":false},{"pitch":52,"velocity":128,"startTime":65.37931,"endTime":65.51208794375,"instrument":4,"program":56,"isDrum":false},{"pitch":36,"velocity":128,"startTime":65.64597700000002,"endTime":65.77875494375002,"instrument":4,"program":56,"isDrum":false},{"pitch":43,"velocity":128,"startTime":65.64597700000002,"endTime":65.77875494375002,"instrument":4,"program":56,"isDrum":false},{"pitch":53,"velocity":128,"startTime":65.64597700000002,"endTime":65.77875494375002,"instrument":4,"program":56,"isDrum":false},{"pitch":36,"velocity":128,"startTime":65.912644,"endTime":66.04542194375,"instrument":4,"program":56,"isDrum":false},{"pitch":43,"velocity":128,"startTime":65.912644,"endTime":66.04542194375,"instrument":4,"program":56,"isDrum":false},{"pitch":52,"velocity":128,"startTime":65.912644,"endTime":66.04542194375,"instrument":4,"program":56,"isDrum":false},{"pitch":33,"velocity":128,"startTime":66.17931100000001,"endTime":66.31208894375001,"instrument":4,"program":56,"isDrum":false},{"pitch":41,"velocity":128,"startTime":66.17931100000001,"endTime":66.31208894375001,"instrument":4,"program":56,"isDrum":false},{"pitch":50,"velocity":128,"startTime":66.17931100000001,"endTime":66.31208894375001,"instrument":4,"program":56,"isDrum":false},{"pitch":38,"velocity":90,"startTime":4.396548500000001,"endTime":4.524781164583334,"instrument":5,"program":48,"isDrum":true},{"pitch":35,"velocity":90,"startTime":4.396548500000001,"endTime":4.524781164583334,"instrument":5,"program":48,"isDrum":true},{"pitch":38,"velocity":90,"startTime":4.52585875,"endTime":4.654091414583334,"instrument":5,"program":48,"isDrum":true},{"pitch":35,"velocity":90,"startTime":4.52585875,"endTime":4.654091414583334,"instrument":5,"program":48,"isDrum":true},{"pitch":38,"velocity":90,"startTime":4.655169000000001,"endTime":5.042022164583334,"instrument":5,"program":48,"isDrum":true},{"pitch":59,"velocity":90,"startTime":4.655169000000001,"endTime":5.042022164583334,"instrument":5,"program":48,"isDrum":true},{"pitch":57,"velocity":90,"startTime":4.655169000000001,"endTime":5.042022164583334,"instrument":5,"program":48,"isDrum":true},{"pitch":35,"velocity":90,"startTime":4.655169000000001,"endTime":5.171332414583334,"instrument":5,"program":48,"isDrum":true},{"pitch":29,"velocity":90,"startTime":5.0430997500000005,"endTime":5.171332414583334,"instrument":5,"program":48,"isDrum":true},{"pitch":38,"velocity":90,"startTime":5.172410000000001,"endTime":5.300642664583334,"instrument":5,"program":48,"isDrum":true},{"pitch":38,"velocity":90,"startTime":5.301720250000001,"endTime":5.429952914583334,"instrument":5,"program":48,"isDrum":true},{"pitch":38,"velocity":90,"startTime":5.4310305,"endTime":5.688573414583334,"instrument":5,"program":48,"isDrum":true},{"pitch":40,"velocity":90,"startTime":5.4310305,"endTime":5.688573414583334,"instrument":5,"program":48,"isDrum":true},{"pitch":29,"velocity":90,"startTime":5.818961250000001,"endTime":5.947193914583334,"instrument":5,"program":48,"isDrum":true},{"pitch":38,"velocity":90,"startTime":5.948271500000001,"endTime":6.076504164583334,"instrument":5,"program":48,"isDrum":true},{"pitch":38,"velocity":90,"startTime":6.077581750000001,"endTime":6.205814414583334,"instrument":5,"program":48,"isDrum":true},{"pitch":38,"velocity":90,"startTime":6.206892000000001,"endTime":6.593745164583334,"instrument":5,"program":48,"isDrum":true},{"pitch":40,"velocity":90,"startTime":6.206892000000001,"endTime":6.593745164583334,"instrument":5,"program":48,"isDrum":true},{"pitch":29,"velocity":90,"startTime":6.5948227500000005,"endTime":6.723055414583334,"instrument":5,"program":48,"isDrum":true},{"pitch":38,"velocity":90,"startTime":6.724133000000001,"endTime":6.852365664583334,"instrument":5,"program":48,"isDrum":true},{"pitch":38,"velocity":90,"startTime":6.853443250000001,"endTime":6.9816759145833345,"instrument":5,"program":48,"isDrum":true},{"pitch":38,"velocity":90,"startTime":6.982753500000001,"endTime":7.240296414583335,"instrument":5,"program":48,"isDrum":true},{"pitch":40,"velocity":90,"startTime":6.982753500000001,"endTime":7.240296414583335,"instrument":5,"program":48,"isDrum":true},{"pitch":29,"velocity":90,"startTime":7.370684250000001,"endTime":7.498916914583334,"instrument":5,"program":48,"isDrum":true},{"pitch":57,"velocity":90,"startTime":7.370684250000001,"endTime":7.498916914583334,"instrument":5,"program":48,"isDrum":true},{"pitch":38,"velocity":90,"startTime":7.499994500000001,"endTime":7.628227164583334,"instrument":5,"program":48,"isDrum":true},{"pitch":38,"velocity":90,"startTime":7.629304750000001,"endTime":7.757537414583334,"instrument":5,"program":48,"isDrum":true},{"pitch":38,"velocity":90,"startTime":7.758615000000001,"endTime":8.145468164583335,"instrument":5,"program":48,"isDrum":true},{"pitch":40,"velocity":90,"startTime":7.758615000000001,"endTime":8.145468164583335,"instrument":5,"program":48,"isDrum":true},{"pitch":57,"velocity":90,"startTime":7.758615000000001,"endTime":8.145468164583335,"instrument":5,"program":48,"isDrum":true},{"pitch":29,"velocity":90,"startTime":8.146545750000001,"endTime":8.274778414583334,"instrument":5,"program":48,"isDrum":true},{"pitch":38,"velocity":90,"startTime":8.275856000000001,"endTime":8.404088664583334,"instrument":5,"program":48,"isDrum":true},{"pitch":38,"velocity":90,"startTime":8.40516625,"endTime":8.533398914583334,"instrument":5,"program":48,"isDrum":true},{"pitch":38,"velocity":90,"startTime":8.5344765,"endTime":8.792019414583333,"instrument":5,"program":48,"isDrum":true},{"pitch":40,"velocity":90,"startTime":8.5344765,"endTime":8.792019414583333,"instrument":5,"program":48,"isDrum":true},{"pitch":29,"velocity":90,"startTime":8.922407250000001,"endTime":9.050639914583334,"instrument":5,"program":48,"isDrum":true},{"pitch":38,"velocity":90,"startTime":9.0517175,"endTime":9.179950164583333,"instrument":5,"program":48,"isDrum":true},{"pitch":38,"velocity":90,"startTime":9.181027750000002,"endTime":9.309260414583333,"instrument":5,"program":48,"isDrum":true},{"pitch":38,"velocity":90,"startTime":9.310338000000002,"endTime":9.697191164583334,"instrument":5,"program":48,"isDrum":true},{"pitch":40,"velocity":90,"startTime":9.310338000000002,"endTime":9.697191164583334,"instrument":5,"program":48,"isDrum":true},{"pitch":29,"velocity":90,"startTime":9.69826875,"endTime":9.826501414583333,"instrument":5,"program":48,"isDrum":true},{"pitch":38,"velocity":90,"startTime":9.827579000000002,"endTime":9.955811664583333,"instrument":5,"program":48,"isDrum":true},{"pitch":38,"velocity":90,"startTime":9.956889250000001,"endTime":10.085121914583334,"instrument":5,"program":48,"isDrum":true},{"pitch":38,"velocity":90,"startTime":10.086199500000001,"endTime":10.343742414583334,"instrument":5,"program":48,"isDrum":true},{"pitch":40,"velocity":90,"startTime":10.086199500000001,"endTime":10.343742414583334,"instrument":5,"program":48,"isDrum":true},{"pitch":59,"velocity":90,"startTime":10.344820000000002,"endTime":10.473052664583333,"instrument":5,"program":48,"isDrum":true},{"pitch":57,"velocity":90,"startTime":10.344820000000002,"endTime":10.473052664583333,"instrument":5,"program":48,"isDrum":true},{"pitch":59,"velocity":90,"startTime":10.474130250000002,"endTime":10.602362914583333,"instrument":5,"program":48,"isDrum":true},{"pitch":29,"velocity":90,"startTime":10.474130250000002,"endTime":10.602362914583333,"instrument":5,"program":48,"isDrum":true},{"pitch":57,"velocity":90,"startTime":10.474130250000002,"endTime":10.602362914583333,"instrument":5,"program":48,"isDrum":true},{"pitch":38,"velocity":90,"startTime":10.603440500000001,"endTime":10.731673164583334,"instrument":5,"program":48,"isDrum":true},{"pitch":38,"velocity":90,"startTime":10.732750750000001,"endTime":10.860983414583334,"instrument":5,"program":48,"isDrum":true},{"pitch":38,"velocity":90,"startTime":10.862061,"endTime":11.248914164583335,"instrument":5,"program":48,"isDrum":true},{"pitch":40,"velocity":90,"startTime":10.862061,"endTime":11.248914164583335,"instrument":5,"program":48,"isDrum":true},{"pitch":59,"velocity":90,"startTime":10.862061,"endTime":11.248914164583335,"instrument":5,"program":48,"isDrum":true},{"pitch":57,"velocity":90,"startTime":10.862061,"endTime":11.248914164583335,"instrument":5,"program":48,"isDrum":true},{"pitch":29,"velocity":90,"startTime":11.249991750000001,"endTime":11.378224414583334,"instrument":5,"program":48,"isDrum":true},{"pitch":38,"velocity":90,"startTime":11.379302000000001,"endTime":11.507534664583334,"instrument":5,"program":48,"isDrum":true},{"pitch":38,"velocity":90,"startTime":11.50861225,"endTime":11.636844914583333,"instrument":5,"program":48,"isDrum":true},{"pitch":38,"velocity":90,"startTime":11.637922500000002,"endTime":11.895465414583335,"instrument":5,"program":48,"isDrum":true},{"pitch":40,"velocity":90,"startTime":11.637922500000002,"endTime":11.895465414583335,"instrument":5,"program":48,"isDrum":true},{"pitch":29,"velocity":90,"startTime":12.02585325,"endTime":12.154085914583334,"instrument":5,"program":48,"isDrum":true},{"pitch":38,"velocity":90,"startTime":12.155163500000002,"endTime":12.283396164583333,"instrument":5,"program":48,"isDrum":true},{"pitch":38,"velocity":90,"startTime":12.284473750000002,"endTime":12.412706414583335,"instrument":5,"program":48,"isDrum":true},{"pitch":38,"velocity":90,"startTime":12.413784000000001,"endTime":12.800637164583334,"instrument":5,"program":48,"isDrum":true},{"pitch":40,"velocity":90,"startTime":12.413784000000001,"endTime":12.800637164583334,"instrument":5,"program":48,"isDrum":true},{"pitch":29,"velocity":90,"startTime":12.801714750000002,"endTime":12.929947414583333,"instrument":5,"program":48,"isDrum":true},{"pitch":38,"velocity":90,"startTime":12.931025000000002,"endTime":13.059257664583335,"instrument":5,"program":48,"isDrum":true},{"pitch":38,"velocity":90,"startTime":13.060335250000001,"endTime":13.188567914583334,"instrument":5,"program":48,"isDrum":true},{"pitch":38,"velocity":90,"startTime":13.189645500000001,"endTime":13.447188414583334,"instrument":5,"program":48,"isDrum":true},{"pitch":40,"velocity":90,"startTime":13.189645500000001,"endTime":13.447188414583334,"instrument":5,"program":48,"isDrum":true},{"pitch":59,"velocity":90,"startTime":13.577576250000002,"endTime":13.705808914583335,"instrument":5,"program":48,"isDrum":true},{"pitch":29,"velocity":90,"startTime":13.577576250000002,"endTime":13.705808914583335,"instrument":5,"program":48,"isDrum":true},{"pitch":57,"velocity":90,"startTime":13.577576250000002,"endTime":13.705808914583335,"instrument":5,"program":48,"isDrum":true},{"pitch":38,"velocity":90,"startTime":13.706886500000001,"endTime":13.835119164583334,"instrument":5,"program":48,"isDrum":true},{"pitch":38,"velocity":90,"startTime":13.836196750000001,"endTime":13.964429414583334,"instrument":5,"program":48,"isDrum":true},{"pitch":38,"velocity":90,"startTime":13.965507000000002,"endTime":14.352360164583335,"instrument":5,"program":48,"isDrum":true},{"pitch":40,"velocity":90,"startTime":13.965507000000002,"endTime":14.352360164583335,"instrument":5,"program":48,"isDrum":true},{"pitch":59,"velocity":90,"startTime":13.965507000000002,"endTime":14.352360164583335,"instrument":5,"program":48,"isDrum":true},{"pitch":57,"velocity":90,"startTime":13.965507000000002,"endTime":14.352360164583335,"instrument":5,"program":48,"isDrum":true},{"pitch":29,"velocity":90,"startTime":14.353437750000001,"endTime":14.481670414583334,"instrument":5,"program":48,"isDrum":true},{"pitch":38,"velocity":90,"startTime":14.482748,"endTime":14.610980664583334,"instrument":5,"program":48,"isDrum":true},{"pitch":38,"velocity":90,"startTime":14.612058250000002,"endTime":14.740290914583333,"instrument":5,"program":48,"isDrum":true},{"pitch":38,"velocity":90,"startTime":14.741368500000002,"endTime":14.998911414583334,"instrument":5,"program":48,"isDrum":true},{"pitch":40,"velocity":90,"startTime":14.741368500000002,"endTime":14.998911414583334,"instrument":5,"program":48,"isDrum":true},{"pitch":29,"velocity":90,"startTime":15.129299250000003,"endTime":15.257531914583334,"instrument":5,"program":48,"isDrum":true},{"pitch":38,"velocity":90,"startTime":15.258609500000002,"endTime":15.386842164583335,"instrument":5,"program":48,"isDrum":true},{"pitch":38,"velocity":90,"startTime":15.387919750000002,"endTime":15.516152414583335,"instrument":5,"program":48,"isDrum":true},{"pitch":38,"velocity":90,"startTime":15.517230000000001,"endTime":15.904083164583334,"instrument":5,"program":48,"isDrum":true},{"pitch":40,"velocity":90,"startTime":15.517230000000001,"endTime":15.904083164583334,"instrument":5,"program":48,"isDrum":true},{"pitch":29,"velocity":90,"startTime":15.905160750000002,"endTime":16.033393414583333,"instrument":5,"program":48,"isDrum":true},{"pitch":38,"velocity":90,"startTime":16.034471000000003,"endTime":16.162703664583333,"instrument":5,"program":48,"isDrum":true},{"pitch":38,"velocity":90,"startTime":16.163781250000003,"endTime":16.292013914583336,"instrument":5,"program":48,"isDrum":true},{"pitch":38,"velocity":90,"startTime":16.293091500000003,"endTime":16.550634414583335,"instrument":5,"program":48,"isDrum":true},{"pitch":40,"velocity":90,"startTime":16.293091500000003,"endTime":16.550634414583335,"instrument":5,"program":48,"isDrum":true},{"pitch":29,"velocity":90,"startTime":16.68102225,"endTime":16.809254914583338,"instrument":5,"program":48,"isDrum":true},{"pitch":38,"velocity":90,"startTime":16.8103325,"endTime":16.938565164583338,"instrument":5,"program":48,"isDrum":true},{"pitch":38,"velocity":90,"startTime":16.93964275,"endTime":17.067875414583337,"instrument":5,"program":48,"isDrum":true},{"pitch":38,"velocity":90,"startTime":17.068953,"endTime":17.455806164583336,"instrument":5,"program":48,"isDrum":true},{"pitch":40,"velocity":90,"startTime":17.068953,"endTime":17.455806164583336,"instrument":5,"program":48,"isDrum":true},{"pitch":59,"velocity":90,"startTime":17.068953,"endTime":17.455806164583336,"instrument":5,"program":48,"isDrum":true},{"pitch":57,"velocity":90,"startTime":17.068953,"endTime":17.455806164583336,"instrument":5,"program":48,"isDrum":true},{"pitch":29,"velocity":90,"startTime":17.456883750000003,"endTime":17.585116414583336,"instrument":5,"program":48,"isDrum":true},{"pitch":38,"velocity":90,"startTime":17.586194000000003,"endTime":17.714426664583335,"instrument":5,"program":48,"isDrum":true},{"pitch":38,"velocity":90,"startTime":17.715504250000002,"endTime":17.843736914583335,"instrument":5,"program":48,"isDrum":true},{"pitch":38,"velocity":90,"startTime":17.844814500000002,"endTime":18.102357414583338,"instrument":5,"program":48,"isDrum":true},{"pitch":40,"velocity":90,"startTime":17.844814500000002,"endTime":18.102357414583338,"instrument":5,"program":48,"isDrum":true},{"pitch":59,"velocity":90,"startTime":17.844814500000002,"endTime":18.102357414583338,"instrument":5,"program":48,"isDrum":true},{"pitch":57,"velocity":90,"startTime":17.844814500000002,"endTime":18.102357414583338,"instrument":5,"program":48,"isDrum":true},{"pitch":29,"velocity":90,"startTime":18.23274525,"endTime":18.360977914583337,"instrument":5,"program":48,"isDrum":true},{"pitch":38,"velocity":90,"startTime":18.362055500000004,"endTime":18.490288164583337,"instrument":5,"program":48,"isDrum":true},{"pitch":38,"velocity":90,"startTime":18.491365750000003,"endTime":18.619598414583336,"instrument":5,"program":48,"isDrum":true},{"pitch":38,"velocity":90,"startTime":18.620676000000003,"endTime":19.007529164583335,"instrument":5,"program":48,"isDrum":true},{"pitch":40,"velocity":90,"startTime":18.620676000000003,"endTime":19.007529164583335,"instrument":5,"program":48,"isDrum":true},{"pitch":59,"velocity":90,"startTime":18.620676000000003,"endTime":19.007529164583335,"instrument":5,"program":48,"isDrum":true},{"pitch":57,"velocity":90,"startTime":18.620676000000003,"endTime":19.007529164583335,"instrument":5,"program":48,"isDrum":true},{"pitch":29,"velocity":90,"startTime":19.008606750000002,"endTime":19.136839414583335,"instrument":5,"program":48,"isDrum":true},{"pitch":38,"velocity":90,"startTime":19.137917,"endTime":19.266149664583338,"instrument":5,"program":48,"isDrum":true},{"pitch":38,"velocity":90,"startTime":19.26722725,"endTime":19.395459914583338,"instrument":5,"program":48,"isDrum":true},{"pitch":38,"velocity":90,"startTime":19.3965375,"endTime":19.654080414583337,"instrument":5,"program":48,"isDrum":true},{"pitch":40,"velocity":90,"startTime":19.3965375,"endTime":19.654080414583337,"instrument":5,"program":48,"isDrum":true},{"pitch":59,"velocity":90,"startTime":19.3965375,"endTime":19.654080414583337,"instrument":5,"program":48,"isDrum":true},{"pitch":57,"velocity":90,"startTime":19.3965375,"endTime":19.654080414583337,"instrument":5,"program":48,"isDrum":true},{"pitch":59,"velocity":90,"startTime":19.784468250000003,"endTime":19.912700914583336,"instrument":5,"program":48,"isDrum":true},{"pitch":29,"velocity":90,"startTime":19.784468250000003,"endTime":19.912700914583336,"instrument":5,"program":48,"isDrum":true},{"pitch":38,"velocity":90,"startTime":19.913778500000003,"endTime":20.042011164583336,"instrument":5,"program":48,"isDrum":true},{"pitch":38,"velocity":90,"startTime":20.043088750000003,"endTime":20.171321414583335,"instrument":5,"program":48,"isDrum":true},{"pitch":38,"velocity":90,"startTime":20.172399000000002,"endTime":20.559252164583338,"instrument":5,"program":48,"isDrum":true},{"pitch":40,"velocity":90,"startTime":20.172399000000002,"endTime":20.559252164583338,"instrument":5,"program":48,"isDrum":true},{"pitch":57,"velocity":90,"startTime":20.172399000000002,"endTime":20.559252164583338,"instrument":5,"program":48,"isDrum":true},{"pitch":29,"velocity":90,"startTime":20.56032975,"endTime":20.688562414583338,"instrument":5,"program":48,"isDrum":true},{"pitch":38,"velocity":90,"startTime":20.689640000000004,"endTime":20.817872664583337,"instrument":5,"program":48,"isDrum":true},{"pitch":38,"velocity":90,"startTime":20.818950250000004,"endTime":20.947182914583337,"instrument":5,"program":48,"isDrum":true},{"pitch":38,"velocity":90,"startTime":20.948260500000004,"endTime":21.205803414583336,"instrument":5,"program":48,"isDrum":true},{"pitch":40,"velocity":90,"startTime":20.948260500000004,"endTime":21.205803414583336,"instrument":5,"program":48,"isDrum":true},{"pitch":59,"velocity":90,"startTime":20.948260500000004,"endTime":21.205803414583336,"instrument":5,"program":48,"isDrum":true},{"pitch":57,"velocity":90,"startTime":20.948260500000004,"endTime":21.205803414583336,"instrument":5,"program":48,"isDrum":true},{"pitch":29,"velocity":90,"startTime":21.336191250000002,"endTime":21.464423914583335,"instrument":5,"program":48,"isDrum":true},{"pitch":38,"velocity":90,"startTime":21.465501500000002,"endTime":21.59373416458334,"instrument":5,"program":48,"isDrum":true},{"pitch":38,"velocity":90,"startTime":21.59481175,"endTime":21.723044414583338,"instrument":5,"program":48,"isDrum":true},{"pitch":38,"velocity":90,"startTime":21.724122,"endTime":22.110975164583337,"instrument":5,"program":48,"isDrum":true},{"pitch":40,"velocity":90,"startTime":21.724122,"endTime":22.110975164583337,"instrument":5,"program":48,"isDrum":true},{"pitch":59,"velocity":90,"startTime":21.724122,"endTime":22.110975164583337,"instrument":5,"program":48,"isDrum":true},{"pitch":57,"velocity":90,"startTime":21.724122,"endTime":22.110975164583337,"instrument":5,"program":48,"isDrum":true},{"pitch":29,"velocity":90,"startTime":22.112052750000004,"endTime":22.240285414583337,"instrument":5,"program":48,"isDrum":true},{"pitch":38,"velocity":90,"startTime":22.241363000000003,"endTime":22.369595664583336,"instrument":5,"program":48,"isDrum":true},{"pitch":38,"velocity":90,"startTime":22.370673250000003,"endTime":22.498905914583336,"instrument":5,"program":48,"isDrum":true},{"pitch":38,"velocity":90,"startTime":22.499983500000003,"endTime":22.75752641458334,"instrument":5,"program":48,"isDrum":true},{"pitch":40,"velocity":90,"startTime":22.499983500000003,"endTime":22.75752641458334,"instrument":5,"program":48,"isDrum":true},{"pitch":59,"velocity":90,"startTime":22.499983500000003,"endTime":22.75752641458334,"instrument":5,"program":48,"isDrum":true},{"pitch":57,"velocity":90,"startTime":22.499983500000003,"endTime":22.75752641458334,"instrument":5,"program":48,"isDrum":true},{"pitch":59,"velocity":90,"startTime":22.88791425,"endTime":23.016146914583338,"instrument":5,"program":48,"isDrum":true},{"pitch":29,"velocity":90,"startTime":22.88791425,"endTime":23.016146914583338,"instrument":5,"program":48,"isDrum":true},{"pitch":38,"velocity":90,"startTime":23.0172245,"endTime":23.145457164583338,"instrument":5,"program":48,"isDrum":true},{"pitch":38,"velocity":90,"startTime":23.146534750000004,"endTime":23.274767414583337,"instrument":5,"program":48,"isDrum":true},{"pitch":38,"velocity":90,"startTime":23.275845000000004,"endTime":23.662698164583336,"instrument":5,"program":48,"isDrum":true},{"pitch":40,"velocity":90,"startTime":23.275845000000004,"endTime":23.662698164583336,"instrument":5,"program":48,"isDrum":true},{"pitch":57,"velocity":90,"startTime":23.275845000000004,"endTime":23.662698164583336,"instrument":5,"program":48,"isDrum":true},{"pitch":29,"velocity":90,"startTime":23.663775750000003,"endTime":23.792008414583336,"instrument":5,"program":48,"isDrum":true},{"pitch":38,"velocity":90,"startTime":23.793086000000002,"endTime":23.92131866458334,"instrument":5,"program":48,"isDrum":true},{"pitch":38,"velocity":90,"startTime":23.922396250000002,"endTime":24.05062891458334,"instrument":5,"program":48,"isDrum":true},{"pitch":38,"velocity":90,"startTime":24.0517065,"endTime":24.309249414583338,"instrument":5,"program":48,"isDrum":true},{"pitch":40,"velocity":90,"startTime":24.0517065,"endTime":24.309249414583338,"instrument":5,"program":48,"isDrum":true},{"pitch":59,"velocity":90,"startTime":24.0517065,"endTime":24.309249414583338,"instrument":5,"program":48,"isDrum":true},{"pitch":57,"velocity":90,"startTime":24.0517065,"endTime":24.309249414583338,"instrument":5,"program":48,"isDrum":true},{"pitch":29,"velocity":90,"startTime":24.439637250000004,"endTime":24.567869914583337,"instrument":5,"program":48,"isDrum":true},{"pitch":38,"velocity":90,"startTime":24.568947500000004,"endTime":24.697180164583337,"instrument":5,"program":48,"isDrum":true},{"pitch":38,"velocity":90,"startTime":24.698257750000003,"endTime":24.826490414583336,"instrument":5,"program":48,"isDrum":true},{"pitch":38,"velocity":90,"startTime":24.827568000000003,"endTime":25.21442116458334,"instrument":5,"program":48,"isDrum":true},{"pitch":40,"velocity":90,"startTime":24.827568000000003,"endTime":25.21442116458334,"instrument":5,"program":48,"isDrum":true},{"pitch":59,"velocity":90,"startTime":24.827568000000003,"endTime":25.21442116458334,"instrument":5,"program":48,"isDrum":true},{"pitch":57,"velocity":90,"startTime":24.827568000000003,"endTime":25.21442116458334,"instrument":5,"program":48,"isDrum":true},{"pitch":29,"velocity":90,"startTime":25.215498750000002,"endTime":25.34373141458334,"instrument":5,"program":48,"isDrum":true},{"pitch":38,"velocity":90,"startTime":25.344809,"endTime":25.473041664583338,"instrument":5,"program":48,"isDrum":true},{"pitch":38,"velocity":90,"startTime":25.474119250000005,"endTime":25.602351914583338,"instrument":5,"program":48,"isDrum":true},{"pitch":38,"velocity":90,"startTime":25.603429500000004,"endTime":25.860972414583337,"instrument":5,"program":48,"isDrum":true},{"pitch":40,"velocity":90,"startTime":25.603429500000004,"endTime":25.860972414583337,"instrument":5,"program":48,"isDrum":true},{"pitch":59,"velocity":90,"startTime":25.603429500000004,"endTime":25.860972414583337,"instrument":5,"program":48,"isDrum":true},{"pitch":57,"velocity":90,"startTime":25.603429500000004,"endTime":25.860972414583337,"instrument":5,"program":48,"isDrum":true},{"pitch":59,"velocity":90,"startTime":25.991360250000003,"endTime":26.119592914583336,"instrument":5,"program":48,"isDrum":true},{"pitch":29,"velocity":90,"startTime":25.991360250000003,"endTime":26.119592914583336,"instrument":5,"program":48,"isDrum":true},{"pitch":38,"velocity":90,"startTime":26.120670500000003,"endTime":26.248903164583336,"instrument":5,"program":48,"isDrum":true},{"pitch":38,"velocity":90,"startTime":26.249980750000002,"endTime":26.37821341458334,"instrument":5,"program":48,"isDrum":true},{"pitch":38,"velocity":90,"startTime":26.379291000000002,"endTime":26.766144164583338,"instrument":5,"program":48,"isDrum":true},{"pitch":40,"velocity":90,"startTime":26.379291000000002,"endTime":26.766144164583338,"instrument":5,"program":48,"isDrum":true},{"pitch":57,"velocity":90,"startTime":26.379291000000002,"endTime":26.766144164583338,"instrument":5,"program":48,"isDrum":true},{"pitch":29,"velocity":90,"startTime":26.767221750000004,"endTime":26.895454414583337,"instrument":5,"program":48,"isDrum":true},{"pitch":38,"velocity":90,"startTime":26.896532000000004,"endTime":27.024764664583337,"instrument":5,"program":48,"isDrum":true},{"pitch":38,"velocity":90,"startTime":27.025842250000004,"endTime":27.154074914583337,"instrument":5,"program":48,"isDrum":true},{"pitch":38,"velocity":90,"startTime":27.155152500000003,"endTime":27.412695414583336,"instrument":5,"program":48,"isDrum":true},{"pitch":40,"velocity":90,"startTime":27.155152500000003,"endTime":27.412695414583336,"instrument":5,"program":48,"isDrum":true},{"pitch":59,"velocity":90,"startTime":27.155152500000003,"endTime":27.412695414583336,"instrument":5,"program":48,"isDrum":true},{"pitch":57,"velocity":90,"startTime":27.155152500000003,"endTime":27.412695414583336,"instrument":5,"program":48,"isDrum":true},{"pitch":29,"velocity":90,"startTime":27.543083250000002,"endTime":27.67131591458334,"instrument":5,"program":48,"isDrum":true},{"pitch":38,"velocity":90,"startTime":27.672393500000002,"endTime":27.80062616458334,"instrument":5,"program":48,"isDrum":true},{"pitch":38,"velocity":90,"startTime":27.801703750000005,"endTime":27.929936414583338,"instrument":5,"program":48,"isDrum":true},{"pitch":38,"velocity":90,"startTime":27.931014000000005,"endTime":28.317867164583337,"instrument":5,"program":48,"isDrum":true},{"pitch":40,"velocity":90,"startTime":27.931014000000005,"endTime":28.317867164583337,"instrument":5,"program":48,"isDrum":true},{"pitch":59,"velocity":90,"startTime":27.931014000000005,"endTime":28.317867164583337,"instrument":5,"program":48,"isDrum":true},{"pitch":57,"velocity":90,"startTime":27.931014000000005,"endTime":28.317867164583337,"instrument":5,"program":48,"isDrum":true},{"pitch":29,"velocity":90,"startTime":28.318944750000004,"endTime":28.447177414583336,"instrument":5,"program":48,"isDrum":true},{"pitch":38,"velocity":90,"startTime":28.448255000000003,"endTime":28.576487664583336,"instrument":5,"program":48,"isDrum":true},{"pitch":38,"velocity":90,"startTime":28.577565250000003,"endTime":28.70579791458334,"instrument":5,"program":48,"isDrum":true},{"pitch":38,"velocity":90,"startTime":28.706875500000002,"endTime":28.96441841458334,"instrument":5,"program":48,"isDrum":true},{"pitch":40,"velocity":90,"startTime":28.706875500000002,"endTime":28.96441841458334,"instrument":5,"program":48,"isDrum":true},{"pitch":59,"velocity":90,"startTime":28.706875500000002,"endTime":28.96441841458334,"instrument":5,"program":48,"isDrum":true},{"pitch":29,"velocity":90,"startTime":28.706875500000002,"endTime":28.96441841458334,"instrument":5,"program":48,"isDrum":true},{"pitch":57,"velocity":90,"startTime":28.706875500000002,"endTime":28.96441841458334,"instrument":5,"program":48,"isDrum":true},{"pitch":29,"velocity":90,"startTime":28.965496,"endTime":29.223038914583338,"instrument":5,"program":48,"isDrum":true},{"pitch":38,"velocity":90,"startTime":29.224116500000004,"endTime":29.352349164583337,"instrument":5,"program":48,"isDrum":true},{"pitch":29,"velocity":90,"startTime":29.224116500000004,"endTime":29.352349164583337,"instrument":5,"program":48,"isDrum":true},{"pitch":38,"velocity":90,"startTime":29.353426750000004,"endTime":29.481659414583337,"instrument":5,"program":48,"isDrum":true},{"pitch":38,"velocity":90,"startTime":29.482737000000004,"endTime":29.740279914583336,"instrument":5,"program":48,"isDrum":true},{"pitch":40,"velocity":90,"startTime":29.482737000000004,"endTime":29.740279914583336,"instrument":5,"program":48,"isDrum":true},{"pitch":29,"velocity":90,"startTime":29.482737000000004,"endTime":29.740279914583336,"instrument":5,"program":48,"isDrum":true},{"pitch":35,"velocity":90,"startTime":29.482737000000004,"endTime":29.99890041458334,"instrument":5,"program":48,"isDrum":true},{"pitch":38,"velocity":90,"startTime":29.741357500000003,"endTime":29.86959016458334,"instrument":5,"program":48,"isDrum":true},{"pitch":40,"velocity":90,"startTime":29.741357500000003,"endTime":29.86959016458334,"instrument":5,"program":48,"isDrum":true},{"pitch":38,"velocity":90,"startTime":29.870667750000003,"endTime":29.99890041458334,"instrument":5,"program":48,"isDrum":true},{"pitch":29,"velocity":90,"startTime":29.870667750000003,"endTime":29.99890041458334,"instrument":5,"program":48,"isDrum":true},{"pitch":38,"velocity":90,"startTime":29.999978000000002,"endTime":30.25752091458334,"instrument":5,"program":48,"isDrum":true},{"pitch":38,"velocity":90,"startTime":30.258598500000005,"endTime":30.516141414583338,"instrument":5,"program":48,"isDrum":true},{"pitch":40,"velocity":90,"startTime":30.258598500000005,"endTime":30.516141414583338,"instrument":5,"program":48,"isDrum":true},{"pitch":59,"velocity":90,"startTime":30.258598500000005,"endTime":30.516141414583338,"instrument":5,"program":48,"isDrum":true},{"pitch":29,"velocity":90,"startTime":30.258598500000005,"endTime":30.516141414583338,"instrument":5,"program":48,"isDrum":true},{"pitch":57,"velocity":90,"startTime":30.258598500000005,"endTime":30.516141414583338,"instrument":5,"program":48,"isDrum":true},{"pitch":38,"velocity":90,"startTime":30.646529250000004,"endTime":30.904072164583337,"instrument":5,"program":48,"isDrum":true},{"pitch":38,"velocity":90,"startTime":30.905149750000003,"endTime":31.03338241458334,"instrument":5,"program":48,"isDrum":true},{"pitch":38,"velocity":90,"startTime":31.034460000000003,"endTime":31.29200291458334,"instrument":5,"program":48,"isDrum":true},{"pitch":40,"velocity":90,"startTime":31.034460000000003,"endTime":31.29200291458334,"instrument":5,"program":48,"isDrum":true},{"pitch":29,"velocity":90,"startTime":31.034460000000003,"endTime":31.29200291458334,"instrument":5,"program":48,"isDrum":true},{"pitch":38,"velocity":90,"startTime":31.293080500000002,"endTime":31.42131316458334,"instrument":5,"program":48,"isDrum":true},{"pitch":38,"velocity":90,"startTime":31.422390750000005,"endTime":31.550623414583338,"instrument":5,"program":48,"isDrum":true},{"pitch":40,"velocity":90,"startTime":31.422390750000005,"endTime":31.550623414583338,"instrument":5,"program":48,"isDrum":true},{"pitch":35,"velocity":90,"startTime":31.422390750000005,"endTime":31.550623414583338,"instrument":5,"program":48,"isDrum":true},{"pitch":38,"velocity":90,"startTime":31.810321500000004,"endTime":32.06786441458334,"instrument":5,"program":48,"isDrum":true},{"pitch":40,"velocity":90,"startTime":31.810321500000004,"endTime":32.06786441458334,"instrument":5,"program":48,"isDrum":true},{"pitch":59,"velocity":90,"startTime":31.810321500000004,"endTime":32.06786441458334,"instrument":5,"program":48,"isDrum":true},{"pitch":29,"velocity":90,"startTime":31.810321500000004,"endTime":32.06786441458334,"instrument":5,"program":48,"isDrum":true},{"pitch":57,"velocity":90,"startTime":31.810321500000004,"endTime":32.06786441458334,"instrument":5,"program":48,"isDrum":true},{"pitch":35,"velocity":90,"startTime":31.810321500000004,"endTime":32.06786441458334,"instrument":5,"program":48,"isDrum":true},{"pitch":38,"velocity":90,"startTime":32.06894200000001,"endTime":32.197174664583336,"instrument":5,"program":48,"isDrum":true},{"pitch":38,"velocity":90,"startTime":32.19825225,"endTime":32.455795164583336,"instrument":5,"program":48,"isDrum":true},{"pitch":38,"velocity":90,"startTime":32.45687275,"endTime":32.58510541458334,"instrument":5,"program":48,"isDrum":true},{"pitch":38,"velocity":90,"startTime":32.586183000000005,"endTime":32.714415664583335,"instrument":5,"program":48,"isDrum":true},{"pitch":40,"velocity":90,"startTime":32.586183000000005,"endTime":32.714415664583335,"instrument":5,"program":48,"isDrum":true},{"pitch":29,"velocity":90,"startTime":32.586183000000005,"endTime":32.714415664583335,"instrument":5,"program":48,"isDrum":true},{"pitch":38,"velocity":90,"startTime":32.71549325,"endTime":32.84372591458334,"instrument":5,"program":48,"isDrum":true},{"pitch":38,"velocity":90,"startTime":32.844803500000005,"endTime":33.10234641458334,"instrument":5,"program":48,"isDrum":true},{"pitch":38,"velocity":90,"startTime":33.3620445,"endTime":33.49027716458334,"instrument":5,"program":48,"isDrum":true},{"pitch":40,"velocity":90,"startTime":33.3620445,"endTime":33.49027716458334,"instrument":5,"program":48,"isDrum":true},{"pitch":59,"velocity":90,"startTime":33.3620445,"endTime":33.49027716458334,"instrument":5,"program":48,"isDrum":true},{"pitch":29,"velocity":90,"startTime":33.3620445,"endTime":33.49027716458334,"instrument":5,"program":48,"isDrum":true},{"pitch":57,"velocity":90,"startTime":33.3620445,"endTime":33.49027716458334,"instrument":5,"program":48,"isDrum":true},{"pitch":38,"velocity":90,"startTime":33.491354750000006,"endTime":33.619587414583336,"instrument":5,"program":48,"isDrum":true},{"pitch":38,"velocity":90,"startTime":33.620665,"endTime":33.74889766458334,"instrument":5,"program":48,"isDrum":true},{"pitch":38,"velocity":90,"startTime":33.749975250000006,"endTime":34.00751816458334,"instrument":5,"program":48,"isDrum":true},{"pitch":38,"velocity":90,"startTime":34.008595750000005,"endTime":34.13682841458334,"instrument":5,"program":48,"isDrum":true},{"pitch":38,"velocity":90,"startTime":34.137906,"endTime":34.65406941458334,"instrument":5,"program":48,"isDrum":true},{"pitch":40,"velocity":90,"startTime":34.137906,"endTime":34.65406941458334,"instrument":5,"program":48,"isDrum":true},{"pitch":38,"velocity":90,"startTime":35.04307775,"endTime":35.17131041458334,"instrument":5,"program":48,"isDrum":true},{"pitch":35,"velocity":90,"startTime":35.04307775,"endTime":35.17131041458334,"instrument":5,"program":48,"isDrum":true},{"pitch":36,"velocity":90,"startTime":35.04307775,"endTime":35.17131041458334,"instrument":5,"program":48,"isDrum":true},{"pitch":38,"velocity":90,"startTime":35.172388000000005,"endTime":35.30062066458334,"instrument":5,"program":48,"isDrum":true},{"pitch":38,"velocity":90,"startTime":35.30169825,"endTime":35.42993091458334,"instrument":5,"program":48,"isDrum":true},{"pitch":29,"velocity":90,"startTime":35.431008500000004,"endTime":35.55924116458334,"instrument":5,"program":48,"isDrum":true},{"pitch":38,"velocity":90,"startTime":35.56031875000001,"endTime":35.68855141458334,"instrument":5,"program":48,"isDrum":true},{"pitch":38,"velocity":90,"startTime":35.81893925000001,"endTime":35.947171914583336,"instrument":5,"program":48,"isDrum":true},{"pitch":35,"velocity":90,"startTime":35.81893925000001,"endTime":36.205792414583335,"instrument":5,"program":48,"isDrum":true},{"pitch":36,"velocity":90,"startTime":35.81893925000001,"endTime":36.205792414583335,"instrument":5,"program":48,"isDrum":true},{"pitch":38,"velocity":90,"startTime":35.9482495,"endTime":36.205792414583335,"instrument":5,"program":48,"isDrum":true},{"pitch":29,"velocity":90,"startTime":36.20687,"endTime":36.59372316458334,"instrument":5,"program":48,"isDrum":true},{"pitch":38,"velocity":90,"startTime":36.594800750000005,"endTime":36.72303341458334,"instrument":5,"program":48,"isDrum":true},{"pitch":35,"velocity":90,"startTime":36.594800750000005,"endTime":36.72303341458334,"instrument":5,"program":48,"isDrum":true},{"pitch":36,"velocity":90,"startTime":36.594800750000005,"endTime":36.72303341458334,"instrument":5,"program":48,"isDrum":true},{"pitch":38,"velocity":90,"startTime":36.72411100000001,"endTime":36.85234366458334,"instrument":5,"program":48,"isDrum":true},{"pitch":38,"velocity":90,"startTime":36.853421250000004,"endTime":36.98165391458334,"instrument":5,"program":48,"isDrum":true},{"pitch":29,"velocity":90,"startTime":36.98273150000001,"endTime":37.110964164583336,"instrument":5,"program":48,"isDrum":true},{"pitch":38,"velocity":90,"startTime":37.11204175,"endTime":37.24027441458334,"instrument":5,"program":48,"isDrum":true},{"pitch":38,"velocity":90,"startTime":37.37066225,"endTime":37.49889491458334,"instrument":5,"program":48,"isDrum":true},{"pitch":35,"velocity":90,"startTime":37.37066225,"endTime":37.75751541458334,"instrument":5,"program":48,"isDrum":true},{"pitch":36,"velocity":90,"startTime":37.37066225,"endTime":37.75751541458334,"instrument":5,"program":48,"isDrum":true},{"pitch":38,"velocity":90,"startTime":37.499972500000005,"endTime":37.75751541458334,"instrument":5,"program":48,"isDrum":true},{"pitch":29,"velocity":90,"startTime":37.758593000000005,"endTime":38.14544616458334,"instrument":5,"program":48,"isDrum":true},{"pitch":38,"velocity":90,"startTime":38.14652375000001,"endTime":38.27475641458334,"instrument":5,"program":48,"isDrum":true},{"pitch":35,"velocity":90,"startTime":38.14652375000001,"endTime":38.27475641458334,"instrument":5,"program":48,"isDrum":true},{"pitch":36,"velocity":90,"startTime":38.14652375000001,"endTime":38.27475641458334,"instrument":5,"program":48,"isDrum":true},{"pitch":38,"velocity":90,"startTime":38.275834,"endTime":38.40406666458334,"instrument":5,"program":48,"isDrum":true},{"pitch":38,"velocity":90,"startTime":38.405144250000006,"endTime":38.533376914583336,"instrument":5,"program":48,"isDrum":true},{"pitch":29,"velocity":90,"startTime":38.5344545,"endTime":38.66268716458334,"instrument":5,"program":48,"isDrum":true},{"pitch":38,"velocity":90,"startTime":38.663764750000006,"endTime":38.79199741458334,"instrument":5,"program":48,"isDrum":true},{"pitch":38,"velocity":90,"startTime":38.922385250000005,"endTime":39.05061791458334,"instrument":5,"program":48,"isDrum":true},{"pitch":35,"velocity":90,"startTime":38.922385250000005,"endTime":39.30923841458334,"instrument":5,"program":48,"isDrum":true},{"pitch":36,"velocity":90,"startTime":38.922385250000005,"endTime":39.30923841458334,"instrument":5,"program":48,"isDrum":true},{"pitch":38,"velocity":90,"startTime":39.05169550000001,"endTime":39.30923841458334,"instrument":5,"program":48,"isDrum":true},{"pitch":29,"velocity":90,"startTime":39.31031600000001,"endTime":39.697169164583336,"instrument":5,"program":48,"isDrum":true},{"pitch":38,"velocity":90,"startTime":39.69824675,"endTime":39.82647941458334,"instrument":5,"program":48,"isDrum":true},{"pitch":40,"velocity":90,"startTime":39.69824675,"endTime":39.82647941458334,"instrument":5,"program":48,"isDrum":true},{"pitch":35,"velocity":90,"startTime":39.69824675,"endTime":39.82647941458334,"instrument":5,"program":48,"isDrum":true},{"pitch":36,"velocity":90,"startTime":39.69824675,"endTime":39.82647941458334,"instrument":5,"program":48,"isDrum":true},{"pitch":38,"velocity":90,"startTime":39.827557000000006,"endTime":39.95578966458334,"instrument":5,"program":48,"isDrum":true},{"pitch":38,"velocity":90,"startTime":39.95686725,"endTime":40.08509991458334,"instrument":5,"program":48,"isDrum":true},{"pitch":40,"velocity":90,"startTime":39.95686725,"endTime":40.08509991458334,"instrument":5,"program":48,"isDrum":true},{"pitch":35,"velocity":90,"startTime":39.95686725,"endTime":40.21441016458334,"instrument":5,"program":48,"isDrum":true},{"pitch":36,"velocity":90,"startTime":39.95686725,"endTime":40.21441016458334,"instrument":5,"program":48,"isDrum":true},{"pitch":38,"velocity":90,"startTime":40.086177500000005,"endTime":40.21441016458334,"instrument":5,"program":48,"isDrum":true},{"pitch":29,"velocity":90,"startTime":40.086177500000005,"endTime":40.21441016458334,"instrument":5,"program":48,"isDrum":true},{"pitch":38,"velocity":90,"startTime":40.21548775000001,"endTime":40.34372041458334,"instrument":5,"program":48,"isDrum":true},{"pitch":40,"velocity":90,"startTime":40.21548775000001,"endTime":40.34372041458334,"instrument":5,"program":48,"isDrum":true},{"pitch":35,"velocity":90,"startTime":40.21548775000001,"endTime":40.34372041458334,"instrument":5,"program":48,"isDrum":true},{"pitch":36,"velocity":90,"startTime":40.21548775000001,"endTime":40.34372041458334,"instrument":5,"program":48,"isDrum":true},{"pitch":38,"velocity":90,"startTime":40.344798000000004,"endTime":40.47303066458334,"instrument":5,"program":48,"isDrum":true},{"pitch":38,"velocity":90,"startTime":40.47410825000001,"endTime":40.860961414583336,"instrument":5,"program":48,"isDrum":true},{"pitch":40,"velocity":90,"startTime":40.47410825000001,"endTime":40.860961414583336,"instrument":5,"program":48,"isDrum":true},{"pitch":59,"velocity":90,"startTime":40.47410825000001,"endTime":40.860961414583336,"instrument":5,"program":48,"isDrum":true},{"pitch":29,"velocity":90,"startTime":40.47410825000001,"endTime":40.860961414583336,"instrument":5,"program":48,"isDrum":true},{"pitch":57,"velocity":90,"startTime":40.47410825000001,"endTime":40.860961414583336,"instrument":5,"program":48,"isDrum":true},{"pitch":35,"velocity":90,"startTime":40.47410825000001,"endTime":40.860961414583336,"instrument":5,"program":48,"isDrum":true},{"pitch":36,"velocity":90,"startTime":40.47410825000001,"endTime":40.860961414583336,"instrument":5,"program":48,"isDrum":true},{"pitch":38,"velocity":90,"startTime":41.37928000000001,"endTime":41.64539144375001,"instrument":5,"program":48,"isDrum":true},{"pitch":38,"velocity":90,"startTime":41.64594700000001,"endTime":41.77872494375001,"instrument":5,"program":48,"isDrum":true},{"pitch":38,"velocity":90,"startTime":41.779280500000006,"endTime":41.912058443750006,"instrument":5,"program":48,"isDrum":true},{"pitch":38,"velocity":90,"startTime":41.912614000000005,"endTime":42.04539194375001,"instrument":5,"program":48,"isDrum":true},{"pitch":38,"velocity":90,"startTime":42.04594750000001,"endTime":42.17872544375001,"instrument":5,"program":48,"isDrum":true},{"pitch":38,"velocity":90,"startTime":42.17928100000001,"endTime":42.44539244375001,"instrument":5,"program":48,"isDrum":true},{"pitch":38,"velocity":90,"startTime":42.44594800000001,"endTime":42.57872594375001,"instrument":5,"program":48,"isDrum":true},{"pitch":38,"velocity":90,"startTime":42.57928150000001,"endTime":42.71205944375001,"instrument":5,"program":48,"isDrum":true},{"pitch":38,"velocity":90,"startTime":42.71261500000001,"endTime":42.84539294375001,"instrument":5,"program":48,"isDrum":true},{"pitch":38,"velocity":90,"startTime":42.845948500000006,"endTime":42.978726443750006,"instrument":5,"program":48,"isDrum":true},{"pitch":38,"velocity":90,"startTime":42.97928200000001,"endTime":43.24539344375001,"instrument":5,"program":48,"isDrum":true},{"pitch":38,"velocity":90,"startTime":43.24594900000001,"endTime":43.37872694375001,"instrument":5,"program":48,"isDrum":true},{"pitch":38,"velocity":90,"startTime":43.37928250000001,"endTime":43.51206044375001,"instrument":5,"program":48,"isDrum":true},{"pitch":38,"velocity":90,"startTime":43.51261600000001,"endTime":43.64539394375001,"instrument":5,"program":48,"isDrum":true},{"pitch":38,"velocity":90,"startTime":43.64594950000001,"endTime":43.77872744375001,"instrument":5,"program":48,"isDrum":true},{"pitch":38,"velocity":90,"startTime":43.77928300000001,"endTime":44.045394443750006,"instrument":5,"program":48,"isDrum":true},{"pitch":38,"velocity":90,"startTime":44.045950000000005,"endTime":44.178727943750005,"instrument":5,"program":48,"isDrum":true},{"pitch":38,"velocity":90,"startTime":44.17928350000001,"endTime":44.31206144375001,"instrument":5,"program":48,"isDrum":true},{"pitch":38,"velocity":90,"startTime":44.31261700000001,"endTime":44.44539494375001,"instrument":5,"program":48,"isDrum":true},{"pitch":38,"velocity":90,"startTime":44.44595050000001,"endTime":44.57872844375001,"instrument":5,"program":48,"isDrum":true},{"pitch":38,"velocity":90,"startTime":44.57928400000001,"endTime":44.84539544375001,"instrument":5,"program":48,"isDrum":true},{"pitch":38,"velocity":90,"startTime":44.84595100000001,"endTime":44.978728943750006,"instrument":5,"program":48,"isDrum":true},{"pitch":38,"velocity":90,"startTime":44.979284500000006,"endTime":45.112062443750006,"instrument":5,"program":48,"isDrum":true},{"pitch":38,"velocity":90,"startTime":45.11261800000001,"endTime":45.24539594375001,"instrument":5,"program":48,"isDrum":true},{"pitch":38,"velocity":90,"startTime":45.24595150000001,"endTime":45.37872944375001,"instrument":5,"program":48,"isDrum":true},{"pitch":38,"velocity":90,"startTime":45.37928500000001,"endTime":45.64539644375001,"instrument":5,"program":48,"isDrum":true},{"pitch":38,"velocity":90,"startTime":45.64595200000001,"endTime":45.77872994375001,"instrument":5,"program":48,"isDrum":true},{"pitch":38,"velocity":90,"startTime":45.77928550000001,"endTime":45.91206344375001,"instrument":5,"program":48,"isDrum":true},{"pitch":38,"velocity":90,"startTime":45.91261900000001,"endTime":46.045396943750006,"instrument":5,"program":48,"isDrum":true},{"pitch":38,"velocity":90,"startTime":46.045952500000006,"endTime":46.178730443750005,"instrument":5,"program":48,"isDrum":true},{"pitch":38,"velocity":90,"startTime":46.179286000000005,"endTime":46.44539744375001,"instrument":5,"program":48,"isDrum":true},{"pitch":38,"velocity":90,"startTime":46.44595300000001,"endTime":46.57873094375001,"instrument":5,"program":48,"isDrum":true},{"pitch":38,"velocity":90,"startTime":46.57928650000001,"endTime":46.71206444375001,"instrument":5,"program":48,"isDrum":true},{"pitch":38,"velocity":90,"startTime":46.71262000000001,"endTime":46.84539794375001,"instrument":5,"program":48,"isDrum":true},{"pitch":38,"velocity":90,"startTime":46.84595350000001,"endTime":46.97873144375001,"instrument":5,"program":48,"isDrum":true},{"pitch":38,"velocity":90,"startTime":46.97928700000001,"endTime":47.245398443750005,"instrument":5,"program":48,"isDrum":true},{"pitch":38,"velocity":90,"startTime":47.24595400000001,"endTime":47.37873194375001,"instrument":5,"program":48,"isDrum":true},{"pitch":38,"velocity":90,"startTime":47.37928750000001,"endTime":47.51206544375001,"instrument":5,"program":48,"isDrum":true},{"pitch":38,"velocity":90,"startTime":47.51262100000001,"endTime":47.64539894375001,"instrument":5,"program":48,"isDrum":true},{"pitch":38,"velocity":90,"startTime":47.64595450000001,"endTime":47.77873244375001,"instrument":5,"program":48,"isDrum":true},{"pitch":38,"velocity":90,"startTime":47.77928800000001,"endTime":48.04539944375001,"instrument":5,"program":48,"isDrum":true},{"pitch":38,"velocity":90,"startTime":48.045955000000006,"endTime":48.178732943750006,"instrument":5,"program":48,"isDrum":true},{"pitch":38,"velocity":90,"startTime":48.179288500000006,"endTime":48.312066443750005,"instrument":5,"program":48,"isDrum":true},{"pitch":38,"velocity":90,"startTime":48.312622000000005,"endTime":48.445399943750004,"instrument":5,"program":48,"isDrum":true},{"pitch":38,"velocity":90,"startTime":48.44595550000001,"endTime":48.57873344375001,"instrument":5,"program":48,"isDrum":true},{"pitch":38,"velocity":90,"startTime":48.57928900000001,"endTime":48.84540044375001,"instrument":5,"program":48,"isDrum":true},{"pitch":38,"velocity":90,"startTime":48.84595600000001,"endTime":48.97873394375001,"instrument":5,"program":48,"isDrum":true},{"pitch":38,"velocity":90,"startTime":48.97928950000001,"endTime":49.11206744375001,"instrument":5,"program":48,"isDrum":true},{"pitch":38,"velocity":90,"startTime":49.112623000000006,"endTime":49.245400943750006,"instrument":5,"program":48,"isDrum":true},{"pitch":38,"velocity":90,"startTime":49.245956500000005,"endTime":49.378734443750005,"instrument":5,"program":48,"isDrum":true},{"pitch":38,"velocity":90,"startTime":49.37929000000001,"endTime":49.64540144375,"instrument":5,"program":48,"isDrum":true},{"pitch":38,"velocity":90,"startTime":49.64595700000001,"endTime":49.77873494375001,"instrument":5,"program":48,"isDrum":true},{"pitch":38,"velocity":90,"startTime":49.77929050000001,"endTime":49.91206844375001,"instrument":5,"program":48,"isDrum":true},{"pitch":38,"velocity":90,"startTime":49.91262400000001,"endTime":50.04540194375001,"instrument":5,"program":48,"isDrum":true},{"pitch":38,"velocity":90,"startTime":50.04595750000001,"endTime":50.17873544375001,"instrument":5,"program":48,"isDrum":true},{"pitch":38,"velocity":90,"startTime":50.179291000000006,"endTime":50.44540244375001,"instrument":5,"program":48,"isDrum":true},{"pitch":38,"velocity":90,"startTime":50.445958000000005,"endTime":50.578735943750004,"instrument":5,"program":48,"isDrum":true},{"pitch":38,"velocity":90,"startTime":50.57929150000001,"endTime":50.71206944375001,"instrument":5,"program":48,"isDrum":true},{"pitch":38,"velocity":90,"startTime":50.71262500000001,"endTime":50.84540294375001,"instrument":5,"program":48,"isDrum":true},{"pitch":38,"velocity":90,"startTime":50.84595850000001,"endTime":50.97873644375001,"instrument":5,"program":48,"isDrum":true},{"pitch":38,"velocity":90,"startTime":50.97929200000001,"endTime":51.24540344375001,"instrument":5,"program":48,"isDrum":true},{"pitch":38,"velocity":90,"startTime":51.245959000000006,"endTime":51.378736943750006,"instrument":5,"program":48,"isDrum":true},{"pitch":38,"velocity":90,"startTime":51.379292500000005,"endTime":51.512070443750005,"instrument":5,"program":48,"isDrum":true},{"pitch":38,"velocity":90,"startTime":51.51262600000001,"endTime":51.64540394375001,"instrument":5,"program":48,"isDrum":true},{"pitch":38,"velocity":90,"startTime":51.645959500000004,"endTime":51.77873744375001,"instrument":5,"program":48,"isDrum":true},{"pitch":38,"velocity":90,"startTime":51.77929300000001,"endTime":52.04540444375001,"instrument":5,"program":48,"isDrum":true},{"pitch":38,"velocity":90,"startTime":52.04596000000001,"endTime":52.17873794375001,"instrument":5,"program":48,"isDrum":true},{"pitch":38,"velocity":90,"startTime":52.17929350000001,"endTime":52.31207144375001,"instrument":5,"program":48,"isDrum":true},{"pitch":38,"velocity":90,"startTime":52.312627000000006,"endTime":52.445404943750006,"instrument":5,"program":48,"isDrum":true},{"pitch":38,"velocity":90,"startTime":52.44596050000001,"endTime":52.57873844375001,"instrument":5,"program":48,"isDrum":true},{"pitch":38,"velocity":90,"startTime":52.579294000000004,"endTime":52.84540544375001,"instrument":5,"program":48,"isDrum":true},{"pitch":38,"velocity":90,"startTime":52.84596100000001,"endTime":52.97873894375001,"instrument":5,"program":48,"isDrum":true},{"pitch":38,"velocity":90,"startTime":52.97929450000001,"endTime":53.11207244375001,"instrument":5,"program":48,"isDrum":true},{"pitch":38,"velocity":90,"startTime":53.11262800000001,"endTime":53.24540594375001,"instrument":5,"program":48,"isDrum":true},{"pitch":38,"velocity":90,"startTime":53.24596150000001,"endTime":53.37873944375001,"instrument":5,"program":48,"isDrum":true},{"pitch":38,"velocity":90,"startTime":53.7792955,"endTime":53.91207344375001,"instrument":5,"program":48,"isDrum":true},{"pitch":40,"velocity":90,"startTime":53.7792955,"endTime":53.91207344375001,"instrument":5,"program":48,"isDrum":true},{"pitch":33,"velocity":90,"startTime":53.7792955,"endTime":53.91207344375001,"instrument":5,"program":48,"isDrum":true},{"pitch":35,"velocity":90,"startTime":53.7792955,"endTime":53.91207344375001,"instrument":5,"program":48,"isDrum":true},{"pitch":38,"velocity":90,"startTime":53.91262900000001,"endTime":54.04540694375001,"instrument":5,"program":48,"isDrum":true},{"pitch":40,"velocity":90,"startTime":53.91262900000001,"endTime":54.04540694375001,"instrument":5,"program":48,"isDrum":true},{"pitch":33,"velocity":90,"startTime":53.91262900000001,"endTime":54.04540694375001,"instrument":5,"program":48,"isDrum":true},{"pitch":35,"velocity":90,"startTime":53.91262900000001,"endTime":54.04540694375001,"instrument":5,"program":48,"isDrum":true},{"pitch":38,"velocity":90,"startTime":54.04596250000001,"endTime":54.17874044375001,"instrument":5,"program":48,"isDrum":true},{"pitch":40,"velocity":90,"startTime":54.04596250000001,"endTime":54.17874044375001,"instrument":5,"program":48,"isDrum":true},{"pitch":33,"velocity":90,"startTime":54.04596250000001,"endTime":54.17874044375001,"instrument":5,"program":48,"isDrum":true},{"pitch":35,"velocity":90,"startTime":54.04596250000001,"endTime":54.17874044375001,"instrument":5,"program":48,"isDrum":true},{"pitch":38,"velocity":90,"startTime":54.17929600000001,"endTime":54.44540744375001,"instrument":5,"program":48,"isDrum":true},{"pitch":40,"velocity":90,"startTime":54.17929600000001,"endTime":54.44540744375001,"instrument":5,"program":48,"isDrum":true},{"pitch":59,"velocity":90,"startTime":54.17929600000001,"endTime":54.44540744375001,"instrument":5,"program":48,"isDrum":true},{"pitch":33,"velocity":90,"startTime":54.17929600000001,"endTime":54.44540744375001,"instrument":5,"program":48,"isDrum":true},{"pitch":57,"velocity":90,"startTime":54.17929600000001,"endTime":54.44540744375001,"instrument":5,"program":48,"isDrum":true},{"pitch":35,"velocity":90,"startTime":54.17929600000001,"endTime":54.44540744375001,"instrument":5,"program":48,"isDrum":true},{"pitch":38,"velocity":90,"startTime":54.57929650000001,"endTime":54.71207444375001,"instrument":5,"program":48,"isDrum":true},{"pitch":40,"velocity":90,"startTime":54.57929650000001,"endTime":54.71207444375001,"instrument":5,"program":48,"isDrum":true},{"pitch":33,"velocity":90,"startTime":54.57929650000001,"endTime":54.71207444375001,"instrument":5,"program":48,"isDrum":true},{"pitch":35,"velocity":90,"startTime":54.57929650000001,"endTime":54.71207444375001,"instrument":5,"program":48,"isDrum":true},{"pitch":38,"velocity":90,"startTime":54.712630000000004,"endTime":54.845407943750004,"instrument":5,"program":48,"isDrum":true},{"pitch":40,"velocity":90,"startTime":54.712630000000004,"endTime":54.845407943750004,"instrument":5,"program":48,"isDrum":true},{"pitch":33,"velocity":90,"startTime":54.712630000000004,"endTime":54.845407943750004,"instrument":5,"program":48,"isDrum":true},{"pitch":35,"velocity":90,"startTime":54.712630000000004,"endTime":54.845407943750004,"instrument":5,"program":48,"isDrum":true},{"pitch":38,"velocity":90,"startTime":54.84596350000001,"endTime":54.97874144375001,"instrument":5,"program":48,"isDrum":true},{"pitch":40,"velocity":90,"startTime":54.84596350000001,"endTime":54.97874144375001,"instrument":5,"program":48,"isDrum":true},{"pitch":33,"velocity":90,"startTime":54.84596350000001,"endTime":54.97874144375001,"instrument":5,"program":48,"isDrum":true},{"pitch":35,"velocity":90,"startTime":54.84596350000001,"endTime":54.97874144375001,"instrument":5,"program":48,"isDrum":true},{"pitch":38,"velocity":90,"startTime":54.97929700000001,"endTime":55.24540844375001,"instrument":5,"program":48,"isDrum":true},{"pitch":40,"velocity":90,"startTime":54.97929700000001,"endTime":55.24540844375001,"instrument":5,"program":48,"isDrum":true},{"pitch":59,"velocity":90,"startTime":54.97929700000001,"endTime":55.24540844375001,"instrument":5,"program":48,"isDrum":true},{"pitch":33,"velocity":90,"startTime":54.97929700000001,"endTime":55.24540844375001,"instrument":5,"program":48,"isDrum":true},{"pitch":57,"velocity":90,"startTime":54.97929700000001,"endTime":55.24540844375001,"instrument":5,"program":48,"isDrum":true},{"pitch":35,"velocity":90,"startTime":54.97929700000001,"endTime":55.24540844375001,"instrument":5,"program":48,"isDrum":true},{"pitch":38,"velocity":90,"startTime":55.37929750000001,"endTime":55.51207544375001,"instrument":5,"program":48,"isDrum":true},{"pitch":40,"velocity":90,"startTime":55.37929750000001,"endTime":55.51207544375001,"instrument":5,"program":48,"isDrum":true},{"pitch":33,"velocity":90,"startTime":55.37929750000001,"endTime":55.51207544375001,"instrument":5,"program":48,"isDrum":true},{"pitch":35,"velocity":90,"startTime":55.37929750000001,"endTime":55.51207544375001,"instrument":5,"program":48,"isDrum":true},{"pitch":38,"velocity":90,"startTime":55.512631000000006,"endTime":55.645408943750006,"instrument":5,"program":48,"isDrum":true},{"pitch":40,"velocity":90,"startTime":55.512631000000006,"endTime":55.645408943750006,"instrument":5,"program":48,"isDrum":true},{"pitch":33,"velocity":90,"startTime":55.512631000000006,"endTime":55.645408943750006,"instrument":5,"program":48,"isDrum":true},{"pitch":35,"velocity":90,"startTime":55.512631000000006,"endTime":55.645408943750006,"instrument":5,"program":48,"isDrum":true},{"pitch":38,"velocity":90,"startTime":55.645964500000005,"endTime":55.778742443750005,"instrument":5,"program":48,"isDrum":true},{"pitch":40,"velocity":90,"startTime":55.645964500000005,"endTime":55.778742443750005,"instrument":5,"program":48,"isDrum":true},{"pitch":33,"velocity":90,"startTime":55.645964500000005,"endTime":55.778742443750005,"instrument":5,"program":48,"isDrum":true},{"pitch":35,"velocity":90,"startTime":55.645964500000005,"endTime":55.778742443750005,"instrument":5,"program":48,"isDrum":true},{"pitch":38,"velocity":90,"startTime":55.77929800000001,"endTime":56.04540944375001,"instrument":5,"program":48,"isDrum":true},{"pitch":40,"velocity":90,"startTime":55.77929800000001,"endTime":56.04540944375001,"instrument":5,"program":48,"isDrum":true},{"pitch":59,"velocity":90,"startTime":55.77929800000001,"endTime":56.04540944375001,"instrument":5,"program":48,"isDrum":true},{"pitch":33,"velocity":90,"startTime":55.77929800000001,"endTime":56.04540944375001,"instrument":5,"program":48,"isDrum":true},{"pitch":57,"velocity":90,"startTime":55.77929800000001,"endTime":56.04540944375001,"instrument":5,"program":48,"isDrum":true},{"pitch":35,"velocity":90,"startTime":55.77929800000001,"endTime":56.04540944375001,"instrument":5,"program":48,"isDrum":true},{"pitch":38,"velocity":90,"startTime":56.04596500000001,"endTime":56.31207644375001,"instrument":5,"program":48,"isDrum":true},{"pitch":40,"velocity":90,"startTime":56.04596500000001,"endTime":56.31207644375001,"instrument":5,"program":48,"isDrum":true},{"pitch":59,"velocity":90,"startTime":56.04596500000001,"endTime":56.31207644375001,"instrument":5,"program":48,"isDrum":true},{"pitch":33,"velocity":90,"startTime":56.04596500000001,"endTime":56.31207644375001,"instrument":5,"program":48,"isDrum":true},{"pitch":57,"velocity":90,"startTime":56.04596500000001,"endTime":56.31207644375001,"instrument":5,"program":48,"isDrum":true},{"pitch":35,"velocity":90,"startTime":56.04596500000001,"endTime":56.31207644375001,"instrument":5,"program":48,"isDrum":true},{"pitch":38,"velocity":90,"startTime":56.31263200000001,"endTime":56.57874344375001,"instrument":5,"program":48,"isDrum":true},{"pitch":40,"velocity":90,"startTime":56.31263200000001,"endTime":56.57874344375001,"instrument":5,"program":48,"isDrum":true},{"pitch":59,"velocity":90,"startTime":56.31263200000001,"endTime":56.57874344375001,"instrument":5,"program":48,"isDrum":true},{"pitch":33,"velocity":90,"startTime":56.31263200000001,"endTime":56.57874344375001,"instrument":5,"program":48,"isDrum":true},{"pitch":57,"velocity":90,"startTime":56.31263200000001,"endTime":56.57874344375001,"instrument":5,"program":48,"isDrum":true},{"pitch":35,"velocity":90,"startTime":56.31263200000001,"endTime":56.57874344375001,"instrument":5,"program":48,"isDrum":true},{"pitch":38,"velocity":90,"startTime":56.579299000000006,"endTime":56.712076943750006,"instrument":5,"program":48,"isDrum":true},{"pitch":40,"velocity":90,"startTime":56.579299000000006,"endTime":56.712076943750006,"instrument":5,"program":48,"isDrum":true},{"pitch":59,"velocity":90,"startTime":56.579299000000006,"endTime":56.712076943750006,"instrument":5,"program":48,"isDrum":true},{"pitch":33,"velocity":90,"startTime":56.579299000000006,"endTime":56.712076943750006,"instrument":5,"program":48,"isDrum":true},{"pitch":57,"velocity":90,"startTime":56.579299000000006,"endTime":56.712076943750006,"instrument":5,"program":48,"isDrum":true},{"pitch":35,"velocity":90,"startTime":56.579299000000006,"endTime":56.84541044375001,"instrument":5,"program":48,"isDrum":true},{"pitch":59,"velocity":90,"startTime":56.71263250000001,"endTime":56.84541044375001,"instrument":5,"program":48,"isDrum":true},{"pitch":57,"velocity":90,"startTime":56.71263250000001,"endTime":56.84541044375001,"instrument":5,"program":48,"isDrum":true},{"pitch":38,"velocity":90,"startTime":56.97929950000001,"endTime":57.11207744375001,"instrument":5,"program":48,"isDrum":true},{"pitch":40,"velocity":90,"startTime":56.97929950000001,"endTime":57.11207744375001,"instrument":5,"program":48,"isDrum":true},{"pitch":33,"velocity":90,"startTime":56.97929950000001,"endTime":57.11207744375001,"instrument":5,"program":48,"isDrum":true},{"pitch":35,"velocity":90,"startTime":56.97929950000001,"endTime":57.11207744375001,"instrument":5,"program":48,"isDrum":true},{"pitch":38,"velocity":90,"startTime":57.11263300000001,"endTime":57.24541094375001,"instrument":5,"program":48,"isDrum":true},{"pitch":40,"velocity":90,"startTime":57.11263300000001,"endTime":57.24541094375001,"instrument":5,"program":48,"isDrum":true},{"pitch":33,"velocity":90,"startTime":57.11263300000001,"endTime":57.24541094375001,"instrument":5,"program":48,"isDrum":true},{"pitch":35,"velocity":90,"startTime":57.11263300000001,"endTime":57.24541094375001,"instrument":5,"program":48,"isDrum":true},{"pitch":38,"velocity":90,"startTime":57.24596650000001,"endTime":57.37874444375001,"instrument":5,"program":48,"isDrum":true},{"pitch":40,"velocity":90,"startTime":57.24596650000001,"endTime":57.37874444375001,"instrument":5,"program":48,"isDrum":true},{"pitch":33,"velocity":90,"startTime":57.24596650000001,"endTime":57.37874444375001,"instrument":5,"program":48,"isDrum":true},{"pitch":35,"velocity":90,"startTime":57.24596650000001,"endTime":57.37874444375001,"instrument":5,"program":48,"isDrum":true},{"pitch":38,"velocity":90,"startTime":57.37930000000001,"endTime":57.64541144375001,"instrument":5,"program":48,"isDrum":true},{"pitch":40,"velocity":90,"startTime":57.37930000000001,"endTime":57.64541144375001,"instrument":5,"program":48,"isDrum":true},{"pitch":59,"velocity":90,"startTime":57.37930000000001,"endTime":57.64541144375001,"instrument":5,"program":48,"isDrum":true},{"pitch":33,"velocity":90,"startTime":57.37930000000001,"endTime":57.64541144375001,"instrument":5,"program":48,"isDrum":true},{"pitch":57,"velocity":90,"startTime":57.37930000000001,"endTime":57.64541144375001,"instrument":5,"program":48,"isDrum":true},{"pitch":35,"velocity":90,"startTime":57.37930000000001,"endTime":57.64541144375001,"instrument":5,"program":48,"isDrum":true},{"pitch":38,"velocity":90,"startTime":57.779300500000005,"endTime":57.912078443750005,"instrument":5,"program":48,"isDrum":true},{"pitch":40,"velocity":90,"startTime":57.779300500000005,"endTime":57.912078443750005,"instrument":5,"program":48,"isDrum":true},{"pitch":33,"velocity":90,"startTime":57.779300500000005,"endTime":57.912078443750005,"instrument":5,"program":48,"isDrum":true},{"pitch":35,"velocity":90,"startTime":57.779300500000005,"endTime":57.912078443750005,"instrument":5,"program":48,"isDrum":true},{"pitch":38,"velocity":90,"startTime":57.91263400000001,"endTime":58.04541194375001,"instrument":5,"program":48,"isDrum":true},{"pitch":40,"velocity":90,"startTime":57.91263400000001,"endTime":58.04541194375001,"instrument":5,"program":48,"isDrum":true},{"pitch":33,"velocity":90,"startTime":57.91263400000001,"endTime":58.04541194375001,"instrument":5,"program":48,"isDrum":true},{"pitch":35,"velocity":90,"startTime":57.91263400000001,"endTime":58.04541194375001,"instrument":5,"program":48,"isDrum":true},{"pitch":38,"velocity":90,"startTime":58.0459675,"endTime":58.17874544375,"instrument":5,"program":48,"isDrum":true},{"pitch":40,"velocity":90,"startTime":58.0459675,"endTime":58.17874544375,"instrument":5,"program":48,"isDrum":true},{"pitch":33,"velocity":90,"startTime":58.0459675,"endTime":58.17874544375,"instrument":5,"program":48,"isDrum":true},{"pitch":35,"velocity":90,"startTime":58.0459675,"endTime":58.17874544375,"instrument":5,"program":48,"isDrum":true},{"pitch":38,"velocity":90,"startTime":58.17930100000001,"endTime":58.44541244375001,"instrument":5,"program":48,"isDrum":true},{"pitch":40,"velocity":90,"startTime":58.17930100000001,"endTime":58.44541244375001,"instrument":5,"program":48,"isDrum":true},{"pitch":59,"velocity":90,"startTime":58.17930100000001,"endTime":58.44541244375001,"instrument":5,"program":48,"isDrum":true},{"pitch":33,"velocity":90,"startTime":58.17930100000001,"endTime":58.44541244375001,"instrument":5,"program":48,"isDrum":true},{"pitch":57,"velocity":90,"startTime":58.17930100000001,"endTime":58.44541244375001,"instrument":5,"program":48,"isDrum":true},{"pitch":35,"velocity":90,"startTime":58.17930100000001,"endTime":58.44541244375001,"instrument":5,"program":48,"isDrum":true},{"pitch":38,"velocity":90,"startTime":58.57930150000001,"endTime":58.71207944375001,"instrument":5,"program":48,"isDrum":true},{"pitch":40,"velocity":90,"startTime":58.57930150000001,"endTime":58.71207944375001,"instrument":5,"program":48,"isDrum":true},{"pitch":33,"velocity":90,"startTime":58.57930150000001,"endTime":58.71207944375001,"instrument":5,"program":48,"isDrum":true},{"pitch":35,"velocity":90,"startTime":58.57930150000001,"endTime":58.71207944375001,"instrument":5,"program":48,"isDrum":true},{"pitch":38,"velocity":90,"startTime":58.712635000000006,"endTime":58.845412943750006,"instrument":5,"program":48,"isDrum":true},{"pitch":40,"velocity":90,"startTime":58.712635000000006,"endTime":58.845412943750006,"instrument":5,"program":48,"isDrum":true},{"pitch":33,"velocity":90,"startTime":58.712635000000006,"endTime":58.845412943750006,"instrument":5,"program":48,"isDrum":true},{"pitch":35,"velocity":90,"startTime":58.712635000000006,"endTime":58.845412943750006,"instrument":5,"program":48,"isDrum":true},{"pitch":38,"velocity":90,"startTime":58.84596850000001,"endTime":58.97874644375001,"instrument":5,"program":48,"isDrum":true},{"pitch":40,"velocity":90,"startTime":58.84596850000001,"endTime":58.97874644375001,"instrument":5,"program":48,"isDrum":true},{"pitch":33,"velocity":90,"startTime":58.84596850000001,"endTime":58.97874644375001,"instrument":5,"program":48,"isDrum":true},{"pitch":35,"velocity":90,"startTime":58.84596850000001,"endTime":58.97874644375001,"instrument":5,"program":48,"isDrum":true},{"pitch":38,"velocity":90,"startTime":58.979302000000004,"endTime":59.24541344375001,"instrument":5,"program":48,"isDrum":true},{"pitch":40,"velocity":90,"startTime":58.979302000000004,"endTime":59.24541344375001,"instrument":5,"program":48,"isDrum":true},{"pitch":59,"velocity":90,"startTime":58.979302000000004,"endTime":59.24541344375001,"instrument":5,"program":48,"isDrum":true},{"pitch":33,"velocity":90,"startTime":58.979302000000004,"endTime":59.24541344375001,"instrument":5,"program":48,"isDrum":true},{"pitch":57,"velocity":90,"startTime":58.979302000000004,"endTime":59.24541344375001,"instrument":5,"program":48,"isDrum":true},{"pitch":35,"velocity":90,"startTime":58.979302000000004,"endTime":59.24541344375001,"instrument":5,"program":48,"isDrum":true},{"pitch":38,"velocity":90,"startTime":59.24596900000001,"endTime":59.51208044375001,"instrument":5,"program":48,"isDrum":true},{"pitch":40,"velocity":90,"startTime":59.24596900000001,"endTime":59.51208044375001,"instrument":5,"program":48,"isDrum":true},{"pitch":59,"velocity":90,"startTime":59.24596900000001,"endTime":59.51208044375001,"instrument":5,"program":48,"isDrum":true},{"pitch":33,"velocity":90,"startTime":59.24596900000001,"endTime":59.51208044375001,"instrument":5,"program":48,"isDrum":true},{"pitch":57,"velocity":90,"startTime":59.24596900000001,"endTime":59.51208044375001,"instrument":5,"program":48,"isDrum":true},{"pitch":35,"velocity":90,"startTime":59.24596900000001,"endTime":59.51208044375001,"instrument":5,"program":48,"isDrum":true},{"pitch":38,"velocity":90,"startTime":59.51263600000001,"endTime":59.77874744375001,"instrument":5,"program":48,"isDrum":true},{"pitch":40,"velocity":90,"startTime":59.51263600000001,"endTime":59.77874744375001,"instrument":5,"program":48,"isDrum":true},{"pitch":59,"velocity":90,"startTime":59.51263600000001,"endTime":59.77874744375001,"instrument":5,"program":48,"isDrum":true},{"pitch":33,"velocity":90,"startTime":59.51263600000001,"endTime":59.77874744375001,"instrument":5,"program":48,"isDrum":true},{"pitch":57,"velocity":90,"startTime":59.51263600000001,"endTime":59.77874744375001,"instrument":5,"program":48,"isDrum":true},{"pitch":35,"velocity":90,"startTime":59.51263600000001,"endTime":59.77874744375001,"instrument":5,"program":48,"isDrum":true},{"pitch":38,"velocity":90,"startTime":59.779303000000006,"endTime":60.045414443750005,"instrument":5,"program":48,"isDrum":true},{"pitch":40,"velocity":90,"startTime":59.779303000000006,"endTime":60.045414443750005,"instrument":5,"program":48,"isDrum":true},{"pitch":59,"velocity":90,"startTime":59.779303000000006,"endTime":60.045414443750005,"instrument":5,"program":48,"isDrum":true},{"pitch":33,"velocity":90,"startTime":59.779303000000006,"endTime":60.045414443750005,"instrument":5,"program":48,"isDrum":true},{"pitch":57,"velocity":90,"startTime":59.779303000000006,"endTime":60.045414443750005,"instrument":5,"program":48,"isDrum":true},{"pitch":35,"velocity":90,"startTime":59.779303000000006,"endTime":60.045414443750005,"instrument":5,"program":48,"isDrum":true},{"pitch":38,"velocity":90,"startTime":60.1793035,"endTime":60.31208144375,"instrument":5,"program":48,"isDrum":true},{"pitch":40,"velocity":90,"startTime":60.1793035,"endTime":60.31208144375,"instrument":5,"program":48,"isDrum":true},{"pitch":33,"velocity":90,"startTime":60.1793035,"endTime":60.31208144375,"instrument":5,"program":48,"isDrum":true},{"pitch":35,"velocity":90,"startTime":60.1793035,"endTime":60.31208144375,"instrument":5,"program":48,"isDrum":true},{"pitch":38,"velocity":90,"startTime":60.31263700000001,"endTime":60.44541494375001,"instrument":5,"program":48,"isDrum":true},{"pitch":40,"velocity":90,"startTime":60.31263700000001,"endTime":60.44541494375001,"instrument":5,"program":48,"isDrum":true},{"pitch":33,"velocity":90,"startTime":60.31263700000001,"endTime":60.44541494375001,"instrument":5,"program":48,"isDrum":true},{"pitch":35,"velocity":90,"startTime":60.31263700000001,"endTime":60.44541494375001,"instrument":5,"program":48,"isDrum":true},{"pitch":38,"velocity":90,"startTime":60.44597050000001,"endTime":60.57874844375001,"instrument":5,"program":48,"isDrum":true},{"pitch":40,"velocity":90,"startTime":60.44597050000001,"endTime":60.57874844375001,"instrument":5,"program":48,"isDrum":true},{"pitch":33,"velocity":90,"startTime":60.44597050000001,"endTime":60.57874844375001,"instrument":5,"program":48,"isDrum":true},{"pitch":35,"velocity":90,"startTime":60.44597050000001,"endTime":60.57874844375001,"instrument":5,"program":48,"isDrum":true},{"pitch":38,"velocity":90,"startTime":60.57930400000001,"endTime":60.84541544375001,"instrument":5,"program":48,"isDrum":true},{"pitch":40,"velocity":90,"startTime":60.57930400000001,"endTime":60.84541544375001,"instrument":5,"program":48,"isDrum":true},{"pitch":59,"velocity":90,"startTime":60.57930400000001,"endTime":60.84541544375001,"instrument":5,"program":48,"isDrum":true},{"pitch":33,"velocity":90,"startTime":60.57930400000001,"endTime":60.84541544375001,"instrument":5,"program":48,"isDrum":true},{"pitch":57,"velocity":90,"startTime":60.57930400000001,"endTime":60.84541544375001,"instrument":5,"program":48,"isDrum":true},{"pitch":35,"velocity":90,"startTime":60.57930400000001,"endTime":60.84541544375001,"instrument":5,"program":48,"isDrum":true},{"pitch":38,"velocity":90,"startTime":60.97930450000001,"endTime":61.11208244375001,"instrument":5,"program":48,"isDrum":true},{"pitch":40,"velocity":90,"startTime":60.97930450000001,"endTime":61.11208244375001,"instrument":5,"program":48,"isDrum":true},{"pitch":33,"velocity":90,"startTime":60.97930450000001,"endTime":61.11208244375001,"instrument":5,"program":48,"isDrum":true},{"pitch":35,"velocity":90,"startTime":60.97930450000001,"endTime":61.11208244375001,"instrument":5,"program":48,"isDrum":true},{"pitch":38,"velocity":90,"startTime":61.112638000000004,"endTime":61.245415943750004,"instrument":5,"program":48,"isDrum":true},{"pitch":40,"velocity":90,"startTime":61.112638000000004,"endTime":61.245415943750004,"instrument":5,"program":48,"isDrum":true},{"pitch":33,"velocity":90,"startTime":61.112638000000004,"endTime":61.245415943750004,"instrument":5,"program":48,"isDrum":true},{"pitch":35,"velocity":90,"startTime":61.112638000000004,"endTime":61.245415943750004,"instrument":5,"program":48,"isDrum":true},{"pitch":38,"velocity":90,"startTime":61.24597150000001,"endTime":61.37874944375001,"instrument":5,"program":48,"isDrum":true},{"pitch":40,"velocity":90,"startTime":61.24597150000001,"endTime":61.37874944375001,"instrument":5,"program":48,"isDrum":true},{"pitch":33,"velocity":90,"startTime":61.24597150000001,"endTime":61.37874944375001,"instrument":5,"program":48,"isDrum":true},{"pitch":35,"velocity":90,"startTime":61.24597150000001,"endTime":61.37874944375001,"instrument":5,"program":48,"isDrum":true},{"pitch":38,"velocity":90,"startTime":61.37930500000001,"endTime":61.64541644375001,"instrument":5,"program":48,"isDrum":true},{"pitch":40,"velocity":90,"startTime":61.37930500000001,"endTime":61.64541644375001,"instrument":5,"program":48,"isDrum":true},{"pitch":59,"velocity":90,"startTime":61.37930500000001,"endTime":61.64541644375001,"instrument":5,"program":48,"isDrum":true},{"pitch":33,"velocity":90,"startTime":61.37930500000001,"endTime":61.64541644375001,"instrument":5,"program":48,"isDrum":true},{"pitch":57,"velocity":90,"startTime":61.37930500000001,"endTime":61.64541644375001,"instrument":5,"program":48,"isDrum":true},{"pitch":35,"velocity":90,"startTime":61.37930500000001,"endTime":61.64541644375001,"instrument":5,"program":48,"isDrum":true},{"pitch":38,"velocity":90,"startTime":61.77930550000001,"endTime":61.91208344375001,"instrument":5,"program":48,"isDrum":true},{"pitch":40,"velocity":90,"startTime":61.77930550000001,"endTime":61.91208344375001,"instrument":5,"program":48,"isDrum":true},{"pitch":33,"velocity":90,"startTime":61.77930550000001,"endTime":61.91208344375001,"instrument":5,"program":48,"isDrum":true},{"pitch":35,"velocity":90,"startTime":61.77930550000001,"endTime":61.91208344375001,"instrument":5,"program":48,"isDrum":true},{"pitch":38,"velocity":90,"startTime":61.912639000000006,"endTime":62.04541694375001,"instrument":5,"program":48,"isDrum":true},{"pitch":40,"velocity":90,"startTime":61.912639000000006,"endTime":62.04541694375001,"instrument":5,"program":48,"isDrum":true},{"pitch":33,"velocity":90,"startTime":61.912639000000006,"endTime":62.04541694375001,"instrument":5,"program":48,"isDrum":true},{"pitch":35,"velocity":90,"startTime":61.912639000000006,"endTime":62.04541694375001,"instrument":5,"program":48,"isDrum":true},{"pitch":38,"velocity":90,"startTime":62.045972500000005,"endTime":62.178750443750005,"instrument":5,"program":48,"isDrum":true},{"pitch":40,"velocity":90,"startTime":62.045972500000005,"endTime":62.178750443750005,"instrument":5,"program":48,"isDrum":true},{"pitch":33,"velocity":90,"startTime":62.045972500000005,"endTime":62.178750443750005,"instrument":5,"program":48,"isDrum":true},{"pitch":35,"velocity":90,"startTime":62.045972500000005,"endTime":62.178750443750005,"instrument":5,"program":48,"isDrum":true},{"pitch":38,"velocity":90,"startTime":62.17930600000001,"endTime":62.44541744375,"instrument":5,"program":48,"isDrum":true},{"pitch":40,"velocity":90,"startTime":62.17930600000001,"endTime":62.44541744375,"instrument":5,"program":48,"isDrum":true},{"pitch":59,"velocity":90,"startTime":62.17930600000001,"endTime":62.44541744375,"instrument":5,"program":48,"isDrum":true},{"pitch":33,"velocity":90,"startTime":62.17930600000001,"endTime":62.44541744375,"instrument":5,"program":48,"isDrum":true},{"pitch":57,"velocity":90,"startTime":62.17930600000001,"endTime":62.44541744375,"instrument":5,"program":48,"isDrum":true},{"pitch":35,"velocity":90,"startTime":62.17930600000001,"endTime":62.44541744375,"instrument":5,"program":48,"isDrum":true},{"pitch":38,"velocity":90,"startTime":62.44597300000001,"endTime":62.71208444375001,"instrument":5,"program":48,"isDrum":true},{"pitch":40,"velocity":90,"startTime":62.44597300000001,"endTime":62.71208444375001,"instrument":5,"program":48,"isDrum":true},{"pitch":59,"velocity":90,"startTime":62.44597300000001,"endTime":62.71208444375001,"instrument":5,"program":48,"isDrum":true},{"pitch":33,"velocity":90,"startTime":62.44597300000001,"endTime":62.71208444375001,"instrument":5,"program":48,"isDrum":true},{"pitch":57,"velocity":90,"startTime":62.44597300000001,"endTime":62.71208444375001,"instrument":5,"program":48,"isDrum":true},{"pitch":35,"velocity":90,"startTime":62.44597300000001,"endTime":62.71208444375001,"instrument":5,"program":48,"isDrum":true},{"pitch":38,"velocity":90,"startTime":62.71264000000001,"endTime":62.978751443750006,"instrument":5,"program":48,"isDrum":true},{"pitch":40,"velocity":90,"startTime":62.71264000000001,"endTime":62.978751443750006,"instrument":5,"program":48,"isDrum":true},{"pitch":59,"velocity":90,"startTime":62.71264000000001,"endTime":62.978751443750006,"instrument":5,"program":48,"isDrum":true},{"pitch":33,"velocity":90,"startTime":62.71264000000001,"endTime":62.978751443750006,"instrument":5,"program":48,"isDrum":true},{"pitch":57,"velocity":90,"startTime":62.71264000000001,"endTime":62.978751443750006,"instrument":5,"program":48,"isDrum":true},{"pitch":35,"velocity":90,"startTime":62.71264000000001,"endTime":62.978751443750006,"instrument":5,"program":48,"isDrum":true},{"pitch":38,"velocity":90,"startTime":62.979307000000006,"endTime":63.112084943750006,"instrument":5,"program":48,"isDrum":true},{"pitch":40,"velocity":90,"startTime":62.979307000000006,"endTime":63.112084943750006,"instrument":5,"program":48,"isDrum":true},{"pitch":59,"velocity":90,"startTime":62.979307000000006,"endTime":63.112084943750006,"instrument":5,"program":48,"isDrum":true},{"pitch":33,"velocity":90,"startTime":62.979307000000006,"endTime":63.112084943750006,"instrument":5,"program":48,"isDrum":true},{"pitch":57,"velocity":90,"startTime":62.979307000000006,"endTime":63.112084943750006,"instrument":5,"program":48,"isDrum":true},{"pitch":35,"velocity":90,"startTime":62.979307000000006,"endTime":63.24541844375001,"instrument":5,"program":48,"isDrum":true},{"pitch":59,"velocity":90,"startTime":63.11264050000001,"endTime":63.24541844375001,"instrument":5,"program":48,"isDrum":true},{"pitch":57,"velocity":90,"startTime":63.11264050000001,"endTime":63.24541844375001,"instrument":5,"program":48,"isDrum":true},{"pitch":38,"velocity":90,"startTime":63.37930750000001,"endTime":63.51208544375001,"instrument":5,"program":48,"isDrum":true},{"pitch":40,"velocity":90,"startTime":63.37930750000001,"endTime":63.51208544375001,"instrument":5,"program":48,"isDrum":true},{"pitch":33,"velocity":90,"startTime":63.37930750000001,"endTime":63.51208544375001,"instrument":5,"program":48,"isDrum":true},{"pitch":35,"velocity":90,"startTime":63.37930750000001,"endTime":63.51208544375001,"instrument":5,"program":48,"isDrum":true},{"pitch":38,"velocity":90,"startTime":63.51264100000001,"endTime":63.64541894375001,"instrument":5,"program":48,"isDrum":true},{"pitch":40,"velocity":90,"startTime":63.51264100000001,"endTime":63.64541894375001,"instrument":5,"program":48,"isDrum":true},{"pitch":33,"velocity":90,"startTime":63.51264100000001,"endTime":63.64541894375001,"instrument":5,"program":48,"isDrum":true},{"pitch":35,"velocity":90,"startTime":63.51264100000001,"endTime":63.64541894375001,"instrument":5,"program":48,"isDrum":true},{"pitch":38,"velocity":90,"startTime":63.64597450000001,"endTime":63.77875244375001,"instrument":5,"program":48,"isDrum":true},{"pitch":40,"velocity":90,"startTime":63.64597450000001,"endTime":63.77875244375001,"instrument":5,"program":48,"isDrum":true},{"pitch":33,"velocity":90,"startTime":63.64597450000001,"endTime":63.77875244375001,"instrument":5,"program":48,"isDrum":true},{"pitch":35,"velocity":90,"startTime":63.64597450000001,"endTime":63.77875244375001,"instrument":5,"program":48,"isDrum":true},{"pitch":38,"velocity":90,"startTime":63.77930800000001,"endTime":64.04541944375,"instrument":5,"program":48,"isDrum":true},{"pitch":40,"velocity":90,"startTime":63.77930800000001,"endTime":64.04541944375,"instrument":5,"program":48,"isDrum":true},{"pitch":59,"velocity":90,"startTime":63.77930800000001,"endTime":64.04541944375,"instrument":5,"program":48,"isDrum":true},{"pitch":33,"velocity":90,"startTime":63.77930800000001,"endTime":64.04541944375,"instrument":5,"program":48,"isDrum":true},{"pitch":57,"velocity":90,"startTime":63.77930800000001,"endTime":64.04541944375,"instrument":5,"program":48,"isDrum":true},{"pitch":35,"velocity":90,"startTime":63.77930800000001,"endTime":64.04541944375,"instrument":5,"program":48,"isDrum":true},{"pitch":38,"velocity":90,"startTime":64.1793085,"endTime":64.31208644375,"instrument":5,"program":48,"isDrum":true},{"pitch":40,"velocity":90,"startTime":64.1793085,"endTime":64.31208644375,"instrument":5,"program":48,"isDrum":true},{"pitch":33,"velocity":90,"startTime":64.1793085,"endTime":64.31208644375,"instrument":5,"program":48,"isDrum":true},{"pitch":35,"velocity":90,"startTime":64.1793085,"endTime":64.31208644375,"instrument":5,"program":48,"isDrum":true},{"pitch":38,"velocity":90,"startTime":64.31264200000001,"endTime":64.44541994375001,"instrument":5,"program":48,"isDrum":true},{"pitch":40,"velocity":90,"startTime":64.31264200000001,"endTime":64.44541994375001,"instrument":5,"program":48,"isDrum":true},{"pitch":33,"velocity":90,"startTime":64.31264200000001,"endTime":64.44541994375001,"instrument":5,"program":48,"isDrum":true},{"pitch":35,"velocity":90,"startTime":64.31264200000001,"endTime":64.44541994375001,"instrument":5,"program":48,"isDrum":true},{"pitch":38,"velocity":90,"startTime":64.4459755,"endTime":64.57875344375,"instrument":5,"program":48,"isDrum":true},{"pitch":40,"velocity":90,"startTime":64.4459755,"endTime":64.57875344375,"instrument":5,"program":48,"isDrum":true},{"pitch":33,"velocity":90,"startTime":64.4459755,"endTime":64.57875344375,"instrument":5,"program":48,"isDrum":true},{"pitch":35,"velocity":90,"startTime":64.4459755,"endTime":64.57875344375,"instrument":5,"program":48,"isDrum":true},{"pitch":38,"velocity":90,"startTime":64.57930900000001,"endTime":64.84542044375002,"instrument":5,"program":48,"isDrum":true},{"pitch":40,"velocity":90,"startTime":64.57930900000001,"endTime":64.84542044375002,"instrument":5,"program":48,"isDrum":true},{"pitch":59,"velocity":90,"startTime":64.57930900000001,"endTime":64.84542044375002,"instrument":5,"program":48,"isDrum":true},{"pitch":33,"velocity":90,"startTime":64.57930900000001,"endTime":64.84542044375002,"instrument":5,"program":48,"isDrum":true},{"pitch":57,"velocity":90,"startTime":64.57930900000001,"endTime":64.84542044375002,"instrument":5,"program":48,"isDrum":true},{"pitch":35,"velocity":90,"startTime":64.57930900000001,"endTime":64.84542044375002,"instrument":5,"program":48,"isDrum":true},{"pitch":38,"velocity":90,"startTime":64.9793095,"endTime":65.11208744375,"instrument":5,"program":48,"isDrum":true},{"pitch":40,"velocity":90,"startTime":64.9793095,"endTime":65.11208744375,"instrument":5,"program":48,"isDrum":true},{"pitch":33,"velocity":90,"startTime":64.9793095,"endTime":65.11208744375,"instrument":5,"program":48,"isDrum":true},{"pitch":35,"velocity":90,"startTime":64.9793095,"endTime":65.11208744375,"instrument":5,"program":48,"isDrum":true},{"pitch":38,"velocity":90,"startTime":65.112643,"endTime":65.24542094375,"instrument":5,"program":48,"isDrum":true},{"pitch":40,"velocity":90,"startTime":65.112643,"endTime":65.24542094375,"instrument":5,"program":48,"isDrum":true},{"pitch":33,"velocity":90,"startTime":65.112643,"endTime":65.24542094375,"instrument":5,"program":48,"isDrum":true},{"pitch":35,"velocity":90,"startTime":65.112643,"endTime":65.24542094375,"instrument":5,"program":48,"isDrum":true},{"pitch":38,"velocity":90,"startTime":65.24597650000001,"endTime":65.37875444375001,"instrument":5,"program":48,"isDrum":true},{"pitch":40,"velocity":90,"startTime":65.24597650000001,"endTime":65.37875444375001,"instrument":5,"program":48,"isDrum":true},{"pitch":33,"velocity":90,"startTime":65.24597650000001,"endTime":65.37875444375001,"instrument":5,"program":48,"isDrum":true},{"pitch":35,"velocity":90,"startTime":65.24597650000001,"endTime":65.37875444375001,"instrument":5,"program":48,"isDrum":true},{"pitch":38,"velocity":90,"startTime":65.37931,"endTime":65.64542144375001,"instrument":5,"program":48,"isDrum":true},{"pitch":40,"velocity":90,"startTime":65.37931,"endTime":65.64542144375001,"instrument":5,"program":48,"isDrum":true},{"pitch":59,"velocity":90,"startTime":65.37931,"endTime":65.64542144375001,"instrument":5,"program":48,"isDrum":true},{"pitch":33,"velocity":90,"startTime":65.37931,"endTime":65.64542144375001,"instrument":5,"program":48,"isDrum":true},{"pitch":57,"velocity":90,"startTime":65.37931,"endTime":65.64542144375001,"instrument":5,"program":48,"isDrum":true},{"pitch":35,"velocity":90,"startTime":65.37931,"endTime":65.64542144375001,"instrument":5,"program":48,"isDrum":true},{"pitch":38,"velocity":90,"startTime":65.64597700000002,"endTime":65.91208844375001,"instrument":5,"program":48,"isDrum":true},{"pitch":40,"velocity":90,"startTime":65.64597700000002,"endTime":65.91208844375001,"instrument":5,"program":48,"isDrum":true},{"pitch":59,"velocity":90,"startTime":65.64597700000002,"endTime":65.91208844375001,"instrument":5,"program":48,"isDrum":true},{"pitch":33,"velocity":90,"startTime":65.64597700000002,"endTime":65.91208844375001,"instrument":5,"program":48,"isDrum":true},{"pitch":57,"velocity":90,"startTime":65.64597700000002,"endTime":65.91208844375001,"instrument":5,"program":48,"isDrum":true},{"pitch":35,"velocity":90,"startTime":65.64597700000002,"endTime":65.91208844375001,"instrument":5,"program":48,"isDrum":true},{"pitch":38,"velocity":90,"startTime":65.912644,"endTime":66.17875544375,"instrument":5,"program":48,"isDrum":true},{"pitch":40,"velocity":90,"startTime":65.912644,"endTime":66.17875544375,"instrument":5,"program":48,"isDrum":true},{"pitch":59,"velocity":90,"startTime":65.912644,"endTime":66.17875544375,"instrument":5,"program":48,"isDrum":true},{"pitch":33,"velocity":90,"startTime":65.912644,"endTime":66.17875544375,"instrument":5,"program":48,"isDrum":true},{"pitch":57,"velocity":90,"startTime":65.912644,"endTime":66.17875544375,"instrument":5,"program":48,"isDrum":true},{"pitch":35,"velocity":90,"startTime":65.912644,"endTime":66.17875544375,"instrument":5,"program":48,"isDrum":true},{"pitch":38,"velocity":90,"startTime":66.17931100000001,"endTime":66.44542244375,"instrument":5,"program":48,"isDrum":true},{"pitch":40,"velocity":90,"startTime":66.17931100000001,"endTime":66.44542244375,"instrument":5,"program":48,"isDrum":true},{"pitch":59,"velocity":90,"startTime":66.17931100000001,"endTime":66.44542244375,"instrument":5,"program":48,"isDrum":true},{"pitch":33,"velocity":90,"startTime":66.17931100000001,"endTime":66.44542244375,"instrument":5,"program":48,"isDrum":true},{"pitch":57,"velocity":90,"startTime":66.17931100000001,"endTime":66.44542244375,"instrument":5,"program":48,"isDrum":true},{"pitch":35,"velocity":90,"startTime":66.17931100000001,"endTime":66.44542244375,"instrument":5,"program":48,"isDrum":true},{"pitch":38,"velocity":128,"startTime":4.655169000000001,"endTime":5.429952914583334,"instrument":6,"program":47,"isDrum":false},{"pitch":38,"velocity":128,"startTime":5.4310305,"endTime":6.205814414583334,"instrument":6,"program":47,"isDrum":false},{"pitch":38,"velocity":128,"startTime":6.206892000000001,"endTime":6.9816759145833345,"instrument":6,"program":47,"isDrum":false},{"pitch":38,"velocity":128,"startTime":6.982753500000001,"endTime":7.369606664583334,"instrument":6,"program":47,"isDrum":false},{"pitch":38,"velocity":128,"startTime":7.370684250000001,"endTime":7.757537414583334,"instrument":6,"program":47,"isDrum":false},{"pitch":38,"velocity":128,"startTime":8.5344765,"endTime":9.309260414583333,"instrument":6,"program":47,"isDrum":false},{"pitch":38,"velocity":128,"startTime":9.310338000000002,"endTime":10.085121914583334,"instrument":6,"program":47,"isDrum":false},{"pitch":38,"velocity":128,"startTime":10.086199500000001,"endTime":10.602362914583333,"instrument":6,"program":47,"isDrum":false},{"pitch":38,"velocity":128,"startTime":10.603440500000001,"endTime":10.731673164583334,"instrument":6,"program":47,"isDrum":false},{"pitch":38,"velocity":128,"startTime":10.732750750000001,"endTime":10.860983414583334,"instrument":6,"program":47,"isDrum":false},{"pitch":38,"velocity":128,"startTime":10.862061,"endTime":11.636844914583333,"instrument":6,"program":47,"isDrum":false},{"pitch":38,"velocity":128,"startTime":11.637922500000002,"endTime":12.412706414583335,"instrument":6,"program":47,"isDrum":false},{"pitch":38,"velocity":128,"startTime":12.413784000000001,"endTime":13.188567914583334,"instrument":6,"program":47,"isDrum":false},{"pitch":38,"velocity":128,"startTime":13.189645500000001,"endTime":13.576498664583335,"instrument":6,"program":47,"isDrum":false},{"pitch":38,"velocity":128,"startTime":13.577576250000002,"endTime":13.964429414583334,"instrument":6,"program":47,"isDrum":false},{"pitch":38,"velocity":128,"startTime":14.741368500000002,"endTime":15.516152414583335,"instrument":6,"program":47,"isDrum":false},{"pitch":38,"velocity":128,"startTime":15.517230000000001,"endTime":16.292013914583336,"instrument":6,"program":47,"isDrum":false},{"pitch":38,"velocity":128,"startTime":16.293091500000003,"endTime":16.679944664583335,"instrument":6,"program":47,"isDrum":false},{"pitch":38,"velocity":128,"startTime":16.68102225,"endTime":16.809254914583338,"instrument":6,"program":47,"isDrum":false},{"pitch":38,"velocity":128,"startTime":16.8103325,"endTime":16.938565164583338,"instrument":6,"program":47,"isDrum":false},{"pitch":38,"velocity":128,"startTime":16.93964275,"endTime":17.067875414583337,"instrument":6,"program":47,"isDrum":false},{"pitch":38,"velocity":128,"startTime":17.068953,"endTime":17.843736914583335,"instrument":6,"program":47,"isDrum":false},{"pitch":38,"velocity":128,"startTime":17.844814500000002,"endTime":18.619598414583336,"instrument":6,"program":47,"isDrum":false},{"pitch":38,"velocity":128,"startTime":18.620676000000003,"endTime":19.395459914583338,"instrument":6,"program":47,"isDrum":false},{"pitch":38,"velocity":128,"startTime":19.3965375,"endTime":19.783390664583337,"instrument":6,"program":47,"isDrum":false},{"pitch":38,"velocity":128,"startTime":19.784468250000003,"endTime":20.171321414583335,"instrument":6,"program":47,"isDrum":false},{"pitch":38,"velocity":128,"startTime":20.948260500000004,"endTime":21.723044414583338,"instrument":6,"program":47,"isDrum":false},{"pitch":38,"velocity":128,"startTime":21.724122,"endTime":22.498905914583336,"instrument":6,"program":47,"isDrum":false},{"pitch":38,"velocity":128,"startTime":22.499983500000003,"endTime":23.016146914583338,"instrument":6,"program":47,"isDrum":false},{"pitch":38,"velocity":128,"startTime":23.0172245,"endTime":23.145457164583338,"instrument":6,"program":47,"isDrum":false},{"pitch":38,"velocity":128,"startTime":23.146534750000004,"endTime":23.274767414583337,"instrument":6,"program":47,"isDrum":false},{"pitch":38,"velocity":128,"startTime":23.275845000000004,"endTime":24.05062891458334,"instrument":6,"program":47,"isDrum":false},{"pitch":38,"velocity":128,"startTime":24.0517065,"endTime":24.826490414583336,"instrument":6,"program":47,"isDrum":false},{"pitch":38,"velocity":128,"startTime":24.827568000000003,"endTime":25.602351914583338,"instrument":6,"program":47,"isDrum":false},{"pitch":38,"velocity":128,"startTime":25.603429500000004,"endTime":25.990282664583336,"instrument":6,"program":47,"isDrum":false},{"pitch":38,"velocity":128,"startTime":25.991360250000003,"endTime":26.37821341458334,"instrument":6,"program":47,"isDrum":false},{"pitch":38,"velocity":128,"startTime":27.155152500000003,"endTime":27.929936414583338,"instrument":6,"program":47,"isDrum":false},{"pitch":38,"velocity":128,"startTime":27.931014000000005,"endTime":28.70579791458334,"instrument":6,"program":47,"isDrum":false},{"pitch":38,"velocity":128,"startTime":28.706875500000002,"endTime":29.093728664583338,"instrument":6,"program":47,"isDrum":false},{"pitch":38,"velocity":128,"startTime":29.094806250000005,"endTime":29.223038914583338,"instrument":6,"program":47,"isDrum":false},{"pitch":38,"velocity":128,"startTime":29.224116500000004,"endTime":29.352349164583337,"instrument":6,"program":47,"isDrum":false},{"pitch":38,"velocity":128,"startTime":29.353426750000004,"endTime":29.481659414583337,"instrument":6,"program":47,"isDrum":false},{"pitch":38,"velocity":128,"startTime":29.482737000000004,"endTime":29.610969664583337,"instrument":6,"program":47,"isDrum":false},{"pitch":38,"velocity":128,"startTime":29.741357500000003,"endTime":29.86959016458334,"instrument":6,"program":47,"isDrum":false},{"pitch":38,"velocity":128,"startTime":29.999978000000002,"endTime":30.12821066458334,"instrument":6,"program":47,"isDrum":false},{"pitch":29,"velocity":128,"startTime":30.258598500000005,"endTime":31.03338241458334,"instrument":6,"program":47,"isDrum":false},{"pitch":38,"velocity":128,"startTime":30.258598500000005,"endTime":31.03338241458334,"instrument":6,"program":47,"isDrum":false},{"pitch":38,"velocity":128,"startTime":31.422390750000005,"endTime":31.550623414583338,"instrument":6,"program":47,"isDrum":false},{"pitch":38,"velocity":128,"startTime":31.551701000000005,"endTime":31.679933664583338,"instrument":6,"program":47,"isDrum":false},{"pitch":38,"velocity":128,"startTime":31.681011250000005,"endTime":31.809243914583337,"instrument":6,"program":47,"isDrum":false},{"pitch":29,"velocity":128,"startTime":31.810321500000004,"endTime":32.58510541458334,"instrument":6,"program":47,"isDrum":false},{"pitch":38,"velocity":128,"startTime":31.810321500000004,"endTime":32.58510541458334,"instrument":6,"program":47,"isDrum":false},{"pitch":38,"velocity":128,"startTime":32.97411375,"endTime":33.10234641458334,"instrument":6,"program":47,"isDrum":false},{"pitch":38,"velocity":128,"startTime":33.103424000000004,"endTime":33.23165666458334,"instrument":6,"program":47,"isDrum":false},{"pitch":38,"velocity":128,"startTime":33.23273425000001,"endTime":33.36096691458334,"instrument":6,"program":47,"isDrum":false},{"pitch":29,"velocity":128,"startTime":33.3620445,"endTime":34.13682841458334,"instrument":6,"program":47,"isDrum":false},{"pitch":38,"velocity":128,"startTime":33.3620445,"endTime":34.13682841458334,"instrument":6,"program":47,"isDrum":false},{"pitch":38,"velocity":128,"startTime":34.137906,"endTime":34.91268991458334,"instrument":6,"program":47,"isDrum":false},{"pitch":29,"velocity":128,"startTime":35.04307775,"endTime":35.68855141458334,"instrument":6,"program":47,"isDrum":false},{"pitch":38,"velocity":128,"startTime":35.04307775,"endTime":35.68855141458334,"instrument":6,"program":47,"isDrum":false},{"pitch":38,"velocity":128,"startTime":36.20687,"endTime":36.33510266458334,"instrument":6,"program":47,"isDrum":false},{"pitch":38,"velocity":128,"startTime":36.336180250000005,"endTime":36.46441291458334,"instrument":6,"program":47,"isDrum":false},{"pitch":38,"velocity":128,"startTime":36.4654905,"endTime":36.59372316458334,"instrument":6,"program":47,"isDrum":false},{"pitch":38,"velocity":128,"startTime":36.594800750000005,"endTime":37.24027441458334,"instrument":6,"program":47,"isDrum":false},{"pitch":29,"velocity":128,"startTime":36.594800750000005,"endTime":36.85234366458334,"instrument":6,"program":47,"isDrum":false},{"pitch":29,"velocity":128,"startTime":36.98273150000001,"endTime":37.75751541458334,"instrument":6,"program":47,"isDrum":false},{"pitch":38,"velocity":128,"startTime":37.37066225,"endTime":38.01613591458334,"instrument":6,"program":47,"isDrum":false},{"pitch":29,"velocity":128,"startTime":37.758593000000005,"endTime":38.533376914583336,"instrument":6,"program":47,"isDrum":false},{"pitch":38,"velocity":128,"startTime":38.14652375000001,"endTime":38.79199741458334,"instrument":6,"program":47,"isDrum":false},{"pitch":29,"velocity":128,"startTime":38.5344545,"endTime":39.30923841458334,"instrument":6,"program":47,"isDrum":false},{"pitch":38,"velocity":128,"startTime":38.922385250000005,"endTime":39.56785891458334,"instrument":6,"program":47,"isDrum":false},{"pitch":29,"velocity":128,"startTime":39.31031600000001,"endTime":39.50320378958334,"instrument":6,"program":47,"isDrum":false},{"pitch":29,"velocity":128,"startTime":39.69824675,"endTime":39.82647941458334,"instrument":6,"program":47,"isDrum":false},{"pitch":38,"velocity":128,"startTime":39.69824675,"endTime":39.82647941458334,"instrument":6,"program":47,"isDrum":false},{"pitch":29,"velocity":128,"startTime":39.95686725,"endTime":40.08509991458334,"instrument":6,"program":47,"isDrum":false},{"pitch":38,"velocity":128,"startTime":39.95686725,"endTime":40.08509991458334,"instrument":6,"program":47,"isDrum":false},{"pitch":29,"velocity":128,"startTime":40.21548775000001,"endTime":40.34372041458334,"instrument":6,"program":47,"isDrum":false},{"pitch":38,"velocity":128,"startTime":40.21548775000001,"endTime":40.34372041458334,"instrument":6,"program":47,"isDrum":false},{"pitch":29,"velocity":128,"startTime":40.47410825000001,"endTime":41.37820241458334,"instrument":6,"program":47,"isDrum":false},{"pitch":38,"velocity":128,"startTime":40.47410825000001,"endTime":41.37820241458334,"instrument":6,"program":47,"isDrum":false},{"pitch":33,"velocity":128,"startTime":53.7792955,"endTime":53.84540669375001,"instrument":6,"program":47,"isDrum":false},{"pitch":40,"velocity":128,"startTime":53.7792955,"endTime":53.84540669375001,"instrument":6,"program":47,"isDrum":false},{"pitch":33,"velocity":128,"startTime":53.91262900000001,"endTime":53.978740193750006,"instrument":6,"program":47,"isDrum":false},{"pitch":40,"velocity":128,"startTime":53.91262900000001,"endTime":53.978740193750006,"instrument":6,"program":47,"isDrum":false},{"pitch":33,"velocity":128,"startTime":54.04596250000001,"endTime":54.112073693750006,"instrument":6,"program":47,"isDrum":false},{"pitch":40,"velocity":128,"startTime":54.04596250000001,"endTime":54.112073693750006,"instrument":6,"program":47,"isDrum":false},{"pitch":33,"velocity":128,"startTime":54.17929600000001,"endTime":54.31207394375001,"instrument":6,"program":47,"isDrum":false},{"pitch":40,"velocity":128,"startTime":54.17929600000001,"endTime":54.31207394375001,"instrument":6,"program":47,"isDrum":false},{"pitch":33,"velocity":128,"startTime":54.97929700000001,"endTime":55.11207494375001,"instrument":6,"program":47,"isDrum":false},{"pitch":40,"velocity":128,"startTime":54.97929700000001,"endTime":55.11207494375001,"instrument":6,"program":47,"isDrum":false},{"pitch":33,"velocity":128,"startTime":55.77929800000001,"endTime":55.91207594375001,"instrument":6,"program":47,"isDrum":false},{"pitch":40,"velocity":128,"startTime":55.77929800000001,"endTime":55.91207594375001,"instrument":6,"program":47,"isDrum":false},{"pitch":33,"velocity":128,"startTime":56.04596500000001,"endTime":56.17874294375001,"instrument":6,"program":47,"isDrum":false},{"pitch":40,"velocity":128,"startTime":56.04596500000001,"endTime":56.17874294375001,"instrument":6,"program":47,"isDrum":false},{"pitch":33,"velocity":128,"startTime":56.31263200000001,"endTime":56.44540994375001,"instrument":6,"program":47,"isDrum":false},{"pitch":40,"velocity":128,"startTime":56.31263200000001,"endTime":56.44540994375001,"instrument":6,"program":47,"isDrum":false},{"pitch":33,"velocity":128,"startTime":56.579299000000006,"endTime":56.712076943750006,"instrument":6,"program":47,"isDrum":false},{"pitch":40,"velocity":128,"startTime":56.579299000000006,"endTime":56.712076943750006,"instrument":6,"program":47,"isDrum":false},{"pitch":33,"velocity":128,"startTime":57.37930000000001,"endTime":57.51207794375001,"instrument":6,"program":47,"isDrum":false},{"pitch":40,"velocity":128,"startTime":57.37930000000001,"endTime":57.51207794375001,"instrument":6,"program":47,"isDrum":false},{"pitch":33,"velocity":128,"startTime":58.17930100000001,"endTime":58.31207894375001,"instrument":6,"program":47,"isDrum":false},{"pitch":40,"velocity":128,"startTime":58.17930100000001,"endTime":58.31207894375001,"instrument":6,"program":47,"isDrum":false},{"pitch":33,"velocity":128,"startTime":58.979302000000004,"endTime":59.112079943750004,"instrument":6,"program":47,"isDrum":false},{"pitch":40,"velocity":128,"startTime":58.979302000000004,"endTime":59.112079943750004,"instrument":6,"program":47,"isDrum":false},{"pitch":33,"velocity":128,"startTime":59.24596900000001,"endTime":59.37874694375001,"instrument":6,"program":47,"isDrum":false},{"pitch":40,"velocity":128,"startTime":59.24596900000001,"endTime":59.37874694375001,"instrument":6,"program":47,"isDrum":false},{"pitch":33,"velocity":128,"startTime":59.51263600000001,"endTime":59.64541394375001,"instrument":6,"program":47,"isDrum":false},{"pitch":40,"velocity":128,"startTime":59.51263600000001,"endTime":59.64541394375001,"instrument":6,"program":47,"isDrum":false},{"pitch":33,"velocity":128,"startTime":59.779303000000006,"endTime":59.91208094375001,"instrument":6,"program":47,"isDrum":false},{"pitch":40,"velocity":128,"startTime":59.779303000000006,"endTime":59.91208094375001,"instrument":6,"program":47,"isDrum":false},{"pitch":33,"velocity":128,"startTime":60.57930400000001,"endTime":60.71208194375001,"instrument":6,"program":47,"isDrum":false},{"pitch":40,"velocity":128,"startTime":60.57930400000001,"endTime":60.71208194375001,"instrument":6,"program":47,"isDrum":false},{"pitch":33,"velocity":128,"startTime":61.37930500000001,"endTime":61.51208294375001,"instrument":6,"program":47,"isDrum":false},{"pitch":40,"velocity":128,"startTime":61.37930500000001,"endTime":61.51208294375001,"instrument":6,"program":47,"isDrum":false},{"pitch":33,"velocity":128,"startTime":62.17930600000001,"endTime":62.31208394375001,"instrument":6,"program":47,"isDrum":false},{"pitch":40,"velocity":128,"startTime":62.17930600000001,"endTime":62.31208394375001,"instrument":6,"program":47,"isDrum":false},{"pitch":33,"velocity":128,"startTime":62.44597300000001,"endTime":62.57875094375001,"instrument":6,"program":47,"isDrum":false},{"pitch":40,"velocity":128,"startTime":62.44597300000001,"endTime":62.57875094375001,"instrument":6,"program":47,"isDrum":false},{"pitch":33,"velocity":128,"startTime":62.71264000000001,"endTime":62.84541794375001,"instrument":6,"program":47,"isDrum":false},{"pitch":40,"velocity":128,"startTime":62.71264000000001,"endTime":62.84541794375001,"instrument":6,"program":47,"isDrum":false},{"pitch":33,"velocity":128,"startTime":62.979307000000006,"endTime":63.112084943750006,"instrument":6,"program":47,"isDrum":false},{"pitch":40,"velocity":128,"startTime":62.979307000000006,"endTime":63.112084943750006,"instrument":6,"program":47,"isDrum":false},{"pitch":33,"velocity":128,"startTime":63.77930800000001,"endTime":63.91208594375001,"instrument":6,"program":47,"isDrum":false},{"pitch":40,"velocity":128,"startTime":63.77930800000001,"endTime":63.91208594375001,"instrument":6,"program":47,"isDrum":false},{"pitch":33,"velocity":128,"startTime":64.57930900000001,"endTime":64.71208694375001,"instrument":6,"program":47,"isDrum":false},{"pitch":40,"velocity":128,"startTime":64.57930900000001,"endTime":64.71208694375001,"instrument":6,"program":47,"isDrum":false},{"pitch":33,"velocity":128,"startTime":65.37931,"endTime":65.51208794375,"instrument":6,"program":47,"isDrum":false},{"pitch":40,"velocity":128,"startTime":65.37931,"endTime":65.51208794375,"instrument":6,"program":47,"isDrum":false},{"pitch":33,"velocity":128,"startTime":65.64597700000002,"endTime":65.77875494375002,"instrument":6,"program":47,"isDrum":false},{"pitch":40,"velocity":128,"startTime":65.64597700000002,"endTime":65.77875494375002,"instrument":6,"program":47,"isDrum":false},{"pitch":33,"velocity":128,"startTime":65.912644,"endTime":66.04542194375,"instrument":6,"program":47,"isDrum":false},{"pitch":40,"velocity":128,"startTime":65.912644,"endTime":66.04542194375,"instrument":6,"program":47,"isDrum":false},{"pitch":33,"velocity":128,"startTime":66.17931100000001,"endTime":66.31208894375001,"instrument":6,"program":47,"isDrum":false},{"pitch":40,"velocity":128,"startTime":66.17931100000001,"endTime":66.31208894375001,"instrument":6,"program":47,"isDrum":false},{"pitch":33,"velocity":3,"startTime":66.64597825000001,"endTime":66.66208938125001,"instrument":6,"program":47,"isDrum":false},{"pitch":40,"velocity":3,"startTime":66.64597825000001,"endTime":66.66208938125001,"instrument":6,"program":47,"isDrum":false},{"pitch":33,"velocity":6,"startTime":66.67931162500001,"endTime":66.69542275625001,"instrument":6,"program":47,"isDrum":false},{"pitch":40,"velocity":6,"startTime":66.67931162500001,"endTime":66.69542275625001,"instrument":6,"program":47,"isDrum":false},{"pitch":33,"velocity":9,"startTime":66.71264500000001,"endTime":66.72875613125001,"instrument":6,"program":47,"isDrum":false},{"pitch":40,"velocity":9,"startTime":66.71264500000001,"endTime":66.72875613125001,"instrument":6,"program":47,"isDrum":false},{"pitch":33,"velocity":12,"startTime":66.745978375,"endTime":66.76208950625,"instrument":6,"program":47,"isDrum":false},{"pitch":40,"velocity":12,"startTime":66.745978375,"endTime":66.76208950625,"instrument":6,"program":47,"isDrum":false},{"pitch":33,"velocity":15,"startTime":66.77931175,"endTime":66.79542288125,"instrument":6,"program":47,"isDrum":false},{"pitch":40,"velocity":15,"startTime":66.77931175,"endTime":66.79542288125,"instrument":6,"program":47,"isDrum":false},{"pitch":33,"velocity":18,"startTime":66.812645125,"endTime":66.82875625625,"instrument":6,"program":47,"isDrum":false},{"pitch":40,"velocity":18,"startTime":66.812645125,"endTime":66.82875625625,"instrument":6,"program":47,"isDrum":false},{"pitch":33,"velocity":21,"startTime":66.8459785,"endTime":66.86208963125,"instrument":6,"program":47,"isDrum":false},{"pitch":40,"velocity":21,"startTime":66.8459785,"endTime":66.86208963125,"instrument":6,"program":47,"isDrum":false},{"pitch":33,"velocity":24,"startTime":66.87931187500001,"endTime":66.89542300625001,"instrument":6,"program":47,"isDrum":false},{"pitch":40,"velocity":24,"startTime":66.87931187500001,"endTime":66.89542300625001,"instrument":6,"program":47,"isDrum":false},{"pitch":33,"velocity":27,"startTime":66.91264525000001,"endTime":66.94542306875,"instrument":6,"program":47,"isDrum":false},{"pitch":40,"velocity":27,"startTime":66.91264525000001,"endTime":66.94542306875,"instrument":6,"program":47,"isDrum":false},{"pitch":50,"velocity":128,"startTime":4.396548500000001,"endTime":4.417022622916667,"instrument":7,"program":117,"isDrum":false},{"pitch":50,"velocity":128,"startTime":4.418100208333334,"endTime":4.524781164583334,"instrument":7,"program":117,"isDrum":false},{"pitch":38,"velocity":128,"startTime":4.52585875,"endTime":4.5463328729166665,"instrument":7,"program":117,"isDrum":false},{"pitch":38,"velocity":128,"startTime":4.547410458333333,"endTime":4.654091414583334,"instrument":7,"program":117,"isDrum":false},{"pitch":34,"velocity":128,"startTime":4.655169000000001,"endTime":4.675643122916667,"instrument":7,"program":117,"isDrum":false},{"pitch":34,"velocity":128,"startTime":4.676720708333334,"endTime":4.912711914583334,"instrument":7,"program":117,"isDrum":false},{"pitch":30,"velocity":128,"startTime":4.913789500000001,"endTime":4.934263622916667,"instrument":7,"program":117,"isDrum":false},{"pitch":30,"velocity":128,"startTime":4.935341208333334,"endTime":5.171332414583334,"instrument":7,"program":117,"isDrum":false},{"pitch":34,"velocity":128,"startTime":5.172410000000001,"endTime":5.192884122916667,"instrument":7,"program":117,"isDrum":false},{"pitch":34,"velocity":128,"startTime":5.193961708333334,"endTime":5.429952914583334,"instrument":7,"program":117,"isDrum":false},{"pitch":38,"velocity":128,"startTime":5.4310305,"endTime":5.4515046229166675,"instrument":7,"program":117,"isDrum":false},{"pitch":38,"velocity":128,"startTime":5.452582208333333,"endTime":5.688573414583334,"instrument":7,"program":117,"isDrum":false},{"pitch":38,"velocity":128,"startTime":5.948271500000001,"endTime":5.968745622916667,"instrument":7,"program":117,"isDrum":false},{"pitch":38,"velocity":128,"startTime":5.969823208333334,"endTime":6.076504164583334,"instrument":7,"program":117,"isDrum":false},{"pitch":38,"velocity":128,"startTime":6.077581750000001,"endTime":6.098055872916667,"instrument":7,"program":117,"isDrum":false},{"pitch":38,"velocity":128,"startTime":6.099133458333334,"endTime":6.205814414583334,"instrument":7,"program":117,"isDrum":false},{"pitch":36,"velocity":128,"startTime":6.206892000000001,"endTime":6.227366122916667,"instrument":7,"program":117,"isDrum":false},{"pitch":36,"velocity":128,"startTime":6.228443708333334,"endTime":6.464434914583334,"instrument":7,"program":117,"isDrum":false},{"pitch":30,"velocity":128,"startTime":6.465512500000001,"endTime":6.485986622916667,"instrument":7,"program":117,"isDrum":false},{"pitch":30,"velocity":128,"startTime":6.487064208333334,"endTime":6.723055414583334,"instrument":7,"program":117,"isDrum":false},{"pitch":50,"velocity":128,"startTime":7.370684250000001,"endTime":7.391158372916667,"instrument":7,"program":117,"isDrum":false},{"pitch":50,"velocity":128,"startTime":7.392235958333334,"endTime":7.498916914583334,"instrument":7,"program":117,"isDrum":false},{"pitch":45,"velocity":128,"startTime":7.499994500000001,"endTime":7.520468622916668,"instrument":7,"program":117,"isDrum":false},{"pitch":45,"velocity":128,"startTime":7.5215462083333335,"endTime":7.628227164583334,"instrument":7,"program":117,"isDrum":false},{"pitch":38,"velocity":128,"startTime":7.629304750000001,"endTime":7.649778872916667,"instrument":7,"program":117,"isDrum":false},{"pitch":38,"velocity":128,"startTime":7.650856458333334,"endTime":7.757537414583334,"instrument":7,"program":117,"isDrum":false},{"pitch":34,"velocity":128,"startTime":7.758615000000001,"endTime":7.779089122916667,"instrument":7,"program":117,"isDrum":false},{"pitch":34,"velocity":128,"startTime":7.780166708333334,"endTime":8.016157914583335,"instrument":7,"program":117,"isDrum":false},{"pitch":30,"velocity":128,"startTime":8.017235500000002,"endTime":8.037709622916667,"instrument":7,"program":117,"isDrum":false},{"pitch":30,"velocity":128,"startTime":8.038787208333334,"endTime":8.274778414583334,"instrument":7,"program":117,"isDrum":false},{"pitch":38,"velocity":128,"startTime":8.5344765,"endTime":8.554950622916667,"instrument":7,"program":117,"isDrum":false},{"pitch":38,"velocity":128,"startTime":8.556028208333334,"endTime":8.792019414583333,"instrument":7,"program":117,"isDrum":false},{"pitch":38,"velocity":128,"startTime":9.0517175,"endTime":9.072191622916668,"instrument":7,"program":117,"isDrum":false},{"pitch":38,"velocity":128,"startTime":9.073269208333334,"endTime":9.179950164583333,"instrument":7,"program":117,"isDrum":false},{"pitch":38,"velocity":128,"startTime":9.181027750000002,"endTime":9.201501872916667,"instrument":7,"program":117,"isDrum":false},{"pitch":38,"velocity":128,"startTime":9.202579458333336,"endTime":9.309260414583333,"instrument":7,"program":117,"isDrum":false},{"pitch":36,"velocity":128,"startTime":9.310338000000002,"endTime":9.330812122916667,"instrument":7,"program":117,"isDrum":false},{"pitch":36,"velocity":128,"startTime":9.331889708333335,"endTime":9.567880914583334,"instrument":7,"program":117,"isDrum":false},{"pitch":41,"velocity":128,"startTime":10.086199500000001,"endTime":10.106673622916668,"instrument":7,"program":117,"isDrum":false},{"pitch":41,"velocity":128,"startTime":10.107751208333335,"endTime":10.343742414583334,"instrument":7,"program":117,"isDrum":false},{"pitch":38,"velocity":128,"startTime":10.344820000000002,"endTime":10.365294122916668,"instrument":7,"program":117,"isDrum":false},{"pitch":38,"velocity":128,"startTime":10.366371708333336,"endTime":10.473052664583333,"instrument":7,"program":117,"isDrum":false},{"pitch":38,"velocity":128,"startTime":10.474130250000002,"endTime":10.494604372916667,"instrument":7,"program":117,"isDrum":false},{"pitch":38,"velocity":128,"startTime":10.495681958333336,"endTime":10.602362914583333,"instrument":7,"program":117,"isDrum":false},{"pitch":28,"velocity":128,"startTime":10.603440500000001,"endTime":10.623914622916669,"instrument":7,"program":117,"isDrum":false},{"pitch":28,"velocity":128,"startTime":10.624992208333335,"endTime":10.731673164583334,"instrument":7,"program":117,"isDrum":false},{"pitch":28,"velocity":128,"startTime":10.732750750000001,"endTime":10.753224872916668,"instrument":7,"program":117,"isDrum":false},{"pitch":28,"velocity":128,"startTime":10.754302458333335,"endTime":10.860983414583334,"instrument":7,"program":117,"isDrum":false},{"pitch":28,"velocity":128,"startTime":10.862061,"endTime":10.882535122916668,"instrument":7,"program":117,"isDrum":false},{"pitch":28,"velocity":128,"startTime":10.883612708333334,"endTime":11.119603914583333,"instrument":7,"program":117,"isDrum":false},{"pitch":28,"velocity":128,"startTime":11.120681500000002,"endTime":11.141155622916667,"instrument":7,"program":117,"isDrum":false},{"pitch":28,"velocity":128,"startTime":11.142233208333336,"endTime":11.248914164583335,"instrument":7,"program":117,"isDrum":false},{"pitch":28,"velocity":128,"startTime":11.249991750000001,"endTime":11.270465872916668,"instrument":7,"program":117,"isDrum":false},{"pitch":28,"velocity":128,"startTime":11.271543458333335,"endTime":11.378224414583334,"instrument":7,"program":117,"isDrum":false},{"pitch":41,"velocity":128,"startTime":12.155163500000002,"endTime":12.175637622916668,"instrument":7,"program":117,"isDrum":false},{"pitch":41,"velocity":128,"startTime":12.176715208333336,"endTime":12.283396164583333,"instrument":7,"program":117,"isDrum":false},{"pitch":41,"velocity":128,"startTime":12.284473750000002,"endTime":12.304947872916667,"instrument":7,"program":117,"isDrum":false},{"pitch":41,"velocity":128,"startTime":12.306025458333336,"endTime":12.412706414583335,"instrument":7,"program":117,"isDrum":false},{"pitch":34,"velocity":128,"startTime":12.413784000000001,"endTime":12.434258122916669,"instrument":7,"program":117,"isDrum":false},{"pitch":34,"velocity":128,"startTime":12.435335708333335,"endTime":12.671326914583334,"instrument":7,"program":117,"isDrum":false},{"pitch":29,"velocity":128,"startTime":12.6724045,"endTime":12.692878622916668,"instrument":7,"program":117,"isDrum":false},{"pitch":29,"velocity":128,"startTime":12.693956208333335,"endTime":12.929947414583333,"instrument":7,"program":117,"isDrum":false},{"pitch":28,"velocity":128,"startTime":13.189645500000001,"endTime":13.210119622916668,"instrument":7,"program":117,"isDrum":false},{"pitch":28,"velocity":128,"startTime":13.211197208333335,"endTime":13.447188414583334,"instrument":7,"program":117,"isDrum":false},{"pitch":28,"velocity":128,"startTime":13.448266000000002,"endTime":13.468740122916667,"instrument":7,"program":117,"isDrum":false},{"pitch":28,"velocity":128,"startTime":13.469817708333336,"endTime":13.576498664583335,"instrument":7,"program":117,"isDrum":false},{"pitch":28,"velocity":128,"startTime":13.577576250000002,"endTime":13.598050372916669,"instrument":7,"program":117,"isDrum":false},{"pitch":28,"velocity":128,"startTime":13.599127958333336,"endTime":13.705808914583335,"instrument":7,"program":117,"isDrum":false},{"pitch":28,"velocity":128,"startTime":13.836196750000001,"endTime":13.856670872916668,"instrument":7,"program":117,"isDrum":false},{"pitch":28,"velocity":128,"startTime":13.857748458333335,"endTime":13.964429414583334,"instrument":7,"program":117,"isDrum":false},{"pitch":28,"velocity":128,"startTime":13.965507000000002,"endTime":13.996756977083335,"instrument":7,"program":117,"isDrum":false},{"pitch":28,"velocity":128,"startTime":13.997834562500001,"endTime":14.093739664583333,"instrument":7,"program":117,"isDrum":false},{"pitch":28,"velocity":128,"startTime":14.224127500000002,"endTime":14.255377477083334,"instrument":7,"program":117,"isDrum":false},{"pitch":28,"velocity":128,"startTime":14.256455062500002,"endTime":14.352360164583335,"instrument":7,"program":117,"isDrum":false},{"pitch":33,"velocity":128,"startTime":14.482748,"endTime":14.513997977083335,"instrument":7,"program":117,"isDrum":false},{"pitch":33,"velocity":128,"startTime":14.515075562500002,"endTime":14.610980664583334,"instrument":7,"program":117,"isDrum":false},{"pitch":33,"velocity":128,"startTime":14.612058250000002,"endTime":14.643308227083335,"instrument":7,"program":117,"isDrum":false},{"pitch":33,"velocity":128,"startTime":14.644385812500001,"endTime":14.740290914583333,"instrument":7,"program":117,"isDrum":false},{"pitch":33,"velocity":128,"startTime":14.741368500000002,"endTime":14.772618477083334,"instrument":7,"program":117,"isDrum":false},{"pitch":33,"velocity":128,"startTime":14.773696062500001,"endTime":14.869601164583335,"instrument":7,"program":117,"isDrum":false},{"pitch":33,"velocity":128,"startTime":14.999989000000001,"endTime":15.020463122916668,"instrument":7,"program":117,"isDrum":false},{"pitch":33,"velocity":128,"startTime":15.021540708333335,"endTime":15.128221664583334,"instrument":7,"program":117,"isDrum":false},{"pitch":28,"velocity":128,"startTime":15.129299250000003,"endTime":15.149773372916668,"instrument":7,"program":117,"isDrum":false},{"pitch":28,"velocity":128,"startTime":15.150850958333336,"endTime":15.257531914583334,"instrument":7,"program":117,"isDrum":false},{"pitch":28,"velocity":128,"startTime":15.258609500000002,"endTime":15.289859477083334,"instrument":7,"program":117,"isDrum":false},{"pitch":28,"velocity":128,"startTime":15.290937062500001,"endTime":15.386842164583335,"instrument":7,"program":117,"isDrum":false},{"pitch":28,"velocity":128,"startTime":15.387919750000002,"endTime":15.408393872916669,"instrument":7,"program":117,"isDrum":false},{"pitch":28,"velocity":128,"startTime":15.409471458333336,"endTime":15.516152414583335,"instrument":7,"program":117,"isDrum":false},{"pitch":28,"velocity":128,"startTime":15.517230000000001,"endTime":15.548479977083334,"instrument":7,"program":117,"isDrum":false},{"pitch":28,"velocity":128,"startTime":15.549557562500002,"endTime":15.645462664583334,"instrument":7,"program":117,"isDrum":false},{"pitch":33,"velocity":128,"startTime":15.775850500000002,"endTime":15.796324622916668,"instrument":7,"program":117,"isDrum":false},{"pitch":33,"velocity":128,"startTime":15.797402208333336,"endTime":15.904083164583334,"instrument":7,"program":117,"isDrum":false},{"pitch":33,"velocity":128,"startTime":15.905160750000002,"endTime":15.925634872916667,"instrument":7,"program":117,"isDrum":false},{"pitch":33,"velocity":128,"startTime":15.926712458333336,"endTime":16.033393414583333,"instrument":7,"program":117,"isDrum":false},{"pitch":33,"velocity":128,"startTime":16.163781250000003,"endTime":16.184255372916667,"instrument":7,"program":117,"isDrum":false},{"pitch":33,"velocity":128,"startTime":16.185332958333337,"endTime":16.292013914583336,"instrument":7,"program":117,"isDrum":false},{"pitch":33,"velocity":128,"startTime":16.293091500000003,"endTime":16.328651818750004,"instrument":7,"program":117,"isDrum":false},{"pitch":33,"velocity":128,"startTime":16.329729404166667,"endTime":16.403005212500002,"instrument":7,"program":117,"isDrum":false},{"pitch":33,"velocity":128,"startTime":16.40408279791667,"endTime":16.43964311666667,"instrument":7,"program":117,"isDrum":false},{"pitch":33,"velocity":128,"startTime":16.440720702083336,"endTime":16.550634414583335,"instrument":7,"program":117,"isDrum":false},{"pitch":33,"velocity":128,"startTime":16.551712000000002,"endTime":16.57218612291667,"instrument":7,"program":117,"isDrum":false},{"pitch":33,"velocity":128,"startTime":16.573263708333336,"endTime":16.679944664583335,"instrument":7,"program":117,"isDrum":false},{"pitch":50,"velocity":128,"startTime":16.68102225,"endTime":16.70149637291667,"instrument":7,"program":117,"isDrum":false},{"pitch":57,"velocity":128,"startTime":16.68102225,"endTime":16.70149637291667,"instrument":7,"program":117,"isDrum":false},{"pitch":50,"velocity":128,"startTime":16.702573958333335,"endTime":16.809254914583338,"instrument":7,"program":117,"isDrum":false},{"pitch":57,"velocity":128,"startTime":16.702573958333335,"endTime":16.809254914583338,"instrument":7,"program":117,"isDrum":false},{"pitch":41,"velocity":128,"startTime":16.8103325,"endTime":16.841582477083335,"instrument":7,"program":117,"isDrum":false},{"pitch":45,"velocity":128,"startTime":16.8103325,"endTime":16.841582477083335,"instrument":7,"program":117,"isDrum":false},{"pitch":41,"velocity":128,"startTime":16.842660062500002,"endTime":16.938565164583338,"instrument":7,"program":117,"isDrum":false},{"pitch":45,"velocity":128,"startTime":16.842660062500002,"endTime":16.938565164583338,"instrument":7,"program":117,"isDrum":false},{"pitch":33,"velocity":128,"startTime":16.93964275,"endTime":16.960116872916668,"instrument":7,"program":117,"isDrum":false},{"pitch":38,"velocity":128,"startTime":16.93964275,"endTime":16.960116872916668,"instrument":7,"program":117,"isDrum":false},{"pitch":33,"velocity":128,"startTime":16.961194458333335,"endTime":17.067875414583337,"instrument":7,"program":117,"isDrum":false},{"pitch":38,"velocity":128,"startTime":16.961194458333335,"endTime":17.067875414583337,"instrument":7,"program":117,"isDrum":false},{"pitch":18,"velocity":128,"startTime":17.068953,"endTime":17.11097883125,"instrument":7,"program":117,"isDrum":false},{"pitch":30,"velocity":128,"startTime":17.068953,"endTime":17.11097883125,"instrument":7,"program":117,"isDrum":false},{"pitch":18,"velocity":128,"startTime":17.112056416666668,"endTime":17.197185664583337,"instrument":7,"program":117,"isDrum":false},{"pitch":30,"velocity":128,"startTime":17.112056416666668,"endTime":17.197185664583337,"instrument":7,"program":117,"isDrum":false},{"pitch":30,"velocity":128,"startTime":17.327573500000003,"endTime":17.36959933125,"instrument":7,"program":117,"isDrum":false},{"pitch":30,"velocity":128,"startTime":17.37067691666667,"endTime":17.455806164583336,"instrument":7,"program":117,"isDrum":false},{"pitch":30,"velocity":128,"startTime":17.456883750000003,"endTime":17.47735787291667,"instrument":7,"program":117,"isDrum":false},{"pitch":30,"velocity":128,"startTime":17.478435458333333,"endTime":17.585116414583336,"instrument":7,"program":117,"isDrum":false},{"pitch":30,"velocity":128,"startTime":17.586194000000003,"endTime":17.617443977083337,"instrument":7,"program":117,"isDrum":false},{"pitch":30,"velocity":128,"startTime":17.618521562500003,"endTime":17.714426664583335,"instrument":7,"program":117,"isDrum":false},{"pitch":36,"velocity":128,"startTime":17.844814500000002,"endTime":17.86528862291667,"instrument":7,"program":117,"isDrum":false},{"pitch":36,"velocity":128,"startTime":17.866366208333336,"endTime":17.973047164583335,"instrument":7,"program":117,"isDrum":false},{"pitch":36,"velocity":128,"startTime":17.97412475,"endTime":17.99459887291667,"instrument":7,"program":117,"isDrum":false},{"pitch":36,"velocity":128,"startTime":17.995676458333335,"endTime":18.102357414583338,"instrument":7,"program":117,"isDrum":false},{"pitch":36,"velocity":128,"startTime":18.103435,"endTime":18.134684977083335,"instrument":7,"program":117,"isDrum":false},{"pitch":36,"velocity":128,"startTime":18.135762562500002,"endTime":18.231667664583338,"instrument":7,"program":117,"isDrum":false},{"pitch":38,"velocity":128,"startTime":18.362055500000004,"endTime":18.393305477083338,"instrument":7,"program":117,"isDrum":false},{"pitch":38,"velocity":128,"startTime":18.3943830625,"endTime":18.490288164583337,"instrument":7,"program":117,"isDrum":false},{"pitch":38,"velocity":128,"startTime":18.491365750000003,"endTime":18.511839872916667,"instrument":7,"program":117,"isDrum":false},{"pitch":38,"velocity":128,"startTime":18.512917458333334,"endTime":18.619598414583336,"instrument":7,"program":117,"isDrum":false},{"pitch":24,"velocity":128,"startTime":18.620676000000003,"endTime":18.651925977083337,"instrument":7,"program":117,"isDrum":false},{"pitch":24,"velocity":128,"startTime":18.653003562500004,"endTime":18.748908664583336,"instrument":7,"program":117,"isDrum":false},{"pitch":24,"velocity":128,"startTime":18.879296500000002,"endTime":18.89977062291667,"instrument":7,"program":117,"isDrum":false},{"pitch":24,"velocity":128,"startTime":18.900848208333333,"endTime":19.007529164583335,"instrument":7,"program":117,"isDrum":false},{"pitch":24,"velocity":128,"startTime":19.008606750000002,"endTime":19.02908087291667,"instrument":7,"program":117,"isDrum":false},{"pitch":24,"velocity":128,"startTime":19.030158458333336,"endTime":19.136839414583335,"instrument":7,"program":117,"isDrum":false},{"pitch":24,"velocity":128,"startTime":19.137917,"endTime":19.169166977083336,"instrument":7,"program":117,"isDrum":false},{"pitch":24,"velocity":128,"startTime":19.170244562500002,"endTime":19.266149664583338,"instrument":7,"program":117,"isDrum":false},{"pitch":24,"velocity":128,"startTime":19.26722725,"endTime":19.298477227083335,"instrument":7,"program":117,"isDrum":false},{"pitch":24,"velocity":128,"startTime":19.299554812500002,"endTime":19.395459914583338,"instrument":7,"program":117,"isDrum":false},{"pitch":31,"velocity":128,"startTime":19.525847750000004,"endTime":19.557097727083338,"instrument":7,"program":117,"isDrum":false},{"pitch":31,"velocity":128,"startTime":19.5581753125,"endTime":19.654080414583337,"instrument":7,"program":117,"isDrum":false},{"pitch":31,"velocity":128,"startTime":19.655158000000004,"endTime":19.675632122916667,"instrument":7,"program":117,"isDrum":false},{"pitch":31,"velocity":128,"startTime":19.676709708333334,"endTime":19.783390664583337,"instrument":7,"program":117,"isDrum":false},{"pitch":31,"velocity":128,"startTime":19.784468250000003,"endTime":19.80494237291667,"instrument":7,"program":117,"isDrum":false},{"pitch":57,"velocity":128,"startTime":19.784468250000003,"endTime":19.80494237291667,"instrument":7,"program":117,"isDrum":false},{"pitch":31,"velocity":128,"startTime":19.806019958333334,"endTime":19.912700914583336,"instrument":7,"program":117,"isDrum":false},{"pitch":57,"velocity":128,"startTime":19.806019958333334,"endTime":19.912700914583336,"instrument":7,"program":117,"isDrum":false},{"pitch":50,"velocity":128,"startTime":19.913778500000003,"endTime":19.945028477083337,"instrument":7,"program":117,"isDrum":false},{"pitch":57,"velocity":128,"startTime":19.913778500000003,"endTime":19.945028477083337,"instrument":7,"program":117,"isDrum":false},{"pitch":50,"velocity":128,"startTime":19.946106062500004,"endTime":20.042011164583336,"instrument":7,"program":117,"isDrum":false},{"pitch":57,"velocity":128,"startTime":19.946106062500004,"endTime":20.042011164583336,"instrument":7,"program":117,"isDrum":false},{"pitch":38,"velocity":128,"startTime":20.043088750000003,"endTime":20.06356287291667,"instrument":7,"program":117,"isDrum":false},{"pitch":45,"velocity":128,"startTime":20.043088750000003,"endTime":20.06356287291667,"instrument":7,"program":117,"isDrum":false},{"pitch":38,"velocity":128,"startTime":20.064640458333333,"endTime":20.171321414583335,"instrument":7,"program":117,"isDrum":false},{"pitch":45,"velocity":128,"startTime":20.064640458333333,"endTime":20.171321414583335,"instrument":7,"program":117,"isDrum":false},{"pitch":24,"velocity":128,"startTime":20.172399000000002,"endTime":20.19287312291667,"instrument":7,"program":117,"isDrum":false},{"pitch":33,"velocity":128,"startTime":20.172399000000002,"endTime":20.19287312291667,"instrument":7,"program":117,"isDrum":false},{"pitch":24,"velocity":128,"startTime":20.193950708333336,"endTime":20.42994191458334,"instrument":7,"program":117,"isDrum":false},{"pitch":33,"velocity":128,"startTime":20.193950708333336,"endTime":20.42994191458334,"instrument":7,"program":117,"isDrum":false},{"pitch":33,"velocity":128,"startTime":20.4310195,"endTime":20.45149362291667,"instrument":7,"program":117,"isDrum":false},{"pitch":33,"velocity":128,"startTime":20.452571208333335,"endTime":20.559252164583338,"instrument":7,"program":117,"isDrum":false},{"pitch":33,"velocity":128,"startTime":20.56032975,"endTime":20.58080387291667,"instrument":7,"program":117,"isDrum":false},{"pitch":33,"velocity":128,"startTime":20.581881458333335,"endTime":20.688562414583338,"instrument":7,"program":117,"isDrum":false},{"pitch":33,"velocity":128,"startTime":20.689640000000004,"endTime":20.710114122916668,"instrument":7,"program":117,"isDrum":false},{"pitch":33,"velocity":128,"startTime":20.711191708333335,"endTime":20.947182914583337,"instrument":7,"program":117,"isDrum":false},{"pitch":40,"velocity":128,"startTime":20.948260500000004,"endTime":20.96873462291667,"instrument":7,"program":117,"isDrum":false},{"pitch":40,"velocity":128,"startTime":20.969812208333334,"endTime":21.076493164583336,"instrument":7,"program":117,"isDrum":false},{"pitch":40,"velocity":128,"startTime":21.077570750000003,"endTime":21.09804487291667,"instrument":7,"program":117,"isDrum":false},{"pitch":40,"velocity":128,"startTime":21.099122458333333,"endTime":21.205803414583336,"instrument":7,"program":117,"isDrum":false},{"pitch":40,"velocity":128,"startTime":21.336191250000002,"endTime":21.35666537291667,"instrument":7,"program":117,"isDrum":false},{"pitch":40,"velocity":128,"startTime":21.357742958333336,"endTime":21.464423914583335,"instrument":7,"program":117,"isDrum":false},{"pitch":40,"velocity":128,"startTime":21.465501500000002,"endTime":21.48597562291667,"instrument":7,"program":117,"isDrum":false},{"pitch":40,"velocity":128,"startTime":21.487053208333336,"endTime":21.723044414583338,"instrument":7,"program":117,"isDrum":false},{"pitch":28,"velocity":128,"startTime":21.724122,"endTime":21.755371977083335,"instrument":7,"program":117,"isDrum":false},{"pitch":28,"velocity":128,"startTime":21.756449562500002,"endTime":21.852354664583338,"instrument":7,"program":117,"isDrum":false},{"pitch":28,"velocity":128,"startTime":21.85343225,"endTime":21.88468222708334,"instrument":7,"program":117,"isDrum":false},{"pitch":28,"velocity":128,"startTime":21.8857598125,"endTime":21.981664914583337,"instrument":7,"program":117,"isDrum":false},{"pitch":28,"velocity":128,"startTime":21.982742500000004,"endTime":22.013992477083338,"instrument":7,"program":117,"isDrum":false},{"pitch":28,"velocity":128,"startTime":22.0150700625,"endTime":22.110975164583337,"instrument":7,"program":117,"isDrum":false},{"pitch":28,"velocity":128,"startTime":22.241363000000003,"endTime":22.26183712291667,"instrument":7,"program":117,"isDrum":false},{"pitch":28,"velocity":128,"startTime":22.262914708333334,"endTime":22.369595664583336,"instrument":7,"program":117,"isDrum":false},{"pitch":28,"velocity":128,"startTime":22.370673250000003,"endTime":22.39114737291667,"instrument":7,"program":117,"isDrum":false},{"pitch":28,"velocity":128,"startTime":22.392224958333333,"endTime":22.498905914583336,"instrument":7,"program":117,"isDrum":false},{"pitch":29,"velocity":128,"startTime":22.499983500000003,"endTime":22.531233477083337,"instrument":7,"program":117,"isDrum":false},{"pitch":29,"velocity":128,"startTime":22.532311062500003,"endTime":22.628216164583336,"instrument":7,"program":117,"isDrum":false},{"pitch":29,"velocity":128,"startTime":22.629293750000002,"endTime":22.660543727083336,"instrument":7,"program":117,"isDrum":false},{"pitch":29,"velocity":128,"startTime":22.661621312500003,"endTime":22.75752641458334,"instrument":7,"program":117,"isDrum":false},{"pitch":29,"velocity":128,"startTime":22.758604000000002,"endTime":22.789853977083336,"instrument":7,"program":117,"isDrum":false},{"pitch":50,"velocity":128,"startTime":22.758604000000002,"endTime":22.789853977083336,"instrument":7,"program":117,"isDrum":false},{"pitch":57,"velocity":128,"startTime":22.758604000000002,"endTime":22.789853977083336,"instrument":7,"program":117,"isDrum":false},{"pitch":29,"velocity":128,"startTime":22.790931562500003,"endTime":22.88683666458334,"instrument":7,"program":117,"isDrum":false},{"pitch":50,"velocity":128,"startTime":22.790931562500003,"endTime":22.88683666458334,"instrument":7,"program":117,"isDrum":false},{"pitch":57,"velocity":128,"startTime":22.790931562500003,"endTime":22.88683666458334,"instrument":7,"program":117,"isDrum":false},{"pitch":29,"velocity":128,"startTime":22.88791425,"endTime":22.919164227083336,"instrument":7,"program":117,"isDrum":false},{"pitch":50,"velocity":128,"startTime":22.88791425,"endTime":22.919164227083336,"instrument":7,"program":117,"isDrum":false},{"pitch":57,"velocity":128,"startTime":22.88791425,"endTime":22.919164227083336,"instrument":7,"program":117,"isDrum":false},{"pitch":29,"velocity":128,"startTime":22.920241812500002,"endTime":23.016146914583338,"instrument":7,"program":117,"isDrum":false},{"pitch":50,"velocity":128,"startTime":22.920241812500002,"endTime":23.016146914583338,"instrument":7,"program":117,"isDrum":false},{"pitch":57,"velocity":128,"startTime":22.920241812500002,"endTime":23.016146914583338,"instrument":7,"program":117,"isDrum":false},{"pitch":41,"velocity":128,"startTime":23.0172245,"endTime":23.04847447708334,"instrument":7,"program":117,"isDrum":false},{"pitch":45,"velocity":128,"startTime":23.0172245,"endTime":23.04847447708334,"instrument":7,"program":117,"isDrum":false},{"pitch":41,"velocity":128,"startTime":23.049552062500002,"endTime":23.145457164583338,"instrument":7,"program":117,"isDrum":false},{"pitch":45,"velocity":128,"startTime":23.049552062500002,"endTime":23.145457164583338,"instrument":7,"program":117,"isDrum":false},{"pitch":33,"velocity":128,"startTime":23.146534750000004,"endTime":23.167008872916668,"instrument":7,"program":117,"isDrum":false},{"pitch":38,"velocity":128,"startTime":23.146534750000004,"endTime":23.167008872916668,"instrument":7,"program":117,"isDrum":false},{"pitch":33,"velocity":128,"startTime":23.168086458333335,"endTime":23.274767414583337,"instrument":7,"program":117,"isDrum":false},{"pitch":38,"velocity":128,"startTime":23.168086458333335,"endTime":23.274767414583337,"instrument":7,"program":117,"isDrum":false},{"pitch":18,"velocity":128,"startTime":23.275845000000004,"endTime":23.296319122916668,"instrument":7,"program":117,"isDrum":false},{"pitch":29,"velocity":128,"startTime":23.275845000000004,"endTime":23.296319122916668,"instrument":7,"program":117,"isDrum":false},{"pitch":18,"velocity":128,"startTime":23.297396708333334,"endTime":23.533387914583336,"instrument":7,"program":117,"isDrum":false},{"pitch":29,"velocity":128,"startTime":23.297396708333334,"endTime":23.533387914583336,"instrument":7,"program":117,"isDrum":false},{"pitch":29,"velocity":128,"startTime":23.534465500000003,"endTime":23.55493962291667,"instrument":7,"program":117,"isDrum":false},{"pitch":29,"velocity":128,"startTime":23.556017208333333,"endTime":23.662698164583336,"instrument":7,"program":117,"isDrum":false},{"pitch":29,"velocity":128,"startTime":23.663775750000003,"endTime":23.68424987291667,"instrument":7,"program":117,"isDrum":false},{"pitch":29,"velocity":128,"startTime":23.685327458333337,"endTime":23.792008414583336,"instrument":7,"program":117,"isDrum":false},{"pitch":29,"velocity":128,"startTime":24.0517065,"endTime":24.07218062291667,"instrument":7,"program":117,"isDrum":false},{"pitch":29,"velocity":128,"startTime":24.073258208333336,"endTime":24.179939164583338,"instrument":7,"program":117,"isDrum":false},{"pitch":29,"velocity":128,"startTime":24.18101675,"endTime":24.20149087291667,"instrument":7,"program":117,"isDrum":false},{"pitch":29,"velocity":128,"startTime":24.202568458333335,"endTime":24.309249414583338,"instrument":7,"program":117,"isDrum":false},{"pitch":29,"velocity":128,"startTime":24.310327000000004,"endTime":24.330801122916668,"instrument":7,"program":117,"isDrum":false},{"pitch":29,"velocity":128,"startTime":24.331878708333335,"endTime":24.438559664583337,"instrument":7,"program":117,"isDrum":false},{"pitch":29,"velocity":128,"startTime":24.439637250000004,"endTime":24.460111372916668,"instrument":7,"program":117,"isDrum":false},{"pitch":29,"velocity":128,"startTime":24.461188958333334,"endTime":24.567869914583337,"instrument":7,"program":117,"isDrum":false},{"pitch":38,"velocity":128,"startTime":24.827568000000003,"endTime":24.852352464583337,"instrument":7,"program":117,"isDrum":false},{"pitch":38,"velocity":128,"startTime":24.85343005,"endTime":24.929938614583335,"instrument":7,"program":117,"isDrum":false},{"pitch":38,"velocity":128,"startTime":24.931016200000006,"endTime":24.955800664583336,"instrument":7,"program":117,"isDrum":false},{"pitch":38,"velocity":128,"startTime":24.956878250000003,"endTime":25.08511091458334,"instrument":7,"program":117,"isDrum":false},{"pitch":38,"velocity":128,"startTime":25.086188500000002,"endTime":25.10666262291667,"instrument":7,"program":117,"isDrum":false},{"pitch":38,"velocity":128,"startTime":25.107740208333336,"endTime":25.21442116458334,"instrument":7,"program":117,"isDrum":false},{"pitch":38,"velocity":128,"startTime":25.215498750000002,"endTime":25.34373141458334,"instrument":7,"program":117,"isDrum":false},{"pitch":35,"velocity":128,"startTime":25.603429500000004,"endTime":25.63467947708334,"instrument":7,"program":117,"isDrum":false},{"pitch":35,"velocity":128,"startTime":25.6357570625,"endTime":25.731662164583337,"instrument":7,"program":117,"isDrum":false},{"pitch":35,"velocity":128,"startTime":25.732739750000004,"endTime":25.763989727083338,"instrument":7,"program":117,"isDrum":false},{"pitch":35,"velocity":128,"startTime":25.765067312500005,"endTime":25.860972414583337,"instrument":7,"program":117,"isDrum":false},{"pitch":35,"velocity":128,"startTime":25.862050000000004,"endTime":25.88252412291667,"instrument":7,"program":117,"isDrum":false},{"pitch":35,"velocity":128,"startTime":25.883601708333334,"endTime":25.990282664583336,"instrument":7,"program":117,"isDrum":false},{"pitch":41,"velocity":128,"startTime":25.991360250000003,"endTime":26.01183437291667,"instrument":7,"program":117,"isDrum":false},{"pitch":41,"velocity":128,"startTime":26.012911958333333,"endTime":26.119592914583336,"instrument":7,"program":117,"isDrum":false},{"pitch":35,"velocity":128,"startTime":26.120670500000003,"endTime":26.14114462291667,"instrument":7,"program":117,"isDrum":false},{"pitch":35,"velocity":128,"startTime":26.142222208333337,"endTime":26.248903164583336,"instrument":7,"program":117,"isDrum":false},{"pitch":29,"velocity":128,"startTime":26.249980750000002,"endTime":26.27045487291667,"instrument":7,"program":117,"isDrum":false},{"pitch":29,"velocity":128,"startTime":26.271532458333336,"endTime":26.37821341458334,"instrument":7,"program":117,"isDrum":false},{"pitch":23,"velocity":128,"startTime":26.379291000000002,"endTime":26.410540977083336,"instrument":7,"program":117,"isDrum":false},{"pitch":23,"velocity":128,"startTime":26.411618562500003,"endTime":26.50752366458334,"instrument":7,"program":117,"isDrum":false},{"pitch":23,"velocity":128,"startTime":26.50860125,"endTime":26.539851227083336,"instrument":7,"program":117,"isDrum":false},{"pitch":23,"velocity":128,"startTime":26.540928812500002,"endTime":26.636833914583338,"instrument":7,"program":117,"isDrum":false},{"pitch":23,"velocity":128,"startTime":26.637911500000005,"endTime":26.66916147708334,"instrument":7,"program":117,"isDrum":false},{"pitch":23,"velocity":128,"startTime":26.670239062500002,"endTime":26.766144164583338,"instrument":7,"program":117,"isDrum":false},{"pitch":23,"velocity":128,"startTime":26.896532000000004,"endTime":26.91700612291667,"instrument":7,"program":117,"isDrum":false},{"pitch":23,"velocity":128,"startTime":26.918083708333334,"endTime":27.024764664583337,"instrument":7,"program":117,"isDrum":false},{"pitch":23,"velocity":128,"startTime":27.025842250000004,"endTime":27.04631637291667,"instrument":7,"program":117,"isDrum":false},{"pitch":23,"velocity":128,"startTime":27.047393958333334,"endTime":27.154074914583337,"instrument":7,"program":117,"isDrum":false},{"pitch":31,"velocity":128,"startTime":27.155152500000003,"endTime":27.186402477083337,"instrument":7,"program":117,"isDrum":false},{"pitch":31,"velocity":128,"startTime":27.187480062500004,"endTime":27.283385164583336,"instrument":7,"program":117,"isDrum":false},{"pitch":31,"velocity":128,"startTime":27.284462750000003,"endTime":27.315712727083337,"instrument":7,"program":117,"isDrum":false},{"pitch":31,"velocity":128,"startTime":27.316790312500004,"endTime":27.412695414583336,"instrument":7,"program":117,"isDrum":false},{"pitch":31,"velocity":128,"startTime":27.413773000000003,"endTime":27.445022977083337,"instrument":7,"program":117,"isDrum":false},{"pitch":31,"velocity":128,"startTime":27.446100562500003,"endTime":27.54200566458334,"instrument":7,"program":117,"isDrum":false},{"pitch":31,"velocity":128,"startTime":27.543083250000002,"endTime":27.574333227083336,"instrument":7,"program":117,"isDrum":false},{"pitch":31,"velocity":128,"startTime":27.575410812500003,"endTime":27.67131591458334,"instrument":7,"program":117,"isDrum":false},{"pitch":38,"velocity":128,"startTime":27.672393500000002,"endTime":27.703643477083336,"instrument":7,"program":117,"isDrum":false},{"pitch":38,"velocity":128,"startTime":27.704721062500003,"endTime":27.80062616458334,"instrument":7,"program":117,"isDrum":false},{"pitch":38,"velocity":128,"startTime":27.801703750000005,"endTime":27.82217787291667,"instrument":7,"program":117,"isDrum":false},{"pitch":38,"velocity":128,"startTime":27.823255458333335,"endTime":27.929936414583338,"instrument":7,"program":117,"isDrum":false},{"pitch":31,"velocity":128,"startTime":27.931014000000005,"endTime":27.95148812291667,"instrument":7,"program":117,"isDrum":false},{"pitch":31,"velocity":128,"startTime":27.952565708333335,"endTime":28.059246664583338,"instrument":7,"program":117,"isDrum":false},{"pitch":31,"velocity":128,"startTime":28.060324250000004,"endTime":28.08079837291667,"instrument":7,"program":117,"isDrum":false},{"pitch":31,"velocity":128,"startTime":28.081875958333335,"endTime":28.188556914583337,"instrument":7,"program":117,"isDrum":false},{"pitch":31,"velocity":128,"startTime":28.189634500000004,"endTime":28.21010862291667,"instrument":7,"program":117,"isDrum":false},{"pitch":31,"velocity":128,"startTime":28.211186208333334,"endTime":28.447177414583336,"instrument":7,"program":117,"isDrum":false},{"pitch":31,"velocity":128,"startTime":28.448255000000003,"endTime":28.576487664583336,"instrument":7,"program":117,"isDrum":false},{"pitch":31,"velocity":128,"startTime":28.577565250000003,"endTime":28.70579791458334,"instrument":7,"program":117,"isDrum":false},{"pitch":31,"velocity":128,"startTime":28.706875500000002,"endTime":28.83510816458334,"instrument":7,"program":117,"isDrum":false},{"pitch":31,"velocity":128,"startTime":28.836185750000002,"endTime":28.96441841458334,"instrument":7,"program":117,"isDrum":false},{"pitch":31,"velocity":128,"startTime":28.965496,"endTime":29.093728664583338,"instrument":7,"program":117,"isDrum":false},{"pitch":31,"velocity":128,"startTime":29.094806250000005,"endTime":29.223038914583338,"instrument":7,"program":117,"isDrum":false},{"pitch":31,"velocity":128,"startTime":29.224116500000004,"endTime":29.352349164583337,"instrument":7,"program":117,"isDrum":false},{"pitch":31,"velocity":128,"startTime":29.353426750000004,"endTime":29.481659414583337,"instrument":7,"program":117,"isDrum":false},{"pitch":31,"velocity":128,"startTime":29.482737000000004,"endTime":29.610969664583337,"instrument":7,"program":117,"isDrum":false},{"pitch":31,"velocity":128,"startTime":29.612047250000003,"endTime":29.740279914583336,"instrument":7,"program":117,"isDrum":false},{"pitch":31,"velocity":128,"startTime":29.741357500000003,"endTime":29.86959016458334,"instrument":7,"program":117,"isDrum":false},{"pitch":31,"velocity":128,"startTime":29.870667750000003,"endTime":29.99890041458334,"instrument":7,"program":117,"isDrum":false},{"pitch":31,"velocity":128,"startTime":30.258598500000005,"endTime":30.386831164583338,"instrument":7,"program":117,"isDrum":false},{"pitch":31,"velocity":128,"startTime":31.163770250000002,"endTime":31.29200291458334,"instrument":7,"program":117,"isDrum":false},{"pitch":40,"velocity":128,"startTime":31.163770250000002,"endTime":31.29200291458334,"instrument":7,"program":117,"isDrum":false},{"pitch":31,"velocity":128,"startTime":31.293080500000002,"endTime":31.42131316458334,"instrument":7,"program":117,"isDrum":false},{"pitch":40,"velocity":128,"startTime":31.293080500000002,"endTime":31.42131316458334,"instrument":7,"program":117,"isDrum":false},{"pitch":31,"velocity":128,"startTime":31.422390750000005,"endTime":31.550623414583338,"instrument":7,"program":117,"isDrum":false},{"pitch":40,"velocity":128,"startTime":31.422390750000005,"endTime":31.550623414583338,"instrument":7,"program":117,"isDrum":false},{"pitch":31,"velocity":128,"startTime":31.551701000000005,"endTime":31.679933664583338,"instrument":7,"program":117,"isDrum":false},{"pitch":40,"velocity":128,"startTime":31.551701000000005,"endTime":31.679933664583338,"instrument":7,"program":117,"isDrum":false},{"pitch":31,"velocity":128,"startTime":31.681011250000005,"endTime":31.809243914583337,"instrument":7,"program":117,"isDrum":false},{"pitch":40,"velocity":128,"startTime":31.681011250000005,"endTime":31.809243914583337,"instrument":7,"program":117,"isDrum":false},{"pitch":31,"velocity":128,"startTime":31.810321500000004,"endTime":31.938554164583337,"instrument":7,"program":117,"isDrum":false},{"pitch":40,"velocity":128,"startTime":31.810321500000004,"endTime":31.938554164583337,"instrument":7,"program":117,"isDrum":false},{"pitch":31,"velocity":128,"startTime":32.97411375,"endTime":33.10234641458334,"instrument":7,"program":117,"isDrum":false},{"pitch":40,"velocity":128,"startTime":32.97411375,"endTime":33.10234641458334,"instrument":7,"program":117,"isDrum":false},{"pitch":31,"velocity":128,"startTime":33.103424000000004,"endTime":33.23165666458334,"instrument":7,"program":117,"isDrum":false},{"pitch":40,"velocity":128,"startTime":33.103424000000004,"endTime":33.23165666458334,"instrument":7,"program":117,"isDrum":false},{"pitch":31,"velocity":128,"startTime":33.23273425000001,"endTime":33.36096691458334,"instrument":7,"program":117,"isDrum":false},{"pitch":40,"velocity":128,"startTime":33.23273425000001,"endTime":33.36096691458334,"instrument":7,"program":117,"isDrum":false},{"pitch":31,"velocity":128,"startTime":33.3620445,"endTime":33.49027716458334,"instrument":7,"program":117,"isDrum":false},{"pitch":40,"velocity":128,"startTime":33.3620445,"endTime":33.49027716458334,"instrument":7,"program":117,"isDrum":false},{"pitch":31,"velocity":128,"startTime":33.491354750000006,"endTime":33.619587414583336,"instrument":7,"program":117,"isDrum":false},{"pitch":40,"velocity":128,"startTime":33.491354750000006,"endTime":33.619587414583336,"instrument":7,"program":117,"isDrum":false},{"pitch":47,"velocity":128,"startTime":33.491354750000006,"endTime":33.619587414583336,"instrument":7,"program":117,"isDrum":false},{"pitch":36,"velocity":128,"startTime":34.78445725,"endTime":34.91268991458334,"instrument":7,"program":117,"isDrum":false},{"pitch":45,"velocity":128,"startTime":34.78445725,"endTime":34.91268991458334,"instrument":7,"program":117,"isDrum":false},{"pitch":36,"velocity":128,"startTime":34.913767500000006,"endTime":35.042000164583335,"instrument":7,"program":117,"isDrum":false},{"pitch":45,"velocity":128,"startTime":34.913767500000006,"endTime":35.042000164583335,"instrument":7,"program":117,"isDrum":false},{"pitch":36,"velocity":128,"startTime":35.04307775,"endTime":35.17131041458334,"instrument":7,"program":117,"isDrum":false},{"pitch":45,"velocity":128,"startTime":35.04307775,"endTime":35.17131041458334,"instrument":7,"program":117,"isDrum":false},{"pitch":36,"velocity":128,"startTime":36.20687,"endTime":36.33510266458334,"instrument":7,"program":117,"isDrum":false},{"pitch":45,"velocity":128,"startTime":36.20687,"endTime":36.33510266458334,"instrument":7,"program":117,"isDrum":false},{"pitch":36,"velocity":128,"startTime":36.336180250000005,"endTime":36.46441291458334,"instrument":7,"program":117,"isDrum":false},{"pitch":45,"velocity":128,"startTime":36.336180250000005,"endTime":36.46441291458334,"instrument":7,"program":117,"isDrum":false},{"pitch":36,"velocity":128,"startTime":36.4654905,"endTime":36.59372316458334,"instrument":7,"program":117,"isDrum":false},{"pitch":45,"velocity":128,"startTime":36.4654905,"endTime":36.59372316458334,"instrument":7,"program":117,"isDrum":false},{"pitch":36,"velocity":128,"startTime":36.594800750000005,"endTime":36.72303341458334,"instrument":7,"program":117,"isDrum":false},{"pitch":45,"velocity":128,"startTime":36.594800750000005,"endTime":36.72303341458334,"instrument":7,"program":117,"isDrum":false},{"pitch":36,"velocity":128,"startTime":36.853421250000004,"endTime":36.98165391458334,"instrument":7,"program":117,"isDrum":false},{"pitch":45,"velocity":128,"startTime":36.853421250000004,"endTime":36.98165391458334,"instrument":7,"program":117,"isDrum":false},{"pitch":36,"velocity":128,"startTime":37.11204175,"endTime":37.24027441458334,"instrument":7,"program":117,"isDrum":false},{"pitch":45,"velocity":128,"startTime":37.11204175,"endTime":37.24027441458334,"instrument":7,"program":117,"isDrum":false},{"pitch":36,"velocity":128,"startTime":37.37066225,"endTime":37.49889491458334,"instrument":7,"program":117,"isDrum":false},{"pitch":45,"velocity":128,"startTime":37.37066225,"endTime":37.49889491458334,"instrument":7,"program":117,"isDrum":false},{"pitch":36,"velocity":128,"startTime":37.499972500000005,"endTime":37.62820516458334,"instrument":7,"program":117,"isDrum":false},{"pitch":45,"velocity":128,"startTime":37.499972500000005,"endTime":37.62820516458334,"instrument":7,"program":117,"isDrum":false},{"pitch":36,"velocity":128,"startTime":37.758593000000005,"endTime":37.88682566458334,"instrument":7,"program":117,"isDrum":false},{"pitch":45,"velocity":128,"startTime":37.758593000000005,"endTime":37.88682566458334,"instrument":7,"program":117,"isDrum":false},{"pitch":36,"velocity":128,"startTime":37.88790325000001,"endTime":38.01613591458334,"instrument":7,"program":117,"isDrum":false},{"pitch":45,"velocity":128,"startTime":37.88790325000001,"endTime":38.01613591458334,"instrument":7,"program":117,"isDrum":false},{"pitch":36,"velocity":128,"startTime":38.017213500000004,"endTime":38.14544616458334,"instrument":7,"program":117,"isDrum":false},{"pitch":45,"velocity":128,"startTime":38.017213500000004,"endTime":38.14544616458334,"instrument":7,"program":117,"isDrum":false},{"pitch":36,"velocity":128,"startTime":38.14652375000001,"endTime":38.27475641458334,"instrument":7,"program":117,"isDrum":false},{"pitch":45,"velocity":128,"startTime":38.14652375000001,"endTime":38.27475641458334,"instrument":7,"program":117,"isDrum":false},{"pitch":36,"velocity":128,"startTime":38.405144250000006,"endTime":38.533376914583336,"instrument":7,"program":117,"isDrum":false},{"pitch":45,"velocity":128,"startTime":38.405144250000006,"endTime":38.533376914583336,"instrument":7,"program":117,"isDrum":false},{"pitch":36,"velocity":128,"startTime":38.663764750000006,"endTime":38.79199741458334,"instrument":7,"program":117,"isDrum":false},{"pitch":45,"velocity":128,"startTime":38.663764750000006,"endTime":38.79199741458334,"instrument":7,"program":117,"isDrum":false},{"pitch":36,"velocity":128,"startTime":38.922385250000005,"endTime":39.05061791458334,"instrument":7,"program":117,"isDrum":false},{"pitch":45,"velocity":128,"startTime":38.922385250000005,"endTime":39.05061791458334,"instrument":7,"program":117,"isDrum":false},{"pitch":36,"velocity":128,"startTime":39.05169550000001,"endTime":39.17992816458334,"instrument":7,"program":117,"isDrum":false},{"pitch":45,"velocity":128,"startTime":39.05169550000001,"endTime":39.17992816458334,"instrument":7,"program":117,"isDrum":false},{"pitch":36,"velocity":128,"startTime":39.69824675,"endTime":39.82647941458334,"instrument":7,"program":117,"isDrum":false},{"pitch":45,"velocity":128,"startTime":39.69824675,"endTime":39.82647941458334,"instrument":7,"program":117,"isDrum":false},{"pitch":36,"velocity":128,"startTime":39.95686725,"endTime":40.08509991458334,"instrument":7,"program":117,"isDrum":false},{"pitch":45,"velocity":128,"startTime":39.95686725,"endTime":40.08509991458334,"instrument":7,"program":117,"isDrum":false},{"pitch":36,"velocity":128,"startTime":40.21548775000001,"endTime":40.34372041458334,"instrument":7,"program":117,"isDrum":false},{"pitch":45,"velocity":128,"startTime":40.21548775000001,"endTime":40.34372041458334,"instrument":7,"program":117,"isDrum":false},{"pitch":36,"velocity":128,"startTime":40.47410825000001,"endTime":40.66699603958334,"instrument":7,"program":117,"isDrum":false},{"pitch":45,"velocity":128,"startTime":40.47410825000001,"endTime":40.66699603958334,"instrument":7,"program":117,"isDrum":false},{"pitch":36,"velocity":120,"startTime":40.862039,"endTime":40.99027166458334,"instrument":7,"program":117,"isDrum":false},{"pitch":45,"velocity":128,"startTime":40.862039,"endTime":40.99027166458334,"instrument":7,"program":117,"isDrum":false},{"pitch":36,"velocity":128,"startTime":40.991349250000006,"endTime":41.11958191458334,"instrument":7,"program":117,"isDrum":false},{"pitch":45,"velocity":128,"startTime":40.991349250000006,"endTime":41.11958191458334,"instrument":7,"program":117,"isDrum":false},{"pitch":36,"velocity":128,"startTime":41.1206595,"endTime":41.24889216458334,"instrument":7,"program":117,"isDrum":false},{"pitch":45,"velocity":128,"startTime":41.1206595,"endTime":41.24889216458334,"instrument":7,"program":117,"isDrum":false},{"pitch":36,"velocity":128,"startTime":41.249969750000005,"endTime":41.37820241458334,"instrument":7,"program":117,"isDrum":false},{"pitch":45,"velocity":128,"startTime":41.249969750000005,"endTime":41.37820241458334,"instrument":7,"program":117,"isDrum":false},{"pitch":36,"velocity":128,"startTime":41.37928000000001,"endTime":41.51205794375001,"instrument":7,"program":117,"isDrum":false},{"pitch":45,"velocity":128,"startTime":41.37928000000001,"endTime":41.51205794375001,"instrument":7,"program":117,"isDrum":false},{"pitch":36,"velocity":128,"startTime":41.64594700000001,"endTime":41.71205819375001,"instrument":7,"program":117,"isDrum":false},{"pitch":45,"velocity":128,"startTime":41.64594700000001,"endTime":41.71205819375001,"instrument":7,"program":117,"isDrum":false},{"pitch":36,"velocity":128,"startTime":41.779280500000006,"endTime":41.84539169375001,"instrument":7,"program":117,"isDrum":false},{"pitch":45,"velocity":128,"startTime":41.779280500000006,"endTime":41.84539169375001,"instrument":7,"program":117,"isDrum":false},{"pitch":36,"velocity":128,"startTime":41.912614000000005,"endTime":41.97872519375001,"instrument":7,"program":117,"isDrum":false},{"pitch":45,"velocity":128,"startTime":41.912614000000005,"endTime":41.97872519375001,"instrument":7,"program":117,"isDrum":false},{"pitch":36,"velocity":128,"startTime":42.04594750000001,"endTime":42.11205869375001,"instrument":7,"program":117,"isDrum":false},{"pitch":45,"velocity":128,"startTime":42.04594750000001,"endTime":42.11205869375001,"instrument":7,"program":117,"isDrum":false},{"pitch":36,"velocity":128,"startTime":42.17928100000001,"endTime":42.31205894375001,"instrument":7,"program":117,"isDrum":false},{"pitch":45,"velocity":128,"startTime":42.17928100000001,"endTime":42.31205894375001,"instrument":7,"program":117,"isDrum":false},{"pitch":36,"velocity":128,"startTime":42.44594800000001,"endTime":42.512059193750005,"instrument":7,"program":117,"isDrum":false},{"pitch":45,"velocity":128,"startTime":42.44594800000001,"endTime":42.512059193750005,"instrument":7,"program":117,"isDrum":false},{"pitch":36,"velocity":128,"startTime":42.57928150000001,"endTime":42.64539269375001,"instrument":7,"program":117,"isDrum":false},{"pitch":45,"velocity":128,"startTime":42.57928150000001,"endTime":42.64539269375001,"instrument":7,"program":117,"isDrum":false},{"pitch":36,"velocity":128,"startTime":42.71261500000001,"endTime":42.77872619375001,"instrument":7,"program":117,"isDrum":false},{"pitch":45,"velocity":128,"startTime":42.71261500000001,"endTime":42.77872619375001,"instrument":7,"program":117,"isDrum":false},{"pitch":36,"velocity":128,"startTime":42.845948500000006,"endTime":42.91205969375001,"instrument":7,"program":117,"isDrum":false},{"pitch":45,"velocity":128,"startTime":42.845948500000006,"endTime":42.91205969375001,"instrument":7,"program":117,"isDrum":false},{"pitch":36,"velocity":128,"startTime":42.97928200000001,"endTime":43.11205994375001,"instrument":7,"program":117,"isDrum":false},{"pitch":45,"velocity":128,"startTime":42.97928200000001,"endTime":43.11205994375001,"instrument":7,"program":117,"isDrum":false},{"pitch":36,"velocity":128,"startTime":43.24594900000001,"endTime":43.31206019375001,"instrument":7,"program":117,"isDrum":false},{"pitch":45,"velocity":128,"startTime":43.24594900000001,"endTime":43.31206019375001,"instrument":7,"program":117,"isDrum":false},{"pitch":36,"velocity":128,"startTime":43.37928250000001,"endTime":43.445393693750006,"instrument":7,"program":117,"isDrum":false},{"pitch":45,"velocity":128,"startTime":43.37928250000001,"endTime":43.445393693750006,"instrument":7,"program":117,"isDrum":false},{"pitch":36,"velocity":128,"startTime":43.51261600000001,"endTime":43.578727193750005,"instrument":7,"program":117,"isDrum":false},{"pitch":45,"velocity":128,"startTime":43.51261600000001,"endTime":43.578727193750005,"instrument":7,"program":117,"isDrum":false},{"pitch":36,"velocity":128,"startTime":43.64594950000001,"endTime":43.71206069375001,"instrument":7,"program":117,"isDrum":false},{"pitch":45,"velocity":128,"startTime":43.64594950000001,"endTime":43.71206069375001,"instrument":7,"program":117,"isDrum":false},{"pitch":36,"velocity":128,"startTime":43.77928300000001,"endTime":43.91206094375001,"instrument":7,"program":117,"isDrum":false},{"pitch":45,"velocity":128,"startTime":43.77928300000001,"endTime":43.91206094375001,"instrument":7,"program":117,"isDrum":false},{"pitch":36,"velocity":128,"startTime":44.045950000000005,"endTime":44.11206119375001,"instrument":7,"program":117,"isDrum":false},{"pitch":45,"velocity":128,"startTime":44.045950000000005,"endTime":44.11206119375001,"instrument":7,"program":117,"isDrum":false},{"pitch":36,"velocity":128,"startTime":44.17928350000001,"endTime":44.24539469375001,"instrument":7,"program":117,"isDrum":false},{"pitch":45,"velocity":128,"startTime":44.17928350000001,"endTime":44.24539469375001,"instrument":7,"program":117,"isDrum":false},{"pitch":36,"velocity":128,"startTime":44.31261700000001,"endTime":44.37872819375001,"instrument":7,"program":117,"isDrum":false},{"pitch":45,"velocity":128,"startTime":44.31261700000001,"endTime":44.37872819375001,"instrument":7,"program":117,"isDrum":false},{"pitch":36,"velocity":128,"startTime":44.44595050000001,"endTime":44.512061693750006,"instrument":7,"program":117,"isDrum":false},{"pitch":45,"velocity":128,"startTime":44.44595050000001,"endTime":44.512061693750006,"instrument":7,"program":117,"isDrum":false},{"pitch":36,"velocity":128,"startTime":44.57928400000001,"endTime":44.71206194375001,"instrument":7,"program":117,"isDrum":false},{"pitch":45,"velocity":128,"startTime":44.57928400000001,"endTime":44.71206194375001,"instrument":7,"program":117,"isDrum":false},{"pitch":36,"velocity":128,"startTime":44.84595100000001,"endTime":44.91206219375001,"instrument":7,"program":117,"isDrum":false},{"pitch":45,"velocity":128,"startTime":44.84595100000001,"endTime":44.91206219375001,"instrument":7,"program":117,"isDrum":false},{"pitch":36,"velocity":128,"startTime":44.979284500000006,"endTime":45.04539569375001,"instrument":7,"program":117,"isDrum":false},{"pitch":45,"velocity":128,"startTime":44.979284500000006,"endTime":45.04539569375001,"instrument":7,"program":117,"isDrum":false},{"pitch":36,"velocity":128,"startTime":45.11261800000001,"endTime":45.17872919375001,"instrument":7,"program":117,"isDrum":false},{"pitch":45,"velocity":128,"startTime":45.11261800000001,"endTime":45.17872919375001,"instrument":7,"program":117,"isDrum":false},{"pitch":36,"velocity":128,"startTime":45.24595150000001,"endTime":45.31206269375001,"instrument":7,"program":117,"isDrum":false},{"pitch":45,"velocity":128,"startTime":45.24595150000001,"endTime":45.31206269375001,"instrument":7,"program":117,"isDrum":false},{"pitch":36,"velocity":128,"startTime":45.37928500000001,"endTime":45.51206294375001,"instrument":7,"program":117,"isDrum":false},{"pitch":45,"velocity":128,"startTime":45.37928500000001,"endTime":45.51206294375001,"instrument":7,"program":117,"isDrum":false},{"pitch":36,"velocity":128,"startTime":45.64595200000001,"endTime":45.712063193750005,"instrument":7,"program":117,"isDrum":false},{"pitch":45,"velocity":128,"startTime":45.64595200000001,"endTime":45.712063193750005,"instrument":7,"program":117,"isDrum":false},{"pitch":36,"velocity":128,"startTime":45.77928550000001,"endTime":45.845396693750004,"instrument":7,"program":117,"isDrum":false},{"pitch":45,"velocity":128,"startTime":45.77928550000001,"endTime":45.845396693750004,"instrument":7,"program":117,"isDrum":false},{"pitch":36,"velocity":128,"startTime":45.91261900000001,"endTime":45.97873019375001,"instrument":7,"program":117,"isDrum":false},{"pitch":45,"velocity":128,"startTime":45.91261900000001,"endTime":45.97873019375001,"instrument":7,"program":117,"isDrum":false},{"pitch":36,"velocity":128,"startTime":46.045952500000006,"endTime":46.11206369375001,"instrument":7,"program":117,"isDrum":false},{"pitch":45,"velocity":128,"startTime":46.045952500000006,"endTime":46.11206369375001,"instrument":7,"program":117,"isDrum":false},{"pitch":36,"velocity":128,"startTime":46.179286000000005,"endTime":46.312063943750005,"instrument":7,"program":117,"isDrum":false},{"pitch":45,"velocity":128,"startTime":46.179286000000005,"endTime":46.312063943750005,"instrument":7,"program":117,"isDrum":false},{"pitch":36,"velocity":128,"startTime":46.44595300000001,"endTime":46.51206419375001,"instrument":7,"program":117,"isDrum":false},{"pitch":45,"velocity":128,"startTime":46.44595300000001,"endTime":46.51206419375001,"instrument":7,"program":117,"isDrum":false},{"pitch":36,"velocity":128,"startTime":46.57928650000001,"endTime":46.645397693750006,"instrument":7,"program":117,"isDrum":false},{"pitch":45,"velocity":128,"startTime":46.57928650000001,"endTime":46.645397693750006,"instrument":7,"program":117,"isDrum":false},{"pitch":36,"velocity":128,"startTime":46.71262000000001,"endTime":46.778731193750005,"instrument":7,"program":117,"isDrum":false},{"pitch":45,"velocity":128,"startTime":46.71262000000001,"endTime":46.778731193750005,"instrument":7,"program":117,"isDrum":false},{"pitch":36,"velocity":128,"startTime":46.84595350000001,"endTime":46.91206469375001,"instrument":7,"program":117,"isDrum":false},{"pitch":45,"velocity":128,"startTime":46.84595350000001,"endTime":46.91206469375001,"instrument":7,"program":117,"isDrum":false},{"pitch":36,"velocity":128,"startTime":46.97928700000001,"endTime":47.112064943750006,"instrument":7,"program":117,"isDrum":false},{"pitch":45,"velocity":128,"startTime":46.97928700000001,"endTime":47.112064943750006,"instrument":7,"program":117,"isDrum":false},{"pitch":36,"velocity":128,"startTime":47.24595400000001,"endTime":47.31206519375001,"instrument":7,"program":117,"isDrum":false},{"pitch":45,"velocity":128,"startTime":47.24595400000001,"endTime":47.31206519375001,"instrument":7,"program":117,"isDrum":false},{"pitch":36,"velocity":128,"startTime":47.37928750000001,"endTime":47.44539869375001,"instrument":7,"program":117,"isDrum":false},{"pitch":45,"velocity":128,"startTime":47.37928750000001,"endTime":47.44539869375001,"instrument":7,"program":117,"isDrum":false},{"pitch":36,"velocity":128,"startTime":47.51262100000001,"endTime":47.57873219375001,"instrument":7,"program":117,"isDrum":false},{"pitch":45,"velocity":128,"startTime":47.51262100000001,"endTime":47.57873219375001,"instrument":7,"program":117,"isDrum":false},{"pitch":36,"velocity":128,"startTime":47.64595450000001,"endTime":47.712065693750006,"instrument":7,"program":117,"isDrum":false},{"pitch":45,"velocity":128,"startTime":47.64595450000001,"endTime":47.712065693750006,"instrument":7,"program":117,"isDrum":false},{"pitch":36,"velocity":128,"startTime":47.77928800000001,"endTime":47.91206594375001,"instrument":7,"program":117,"isDrum":false},{"pitch":45,"velocity":128,"startTime":47.77928800000001,"endTime":47.91206594375001,"instrument":7,"program":117,"isDrum":false},{"pitch":36,"velocity":128,"startTime":48.045955000000006,"endTime":48.11206619375001,"instrument":7,"program":117,"isDrum":false},{"pitch":45,"velocity":128,"startTime":48.045955000000006,"endTime":48.11206619375001,"instrument":7,"program":117,"isDrum":false},{"pitch":36,"velocity":128,"startTime":48.179288500000006,"endTime":48.24539969375001,"instrument":7,"program":117,"isDrum":false},{"pitch":45,"velocity":128,"startTime":48.179288500000006,"endTime":48.24539969375001,"instrument":7,"program":117,"isDrum":false},{"pitch":36,"velocity":128,"startTime":48.312622000000005,"endTime":48.37873319375001,"instrument":7,"program":117,"isDrum":false},{"pitch":45,"velocity":128,"startTime":48.312622000000005,"endTime":48.37873319375001,"instrument":7,"program":117,"isDrum":false},{"pitch":36,"velocity":128,"startTime":48.44595550000001,"endTime":48.51206669375001,"instrument":7,"program":117,"isDrum":false},{"pitch":45,"velocity":128,"startTime":48.44595550000001,"endTime":48.51206669375001,"instrument":7,"program":117,"isDrum":false},{"pitch":36,"velocity":128,"startTime":48.57928900000001,"endTime":48.71206694375001,"instrument":7,"program":117,"isDrum":false},{"pitch":45,"velocity":128,"startTime":48.57928900000001,"endTime":48.71206694375001,"instrument":7,"program":117,"isDrum":false},{"pitch":36,"velocity":128,"startTime":48.84595600000001,"endTime":48.912067193750005,"instrument":7,"program":117,"isDrum":false},{"pitch":45,"velocity":128,"startTime":48.84595600000001,"endTime":48.912067193750005,"instrument":7,"program":117,"isDrum":false},{"pitch":36,"velocity":128,"startTime":48.97928950000001,"endTime":49.04540069375001,"instrument":7,"program":117,"isDrum":false},{"pitch":45,"velocity":128,"startTime":48.97928950000001,"endTime":49.04540069375001,"instrument":7,"program":117,"isDrum":false},{"pitch":36,"velocity":128,"startTime":49.112623000000006,"endTime":49.17873419375001,"instrument":7,"program":117,"isDrum":false},{"pitch":45,"velocity":128,"startTime":49.112623000000006,"endTime":49.17873419375001,"instrument":7,"program":117,"isDrum":false},{"pitch":36,"velocity":128,"startTime":49.245956500000005,"endTime":49.31206769375001,"instrument":7,"program":117,"isDrum":false},{"pitch":45,"velocity":128,"startTime":49.245956500000005,"endTime":49.31206769375001,"instrument":7,"program":117,"isDrum":false},{"pitch":36,"velocity":128,"startTime":49.37929000000001,"endTime":49.51206794375001,"instrument":7,"program":117,"isDrum":false},{"pitch":45,"velocity":128,"startTime":49.37929000000001,"endTime":49.51206794375001,"instrument":7,"program":117,"isDrum":false},{"pitch":36,"velocity":128,"startTime":49.64595700000001,"endTime":49.71206819375001,"instrument":7,"program":117,"isDrum":false},{"pitch":45,"velocity":128,"startTime":49.64595700000001,"endTime":49.71206819375001,"instrument":7,"program":117,"isDrum":false},{"pitch":36,"velocity":128,"startTime":49.77929050000001,"endTime":49.845401693750006,"instrument":7,"program":117,"isDrum":false},{"pitch":45,"velocity":128,"startTime":49.77929050000001,"endTime":49.845401693750006,"instrument":7,"program":117,"isDrum":false},{"pitch":36,"velocity":128,"startTime":49.91262400000001,"endTime":49.97873519375001,"instrument":7,"program":117,"isDrum":false},{"pitch":45,"velocity":128,"startTime":49.91262400000001,"endTime":49.97873519375001,"instrument":7,"program":117,"isDrum":false},{"pitch":36,"velocity":128,"startTime":50.04595750000001,"endTime":50.11206869375001,"instrument":7,"program":117,"isDrum":false},{"pitch":45,"velocity":128,"startTime":50.04595750000001,"endTime":50.11206869375001,"instrument":7,"program":117,"isDrum":false},{"pitch":36,"velocity":128,"startTime":50.179291000000006,"endTime":50.312068943750006,"instrument":7,"program":117,"isDrum":false},{"pitch":45,"velocity":128,"startTime":50.179291000000006,"endTime":50.312068943750006,"instrument":7,"program":117,"isDrum":false},{"pitch":36,"velocity":128,"startTime":50.445958000000005,"endTime":50.51206919375001,"instrument":7,"program":117,"isDrum":false},{"pitch":45,"velocity":128,"startTime":50.445958000000005,"endTime":50.51206919375001,"instrument":7,"program":117,"isDrum":false},{"pitch":36,"velocity":128,"startTime":50.57929150000001,"endTime":50.64540269375001,"instrument":7,"program":117,"isDrum":false},{"pitch":45,"velocity":128,"startTime":50.57929150000001,"endTime":50.64540269375001,"instrument":7,"program":117,"isDrum":false},{"pitch":36,"velocity":128,"startTime":50.71262500000001,"endTime":50.77873619375001,"instrument":7,"program":117,"isDrum":false},{"pitch":45,"velocity":128,"startTime":50.71262500000001,"endTime":50.77873619375001,"instrument":7,"program":117,"isDrum":false},{"pitch":36,"velocity":128,"startTime":50.84595850000001,"endTime":50.91206969375001,"instrument":7,"program":117,"isDrum":false},{"pitch":45,"velocity":128,"startTime":50.84595850000001,"endTime":50.91206969375001,"instrument":7,"program":117,"isDrum":false},{"pitch":36,"velocity":128,"startTime":50.97929200000001,"endTime":51.11206994375001,"instrument":7,"program":117,"isDrum":false},{"pitch":45,"velocity":128,"startTime":50.97929200000001,"endTime":51.11206994375001,"instrument":7,"program":117,"isDrum":false},{"pitch":36,"velocity":128,"startTime":51.245959000000006,"endTime":51.31207019375001,"instrument":7,"program":117,"isDrum":false},{"pitch":45,"velocity":128,"startTime":51.245959000000006,"endTime":51.31207019375001,"instrument":7,"program":117,"isDrum":false},{"pitch":36,"velocity":128,"startTime":51.379292500000005,"endTime":51.44540369375001,"instrument":7,"program":117,"isDrum":false},{"pitch":45,"velocity":128,"startTime":51.379292500000005,"endTime":51.44540369375001,"instrument":7,"program":117,"isDrum":false},{"pitch":36,"velocity":128,"startTime":51.51262600000001,"endTime":51.57873719375001,"instrument":7,"program":117,"isDrum":false},{"pitch":45,"velocity":128,"startTime":51.51262600000001,"endTime":51.57873719375001,"instrument":7,"program":117,"isDrum":false},{"pitch":36,"velocity":128,"startTime":51.645959500000004,"endTime":51.71207069375001,"instrument":7,"program":117,"isDrum":false},{"pitch":45,"velocity":128,"startTime":51.645959500000004,"endTime":51.71207069375001,"instrument":7,"program":117,"isDrum":false},{"pitch":36,"velocity":128,"startTime":51.77929300000001,"endTime":51.91207094375001,"instrument":7,"program":117,"isDrum":false},{"pitch":45,"velocity":128,"startTime":51.77929300000001,"endTime":51.91207094375001,"instrument":7,"program":117,"isDrum":false},{"pitch":36,"velocity":128,"startTime":52.04596000000001,"endTime":52.11207119375001,"instrument":7,"program":117,"isDrum":false},{"pitch":45,"velocity":128,"startTime":52.04596000000001,"endTime":52.11207119375001,"instrument":7,"program":117,"isDrum":false},{"pitch":36,"velocity":128,"startTime":52.17929350000001,"endTime":52.24540469375001,"instrument":7,"program":117,"isDrum":false},{"pitch":45,"velocity":128,"startTime":52.17929350000001,"endTime":52.24540469375001,"instrument":7,"program":117,"isDrum":false},{"pitch":36,"velocity":128,"startTime":52.312627000000006,"endTime":52.37873819375001,"instrument":7,"program":117,"isDrum":false},{"pitch":45,"velocity":128,"startTime":52.312627000000006,"endTime":52.37873819375001,"instrument":7,"program":117,"isDrum":false},{"pitch":36,"velocity":128,"startTime":52.44596050000001,"endTime":52.51207169375001,"instrument":7,"program":117,"isDrum":false},{"pitch":45,"velocity":128,"startTime":52.44596050000001,"endTime":52.51207169375001,"instrument":7,"program":117,"isDrum":false},{"pitch":36,"velocity":128,"startTime":52.579294000000004,"endTime":52.712071943750004,"instrument":7,"program":117,"isDrum":false},{"pitch":45,"velocity":128,"startTime":52.579294000000004,"endTime":52.712071943750004,"instrument":7,"program":117,"isDrum":false},{"pitch":36,"velocity":128,"startTime":52.84596100000001,"endTime":52.91207219375001,"instrument":7,"program":117,"isDrum":false},{"pitch":45,"velocity":128,"startTime":52.84596100000001,"endTime":52.91207219375001,"instrument":7,"program":117,"isDrum":false},{"pitch":36,"velocity":128,"startTime":52.97929450000001,"endTime":53.04540569375001,"instrument":7,"program":117,"isDrum":false},{"pitch":45,"velocity":128,"startTime":52.97929450000001,"endTime":53.04540569375001,"instrument":7,"program":117,"isDrum":false},{"pitch":36,"velocity":128,"startTime":53.11262800000001,"endTime":53.178739193750005,"instrument":7,"program":117,"isDrum":false},{"pitch":45,"velocity":128,"startTime":53.11262800000001,"endTime":53.178739193750005,"instrument":7,"program":117,"isDrum":false},{"pitch":36,"velocity":128,"startTime":53.24596150000001,"endTime":53.31207269375001,"instrument":7,"program":117,"isDrum":false},{"pitch":45,"velocity":128,"startTime":53.24596150000001,"endTime":53.31207269375001,"instrument":7,"program":117,"isDrum":false},{"pitch":36,"velocity":128,"startTime":53.379295000000006,"endTime":53.512072943750006,"instrument":7,"program":117,"isDrum":false},{"pitch":45,"velocity":128,"startTime":53.379295000000006,"endTime":53.512072943750006,"instrument":7,"program":117,"isDrum":false},{"pitch":36,"velocity":128,"startTime":53.64596200000001,"endTime":53.71207319375001,"instrument":7,"program":117,"isDrum":false},{"pitch":45,"velocity":128,"startTime":53.64596200000001,"endTime":53.71207319375001,"instrument":7,"program":117,"isDrum":false},{"pitch":36,"velocity":128,"startTime":53.7792955,"endTime":53.84540669375001,"instrument":7,"program":117,"isDrum":false},{"pitch":45,"velocity":128,"startTime":53.7792955,"endTime":53.84540669375001,"instrument":7,"program":117,"isDrum":false},{"pitch":36,"velocity":128,"startTime":53.91262900000001,"endTime":53.978740193750006,"instrument":7,"program":117,"isDrum":false},{"pitch":45,"velocity":128,"startTime":53.91262900000001,"endTime":53.978740193750006,"instrument":7,"program":117,"isDrum":false},{"pitch":36,"velocity":128,"startTime":54.04596250000001,"endTime":54.112073693750006,"instrument":7,"program":117,"isDrum":false},{"pitch":45,"velocity":128,"startTime":54.04596250000001,"endTime":54.112073693750006,"instrument":7,"program":117,"isDrum":false},{"pitch":33,"velocity":128,"startTime":54.17929600000001,"endTime":54.31207394375001,"instrument":7,"program":117,"isDrum":false},{"pitch":40,"velocity":128,"startTime":54.17929600000001,"endTime":54.31207394375001,"instrument":7,"program":117,"isDrum":false},{"pitch":33,"velocity":128,"startTime":54.57929650000001,"endTime":54.64540769375001,"instrument":7,"program":117,"isDrum":false},{"pitch":40,"velocity":128,"startTime":54.57929650000001,"endTime":54.64540769375001,"instrument":7,"program":117,"isDrum":false},{"pitch":33,"velocity":128,"startTime":54.712630000000004,"endTime":54.77874119375001,"instrument":7,"program":117,"isDrum":false},{"pitch":40,"velocity":128,"startTime":54.712630000000004,"endTime":54.77874119375001,"instrument":7,"program":117,"isDrum":false},{"pitch":33,"velocity":128,"startTime":54.84596350000001,"endTime":54.91207469375001,"instrument":7,"program":117,"isDrum":false},{"pitch":40,"velocity":128,"startTime":54.84596350000001,"endTime":54.91207469375001,"instrument":7,"program":117,"isDrum":false},{"pitch":33,"velocity":128,"startTime":54.97929700000001,"endTime":55.11207494375001,"instrument":7,"program":117,"isDrum":false},{"pitch":40,"velocity":128,"startTime":54.97929700000001,"endTime":55.11207494375001,"instrument":7,"program":117,"isDrum":false},{"pitch":33,"velocity":128,"startTime":55.37929750000001,"endTime":55.44540869375001,"instrument":7,"program":117,"isDrum":false},{"pitch":40,"velocity":128,"startTime":55.37929750000001,"endTime":55.44540869375001,"instrument":7,"program":117,"isDrum":false},{"pitch":33,"velocity":128,"startTime":55.512631000000006,"endTime":55.57874219375001,"instrument":7,"program":117,"isDrum":false},{"pitch":40,"velocity":128,"startTime":55.512631000000006,"endTime":55.57874219375001,"instrument":7,"program":117,"isDrum":false},{"pitch":33,"velocity":128,"startTime":55.645964500000005,"endTime":55.71207569375001,"instrument":7,"program":117,"isDrum":false},{"pitch":40,"velocity":128,"startTime":55.645964500000005,"endTime":55.71207569375001,"instrument":7,"program":117,"isDrum":false},{"pitch":33,"velocity":128,"startTime":55.77929800000001,"endTime":55.91207594375001,"instrument":7,"program":117,"isDrum":false},{"pitch":40,"velocity":128,"startTime":55.77929800000001,"endTime":55.91207594375001,"instrument":7,"program":117,"isDrum":false},{"pitch":33,"velocity":128,"startTime":56.04596500000001,"endTime":56.17874294375001,"instrument":7,"program":117,"isDrum":false},{"pitch":40,"velocity":128,"startTime":56.04596500000001,"endTime":56.17874294375001,"instrument":7,"program":117,"isDrum":false},{"pitch":33,"velocity":128,"startTime":56.31263200000001,"endTime":56.44540994375001,"instrument":7,"program":117,"isDrum":false},{"pitch":40,"velocity":128,"startTime":56.31263200000001,"endTime":56.44540994375001,"instrument":7,"program":117,"isDrum":false},{"pitch":33,"velocity":128,"startTime":56.579299000000006,"endTime":56.712076943750006,"instrument":7,"program":117,"isDrum":false},{"pitch":40,"velocity":128,"startTime":56.579299000000006,"endTime":56.712076943750006,"instrument":7,"program":117,"isDrum":false},{"pitch":33,"velocity":128,"startTime":56.97929950000001,"endTime":57.04541069375001,"instrument":7,"program":117,"isDrum":false},{"pitch":40,"velocity":128,"startTime":56.97929950000001,"endTime":57.04541069375001,"instrument":7,"program":117,"isDrum":false},{"pitch":33,"velocity":128,"startTime":57.11263300000001,"endTime":57.178744193750006,"instrument":7,"program":117,"isDrum":false},{"pitch":40,"velocity":128,"startTime":57.11263300000001,"endTime":57.178744193750006,"instrument":7,"program":117,"isDrum":false},{"pitch":33,"velocity":128,"startTime":57.24596650000001,"endTime":57.31207769375001,"instrument":7,"program":117,"isDrum":false},{"pitch":40,"velocity":128,"startTime":57.24596650000001,"endTime":57.31207769375001,"instrument":7,"program":117,"isDrum":false},{"pitch":33,"velocity":128,"startTime":57.37930000000001,"endTime":57.51207794375001,"instrument":7,"program":117,"isDrum":false},{"pitch":40,"velocity":128,"startTime":57.37930000000001,"endTime":57.51207794375001,"instrument":7,"program":117,"isDrum":false},{"pitch":33,"velocity":128,"startTime":57.779300500000005,"endTime":57.84541169375001,"instrument":7,"program":117,"isDrum":false},{"pitch":40,"velocity":128,"startTime":57.779300500000005,"endTime":57.84541169375001,"instrument":7,"program":117,"isDrum":false},{"pitch":33,"velocity":128,"startTime":57.91263400000001,"endTime":57.97874519375001,"instrument":7,"program":117,"isDrum":false},{"pitch":40,"velocity":128,"startTime":57.91263400000001,"endTime":57.97874519375001,"instrument":7,"program":117,"isDrum":false},{"pitch":33,"velocity":128,"startTime":58.0459675,"endTime":58.11207869375001,"instrument":7,"program":117,"isDrum":false},{"pitch":40,"velocity":128,"startTime":58.0459675,"endTime":58.11207869375001,"instrument":7,"program":117,"isDrum":false},{"pitch":33,"velocity":128,"startTime":58.17930100000001,"endTime":58.31207894375001,"instrument":7,"program":117,"isDrum":false},{"pitch":40,"velocity":128,"startTime":58.17930100000001,"endTime":58.31207894375001,"instrument":7,"program":117,"isDrum":false},{"pitch":33,"velocity":128,"startTime":58.57930150000001,"endTime":58.64541269375,"instrument":7,"program":117,"isDrum":false},{"pitch":40,"velocity":128,"startTime":58.57930150000001,"endTime":58.64541269375,"instrument":7,"program":117,"isDrum":false},{"pitch":33,"velocity":128,"startTime":58.712635000000006,"endTime":58.77874619375001,"instrument":7,"program":117,"isDrum":false},{"pitch":40,"velocity":128,"startTime":58.712635000000006,"endTime":58.77874619375001,"instrument":7,"program":117,"isDrum":false},{"pitch":33,"velocity":128,"startTime":58.84596850000001,"endTime":58.91207969375001,"instrument":7,"program":117,"isDrum":false},{"pitch":40,"velocity":128,"startTime":58.84596850000001,"endTime":58.91207969375001,"instrument":7,"program":117,"isDrum":false},{"pitch":33,"velocity":128,"startTime":58.979302000000004,"endTime":59.112079943750004,"instrument":7,"program":117,"isDrum":false},{"pitch":40,"velocity":128,"startTime":58.979302000000004,"endTime":59.112079943750004,"instrument":7,"program":117,"isDrum":false},{"pitch":33,"velocity":128,"startTime":59.24596900000001,"endTime":59.37874694375001,"instrument":7,"program":117,"isDrum":false},{"pitch":40,"velocity":128,"startTime":59.24596900000001,"endTime":59.37874694375001,"instrument":7,"program":117,"isDrum":false},{"pitch":33,"velocity":128,"startTime":59.51263600000001,"endTime":59.64541394375001,"instrument":7,"program":117,"isDrum":false},{"pitch":40,"velocity":128,"startTime":59.51263600000001,"endTime":59.64541394375001,"instrument":7,"program":117,"isDrum":false},{"pitch":33,"velocity":128,"startTime":59.779303000000006,"endTime":59.91208094375001,"instrument":7,"program":117,"isDrum":false},{"pitch":40,"velocity":128,"startTime":59.779303000000006,"endTime":59.91208094375001,"instrument":7,"program":117,"isDrum":false},{"pitch":33,"velocity":128,"startTime":60.1793035,"endTime":60.24541469375001,"instrument":7,"program":117,"isDrum":false},{"pitch":40,"velocity":128,"startTime":60.1793035,"endTime":60.24541469375001,"instrument":7,"program":117,"isDrum":false},{"pitch":33,"velocity":128,"startTime":60.31263700000001,"endTime":60.37874819375001,"instrument":7,"program":117,"isDrum":false},{"pitch":40,"velocity":128,"startTime":60.31263700000001,"endTime":60.37874819375001,"instrument":7,"program":117,"isDrum":false},{"pitch":33,"velocity":128,"startTime":60.44597050000001,"endTime":60.512081693750005,"instrument":7,"program":117,"isDrum":false},{"pitch":40,"velocity":128,"startTime":60.44597050000001,"endTime":60.512081693750005,"instrument":7,"program":117,"isDrum":false},{"pitch":33,"velocity":128,"startTime":60.57930400000001,"endTime":60.71208194375001,"instrument":7,"program":117,"isDrum":false},{"pitch":40,"velocity":128,"startTime":60.57930400000001,"endTime":60.71208194375001,"instrument":7,"program":117,"isDrum":false},{"pitch":33,"velocity":128,"startTime":60.97930450000001,"endTime":61.04541569375001,"instrument":7,"program":117,"isDrum":false},{"pitch":40,"velocity":128,"startTime":60.97930450000001,"endTime":61.04541569375001,"instrument":7,"program":117,"isDrum":false},{"pitch":33,"velocity":128,"startTime":61.112638000000004,"endTime":61.17874919375001,"instrument":7,"program":117,"isDrum":false},{"pitch":40,"velocity":128,"startTime":61.112638000000004,"endTime":61.17874919375001,"instrument":7,"program":117,"isDrum":false},{"pitch":33,"velocity":128,"startTime":61.24597150000001,"endTime":61.31208269375001,"instrument":7,"program":117,"isDrum":false},{"pitch":40,"velocity":128,"startTime":61.24597150000001,"endTime":61.31208269375001,"instrument":7,"program":117,"isDrum":false},{"pitch":33,"velocity":128,"startTime":61.37930500000001,"endTime":61.51208294375001,"instrument":7,"program":117,"isDrum":false},{"pitch":40,"velocity":128,"startTime":61.37930500000001,"endTime":61.51208294375001,"instrument":7,"program":117,"isDrum":false},{"pitch":33,"velocity":128,"startTime":61.77930550000001,"endTime":61.84541669375001,"instrument":7,"program":117,"isDrum":false},{"pitch":40,"velocity":128,"startTime":61.77930550000001,"endTime":61.84541669375001,"instrument":7,"program":117,"isDrum":false},{"pitch":33,"velocity":128,"startTime":61.912639000000006,"endTime":61.97875019375001,"instrument":7,"program":117,"isDrum":false},{"pitch":40,"velocity":128,"startTime":61.912639000000006,"endTime":61.97875019375001,"instrument":7,"program":117,"isDrum":false},{"pitch":33,"velocity":128,"startTime":62.045972500000005,"endTime":62.11208369375001,"instrument":7,"program":117,"isDrum":false},{"pitch":40,"velocity":128,"startTime":62.045972500000005,"endTime":62.11208369375001,"instrument":7,"program":117,"isDrum":false},{"pitch":33,"velocity":128,"startTime":62.17930600000001,"endTime":62.31208394375001,"instrument":7,"program":117,"isDrum":false},{"pitch":40,"velocity":128,"startTime":62.17930600000001,"endTime":62.31208394375001,"instrument":7,"program":117,"isDrum":false},{"pitch":33,"velocity":128,"startTime":62.44597300000001,"endTime":62.57875094375001,"instrument":7,"program":117,"isDrum":false},{"pitch":40,"velocity":128,"startTime":62.44597300000001,"endTime":62.57875094375001,"instrument":7,"program":117,"isDrum":false},{"pitch":33,"velocity":128,"startTime":62.71264000000001,"endTime":62.84541794375001,"instrument":7,"program":117,"isDrum":false},{"pitch":40,"velocity":128,"startTime":62.71264000000001,"endTime":62.84541794375001,"instrument":7,"program":117,"isDrum":false},{"pitch":33,"velocity":128,"startTime":62.979307000000006,"endTime":63.112084943750006,"instrument":7,"program":117,"isDrum":false},{"pitch":40,"velocity":128,"startTime":62.979307000000006,"endTime":63.112084943750006,"instrument":7,"program":117,"isDrum":false},{"pitch":33,"velocity":128,"startTime":63.37930750000001,"endTime":63.44541869375001,"instrument":7,"program":117,"isDrum":false},{"pitch":40,"velocity":128,"startTime":63.37930750000001,"endTime":63.44541869375001,"instrument":7,"program":117,"isDrum":false},{"pitch":33,"velocity":128,"startTime":63.51264100000001,"endTime":63.578752193750006,"instrument":7,"program":117,"isDrum":false},{"pitch":40,"velocity":128,"startTime":63.51264100000001,"endTime":63.578752193750006,"instrument":7,"program":117,"isDrum":false},{"pitch":33,"velocity":128,"startTime":63.64597450000001,"endTime":63.71208569375001,"instrument":7,"program":117,"isDrum":false},{"pitch":40,"velocity":128,"startTime":63.64597450000001,"endTime":63.71208569375001,"instrument":7,"program":117,"isDrum":false},{"pitch":33,"velocity":128,"startTime":63.77930800000001,"endTime":63.91208594375001,"instrument":7,"program":117,"isDrum":false},{"pitch":40,"velocity":128,"startTime":63.77930800000001,"endTime":63.91208594375001,"instrument":7,"program":117,"isDrum":false},{"pitch":33,"velocity":128,"startTime":64.1793085,"endTime":64.24541969375001,"instrument":7,"program":117,"isDrum":false},{"pitch":40,"velocity":128,"startTime":64.1793085,"endTime":64.24541969375001,"instrument":7,"program":117,"isDrum":false},{"pitch":33,"velocity":128,"startTime":64.31264200000001,"endTime":64.37875319375001,"instrument":7,"program":117,"isDrum":false},{"pitch":40,"velocity":128,"startTime":64.31264200000001,"endTime":64.37875319375001,"instrument":7,"program":117,"isDrum":false},{"pitch":33,"velocity":128,"startTime":64.4459755,"endTime":64.51208669375,"instrument":7,"program":117,"isDrum":false},{"pitch":40,"velocity":128,"startTime":64.4459755,"endTime":64.51208669375,"instrument":7,"program":117,"isDrum":false},{"pitch":33,"velocity":128,"startTime":64.57930900000001,"endTime":64.71208694375001,"instrument":7,"program":117,"isDrum":false},{"pitch":40,"velocity":128,"startTime":64.57930900000001,"endTime":64.71208694375001,"instrument":7,"program":117,"isDrum":false},{"pitch":33,"velocity":128,"startTime":64.9793095,"endTime":65.04542069375,"instrument":7,"program":117,"isDrum":false},{"pitch":40,"velocity":128,"startTime":64.9793095,"endTime":65.04542069375,"instrument":7,"program":117,"isDrum":false},{"pitch":33,"velocity":128,"startTime":65.112643,"endTime":65.17875419375001,"instrument":7,"program":117,"isDrum":false},{"pitch":40,"velocity":128,"startTime":65.112643,"endTime":65.17875419375001,"instrument":7,"program":117,"isDrum":false},{"pitch":33,"velocity":128,"startTime":65.24597650000001,"endTime":65.31208769375002,"instrument":7,"program":117,"isDrum":false},{"pitch":40,"velocity":128,"startTime":65.24597650000001,"endTime":65.31208769375002,"instrument":7,"program":117,"isDrum":false},{"pitch":33,"velocity":128,"startTime":65.37931,"endTime":65.51208794375,"instrument":7,"program":117,"isDrum":false},{"pitch":40,"velocity":128,"startTime":65.37931,"endTime":65.51208794375,"instrument":7,"program":117,"isDrum":false},{"pitch":33,"velocity":128,"startTime":65.64597700000002,"endTime":65.77875494375002,"instrument":7,"program":117,"isDrum":false},{"pitch":40,"velocity":128,"startTime":65.64597700000002,"endTime":65.77875494375002,"instrument":7,"program":117,"isDrum":false},{"pitch":33,"velocity":128,"startTime":65.912644,"endTime":66.04542194375,"instrument":7,"program":117,"isDrum":false},{"pitch":40,"velocity":128,"startTime":65.912644,"endTime":66.04542194375,"instrument":7,"program":117,"isDrum":false},{"pitch":33,"velocity":128,"startTime":66.17931100000001,"endTime":66.31208894375001,"instrument":7,"program":117,"isDrum":false},{"pitch":40,"velocity":128,"startTime":66.17931100000001,"endTime":66.31208894375001,"instrument":7,"program":117,"isDrum":false},{"pitch":62,"velocity":128,"startTime":17.068953,"endTime":18.619598414583336,"instrument":8,"program":52,"isDrum":false},{"pitch":45,"velocity":128,"startTime":17.068953,"endTime":18.102357414583338,"instrument":8,"program":52,"isDrum":false},{"pitch":53,"velocity":128,"startTime":17.068953,"endTime":18.102357414583338,"instrument":8,"program":52,"isDrum":false},{"pitch":57,"velocity":128,"startTime":17.068953,"endTime":18.102357414583338,"instrument":8,"program":52,"isDrum":false},{"pitch":50,"velocity":128,"startTime":17.844814500000002,"endTime":18.619598414583336,"instrument":8,"program":52,"isDrum":false},{"pitch":58,"velocity":128,"startTime":17.844814500000002,"endTime":18.619598414583336,"instrument":8,"program":52,"isDrum":false},{"pitch":65,"velocity":128,"startTime":17.844814500000002,"endTime":18.619598414583336,"instrument":8,"program":52,"isDrum":false},{"pitch":57,"velocity":128,"startTime":18.620676000000003,"endTime":20.171321414583335,"instrument":8,"program":52,"isDrum":false},{"pitch":48,"velocity":128,"startTime":18.620676000000003,"endTime":19.395459914583338,"instrument":8,"program":52,"isDrum":false},{"pitch":60,"velocity":128,"startTime":18.620676000000003,"endTime":19.395459914583338,"instrument":8,"program":52,"isDrum":false},{"pitch":64,"velocity":128,"startTime":18.620676000000003,"endTime":19.395459914583338,"instrument":8,"program":52,"isDrum":false},{"pitch":53,"velocity":128,"startTime":19.3965375,"endTime":20.947182914583337,"instrument":8,"program":52,"isDrum":false},{"pitch":45,"velocity":128,"startTime":19.3965375,"endTime":20.171321414583335,"instrument":8,"program":52,"isDrum":false},{"pitch":62,"velocity":128,"startTime":19.3965375,"endTime":20.171321414583335,"instrument":8,"program":52,"isDrum":false},{"pitch":46,"velocity":128,"startTime":20.172399000000002,"endTime":20.947182914583337,"instrument":8,"program":52,"isDrum":false},{"pitch":58,"velocity":128,"startTime":20.172399000000002,"endTime":20.947182914583337,"instrument":8,"program":52,"isDrum":false},{"pitch":62,"velocity":128,"startTime":20.172399000000002,"endTime":20.947182914583337,"instrument":8,"program":52,"isDrum":false},{"pitch":57,"velocity":128,"startTime":20.948260500000004,"endTime":21.723044414583338,"instrument":8,"program":52,"isDrum":false},{"pitch":65,"velocity":128,"startTime":20.948260500000004,"endTime":21.723044414583338,"instrument":8,"program":52,"isDrum":false},{"pitch":48,"velocity":128,"startTime":20.948260500000004,"endTime":22.498905914583336,"instrument":8,"program":52,"isDrum":false},{"pitch":60,"velocity":128,"startTime":20.948260500000004,"endTime":22.498905914583336,"instrument":8,"program":52,"isDrum":false},{"pitch":55,"velocity":128,"startTime":21.724122,"endTime":22.498905914583336,"instrument":8,"program":52,"isDrum":false},{"pitch":64,"velocity":128,"startTime":21.724122,"endTime":22.498905914583336,"instrument":8,"program":52,"isDrum":false},{"pitch":62,"velocity":128,"startTime":22.499983500000003,"endTime":27.929936414583338,"instrument":8,"program":52,"isDrum":false},{"pitch":45,"velocity":128,"startTime":22.499983500000003,"endTime":24.05062891458334,"instrument":8,"program":52,"isDrum":false},{"pitch":53,"velocity":128,"startTime":22.499983500000003,"endTime":24.05062891458334,"instrument":8,"program":52,"isDrum":false},{"pitch":57,"velocity":128,"startTime":22.499983500000003,"endTime":24.05062891458334,"instrument":8,"program":52,"isDrum":false},{"pitch":67,"velocity":128,"startTime":24.0517065,"endTime":25.602351914583338,"instrument":8,"program":52,"isDrum":false},{"pitch":50,"velocity":128,"startTime":24.0517065,"endTime":24.826490414583336,"instrument":8,"program":52,"isDrum":false},{"pitch":58,"velocity":128,"startTime":24.0517065,"endTime":24.826490414583336,"instrument":8,"program":52,"isDrum":false},{"pitch":55,"velocity":128,"startTime":24.827568000000003,"endTime":25.602351914583338,"instrument":8,"program":52,"isDrum":false},{"pitch":70,"velocity":128,"startTime":24.827568000000003,"endTime":25.602351914583338,"instrument":8,"program":52,"isDrum":false},{"pitch":65,"velocity":128,"startTime":25.603429500000004,"endTime":27.929936414583338,"instrument":8,"program":52,"isDrum":false},{"pitch":53,"velocity":128,"startTime":25.603429500000004,"endTime":26.37821341458334,"instrument":8,"program":52,"isDrum":false},{"pitch":69,"velocity":128,"startTime":25.603429500000004,"endTime":26.37821341458334,"instrument":8,"program":52,"isDrum":false},{"pitch":50,"velocity":128,"startTime":26.379291000000002,"endTime":27.154074914583337,"instrument":8,"program":52,"isDrum":false},{"pitch":58,"velocity":128,"startTime":26.379291000000002,"endTime":27.154074914583337,"instrument":8,"program":52,"isDrum":false},{"pitch":53,"velocity":128,"startTime":27.155152500000003,"endTime":27.929936414583338,"instrument":8,"program":52,"isDrum":false},{"pitch":69,"velocity":128,"startTime":27.155152500000003,"endTime":27.929936414583338,"instrument":8,"program":52,"isDrum":false}],"totalTime":66.94542306875,"sourceInfo":{"encodingType":"MIDI","parser":"TONEJS_MIDI_CONVERT"}}
